<svg width="618" height="318" fill="none" xmlns="http://www.w3.org/2000/svg"><path opacity=".1" d="M618 301.669c0 18.614-138.333 16.232-308.992 16.232C138.349 317.901 0 320.283 0 301.669 0 283.054 138.349 268 309.008 268S618 283.211 618 301.669z" fill="#fff"/><path d="M492.398 290.041H124.555l.017-283.487h367.826V290.04z" fill="url(#paint0_linear)"/><path d="M563.559 82.375l-75.682-71.059 4.519-4.762 75.63 71.058-4.467 4.763zm-510.133 0l75.665-71.059-4.519-4.762-75.63 71.058 4.484 4.763z" fill="#FFC130"/><g filter="url(#filter0_d)"><path d="M516.94 100.8H100.01l24.561-94.246h367.825L516.94 100.8z" fill="url(#paint1_linear)"/></g><defs><linearGradient id="paint0_linear" x1="247.169" y1="-22.695" x2="468.069" y2="110.144" gradientUnits="userSpaceOnUse"><stop stop-color="#FF9B00"/><stop offset="1" stop-color="#FFC738"/></linearGradient><linearGradient id="paint1_linear" x1="308.475" y1="6.554" x2="308.475" y2="100.8" gradientUnits="userSpaceOnUse"><stop stop-color="#FFAD2F"/><stop offset=".469" stop-color="#FFC12F"/><stop offset="1" stop-color="#FFC94B"/></linearGradient><filter id="filter0_d" x="90.01" y=".554" width="436.93" height="114.246" filterUnits="userSpaceOnUse" color-interpolation-filters="sRGB"><feFlood flood-opacity="0" result="BackgroundImageFix"/><feColorMatrix in="SourceAlpha" values="0 0 0 0 0 0 0 0 0 0 0 0 0 0 0 0 0 0 127 0"/><feOffset dy="4"/><feGaussianBlur stdDeviation="5"/><feColorMatrix values="0 0 0 0 0 0 0 0 0 0 0 0 0 0 0 0 0 0 0.36 0"/><feBlend in2="BackgroundImageFix" result="effect1_dropShadow"/><feBlend in="SourceGraphic" in2="effect1_dropShadow" result="shape"/></filter></defs></svg>