<svg width="165" height="196" fill="none" xmlns="http://www.w3.org/2000/svg"><g filter="url(#filter0_dii)"><path d="M124.403.035l.052-.035H9.188a5 5 0 00-5 5v182.832h156.057V35.877L124.403.035z" fill="#F1F2F2"/><path d="M124.403.035l.052-.035H9.188a5 5 0 00-5 5v182.832h156.057V35.877L124.403.035z" fill="url(#paint0_linear)"/><path d="M132.381 14.48H13.174v2.05H132.38v-2.05zm19.329 18.477H13.174v2.05H151.71v-2.05zm0 18.477H13.174v2.051H151.71v-2.05zm0 18.46H13.174v2.05H151.71v-2.05zm0 18.477H13.174v2.052H151.71V88.37zm0 18.478H13.174v2.051H151.71v-2.051zm0 18.46H13.174v2.051H151.71v-2.051z" fill="#E6E7E8"/><path d="M160.26 35.895H129.4a5 5 0 01-5-5V.035l35.86 35.86z" fill="#fff"/></g><path d="M69.665 66.73a21.953 21.953 0 11-21.953-21.953A21.937 21.937 0 0169.665 66.73z" fill="#fff"/><path d="M64.016 66.732a16.286 16.286 0 11-16.287-16.27 16.305 16.305 0 0116.287 16.27z" fill="#414042"/><path d="M48.37 55.502a5.563 5.563 0 11-11.124.035 5.563 5.563 0 0111.125-.035zm-8.374 11.594a2.764 2.764 0 11-5.528 0 2.764 2.764 0 015.528 0zm7.559 7.474a4.224 4.224 0 11-4.206-4.207 4.206 4.206 0 014.206 4.207zm14.235-5.18c-4.868.748-5.476 1.356-6.241 6.223-.747-4.867-1.356-5.475-6.223-6.223 4.867-.765 5.476-1.373 6.223-6.24.765 4.867 1.373 5.475 6.24 6.24zm78.36-2.66a21.956 21.956 0 01-26.237 21.532 21.956 21.956 0 01-16-29.933 21.956 21.956 0 0135.807-7.122 21.954 21.954 0 016.43 15.524z" fill="#fff"/><path d="M134.463 66.73a16.268 16.268 0 01-19.443 15.958 16.274 16.274 0 01-12.784-12.783 16.272 16.272 0 0115.958-19.444 16.287 16.287 0 0116.269 16.27z" fill="#414042"/><path d="M118.822 55.502a5.565 5.565 0 01-6.643 5.473 5.563 5.563 0 116.643-5.473zm-8.361 11.594a2.762 2.762 0 01-3.303 2.71 2.766 2.766 0 01-2.014-3.768 2.76 2.76 0 012.553-1.706 2.767 2.767 0 012.764 2.764zm7.544 7.474a4.209 4.209 0 01-5.027 4.126 4.206 4.206 0 115.027-4.126zm14.234-5.18c-4.85.747-5.476 1.356-6.223 6.223-.765-4.867-1.373-5.476-6.223-6.223 4.85-.765 5.458-1.373 6.223-6.24.747 4.867 1.373 5.475 6.223 6.24z" fill="#fff"/><path d="M111.732 128a3.35 3.35 0 01-2.312-.933 3.11 3.11 0 01-.956-2.233c0-6.507-2.682-12.748-7.458-17.35-4.775-4.601-11.252-7.186-18.006-7.186s-13.23 2.585-18.006 7.186c-4.776 4.602-7.458 10.843-7.458 17.35 0 .836-.345 1.636-.958 2.227a3.329 3.329 0 01-2.31.922 3.33 3.33 0 01-2.31-.922 3.092 3.092 0 01-.958-2.227c0-8.177 3.371-16.02 9.373-21.803C66.373 97.249 74.513 94 83 94c8.487 0 16.626 3.249 22.627 9.031 6.002 5.783 9.373 13.626 9.373 21.803a3.11 3.11 0 01-.956 2.233 3.348 3.348 0 01-2.312.933z" fill="#414042"/><defs><linearGradient id="paint0_linear" x1="4.188" y1="-34.238" x2="88.358" y2="148.32" gradientUnits="userSpaceOnUse"><stop stop-color="#B9B9B9"/><stop offset="1" stop-color="#EFEFEF"/></linearGradient><filter id="filter0_dii" x=".188" y="0" width="164.072" height="195.832" filterUnits="userSpaceOnUse" color-interpolation-filters="sRGB"><feFlood flood-opacity="0" result="BackgroundImageFix"/><feColorMatrix in="SourceAlpha" values="0 0 0 0 0 0 0 0 0 0 0 0 0 0 0 0 0 0 127 0"/><feOffset dy="4"/><feGaussianBlur stdDeviation="2"/><feColorMatrix values="0 0 0 0 0 0 0 0 0 0 0 0 0 0 0 0 0 0 0.25 0"/><feBlend in2="BackgroundImageFix" result="effect1_dropShadow"/><feBlend in="SourceGraphic" in2="effect1_dropShadow" result="shape"/><feColorMatrix in="SourceAlpha" values="0 0 0 0 0 0 0 0 0 0 0 0 0 0 0 0 0 0 127 0" result="hardAlpha"/><feOffset dx="-1" dy="1"/><feGaussianBlur stdDeviation="1"/><feComposite in2="hardAlpha" operator="arithmetic" k2="-1" k3="1"/><feColorMatrix values="0 0 0 0 0.470833 0 0 0 0 0.470833 0 0 0 0 0.470833 0 0 0 0.5 0"/><feBlend in2="shape" result="effect2_innerShadow"/><feColorMatrix in="SourceAlpha" values="0 0 0 0 0 0 0 0 0 0 0 0 0 0 0 0 0 0 127 0" result="hardAlpha"/><feOffset dx="3" dy="3"/><feGaussianBlur stdDeviation="2.5"/><feComposite in2="hardAlpha" operator="arithmetic" k2="-1" k3="1"/><feColorMatrix values="0 0 0 0 1 0 0 0 0 1 0 0 0 0 1 0 0 0 1 0"/><feBlend in2="effect2_innerShadow" result="effect3_innerShadow"/></filter></defs></svg>