<svg width="618" height="446" fill="none" xmlns="http://www.w3.org/2000/svg"><path opacity=".1" d="M618 429.669c0 18.614-138.333 16.232-308.992 16.232C138.349 445.901 0 448.283 0 429.669 0 411.054 138.349 396 309.008 396S618 411.211 618 429.669z" fill="#fff"/><g filter="url(#filter0_dii)"><path d="M351.403.035l.052-.035H236.188a5 5 0 00-5 5v182.832h156.057V35.877L351.403.035z" fill="#F1F2F2"/><path d="M351.403.035l.052-.035H236.188a5 5 0 00-5 5v182.832h156.057V35.877L351.403.035z" fill="url(#paint0_linear)"/><path d="M359.381 14.48H240.174v2.05h119.207v-2.05zm19.329 18.477H240.174v2.05H378.71v-2.05zm0 18.477H240.174v2.051H378.71v-2.05zm0 18.46H240.174v2.05H378.71v-2.05zm0 18.477H240.174v2.052H378.71V88.37zm0 18.478H240.174v2.051H378.71v-2.051zm0 18.46H240.174v2.051H378.71v-2.051z" fill="#E6E7E8"/><path d="M387.26 35.895H356.4a5 5 0 01-5-5V.035l35.86 35.86z" fill="#fff"/></g><path d="M296.665 66.73a21.948 21.948 0 01-13.552 20.283 21.954 21.954 0 11-8.401-42.236 21.941 21.941 0 0120.287 13.55 21.931 21.931 0 011.666 8.404z" fill="#fff"/><path d="M291.016 66.732a16.288 16.288 0 11-16.287-16.27 16.304 16.304 0 0116.287 16.27z" fill="#414042"/><path d="M275.371 55.502a5.567 5.567 0 01-3.422 5.151 5.561 5.561 0 113.422-5.151zm-8.375 11.594a2.76 2.76 0 01-1.71 2.555 2.763 2.763 0 111.71-2.555zm7.559 7.474a4.225 4.225 0 01-5.043 4.16 4.22 4.22 0 01-3.324-3.323 4.218 4.218 0 011.808-4.339 4.223 4.223 0 012.353-.705 4.207 4.207 0 014.206 4.207zm14.234-5.18c-4.867.748-5.475 1.356-6.24 6.223-.747-4.867-1.356-5.475-6.223-6.223 4.867-.765 5.476-1.373 6.223-6.24.765 4.867 1.373 5.475 6.24 6.24zm78.361-2.66a21.956 21.956 0 01-26.237 21.532 21.956 21.956 0 01-16-29.933 21.958 21.958 0 0120.283-13.552A21.955 21.955 0 01367.15 66.73z" fill="#fff"/><path d="M361.463 66.73a16.268 16.268 0 01-19.443 15.958 16.274 16.274 0 01-12.784-12.783 16.272 16.272 0 0115.958-19.444 16.287 16.287 0 0116.269 16.27z" fill="#414042"/><path d="M345.822 55.502a5.565 5.565 0 01-6.643 5.473 5.563 5.563 0 116.643-5.473zm-8.361 11.594a2.762 2.762 0 01-3.303 2.71 2.766 2.766 0 01-2.014-3.768 2.76 2.76 0 012.553-1.706 2.767 2.767 0 012.764 2.764zm7.544 7.474a4.209 4.209 0 01-5.027 4.126 4.206 4.206 0 115.027-4.126zm14.234-5.18c-4.85.747-5.476 1.356-6.223 6.223-.765-4.867-1.373-5.476-6.223-6.223 4.85-.765 5.458-1.373 6.223-6.24.747 4.867 1.373 5.475 6.223 6.24z" fill="#fff"/><path d="M338.732 128a3.35 3.35 0 01-2.312-.933 3.11 3.11 0 01-.956-2.233c0-6.507-2.682-12.748-7.458-17.35-4.775-4.601-11.252-7.186-18.006-7.186s-13.231 2.585-18.006 7.186c-4.776 4.602-7.458 10.843-7.458 17.35 0 .836-.345 1.636-.958 2.227a3.327 3.327 0 01-2.31.922 3.33 3.33 0 01-2.311-.922 3.091 3.091 0 01-.957-2.227c0-8.177 3.371-16.02 9.373-21.803C293.374 97.249 301.513 94 310 94c8.487 0 16.626 3.249 22.627 9.031 6.002 5.783 9.373 13.626 9.373 21.803a3.11 3.11 0 01-.956 2.233 3.348 3.348 0 01-2.312.933z" fill="#414042"/><path d="M492.398 418.041H124.555l.017-283.487h367.826v283.487z" fill="url(#paint1_linear)"/><path d="M563.559 210.375l-75.682-71.059 4.519-4.762 75.63 71.058-4.467 4.763zm-510.133 0l75.665-71.059-4.519-4.762-75.63 71.058 4.484 4.763z" fill="#FFC130"/><g filter="url(#filter1_d)"><path d="M516.94 228.8H100.01l24.561-94.246h367.825L516.94 228.8z" fill="url(#paint2_linear)"/></g><path d="M191 292h29.16v5.22h-23.4v12.96h20.94v5.22h-20.94v13.38h24.12V334H191v-42zm66.319 42l-8.34-13.2c-.96.08-1.74.12-2.34.12h-10.68V334h-5.76v-42h16.44c5.32 0 9.42 1.24 12.3 3.72 2.92 2.44 4.38 5.92 4.38 10.44 0 3.4-.8 6.26-2.4 8.58-1.56 2.32-3.82 4-6.78 5.04l9.78 14.22h-6.6zm-10.68-18.3c3.6 0 6.36-.78 8.28-2.34 1.92-1.6 2.88-3.94 2.88-7.02 0-3-.96-5.26-2.88-6.78-1.92-1.56-4.68-2.34-8.28-2.34h-10.68v18.48h10.68zm54.04 18.3l-8.34-13.2c-.96.08-1.74.12-2.34.12h-10.68V334h-5.76v-42h16.44c5.32 0 9.42 1.24 12.3 3.72 2.92 2.44 4.38 5.92 4.38 10.44 0 3.4-.8 6.26-2.4 8.58-1.56 2.32-3.82 4-6.78 5.04l9.78 14.22h-6.6zm-10.68-18.3c3.6 0 6.36-.78 8.28-2.34 1.92-1.6 2.88-3.94 2.88-7.02 0-3-.96-5.26-2.88-6.78-1.92-1.56-4.68-2.34-8.28-2.34h-10.68v18.48h10.68zm45.279-24.06c4.04 0 7.74.94 11.1 2.82 3.4 1.88 6.08 4.46 8.04 7.74 1.96 3.24 2.94 6.82 2.94 10.74s-.98 7.54-2.94 10.86c-1.96 3.28-4.64 5.88-8.04 7.8-3.36 1.88-7.06 2.82-11.1 2.82s-7.76-.94-11.16-2.82c-3.36-1.92-6.02-4.52-7.98-7.8-1.96-3.32-2.94-6.94-2.94-10.86 0-3.92.98-7.5 2.94-10.74 1.96-3.28 4.62-5.86 7.98-7.74 3.36-1.88 7.08-2.82 11.16-2.82zm.06 5.16c-2.92 0-5.64.72-8.16 2.16-2.48 1.44-4.46 3.4-5.94 5.88-1.48 2.44-2.22 5.14-2.22 8.1s.74 5.68 2.22 8.16c1.48 2.48 3.46 4.46 5.94 5.94 2.52 1.44 5.24 2.16 8.16 2.16s5.6-.72 8.04-2.16c2.48-1.48 4.44-3.46 5.88-5.94 1.48-2.48 2.22-5.2 2.22-8.16s-.74-5.66-2.22-8.1c-1.44-2.48-3.4-4.44-5.88-5.88-2.44-1.44-5.12-2.16-8.04-2.16zm57.391 37.2l-8.34-13.2c-.96.08-1.74.12-2.34.12h-10.68V334h-5.76v-42h16.44c5.32 0 9.42 1.24 12.3 3.72 2.92 2.44 4.38 5.92 4.38 10.44 0 3.4-.8 6.26-2.4 8.58-1.56 2.32-3.82 4-6.78 5.04l9.78 14.22h-6.6zm-10.68-18.3c3.6 0 6.36-.78 8.28-2.34 1.92-1.6 2.88-3.94 2.88-7.02 0-3-.96-5.26-2.88-6.78-1.92-1.56-4.68-2.34-8.28-2.34h-10.68v18.48h10.68zm40.823-23.1h5.4v10.26l-.9 18.24h-3.66l-.84-18.24V292.6zm2.7 35.04c.92 0 1.68.32 2.28.96.64.64.96 1.46.96 2.46s-.32 1.84-.96 2.52c-.6.64-1.36.96-2.28.96-.92 0-1.7-.32-2.34-.96-.64-.68-.96-1.52-.96-2.52s.32-1.82.96-2.46c.64-.64 1.42-.96 2.34-.96z" fill="#1C2845"/><defs><linearGradient id="paint0_linear" x1="231.188" y1="-34.238" x2="315.358" y2="148.32" gradientUnits="userSpaceOnUse"><stop stop-color="#B9B9B9"/><stop offset="1" stop-color="#EFEFEF"/></linearGradient><linearGradient id="paint1_linear" x1="247.169" y1="105.305" x2="468.069" y2="238.144" gradientUnits="userSpaceOnUse"><stop stop-color="#FF9B00"/><stop offset="1" stop-color="#FFC738"/></linearGradient><linearGradient id="paint2_linear" x1="308.475" y1="134.554" x2="308.475" y2="228.8" gradientUnits="userSpaceOnUse"><stop stop-color="#FFAD2F"/><stop offset=".469" stop-color="#FFC12F"/><stop offset="1" stop-color="#FFC94B"/></linearGradient><filter id="filter0_dii" x="227.188" y="0" width="164.072" height="195.832" filterUnits="userSpaceOnUse" color-interpolation-filters="sRGB"><feFlood flood-opacity="0" result="BackgroundImageFix"/><feColorMatrix in="SourceAlpha" values="0 0 0 0 0 0 0 0 0 0 0 0 0 0 0 0 0 0 127 0"/><feOffset dy="4"/><feGaussianBlur stdDeviation="2"/><feColorMatrix values="0 0 0 0 0 0 0 0 0 0 0 0 0 0 0 0 0 0 0.25 0"/><feBlend in2="BackgroundImageFix" result="effect1_dropShadow"/><feBlend in="SourceGraphic" in2="effect1_dropShadow" result="shape"/><feColorMatrix in="SourceAlpha" values="0 0 0 0 0 0 0 0 0 0 0 0 0 0 0 0 0 0 127 0" result="hardAlpha"/><feOffset dx="-1" dy="1"/><feGaussianBlur stdDeviation="1"/><feComposite in2="hardAlpha" operator="arithmetic" k2="-1" k3="1"/><feColorMatrix values="0 0 0 0 0.470833 0 0 0 0 0.470833 0 0 0 0 0.470833 0 0 0 0.5 0"/><feBlend in2="shape" result="effect2_innerShadow"/><feColorMatrix in="SourceAlpha" values="0 0 0 0 0 0 0 0 0 0 0 0 0 0 0 0 0 0 127 0" result="hardAlpha"/><feOffset dx="3" dy="3"/><feGaussianBlur stdDeviation="2.5"/><feComposite in2="hardAlpha" operator="arithmetic" k2="-1" k3="1"/><feColorMatrix values="0 0 0 0 1 0 0 0 0 1 0 0 0 0 1 0 0 0 1 0"/><feBlend in2="effect2_innerShadow" result="effect3_innerShadow"/></filter><filter id="filter1_d" x="90.01" y="128.554" width="436.93" height="114.246" filterUnits="userSpaceOnUse" color-interpolation-filters="sRGB"><feFlood flood-opacity="0" result="BackgroundImageFix"/><feColorMatrix in="SourceAlpha" values="0 0 0 0 0 0 0 0 0 0 0 0 0 0 0 0 0 0 127 0"/><feOffset dy="4"/><feGaussianBlur stdDeviation="5"/><feColorMatrix values="0 0 0 0 0 0 0 0 0 0 0 0 0 0 0 0 0 0 0.36 0"/><feBlend in2="BackgroundImageFix" result="effect1_dropShadow"/><feBlend in="SourceGraphic" in2="effect1_dropShadow" result="shape"/></filter></defs></svg>