<svg width="452" height="326" fill="none" xmlns="http://www.w3.org/2000/svg"><path d="M360.217 304.692H92.111l.013-206.621h268.093v206.621z" fill="url(#paint0_linear)"/><path d="M412.084 153.334l-55.162-51.792 3.294-3.471 55.124 51.791-3.256 3.472zm-371.815 0l55.149-51.792-3.294-3.471L37 149.862l3.269 3.472z" fill="#FFC130"/><g filter="url(#filter0_d)"><path d="M378.106 166.763H74.223l17.901-68.692h268.093l17.889 68.692z" fill="url(#paint1_linear)"/></g><path d="M143 220.68h19.44v3.48h-15.6v8.64h13.96v3.48h-13.96v8.92h16.08v3.48H143v-28zm44.213 28l-5.56-8.8c-.64.053-1.16.08-1.56.08h-7.12v8.72h-3.84v-28h10.96c3.546 0 6.28.826 8.2 2.48 1.946 1.626 2.92 3.946 2.92 6.96 0 2.266-.534 4.173-1.6 5.72-1.04 1.546-2.547 2.666-4.52 3.36l6.52 9.48h-4.4zm-7.12-12.2c2.4 0 4.24-.52 5.52-1.56 1.28-1.067 1.92-2.627 1.92-4.68 0-2-.64-3.507-1.92-4.52-1.28-1.04-3.12-1.56-5.52-1.56h-7.12v12.32h7.12zm36.026 12.2l-5.56-8.8c-.64.053-1.16.08-1.56.08h-7.12v8.72h-3.84v-28h10.96c3.547 0 6.28.826 8.2 2.48 1.947 1.626 2.92 3.946 2.92 6.96 0 2.266-.533 4.173-1.6 5.72-1.04 1.546-2.547 2.666-4.52 3.36l6.52 9.48h-4.4zm-7.12-12.2c2.4 0 4.24-.52 5.52-1.56 1.28-1.067 1.92-2.627 1.92-4.68 0-2-.64-3.507-1.92-4.52-1.28-1.04-3.12-1.56-5.52-1.56h-7.12v12.32h7.12zm30.186-16.04c2.694 0 5.16.626 7.4 1.88 2.267 1.253 4.054 2.973 5.36 5.16 1.307 2.16 1.96 4.546 1.96 7.16 0 2.613-.653 5.026-1.96 7.24-1.306 2.186-3.093 3.92-5.36 5.2-2.24 1.253-4.706 1.88-7.4 1.88-2.693 0-5.173-.627-7.44-1.88-2.24-1.28-4.013-3.014-5.32-5.2-1.306-2.214-1.96-4.627-1.96-7.24 0-2.614.654-5 1.96-7.16a14.118 14.118 0 015.32-5.16c2.24-1.254 4.72-1.88 7.44-1.88zm.04 3.44c-1.946 0-3.76.48-5.44 1.44a10.941 10.941 0 00-3.96 3.92c-.986 1.626-1.48 3.426-1.48 5.4 0 1.973.494 3.786 1.48 5.44a11.276 11.276 0 003.96 3.96c1.68.96 3.494 1.44 5.44 1.44 1.947 0 3.734-.48 5.36-1.44a10.941 10.941 0 003.92-3.96c.987-1.654 1.48-3.467 1.48-5.44 0-1.974-.493-3.774-1.48-5.4a10.622 10.622 0 00-3.92-3.92c-1.626-.96-3.413-1.44-5.36-1.44zm38.261 24.8l-5.56-8.8c-.64.053-1.16.08-1.56.08h-7.12v8.72h-3.84v-28h10.96c3.547 0 6.28.826 8.2 2.48 1.947 1.626 2.92 3.946 2.92 6.96 0 2.266-.533 4.173-1.6 5.72-1.04 1.546-2.546 2.666-4.52 3.36l6.52 9.48h-4.4zm-7.12-12.2c2.4 0 4.24-.52 5.52-1.56 1.28-1.067 1.92-2.627 1.92-4.68 0-2-.64-3.507-1.92-4.52-1.28-1.04-3.12-1.56-5.52-1.56h-7.12v12.32h7.12zm27.215-15.4h3.6v6.84l-.6 12.16h-2.44l-.56-12.16v-6.84zm1.8 23.36c.614 0 1.12.213 1.52.64.427.426.64.973.64 1.64 0 .666-.213 1.226-.64 1.68-.4.426-.906.64-1.52.64a2.126 2.126 0 01-1.56-.64c-.426-.454-.64-1.014-.64-1.68 0-.667.214-1.214.64-1.64.427-.427.947-.64 1.56-.64z" fill="#1C2845"/><path opacity=".1" d="M452 314.242c0 13.402-101.176 11.687-225.994 11.687C101.187 325.929 0 327.644 0 314.242 0 300.839 101.187 290 226.006 290 350.824 290 452 300.952 452 314.242z" fill="#fff"/><g filter="url(#filter1_dii)"><path d="M256.905.025l.038-.025h-82.658a5 5 0 00-5 5v131.903h113.744V26.149L256.905.025z" fill="#F1F2F2"/><path d="M256.905.025l.038-.025h-82.658a5 5 0 00-5 5v131.903h113.744V26.149L256.905.025z" fill="url(#paint2_linear)"/><path d="M262.721 10.553h-86.885v1.495h86.885v-1.495zm14.088 13.467H175.836v1.496h100.973V24.02zm0 13.468H175.836v1.495h100.973v-1.495zm0 13.455H175.836v1.495h100.973v-1.495zm0 13.467H175.836v1.495h100.973V64.41zm0 13.467H175.836v1.495h100.973v-1.495zm0 13.455H175.836v1.495h100.973v-1.495z" fill="#E6E7E8"/><path d="M283.041 26.162h-21.137a5 5 0 01-5-5V.026l26.137 26.136z" fill="#fff"/></g><path d="M217.01 48.637a15.996 15.996 0 01-9.878 14.783 16 16 0 11-6.123-30.784 15.986 15.986 0 0116.001 16.001z" fill="#fff"/><path d="M212.896 48.638a11.866 11.866 0 01-7.319 10.977 11.872 11.872 0 11-4.552-22.835 11.882 11.882 0 0111.871 11.858z" fill="#414042"/><path d="M201.497 40.453a4.058 4.058 0 01-2.494 3.755 4.053 4.053 0 112.494-3.755zm-6.109 8.45a2.013 2.013 0 01-3.991.386 2.011 2.011 0 011.989-2.4 2.014 2.014 0 012.002 2.014zm5.507 5.448a3.076 3.076 0 01-5.255 2.19 3.078 3.078 0 012.19-5.256 3.062 3.062 0 013.065 3.066zm10.378-3.775c-3.547.545-3.991.988-4.548 4.535-.545-3.547-.988-3.99-4.536-4.535 3.548-.558 3.991-1.001 4.536-4.548.557 3.547 1.001 3.99 4.548 4.548zm57.108-1.939a16.003 16.003 0 01-19.123 15.694 16 16 0 01-12.572-12.572 16.006 16.006 0 016.804-16.426 16.002 16.002 0 0124.891 13.304z" fill="#fff"/><path d="M264.238 48.637a11.858 11.858 0 11-11.858-11.858 11.87 11.87 0 0111.858 11.858z" fill="#414042"/><path d="M252.839 40.453a4.059 4.059 0 01-4.842 3.99 4.054 4.054 0 114.842-3.99zm-6.095 8.45a2.017 2.017 0 01-2.408 1.976 2.013 2.013 0 112.408-1.976zm5.499 5.448a3.067 3.067 0 01-6.073.598 3.069 3.069 0 013.007-3.664 3.067 3.067 0 013.066 3.066zm10.377-3.775c-3.535.544-3.991.988-4.536 4.535-.557-3.547-1-3.99-4.535-4.535 3.535-.558 3.978-1.001 4.535-4.549.545 3.548 1.001 3.991 4.536 4.549z" fill="#fff"/><path d="M247.668 93.294a2.44 2.44 0 01-1.685-.68 2.262 2.262 0 01-.697-1.627c0-4.743-1.956-9.292-5.436-12.646-3.481-3.354-8.202-5.238-13.124-5.238-4.923 0-9.643 1.884-13.124 5.238-3.481 3.354-5.436 7.903-5.436 12.646 0 .608-.251 1.192-.698 1.623a2.426 2.426 0 01-1.684.672 2.428 2.428 0 01-1.684-.672 2.253 2.253 0 01-.698-1.623c0-5.96 2.458-11.677 6.832-15.892s10.306-6.582 16.492-6.582c6.186 0 12.118 2.367 16.492 6.582 4.374 4.215 6.831 9.931 6.831 15.892 0 .61-.25 1.195-.697 1.627a2.44 2.44 0 01-1.684.68z" fill="#414042"/><defs><linearGradient id="paint0_linear" x1="181.48" y1="76.752" x2="342.485" y2="173.573" gradientUnits="userSpaceOnUse"><stop stop-color="#FF9B00"/><stop offset="1" stop-color="#FFC738"/></linearGradient><linearGradient id="paint1_linear" x1="226.164" y1="98.071" x2="226.164" y2="166.763" gradientUnits="userSpaceOnUse"><stop stop-color="#FFAD2F"/><stop offset=".469" stop-color="#FFC12F"/><stop offset="1" stop-color="#FFC94B"/></linearGradient><linearGradient id="paint2_linear" x1="169.285" y1="-24.955" x2="230.633" y2="108.104" gradientUnits="userSpaceOnUse"><stop stop-color="#B9B9B9"/><stop offset="1" stop-color="#EFEFEF"/></linearGradient><filter id="filter0_d" x="64.223" y="92.071" width="323.883" height="88.692" filterUnits="userSpaceOnUse" color-interpolation-filters="sRGB"><feFlood flood-opacity="0" result="BackgroundImageFix"/><feColorMatrix in="SourceAlpha" values="0 0 0 0 0 0 0 0 0 0 0 0 0 0 0 0 0 0 127 0"/><feOffset dy="4"/><feGaussianBlur stdDeviation="5"/><feColorMatrix values="0 0 0 0 0 0 0 0 0 0 0 0 0 0 0 0 0 0 0.36 0"/><feBlend in2="BackgroundImageFix" result="effect1_dropShadow"/><feBlend in="SourceGraphic" in2="effect1_dropShadow" result="shape"/></filter><filter id="filter1_dii" x="165.285" y="0" width="121.756" height="144.903" filterUnits="userSpaceOnUse" color-interpolation-filters="sRGB"><feFlood flood-opacity="0" result="BackgroundImageFix"/><feColorMatrix in="SourceAlpha" values="0 0 0 0 0 0 0 0 0 0 0 0 0 0 0 0 0 0 127 0"/><feOffset dy="4"/><feGaussianBlur stdDeviation="2"/><feColorMatrix values="0 0 0 0 0 0 0 0 0 0 0 0 0 0 0 0 0 0 0.25 0"/><feBlend in2="BackgroundImageFix" result="effect1_dropShadow"/><feBlend in="SourceGraphic" in2="effect1_dropShadow" result="shape"/><feColorMatrix in="SourceAlpha" values="0 0 0 0 0 0 0 0 0 0 0 0 0 0 0 0 0 0 127 0" result="hardAlpha"/><feOffset dx="-1" dy="1"/><feGaussianBlur stdDeviation="1"/><feComposite in2="hardAlpha" operator="arithmetic" k2="-1" k3="1"/><feColorMatrix values="0 0 0 0 0.470833 0 0 0 0 0.470833 0 0 0 0 0.470833 0 0 0 0.5 0"/><feBlend in2="shape" result="effect2_innerShadow"/><feColorMatrix in="SourceAlpha" values="0 0 0 0 0 0 0 0 0 0 0 0 0 0 0 0 0 0 127 0" result="hardAlpha"/><feOffset dx="3" dy="3"/><feGaussianBlur stdDeviation="2.5"/><feComposite in2="hardAlpha" operator="arithmetic" k2="-1" k3="1"/><feColorMatrix values="0 0 0 0 1 0 0 0 0 1 0 0 0 0 1 0 0 0 1 0"/><feBlend in2="effect2_innerShadow" result="effect3_innerShadow"/></filter></defs></svg>