<svg width="282" height="123" fill="none" xmlns="http://www.w3.org/2000/svg"><g opacity=".12"><path d="M84.122 98.319H70.687v23.153H47.633V98.319H0V81.89L48.931 9.757h21.756V79.98h13.435v18.34zM47.633 79.98V61.03c0-3.159.127-7.743.382-13.754.254-6.011.458-9.5.61-10.469h-.61a85.233 85.233 0 01-6.794 12.226L20.763 79.98h26.87z" fill="url(#paint0_linear)"/><path d="M173.431 65.615c0 19.51-3.206 33.952-9.618 43.325-6.361 9.373-16.183 14.06-29.466 14.06-12.875 0-22.595-4.839-29.16-14.518-6.514-9.68-9.77-23.968-9.77-42.867 0-19.715 3.18-34.233 9.541-43.555C111.319 12.687 121.116 8 134.347 8c12.876 0 22.596 4.89 29.16 14.671 6.616 9.78 9.924 24.095 9.924 42.944zm-54.58 0c0 13.703 1.171 23.535 3.512 29.495 2.392 5.909 6.386 8.863 11.984 8.863 5.496 0 9.466-3.005 11.909-9.016 2.442-6.011 3.664-15.792 3.664-29.342 0-13.704-1.247-23.535-3.741-29.495-2.442-6.011-6.386-9.017-11.832-9.017-5.547 0-9.516 3.005-11.908 9.017-2.392 5.96-3.588 15.791-3.588 29.495z" fill="url(#paint1_linear)"/><path d="M269 98.319h-13.435v23.153h-23.053V98.319h-47.634V81.89l48.931-72.133h21.756V79.98H269v18.34zM232.512 79.98V61.03c0-3.159.127-7.743.381-13.754.255-6.011.458-9.5.611-10.469h-.611a85.176 85.176 0 01-6.794 12.226L205.642 79.98h26.87z" fill="url(#paint2_linear)"/></g><g filter="url(#filter0_ii)"><path d="M101.245 85.607H88.11v21.944H65.57V85.607H19V70.035l47.84-68.37h21.27v66.56h13.135v17.382zM65.571 68.225V50.263c0-2.993.124-7.339.373-13.036.249-5.698.448-9.005.597-9.923h-.597a80.103 80.103 0 01-6.642 11.588L39.3 68.225h26.27z" fill="url(#paint3_linear)"/><path d="M188.563 54.609c0 18.492-3.135 32.18-9.404 41.065C172.94 104.558 163.337 109 150.351 109c-12.588 0-22.092-4.587-28.51-13.76-6.369-9.175-9.553-22.718-9.553-40.631 0-18.686 3.11-32.447 9.329-41.283C127.837 4.442 137.414 0 150.351 0c12.588 0 22.091 4.635 28.509 13.906 6.469 9.27 9.703 22.838 9.703 40.703zm-53.363 0c0 12.988 1.145 22.307 3.433 27.956 2.339 5.6 6.245 8.401 11.718 8.401 5.373 0 9.254-2.849 11.642-8.546 2.389-5.698 3.583-14.968 3.583-27.811 0-12.989-1.219-22.307-3.657-27.957-2.388-5.697-6.244-8.546-11.568-8.546-5.424 0-9.304 2.849-11.643 8.546-2.338 5.65-3.508 14.968-3.508 27.957z" fill="url(#paint4_linear)"/><path d="M282 85.607h-13.135v21.944h-22.539V85.607h-46.571V70.035l47.839-68.37h21.271v66.56H282v17.382zm-35.674-17.382V50.263c0-2.993.124-7.339.373-13.036.248-5.698.447-9.005.597-9.923h-.597a80.053 80.053 0 01-6.643 11.588l-20.001 29.333h26.271z" fill="url(#paint5_linear)"/></g><defs><linearGradient id="paint0_linear" x1="89.667" y1="-3.865" x2="190.788" y2="105.758" gradientUnits="userSpaceOnUse"><stop stop-color="#FF9B00"/><stop offset="1" stop-color="#FFC738"/></linearGradient><linearGradient id="paint1_linear" x1="89.667" y1="-3.865" x2="190.788" y2="105.758" gradientUnits="userSpaceOnUse"><stop stop-color="#FF9B00"/><stop offset="1" stop-color="#FFC738"/></linearGradient><linearGradient id="paint2_linear" x1="89.667" y1="-3.865" x2="190.788" y2="105.758" gradientUnits="userSpaceOnUse"><stop stop-color="#FF9B00"/><stop offset="1" stop-color="#FFC738"/></linearGradient><linearGradient id="paint3_linear" x1="106.667" y1="-11.246" x2="202.228" y2="95.613" gradientUnits="userSpaceOnUse"><stop stop-color="#FF9B00"/><stop offset="1" stop-color="#FFC738"/></linearGradient><linearGradient id="paint4_linear" x1="106.667" y1="-11.246" x2="202.228" y2="95.613" gradientUnits="userSpaceOnUse"><stop stop-color="#FF9B00"/><stop offset="1" stop-color="#FFC738"/></linearGradient><linearGradient id="paint5_linear" x1="106.667" y1="-11.246" x2="202.228" y2="95.613" gradientUnits="userSpaceOnUse"><stop stop-color="#FF9B00"/><stop offset="1" stop-color="#FFC738"/></linearGradient><filter id="filter0_ii" x="17" y="-2" width="267" height="113" filterUnits="userSpaceOnUse" color-interpolation-filters="sRGB"><feFlood flood-opacity="0" result="BackgroundImageFix"/><feBlend in="SourceGraphic" in2="BackgroundImageFix" result="shape"/><feColorMatrix in="SourceAlpha" values="0 0 0 0 0 0 0 0 0 0 0 0 0 0 0 0 0 0 127 0" result="hardAlpha"/><feOffset dx="-2" dy="2"/><feGaussianBlur stdDeviation="1"/><feComposite in2="hardAlpha" operator="arithmetic" k2="-1" k3="1"/><feColorMatrix values="0 0 0 0 0.529412 0 0 0 0 0.380392 0 0 0 0 0.0588235 0 0 0 0.5 0"/><feBlend in2="shape" result="effect1_innerShadow"/><feColorMatrix in="SourceAlpha" values="0 0 0 0 0 0 0 0 0 0 0 0 0 0 0 0 0 0 127 0" result="hardAlpha"/><feOffset dx="2" dy="-2"/><feGaussianBlur stdDeviation="1.5"/><feComposite in2="hardAlpha" operator="arithmetic" k2="-1" k3="1"/><feColorMatrix values="0 0 0 0 1 0 0 0 0 0.815373 0 0 0 0 0.160784 0 0 0 0.8 0"/><feBlend in2="effect1_innerShadow" result="effect2_innerShadow"/></filter></defs></svg>