<svg width="210" height="298" fill="none" xmlns="http://www.w3.org/2000/svg"><g filter="url(#filter0_d)"><path d="M5 47.76a5 5 0 011.102-3.132l17.42-21.69a5 5 0 011.42-1.212L47.997 8.572a5 5 0 012.156-.646l13.154-.849a5 5 0 012.292.394l12.016 5.15a5 5 0 011.566 1.06l15.11 15.11a5 5 0 011.424 2.905l3.574 28.14a5 5 0 01-.624 3.119L90.8 76.653c-1.914 3.333.493 7.49 4.336 7.49H200a5 5 0 015 5V286a5 5 0 01-5 5H10a5 5 0 01-5-5V47.76z" fill="url(#paint0_linear)"/></g><g filter="url(#filter1_d)" fill-rule="evenodd" clip-rule="evenodd"><path d="M88.992 84.183c.78.784 2.05.789 2.8-.022a49.613 49.613 0 0012.956-28.706 49.51 49.51 0 00-8.014-32.382 49.412 49.412 0 00-26.733-19.92 49.482 49.482 0 00-33.316 1.59A49.605 49.605 0 006.925 60.12 49.45 49.45 0 0023.99 88.768a49.418 49.418 0 0026.826 11.073v10.109h-5.175c-1.594 0-2.547 1.772-1.67 3.101l9.887 14.985a2 2 0 003.339 0l9.887-14.985c.878-1.329-.076-3.101-1.67-3.101H60.24V93.156a5 5 0 00-5-5h-1.079a37.567 37.567 0 01-35.587-30.337 37.707 37.707 0 0122.623-42.095 37.615 37.615 0 0125.325-1.208 37.561 37.561 0 0120.322 15.142 37.633 37.633 0 016.091 24.616 37.714 37.714 0 01-9.526 21.468c-.74.82-.747 2.082.032 2.864l5.55 5.577z" fill="#449B35"/><path d="M88.992 84.183c.78.784 2.05.789 2.8-.022a49.613 49.613 0 0012.956-28.706 49.51 49.51 0 00-8.014-32.382 49.412 49.412 0 00-26.733-19.92 49.482 49.482 0 00-33.316 1.59A49.605 49.605 0 006.925 60.12 49.45 49.45 0 0023.99 88.768a49.418 49.418 0 0026.826 11.073v10.109h-5.175c-1.594 0-2.547 1.772-1.67 3.101l9.887 14.985a2 2 0 003.339 0l9.887-14.985c.878-1.329-.076-3.101-1.67-3.101H60.24V93.156a5 5 0 00-5-5h-1.079a37.567 37.567 0 01-35.587-30.337 37.707 37.707 0 0122.623-42.095 37.615 37.615 0 0125.325-1.208 37.561 37.561 0 0120.322 15.142 37.633 37.633 0 016.091 24.616 37.714 37.714 0 01-9.526 21.468c-.74.82-.747 2.082.032 2.864l5.55 5.577z" fill="url(#paint1_linear)"/></g><defs><linearGradient id="paint0_linear" x1="131.5" y1="56" x2="135.5" y2="256" gradientUnits="userSpaceOnUse"><stop stop-color="#fff"/><stop offset="1" stop-color="#F1F1F1"/><stop offset="1" stop-color="#F1F1F1"/></linearGradient><linearGradient id="paint1_linear" x1="-1.439" y1="77.428" x2="109.593" y2="77.65" gradientUnits="userSpaceOnUse"><stop offset=".016" stop-color="#58A54B"/><stop offset="1" stop-color="#6EB039"/></linearGradient><filter id="filter0_d" x="0" y="4.067" width="210" height="293.933" filterUnits="userSpaceOnUse" color-interpolation-filters="sRGB"><feFlood flood-opacity="0" result="BackgroundImageFix"/><feColorMatrix in="SourceAlpha" values="0 0 0 0 0 0 0 0 0 0 0 0 0 0 0 0 0 0 127 0"/><feOffset dy="2"/><feGaussianBlur stdDeviation="2.5"/><feColorMatrix values="0 0 0 0 0 0 0 0 0 0 0 0 0 0 0 0 0 0 0.25 0"/><feBlend in2="BackgroundImageFix" result="effect1_dropShadow"/><feBlend in="SourceGraphic" in2="effect1_dropShadow" result="shape"/></filter><filter id="filter1_d" x="1" y="0" width="109" height="137.934" filterUnits="userSpaceOnUse" color-interpolation-filters="sRGB"><feFlood flood-opacity="0" result="BackgroundImageFix"/><feColorMatrix in="SourceAlpha" values="0 0 0 0 0 0 0 0 0 0 0 0 0 0 0 0 0 0 127 0"/><feOffset dy="4"/><feGaussianBlur stdDeviation="2.5"/><feColorMatrix values="0 0 0 0 0 0 0 0 0 0 0 0 0 0 0 0 0 0 0.3 0"/><feBlend in2="BackgroundImageFix" result="effect1_dropShadow"/><feBlend in="SourceGraphic" in2="effect1_dropShadow" result="shape"/></filter></defs></svg>