<svg width="72" height="72" fill="none" xmlns="http://www.w3.org/2000/svg"><g filter="url(#filter0_d)"><ellipse cx="36" cy="34.5" rx="31" ry="31.5" fill="#fff"/></g><circle cx="36" cy="34" r="24.5" stroke="#6AAE3B"/><path fill-rule="evenodd" clip-rule="evenodd" d="M35.753 19.12c-.383.134-.659.308-2.114 1.339-.593.42-1.334.94-1.647 1.155l-.57.392-.694-.021c-1.438-.045-2.5.296-3.256 1.044-.464.46-.866 1.301-.93 1.948l-.05.512-1.7 1.198c-.934.659-1.802 1.293-1.927 1.409-.125.116-.37.497-.546.846l-.319.635v15.915l.268.552a3.675 3.675 0 001.373 1.492c.828.481.375.465 12.868.464 12.285-.001 11.879.012 12.736-.42.537-.27 1.143-.9 1.44-1.494l.254-.51.043-4.422c.024-2.433.024-6.05 0-8.04l-.043-3.617-.28-.561c-.35-.699-.65-.971-2.485-2.26a227.337 227.337 0 01-1.62-1.145c-.096-.07-.186-.316-.242-.658a3.419 3.419 0 00-.971-1.889c-.74-.724-1.624-1.009-3.141-1.01h-.706l-1.93-1.36c-1.985-1.4-2.415-1.622-3.132-1.614a2.54 2.54 0 00-.68.12zm1.422 2.172c.712.477.936.642.936.69 0 .02-.739.034-1.642.034-.902 0-1.64-.02-1.64-.043 0-.023.127-.125.281-.227.154-.102.508-.341.788-.532.28-.19.539-.346.576-.346.037 0 .353.19.7.424zm6.435 2.777c.164.077.403.275.531.44l.233.3.024 3.841.024 3.84-.715.556a873.52 873.52 0 00-3.831 3.019c-1.714 1.355-3.187 2.491-3.273 2.524-.208.078-.108.15-3.243-2.326a1599.106 1599.106 0 00-3.821-3.01l-1.1-.86v-3.7c0-3.682 0-3.702.194-4.039.11-.19.346-.422.539-.53l.343-.191 6.898-.002c6.218-.001 6.928.012 7.197.138zm-12.728 1.176c-.718.307-.705 1.413.019 1.711.43.177 10.615.18 11.045.002.372-.153.57-.438.57-.814-.003-.422-.168-.701-.52-.874-.276-.137-.721-.149-5.57-.146-4.294.003-5.32.025-5.544.121zm17.535 3.957c.038.034-.4.431-.972.884l-1.041.823v-3.147l.972.69c.534.379 1.003.717 1.04.75zm-21.882.12c0 .761-.022 1.406-.05 1.433-.027.027-.488-.3-1.026-.727l-.977-.776.703-.503c.386-.276.819-.589.962-.695.142-.106.288-.176.323-.155.036.021.065.661.065 1.423zm4.299-1.177c-.631.34-.647 1.358-.025 1.637.168.075 1.636.102 5.686.101h5.46l.249-.196c.199-.157.257-.282.29-.625.038-.387.016-.458-.22-.718l-.262-.289-5.47-.019c-4.722-.016-5.504-.001-5.708.108zm-.172 3.008c-.25.22-.283.298-.283.687 0 .389.033.468.282.687l.283.249h10.985l.294-.29c.228-.224.293-.359.293-.603 0-.379-.212-.76-.493-.886-.141-.064-1.917-.093-5.643-.093h-5.436l-.282.249zm-5.244 1.291c.74.58 3.236 2.547 5.548 4.372 2.876 2.27 4.347 3.377 4.66 3.506.536.222.995.241 1.592.067.453-.133.137.11 8.797-6.739l3.023-2.39.025 6.733c.014 3.703.002 6.856-.025 7.007-.06.333-.4.746-.766.934-.244.125-1.333.141-11.37.171-6.106.019-11.324.009-11.598-.022-.622-.07-1.001-.312-1.252-.801l-.195-.38v-6.839c0-5.459.022-6.823.108-6.756.06.045.713.557 1.453 1.137z" fill="#44464B"/><defs><filter id="filter0_d" x="1" y="1" width="70" height="71" filterUnits="userSpaceOnUse" color-interpolation-filters="sRGB"><feFlood flood-opacity="0" result="BackgroundImageFix"/><feColorMatrix in="SourceAlpha" values="0 0 0 0 0 0 0 0 0 0 0 0 0 0 0 0 0 0 127 0"/><feOffset dy="2"/><feGaussianBlur stdDeviation="2"/><feColorMatrix values="0 0 0 0 0 0 0 0 0 0 0 0 0 0 0 0 0 0 0.25 0"/><feBlend in2="BackgroundImageFix" result="effect1_dropShadow"/><feBlend in="SourceGraphic" in2="effect1_dropShadow" result="shape"/></filter></defs></svg>