<svg width="72" height="72" fill="none" xmlns="http://www.w3.org/2000/svg"><g filter="url(#filter0_d)"><ellipse cx="36" cy="34.5" rx="31" ry="31.5" fill="#fff"/></g><circle cx="36" cy="34" r="24.5" stroke="#6AAE3B"/><g clip-path="url(#clip0)" fill="#454545"><path d="M35.709 29.546a.995.995 0 00-1.405.012l-3.234 3.301-1.295-1.27a.993.993 0 00-1.389 1.416l2.004 1.965c.195.193.45.287.704.285a.997.997 0 00.7-.297l3.929-4.009a.993.993 0 00-.014-1.403zm.079 7.938a.995.995 0 00-1.405.012l-3.234 3.302-1.294-1.27a.993.993 0 00-1.39 1.418l2.005 1.964a.997.997 0 001.403-.014l3.93-4.009a.993.993 0 00-.015-1.403zm7.174-6.318l-3.97.04a.993.993 0 00.02 1.985l3.97-.04a.993.993 0 00-.02-1.985zm.079 7.939l-3.969.04a.993.993 0 00.02 1.984l3.969-.04a.993.993 0 00-.02-1.984z"/><path d="M45.84 21.214l-3.97.04-.01-.993a.993.993 0 00-1.002-.982l-2.153.021a2.985 2.985 0 00-2.828-1.956 2.985 2.985 0 00-2.789 2.012l-2.153.022a.993.993 0 00-.982 1.002l.01.993-3.97.04a1.988 1.988 0 00-1.964 2.004l.238 23.815a1.988 1.988 0 002.005 1.964l19.845-.198a1.988 1.988 0 001.965-2.005l-.238-23.815a1.988 1.988 0 00-2.005-1.964zm-13.893.139l1.985-.02a.993.993 0 00.982-1.002.993.993 0 011.985-.02.993.993 0 001.002.982l1.984-.02.02 1.985-7.938.08-.02-1.985zm14.15 25.66l-19.845.199-.239-23.815 3.97-.04.01.992a.993.993 0 001.002.983l9.922-.1a.993.993 0 00.983-1.002l-.01-.992 3.969-.04.238 23.815z"/></g><defs><clipPath id="clip0"><path fill="#fff" transform="rotate(-.573 1758.814 -1989.585)" d="M0 0h31.755v31.755H0z"/></clipPath><filter id="filter0_d" x="1" y="1" width="70" height="71" filterUnits="userSpaceOnUse" color-interpolation-filters="sRGB"><feFlood flood-opacity="0" result="BackgroundImageFix"/><feColorMatrix in="SourceAlpha" values="0 0 0 0 0 0 0 0 0 0 0 0 0 0 0 0 0 0 127 0"/><feOffset dy="2"/><feGaussianBlur stdDeviation="2"/><feColorMatrix values="0 0 0 0 0 0 0 0 0 0 0 0 0 0 0 0 0 0 0.25 0"/><feBlend in2="BackgroundImageFix" result="effect1_dropShadow"/><feBlend in="SourceGraphic" in2="effect1_dropShadow" result="shape"/></filter></defs></svg>