<svg width="72" height="72" fill="none" xmlns="http://www.w3.org/2000/svg"><g filter="url(#filter0_d)"><ellipse cx="36" cy="34.5" rx="31" ry="31.5" fill="#fff"/></g><circle cx="36" cy="34" r="24.5" stroke="#6AAE3B"/><path d="M47.342 24.974h-.325a9.049 9.049 0 00-.8-1.93l.23-.23a1.39 1.39 0 00.41-.991 1.39 1.39 0 00-.41-.99l-1.536-1.535a1.388 1.388 0 00-.991-.412c-.376 0-.728.146-.99.41l-.23.23a9.018 9.018 0 00-1.931-.8V18.4c0-.773-.629-1.401-1.401-1.401h-2.172c-.773 0-1.401.628-1.401 1.401v.324c-.673.192-1.32.46-1.932.802l-.23-.23a1.388 1.388 0 00-.991-.41c-.376 0-.728.146-.99.41l-1.536 1.536a1.39 1.39 0 00-.41.99c0 .375.146.726.41.99l.23.23a9.006 9.006 0 00-.8 1.931h-.326c-.772 0-1.4.629-1.4 1.401v2.174c0 .772.628 1.4 1.4 1.4h.326a9.01 9.01 0 00.8 1.931l-.23.23a1.39 1.39 0 00-.41.991c0 .375.146.727.41.99l1.535 1.535c.263.266.615.412.99.412h.001c.375 0 .728-.146.99-.41l.23-.231a8.98 8.98 0 001.933.8v.326c0 .772.628 1.401 1.4 1.401h2.173c.772 0 1.4-.629 1.4-1.4v-.326a8.969 8.969 0 001.931-.8l.23.228c.263.266.615.412.99.412.377 0 .729-.146.99-.41l1.539-1.537a1.39 1.39 0 00.409-.99 1.39 1.39 0 00-.41-.99l-.23-.23c.34-.612.608-1.258.8-1.931h.325c.772 0 1.4-.629 1.4-1.401v-2.174c0-.772-.628-1.4-1.4-1.4zm-7.823 11.549c0 .082-.07.151-.151.151h-2.172a.153.153 0 01-.151-.151v-4.751a.625.625 0 00-.408-.586 4.312 4.312 0 01-2.807-4.023 4.295 4.295 0 012.022-3.632 5.713 5.713 0 01-.011.199c-.005.063-.009.113-.009.163v2.95a2.586 2.586 0 002.408 2.574.635.635 0 00.083 0 2.585 2.585 0 002.407-2.574v-2.95c0-.05-.004-.1-.009-.162a4.29 4.29 0 01-.01-.2 4.295 4.295 0 012.022 3.632c0 1.783-1.128 3.4-2.807 4.023a.625.625 0 00-.407.585v4.752zm7.974-7.974c0 .08-.07.15-.151.15h-.81a.625.625 0 00-.61.488 7.816 7.816 0 01-1.018 2.458.625.625 0 00.086.776l.574.574a.15.15 0 01.043.106.15.15 0 01-.043.106l-1.539 1.538a.145.145 0 01-.105.043.146.146 0 01-.106-.045l-.574-.574a.625.625 0 00-.777-.086 7.755 7.755 0 01-1.694.805v-2.7a5.569 5.569 0 003.214-5.025 5.544 5.544 0 00-2.427-4.574c-.233-.16-.94-.643-1.56-.287-.608.35-.547 1.17-.521 1.52l.005.071v2.95c0 .684-.523 1.257-1.198 1.323a1.333 1.333 0 01-1.2-1.323v-2.945c0-.02.003-.045.005-.075.026-.35.087-1.17-.52-1.52-.619-.358-1.328.126-1.56.286a5.544 5.544 0 00-2.427 4.574 5.568 5.568 0 003.215 5.024v2.701a7.797 7.797 0 01-1.697-.805.624.624 0 00-.776.087l-.575.575a.146.146 0 01-.105.043.147.147 0 01-.106-.044L31 33.207a.15.15 0 01-.043-.107.15.15 0 01.043-.106l.574-.574a.625.625 0 00.086-.776 7.776 7.776 0 01-1.018-2.457.625.625 0 00-.61-.488h-.812a.155.155 0 01-.15-.151v-2.174c0-.082.068-.151.15-.151h.812a.625.625 0 00.61-.488 7.774 7.774 0 011.018-2.457.625.625 0 00-.086-.776L31 21.93a.15.15 0 01-.043-.106.15.15 0 01.043-.107l1.537-1.537a.145.145 0 01.105-.043c.029 0 .07.008.106.044l.574.574a.625.625 0 00.776.087 7.813 7.813 0 012.46-1.02.625.625 0 00.487-.61v-.81c0-.082.07-.151.151-.151h2.172c.082 0 .151.07.151.151v.81c0 .292.202.545.487.61.873.196 1.7.54 2.457 1.02.247.156.57.12.777-.087l.575-.575a.145.145 0 01.105-.043c.029 0 .07.008.107.045l1.537 1.535a.15.15 0 01.043.107.15.15 0 01-.043.106l-.574.574a.625.625 0 00-.086.776 7.818 7.818 0 011.019 2.458.625.625 0 00.61.487h.809c.082 0 .15.07.15.151v2.174z" fill="#454545"/><path d="M44.819 38.465l-4.962 2.548a2.304 2.304 0 00-1.662-.707h-3.4a.937.937 0 01-.24-.016 1.84 1.84 0 01-.184-.163l-.031-.029c-2.75-2.589-5.074-2.425-7.716-1.382-.428.169-.436.17-.865.188h-.769a1.662 1.662 0 00-1.575-1.139h-2.5a1.66 1.66 0 00-1.658 1.66v6.56a1.66 1.66 0 001.658 1.658h2.5c.733 0 1.356-.477 1.575-1.137h1.406a.68.68 0 01.269.04l.199.055 6.468 1.73c.285.078.547.154.8.227.828.24 1.525.442 2.25.442.822 0 1.68-.258 2.808-1.01a.78.78 0 00.016-.011l1.235-.88a.625.625 0 00-.726-1.018l-1.226.874c-1.638 1.09-2.333.888-4.01.402a42.012 42.012 0 00-.822-.232l-6.47-1.73-.183-.052a1.74 1.74 0 00-.608-.087h-1.322v-5.102h.703l.035-.002c.524-.022.67-.036 1.27-.273 2.321-.916 4.113-1.025 6.402 1.13l.03.03c.392.367.617.517 1.281.517h3.4c.4 0 .747.221.928.548l.007.01a1.062 1.062 0 01-.934 1.563h-5.51a.625.625 0 100 1.25h5.51a2.313 2.313 0 002.255-2.813l4.939-2.537c.467-.24 1.107-.214 1.424.3.28.455.126 1.058-.359 1.404l-6.74 4.8c-.28.2-2.15 1.697-1.95 1.978.122.171 1.882-1.412 1.95-1.978.126 0 .682 1.042.792.963L47.18 42.3c1.03-.733 1.329-2.057.697-3.078-.62-1.007-1.935-1.332-3.058-.756zm-20.995 7.52a.414.414 0 01-.41.408h-2.499a.413.413 0 01-.408-.408v-6.56a.41.41 0 01.408-.41h2.5c.222 0 .41.188.41.41v6.56z" fill="#454545"/><defs><filter id="filter0_d" x="1" y="1" width="70" height="71" filterUnits="userSpaceOnUse" color-interpolation-filters="sRGB"><feFlood flood-opacity="0" result="BackgroundImageFix"/><feColorMatrix in="SourceAlpha" values="0 0 0 0 0 0 0 0 0 0 0 0 0 0 0 0 0 0 127 0"/><feOffset dy="2"/><feGaussianBlur stdDeviation="2"/><feColorMatrix values="0 0 0 0 0 0 0 0 0 0 0 0 0 0 0 0 0 0 0.25 0"/><feBlend in2="BackgroundImageFix" result="effect1_dropShadow"/><feBlend in="SourceGraphic" in2="effect1_dropShadow" result="shape"/></filter></defs></svg>