<svg width="72" height="72" fill="none" xmlns="http://www.w3.org/2000/svg"><g filter="url(#filter0_d)"><ellipse cx="36" cy="34.5" rx="31" ry="31.5" fill="#fff"/></g><circle cx="36" cy="34" r="24.5" stroke="#6AAE3B"/><g clip-path="url(#clip0)" fill="#454545"><path d="M46.592 48.613l-1.27-3.81a3.839 3.839 0 00-2.954-2.562l-3.665-.667v-.284a5.52 5.52 0 001.634-1.451h1.108c.907 0 1.645-.738 1.645-1.645v-6.581c0-3.93-3.198-7.13-7.13-7.13-3.93 0-7.128 3.2-7.128 7.13v3.839c0 1.057.752 1.942 1.749 2.148a5.494 5.494 0 002.638 3.69v.284l-3.666.667a3.838 3.838 0 00-2.954 2.563l-.22.658-1.867-1.867a.55.55 0 010-.776l2.166-2.166-4.066-4.066-2.448 2.448a3.814 3.814 0 00-1.124 2.715c0 1.025.399 1.989 1.124 2.714l7.411 7.411A3.815 3.815 0 0030.29 53a3.8 3.8 0 002.697-1.108l2.671-2.448-.833-.831h11.767zm-4.599-10.42a.549.549 0 01-.548.549h-.462c.16-.362.28-.745.358-1.142.235-.05.45-.142.652-.26v.854zm-.548-1.797v-1.889c.326.19.548.54.548.945 0 .404-.222.754-.548.944zm-10.968 0a1.093 1.093 0 01-.548-.944c0-.404.222-.754.548-.945v1.889zm0-3.686v.626a2.172 2.172 0 00-.548.227v-1.95a6.04 6.04 0 016.032-6.032 6.04 6.04 0 016.032 6.032v1.95c-.17-.1-.353-.177-.548-.227v-.626h-.549a6.033 6.033 0 01-4.293-1.779l-.642-.642-.642.642a6.034 6.034 0 01-4.294 1.779h-.548zm1.097 3.838v-2.762a7.11 7.11 0 004.387-1.95 7.107 7.107 0 004.387 1.95v2.762c0 .8-.218 1.548-.593 2.194H35.96v1.097h2.892a4.363 4.363 0 01-2.892 1.096 4.392 4.392 0 01-4.387-4.387zm6.032 5.231v.026l-1.645 1.645-1.645-1.645v-.026a5.476 5.476 0 003.29 0zm-9.968 3.371a2.743 2.743 0 012.111-1.83l3.834-.697L35.96 45l2.378-2.378 3.832.697a2.74 2.74 0 012.111 1.831l.79 2.365H33.727l-2.136-2.136-2.373 2.147a.56.56 0 01-.776 0l-1.197-1.198.393-1.179zm-5.027-7.012l2.515 2.515-.595.596-2.515-2.515.595-.596zm9.616 12.963a2.728 2.728 0 01-1.938.802 2.729 2.729 0 01-1.94-.803l-7.41-7.411a2.724 2.724 0 01-.803-1.939c0-.732.285-1.421.802-1.939l.302-.301 2.515 2.515-.02.02a1.648 1.648 0 000 2.326l3.933 3.933c.31.31.723.482 1.163.482.44 0 .853-.171 1.144-.463l.04-.037 2.527 2.526-.315.289zm1.125-1.031l-2.521-2.52.724-.656 2.517 2.517-.72.659zM51.316 19h-7.678c-.907 0-1.645.738-1.645 1.645v4.387c0 .907.738 1.645 1.645 1.645h1.465l-.567 3.308 5.292-3.308h1.488c.907 0 1.645-.738 1.645-1.645v-4.387c0-.907-.738-1.645-1.645-1.645zm.548 6.032a.55.55 0 01-.548.549h-1.803l-3.483 2.176.374-2.176h-2.766a.55.55 0 01-.548-.549v-4.387a.55.55 0 01.548-.548h7.678a.55.55 0 01.548.548v4.387z"/><path d="M50.767 21.194h-6.58v1.096h6.58v-1.096zm-2.193 2.193h-4.387v1.097h4.387v-1.097zm2.193 0H49.67v1.097h1.097v-1.097zM34.922 19A15.344 15.344 0 0019.98 30.87l-1.04-1.733-.94.565 1.928 3.212 3.212-1.928-.565-.94-1.486.891a14.25 14.25 0 0113.833-10.84c1.44 0 2.862.214 4.224.636l.325-1.047a15.344 15.344 0 00-4.55-.686zm17.734 12.928L49.444 30l-1.927 3.212.94.565.96-1.6c.505 1.478.763 3.024.763 4.608 0 3.262-1.13 6.45-3.18 8.977l.852.691a15.39 15.39 0 003.425-9.668c0-1.677-.27-3.315-.797-4.884l1.611.967.565-.94z"/></g><defs><clipPath id="clip0"><path fill="#fff" transform="translate(19 19)" d="M0 0h34v34H0z"/></clipPath><filter id="filter0_d" x="1" y="1" width="70" height="71" filterUnits="userSpaceOnUse" color-interpolation-filters="sRGB"><feFlood flood-opacity="0" result="BackgroundImageFix"/><feColorMatrix in="SourceAlpha" values="0 0 0 0 0 0 0 0 0 0 0 0 0 0 0 0 0 0 127 0"/><feOffset dy="2"/><feGaussianBlur stdDeviation="2"/><feColorMatrix values="0 0 0 0 0 0 0 0 0 0 0 0 0 0 0 0 0 0 0.25 0"/><feBlend in2="BackgroundImageFix" result="effect1_dropShadow"/><feBlend in="SourceGraphic" in2="effect1_dropShadow" result="shape"/></filter></defs></svg>