<svg width="72" height="72" fill="none" xmlns="http://www.w3.org/2000/svg"><g filter="url(#filter0_d)"><ellipse cx="36" cy="34.5" rx="31" ry="31.5" fill="#fff"/></g><circle cx="36" cy="34" r="24.5" stroke="#6AAE3B"/><g clip-path="url(#clip0)" fill="#454545"><path d="M52.487 29.947l-1.468-1.467a1.76 1.76 0 00-2.486 0l-3.09 3.09v-9.933A2.64 2.64 0 0042.806 19H25.638a2.64 2.64 0 00-2.637 2.637v24.726A2.64 2.64 0 0025.639 49h17.168a2.64 2.64 0 002.637-2.637V39.39l7.044-6.956a1.76 1.76 0 000-2.486zM41.975 40.343l-2.644 1.234 1.233-2.642 6.56-6.56 1.451 1.45-6.6 6.518zm1.71 6.02a.88.88 0 01-.879.88H25.638a.88.88 0 01-.879-.88V21.637a.88.88 0 01.88-.88h17.167a.88.88 0 01.88.88v11.691c-4.875 4.874-4.556 4.524-4.65 4.724l-2.32 4.972a.879.879 0 001.168 1.168l4.972-2.32c.182-.086.212-.139.83-.748v5.24zm6.141-13.773l-1.458-1.459 1.408-1.408 1.467 1.467-1.417 1.4z"/><path d="M27.688 26.441h13.125a.879.879 0 000-1.757H27.688a.879.879 0 000 1.757zm0 4.688h10.313a.879.879 0 000-1.758H27.688a.879.879 0 000 1.758zm7.5 2.93h-7.5a.879.879 0 000 1.757h7.5a.879.879 0 000-1.757z"/></g><defs><clipPath id="clip0"><path fill="#fff" transform="translate(23 19)" d="M0 0h30v30H0z"/></clipPath><filter id="filter0_d" x="1" y="1" width="70" height="71" filterUnits="userSpaceOnUse" color-interpolation-filters="sRGB"><feFlood flood-opacity="0" result="BackgroundImageFix"/><feColorMatrix in="SourceAlpha" values="0 0 0 0 0 0 0 0 0 0 0 0 0 0 0 0 0 0 127 0"/><feOffset dy="2"/><feGaussianBlur stdDeviation="2"/><feColorMatrix values="0 0 0 0 0 0 0 0 0 0 0 0 0 0 0 0 0 0 0.25 0"/><feBlend in2="BackgroundImageFix" result="effect1_dropShadow"/><feBlend in="SourceGraphic" in2="effect1_dropShadow" result="shape"/></filter></defs></svg>