<svg width="72" height="72" fill="none" xmlns="http://www.w3.org/2000/svg"><g filter="url(#filter0_d)"><ellipse cx="36" cy="34.5" rx="31" ry="31.5" fill="#fff"/></g><circle cx="36" cy="34" r="24.5" stroke="#6AAE3B"/><g clip-path="url(#clip0)" fill="#454545" stroke="#454545" stroke-width=".2"><path d="M50.829 36.271v-.503h1.006v1.007h-.503a.504.504 0 01-.503-.504zm-.128-3.995l-.842-3.366a.632.632 0 00.402-.588v-.568a2.338 2.338 0 00-2.336-2.336h-3.91v-1.071c0-.662-.539-1.2-1.2-1.2H22.371c-.662 0-1.2.538-1.2 1.2V34a.632.632 0 101.264 0v-9.589H42.75v9.59a.632.632 0 001.264 0v-.504H50.2a1.641 1.641 0 011.509 1.006h-1.512a.632.632 0 00-.632.633v1.136a1.77 1.77 0 001.768 1.767h.503v2.143h-1.221a3.477 3.477 0 00-3.257-2.272 3.477 3.477 0 00-3.257 2.272h-.086v-3.91a.632.632 0 10-1.265 0v3.91H31.875a3.477 3.477 0 00-3.257-2.272 3.477 3.477 0 00-3.257 2.272h-2.925v-1.007h2.207a.632.632 0 000-1.265h-5.11a.632.632 0 000 1.265h1.638v1.071c0 .662.539 1.2 1.2 1.2h2.776a3.475 3.475 0 003.47 3.407 3.475 3.475 0 003.472-3.407h11.797a3.476 3.476 0 003.47 3.407 3.476 3.476 0 003.472-3.407h1.64a.632.632 0 00.632-.632v-5.678c0-1.43-1.038-2.62-2.4-2.86zm-6.687-5.594h3.91c.57 0 1.037.447 1.07 1.007h-4.98v-1.006zm0 5.55v-3.278h4.553l.82 3.278h-5.373zM28.618 43.589a2.21 2.21 0 01-2.207-2.207 2.21 2.21 0 012.207-2.207 2.21 2.21 0 012.207 2.207 2.21 2.21 0 01-2.207 2.207zm18.739 0a2.21 2.21 0 01-2.207-2.207 2.21 2.21 0 012.207-2.207 2.21 2.21 0 012.207 2.207 2.21 2.21 0 01-2.207 2.207z"/><path d="M28.618 40.182a1.201 1.201 0 000 2.4 1.201 1.201 0 000-2.4zm18.739 0a1.201 1.201 0 000 2.4 1.201 1.201 0 000-2.4zM41.11 37.91h-7.95a.632.632 0 000 1.265h7.95a.632.632 0 000-1.264zm-13.628-2.271h-6.814a.632.632 0 000 1.265h6.814a.632.632 0 000-1.265z"/></g><defs><clipPath id="clip0"><path fill="#fff" transform="translate(19 17)" d="M0 0h34v34H0z"/></clipPath><filter id="filter0_d" x="1" y="1" width="70" height="71" filterUnits="userSpaceOnUse" color-interpolation-filters="sRGB"><feFlood flood-opacity="0" result="BackgroundImageFix"/><feColorMatrix in="SourceAlpha" values="0 0 0 0 0 0 0 0 0 0 0 0 0 0 0 0 0 0 127 0"/><feOffset dy="2"/><feGaussianBlur stdDeviation="2"/><feColorMatrix values="0 0 0 0 0 0 0 0 0 0 0 0 0 0 0 0 0 0 0.25 0"/><feBlend in2="BackgroundImageFix" result="effect1_dropShadow"/><feBlend in="SourceGraphic" in2="effect1_dropShadow" result="shape"/></filter></defs></svg>