<svg width="93" height="33" fill="none" xmlns="http://www.w3.org/2000/svg"><rect x="1" y="2" width="31" height="30" rx="5" fill="#fff"/><path fill-rule="evenodd" clip-rule="evenodd" d="M16.655 6.238a.654.654 0 01.637 0l6.145 3.592c.317.177.473.703.298 1.021-.176.319-.699.482-1.016.305L16.99 7.79l-5.701 3.327c-.317.177-.792-.022-.969-.34-.176-.319-.072-.782.245-.959l6.09-3.579zm.336 15.729c.362.001.746.277.745.641v2.44l4.88-2.854c.318-.177.808.108.984.426.176.318.042.72-.275.897l-5.626 3.29c-.484.232-.925.232-1.416 0l-5.738-3.365c-.315-.182-.41-.69-.23-1.006.18-.315.698-.461 1.012-.28l4.918 2.893v-2.44c.002-.365.383-.643.746-.642z" fill="url(#paint0_linear)"/><path fill-rule="evenodd" clip-rule="evenodd" d="M26.03 11.181c.198.124.276.32.276.564v9.58c0 .38-.286.659-.65.687-.373.03-.84-.195-.84-.574V13.27l-7.08 4.14v2.308c0 .38-.386.698-.745.698-.36 0-.745-.318-.745-.698v-2.327l-7.08-4.121v8.091c0 .38-.349.68-.708.68s-.782-.266-.782-.646V11.91c0-.242.12-.467.317-.59.197-.125.536-.175.738-.06l8.26 4.847 8.406-4.926a.6.6 0 01.633 0z" fill="url(#paint1_linear)"/><path fill-rule="evenodd" clip-rule="evenodd" d="M15.575 2.911c.854-.528 1.496-.836 2.347-.302l9.427 5.52c.618.387.84 1.11.453 1.73-.386.62-1.235.506-1.854.118l-8.958-5.25-10.432 6.101v11.588l10.432 6.092 8.995-5.26c.634-.363 1.672-.523 2.034.112.362.635.037 1.345-.596 1.707l-8.666 5.062c-.788.452-2.063.894-3.145.232L5.626 24.5c-.86-.461-1.304-.838-1.304-1.816V11.002c-.017-.953.232-1.677 1.043-2.117l10.21-5.974z" fill="url(#paint2_linear)"/><path d="M63.82 19.219v-2.757c.336-.516 1.088-.903 1.744-.903 1.183 0 1.967.92 1.967 2.273 0 1.354-.784 2.257-1.967 2.257-.656 0-1.408-.37-1.744-.87zm0 2.499v-1c.608.774 1.456 1.193 2.384 1.193 1.951 0 3.422-1.483 3.422-4.079 0-2.547-1.455-4.095-3.422-4.095-.912 0-1.776.403-2.384 1.194v-3.966h-2.03v10.753h2.03zm10.923.193c2.56 0 4.094-1.87 4.094-4.095 0-2.208-1.535-4.078-4.094-4.078-2.543 0-4.079 1.87-4.079 4.078 0 2.225 1.536 4.095 4.079 4.095zm0-1.822c-1.264 0-1.968-1.047-1.968-2.273 0-1.209.704-2.257 1.968-2.257 1.263 0 1.983 1.048 1.983 2.257 0 1.226-.72 2.273-1.983 2.273zm12.109 1.629l-2.767-3.998 2.59-3.79h-2.27l-1.584 2.403-1.6-2.402h-2.27l2.575 3.789-2.735 3.998h2.255l1.775-2.628 1.76 2.628h2.27z" fill="#fff"/><path d="M41.678 21.937c2.351 0 3.695-1.306 4.463-2.644l-1.952-.951c-.448.887-1.407 1.564-2.51 1.564-1.936 0-3.344-1.5-3.344-3.53 0-2.032 1.408-3.531 3.343-3.531 1.104 0 2.063.693 2.511 1.563l1.952-.967c-.752-1.338-2.112-2.628-4.463-2.628-3.199 0-5.678 2.257-5.678 5.562s2.48 5.562 5.678 5.562z" fill="url(#paint3_linear)"/><path d="M59.056 21.743V10.991h-3.199l-2.59 6.496-2.592-6.496h-3.183v10.752h2.272v-7.528l3.006 7.528h.992l3.007-7.528v7.528h2.287z" fill="url(#paint4_linear)"/><defs><linearGradient id="paint0_linear" x1="10.229" y1="15.96" x2="24.011" y2="16.063" gradientUnits="userSpaceOnUse"><stop stop-color="#1758A0"/><stop offset="1" stop-color="#0A3D76"/></linearGradient><linearGradient id="paint1_linear" x1="7.676" y1="15.943" x2="26.303" y2="16.194" gradientUnits="userSpaceOnUse"><stop stop-color="#CD1732"/><stop offset=".5" stop-color="#B6142C"/><stop offset="1" stop-color="#8B1022"/></linearGradient><linearGradient id="paint2_linear" x1="4.321" y1="14.898" x2="28.17" y2="15.057" gradientUnits="userSpaceOnUse"><stop stop-color="#B6142C"/><stop offset="1" stop-color="#A62E41"/></linearGradient><linearGradient id="paint3_linear" x1="36" y1="15.742" x2="59.051" y2="16.12" gradientUnits="userSpaceOnUse"><stop stop-color="#B6142C"/><stop offset="1" stop-color="#A62E41"/></linearGradient><linearGradient id="paint4_linear" x1="36" y1="15.741" x2="59.051" y2="16.12" gradientUnits="userSpaceOnUse"><stop stop-color="#B6142C"/><stop offset="1" stop-color="#A62E41"/></linearGradient></defs></svg>