<svg width="21" height="22" fill="none" xmlns="http://www.w3.org/2000/svg"><g clip-path="url(#clip0)"><path d="M10.5 4.443c-4.012 0-7.65 2.3-10.336 6.035a.904.904 0 000 1.04c2.685 3.74 6.324 6.039 10.336 6.039 4.012 0 7.65-2.3 10.336-6.035a.904.904 0 000-1.04c-2.685-3.74-6.324-6.04-10.336-6.04zm.288 11.174c-2.664.176-4.863-2.124-4.695-4.919.137-2.304 1.92-4.171 4.12-4.315 2.663-.176 4.862 2.124 4.695 4.919-.142 2.3-1.925 4.167-4.12 4.315zm-.133-2.133c-1.435.095-2.62-1.143-2.526-2.646.073-1.242 1.035-2.246 2.22-2.327 1.435-.094 2.621 1.143 2.527 2.647-.078 1.246-1.04 2.25-2.221 2.326z" fill="#FFC130"/></g><defs><clipPath id="clip0"><path fill="#fff" d="M0 0h21v22H0z"/></clipPath></defs></svg>