<svg width="70" height="70" fill="none" xmlns="http://www.w3.org/2000/svg"><g clip-path="url(#clip0)"><g opacity=".1"><g filter="url(#filter0_ii)"><circle cx="34.915" cy="34.915" r="32.415" stroke="url(#paint0_linear)" stroke-width="5"/></g><g filter="url(#filter1_dii)" fill-rule="evenodd" clip-rule="evenodd"><path d="M35.178 60.586c14.114 0 25.556-11.442 25.556-25.557 0-14.114-11.442-25.556-25.556-25.556-14.115 0-25.557 11.442-25.557 25.556 0 14.115 11.442 25.557 25.557 25.557zm-.18-44.992a1.62 1.62 0 100-3.24 1.62 1.62 0 000 3.24zm0 42.473a1.62 1.62 0 100-3.24 1.62 1.62 0 000 3.24zM16.1 34.85a1.62 1.62 0 11-3.24 0 1.62 1.62 0 013.24 0zm39.414 1.62a1.62 1.62 0 100-3.24 1.62 1.62 0 000 3.24zm-3.059-14.218a1.62 1.62 0 11-3.24 0 1.62 1.62 0 013.24 0zm-1.62 29.697a1.62 1.62 0 100-3.24 1.62 1.62 0 000 3.24zM38.056 34.851c0 .32-.05.63-.14.92 1.694 1.793 5.981 6.116 8.272 8.412l.213 1.901-10.576-8.287a3.064 3.064 0 01-3.888-2.946c0-1.14.624-2.135 1.549-2.661.18-2.588.466-8.411.612-11.557l1.26-1.44.98 12.907a3.06 3.06 0 011.718 2.75zM19.88 51.949a1.62 1.62 0 100-3.24 1.62 1.62 0 000 3.24zm1.62-29.697a1.62 1.62 0 11-3.24 0 1.62 1.62 0 013.24 0z" fill="url(#paint1_linear)"/><path d="M35.178 60.586c14.114 0 25.556-11.442 25.556-25.557 0-14.114-11.442-25.556-25.556-25.556-14.115 0-25.557 11.442-25.557 25.556 0 14.115 11.442 25.557 25.557 25.557zm-.18-44.992a1.62 1.62 0 100-3.24 1.62 1.62 0 000 3.24zm0 42.473a1.62 1.62 0 100-3.24 1.62 1.62 0 000 3.24zM16.1 34.85a1.62 1.62 0 11-3.24 0 1.62 1.62 0 013.24 0zm39.414 1.62a1.62 1.62 0 100-3.24 1.62 1.62 0 000 3.24zm-3.059-14.218a1.62 1.62 0 11-3.24 0 1.62 1.62 0 013.24 0zm-1.62 29.697a1.62 1.62 0 100-3.24 1.62 1.62 0 000 3.24zM38.056 34.851c0 .32-.05.63-.14.92 1.694 1.793 5.981 6.116 8.272 8.412l.213 1.901-10.576-8.287a3.064 3.064 0 01-3.888-2.946c0-1.14.624-2.135 1.549-2.661.18-2.588.466-8.411.612-11.557l1.26-1.44.98 12.907a3.06 3.06 0 011.718 2.75zM19.88 51.949a1.62 1.62 0 100-3.24 1.62 1.62 0 000 3.24zm1.62-29.697a1.62 1.62 0 11-3.24 0 1.62 1.62 0 013.24 0z" fill="url(#paint2_linear)"/></g></g><g filter="url(#filter2_ii)"><circle cx="42.316" cy="42.684" r="24.816" stroke="url(#paint3_linear)" stroke-width="5"/></g><g filter="url(#filter3_dii)" fill-rule="evenodd" clip-rule="evenodd"><path d="M42.522 63.089c11.042 0 19.994-8.952 19.994-19.995 0-11.042-8.952-19.994-19.994-19.994-11.043 0-19.995 8.952-19.995 19.994 0 11.043 8.952 19.995 19.995 19.995zm-.141-35.202a1.267 1.267 0 100-2.534 1.267 1.267 0 000 2.534zm0 33.23a1.267 1.267 0 100-2.535 1.267 1.267 0 000 2.535zM27.596 42.953a1.267 1.267 0 11-2.534 0 1.267 1.267 0 012.534 0zm30.837 1.267a1.267 1.267 0 100-2.534 1.267 1.267 0 000 2.534zm-2.394-11.124a1.267 1.267 0 11-2.535 0 1.267 1.267 0 012.535 0zM54.772 56.33a1.267 1.267 0 100-2.535 1.267 1.267 0 000 2.535zm-9.997-13.377c0 .251-.04.493-.11.72 1.325 1.402 4.68 4.784 6.471 6.58l.167 1.488-8.273-6.483a2.394 2.394 0 01-1.831-4.386c.14-2.024.364-6.581.478-9.043l.985-1.126.767 10.098a2.394 2.394 0 011.346 2.152zM30.553 56.33a1.267 1.267 0 100-2.535 1.267 1.267 0 000 2.535zm1.267-23.234a1.267 1.267 0 11-2.534 0 1.267 1.267 0 012.534 0z" fill="url(#paint4_linear)"/><path d="M42.522 63.089c11.042 0 19.994-8.952 19.994-19.995 0-11.042-8.952-19.994-19.994-19.994-11.043 0-19.995 8.952-19.995 19.994 0 11.043 8.952 19.995 19.995 19.995zm-.141-35.202a1.267 1.267 0 100-2.534 1.267 1.267 0 000 2.534zm0 33.23a1.267 1.267 0 100-2.535 1.267 1.267 0 000 2.535zM27.596 42.953a1.267 1.267 0 11-2.534 0 1.267 1.267 0 012.534 0zm30.837 1.267a1.267 1.267 0 100-2.534 1.267 1.267 0 000 2.534zm-2.394-11.124a1.267 1.267 0 11-2.535 0 1.267 1.267 0 012.535 0zM54.772 56.33a1.267 1.267 0 100-2.535 1.267 1.267 0 000 2.535zm-9.997-13.377c0 .251-.04.493-.11.72 1.325 1.402 4.68 4.784 6.471 6.58l.167 1.488-8.273-6.483a2.394 2.394 0 01-1.831-4.386c.14-2.024.364-6.581.478-9.043l.985-1.126.767 10.098a2.394 2.394 0 011.346 2.152zM30.553 56.33a1.267 1.267 0 100-2.535 1.267 1.267 0 000 2.535zm1.267-23.234a1.267 1.267 0 11-2.534 0 1.267 1.267 0 012.534 0z" fill="url(#paint5_linear)"/></g></g><defs><linearGradient id="paint0_linear" x1="0" y1=".174" x2="58.151" y2="-5.455" gradientUnits="userSpaceOnUse"><stop stop-color="#FFC738"/><stop offset="1" stop-color="#FF9B00"/></linearGradient><linearGradient id="paint1_linear" x1="9.621" y1="9.473" x2="60.734" y2="60.586" gradientUnits="userSpaceOnUse"><stop stop-color="#EAA81B"/><stop offset="1" stop-color="#FFBA1D"/></linearGradient><linearGradient id="paint2_linear" x1="13.651" y1="2.214" x2="57.22" y2="13.417" gradientUnits="userSpaceOnUse"><stop stop-color="#FFC738"/><stop offset="1" stop-color="#FF9B00"/></linearGradient><linearGradient id="paint3_linear" x1="15" y1="15.504" x2="60.494" y2="11.1" gradientUnits="userSpaceOnUse"><stop stop-color="#FFC738"/><stop offset="1" stop-color="#FF9B00"/></linearGradient><linearGradient id="paint4_linear" x1="22.527" y1="23.1" x2="62.516" y2="63.089" gradientUnits="userSpaceOnUse"><stop stop-color="#EAA81B"/><stop offset="1" stop-color="#FFBA1D"/></linearGradient><linearGradient id="paint5_linear" x1="25.68" y1="17.421" x2="59.767" y2="26.185" gradientUnits="userSpaceOnUse"><stop stop-color="#FFC738"/><stop offset="1" stop-color="#FF9B00"/></linearGradient><filter id="filter0_ii" x="-2" y="-2" width="73.831" height="73.831" filterUnits="userSpaceOnUse" color-interpolation-filters="sRGB"><feFlood flood-opacity="0" result="BackgroundImageFix"/><feBlend in="SourceGraphic" in2="BackgroundImageFix" result="shape"/><feColorMatrix in="SourceAlpha" values="0 0 0 0 0 0 0 0 0 0 0 0 0 0 0 0 0 0 127 0" result="hardAlpha"/><feOffset dx="-2" dy="2"/><feGaussianBlur stdDeviation="1"/><feComposite in2="hardAlpha" operator="arithmetic" k2="-1" k3="1"/><feColorMatrix values="0 0 0 0 0.529412 0 0 0 0 0.380392 0 0 0 0 0.0588235 0 0 0 0.5 0"/><feBlend in2="shape" result="effect1_innerShadow"/><feColorMatrix in="SourceAlpha" values="0 0 0 0 0 0 0 0 0 0 0 0 0 0 0 0 0 0 127 0" result="hardAlpha"/><feOffset dx="2" dy="-2"/><feGaussianBlur stdDeviation="1"/><feComposite in2="hardAlpha" operator="arithmetic" k2="-1" k3="1"/><feColorMatrix values="0 0 0 0 1 0 0 0 0 1 0 0 0 0 0.160784 0 0 0 0.3 0"/><feBlend in2="effect1_innerShadow" result="effect2_innerShadow"/></filter><filter id="filter1_dii" x="-167.379" y="-167.527" width="287.113" height="287.113" filterUnits="userSpaceOnUse" color-interpolation-filters="sRGB"><feFlood flood-opacity="0" result="BackgroundImageFix"/><feColorMatrix in="SourceAlpha" values="0 0 0 0 0 0 0 0 0 0 0 0 0 0 0 0 0 0 127 0"/><feOffset dx="-59" dy="-59"/><feGaussianBlur stdDeviation="59"/><feColorMatrix values="0 0 0 0 0.529412 0 0 0 0 0.380392 0 0 0 0 0.0588235 0 0 0 0.2 0"/><feBlend in2="BackgroundImageFix" result="effect1_dropShadow"/><feBlend in="SourceGraphic" in2="effect1_dropShadow" result="shape"/><feColorMatrix in="SourceAlpha" values="0 0 0 0 0 0 0 0 0 0 0 0 0 0 0 0 0 0 127 0" result="hardAlpha"/><feOffset dx="-2" dy="2"/><feGaussianBlur stdDeviation="1"/><feComposite in2="hardAlpha" operator="arithmetic" k2="-1" k3="1"/><feColorMatrix values="0 0 0 0 0.529412 0 0 0 0 0.380392 0 0 0 0 0.0588235 0 0 0 0.5 0"/><feBlend in2="shape" result="effect2_innerShadow"/><feColorMatrix in="SourceAlpha" values="0 0 0 0 0 0 0 0 0 0 0 0 0 0 0 0 0 0 127 0" result="hardAlpha"/><feOffset dx="2" dy="-2"/><feGaussianBlur stdDeviation="1"/><feComposite in2="hardAlpha" operator="arithmetic" k2="-1" k3="1"/><feColorMatrix values="0 0 0 0 1 0 0 0 0 1 0 0 0 0 0.160784 0 0 0 0.3 0"/><feBlend in2="effect2_innerShadow" result="effect3_innerShadow"/></filter><filter id="filter2_ii" x="13" y="13.368" width="58.632" height="58.632" filterUnits="userSpaceOnUse" color-interpolation-filters="sRGB"><feFlood flood-opacity="0" result="BackgroundImageFix"/><feBlend in="SourceGraphic" in2="BackgroundImageFix" result="shape"/><feColorMatrix in="SourceAlpha" values="0 0 0 0 0 0 0 0 0 0 0 0 0 0 0 0 0 0 127 0" result="hardAlpha"/><feOffset dx="-2" dy="2"/><feGaussianBlur stdDeviation="1"/><feComposite in2="hardAlpha" operator="arithmetic" k2="-1" k3="1"/><feColorMatrix values="0 0 0 0 0.529412 0 0 0 0 0.380392 0 0 0 0 0.0588235 0 0 0 0.5 0"/><feBlend in2="shape" result="effect1_innerShadow"/><feColorMatrix in="SourceAlpha" values="0 0 0 0 0 0 0 0 0 0 0 0 0 0 0 0 0 0 127 0" result="hardAlpha"/><feOffset dx="2" dy="-2"/><feGaussianBlur stdDeviation="1"/><feComposite in2="hardAlpha" operator="arithmetic" k2="-1" k3="1"/><feColorMatrix values="0 0 0 0 1 0 0 0 0 1 0 0 0 0 0.160784 0 0 0 0.3 0"/><feBlend in2="effect1_innerShadow" result="effect2_innerShadow"/></filter><filter id="filter3_dii" x="-154.473" y="-153.9" width="275.989" height="275.989" filterUnits="userSpaceOnUse" color-interpolation-filters="sRGB"><feFlood flood-opacity="0" result="BackgroundImageFix"/><feColorMatrix in="SourceAlpha" values="0 0 0 0 0 0 0 0 0 0 0 0 0 0 0 0 0 0 127 0"/><feOffset dx="-59" dy="-59"/><feGaussianBlur stdDeviation="59"/><feColorMatrix values="0 0 0 0 0.529412 0 0 0 0 0.380392 0 0 0 0 0.0588235 0 0 0 0.2 0"/><feBlend in2="BackgroundImageFix" result="effect1_dropShadow"/><feBlend in="SourceGraphic" in2="effect1_dropShadow" result="shape"/><feColorMatrix in="SourceAlpha" values="0 0 0 0 0 0 0 0 0 0 0 0 0 0 0 0 0 0 127 0" result="hardAlpha"/><feOffset dx="-2" dy="2"/><feGaussianBlur stdDeviation="1"/><feComposite in2="hardAlpha" operator="arithmetic" k2="-1" k3="1"/><feColorMatrix values="0 0 0 0 0.529412 0 0 0 0 0.380392 0 0 0 0 0.0588235 0 0 0 0.5 0"/><feBlend in2="shape" result="effect2_innerShadow"/><feColorMatrix in="SourceAlpha" values="0 0 0 0 0 0 0 0 0 0 0 0 0 0 0 0 0 0 127 0" result="hardAlpha"/><feOffset dx="2" dy="-2"/><feGaussianBlur stdDeviation="1"/><feComposite in2="hardAlpha" operator="arithmetic" k2="-1" k3="1"/><feColorMatrix values="0 0 0 0 1 0 0 0 0 1 0 0 0 0 0.160784 0 0 0 0.3 0"/><feBlend in2="effect2_innerShadow" result="effect3_innerShadow"/></filter><clipPath id="clip0"><path fill="#fff" d="M0 0h70v70H0z"/></clipPath></defs></svg>