<svg width="34" height="45" fill="none" xmlns="http://www.w3.org/2000/svg"><g clip-path="url(#clip0)"><path d="M6.177 36.417a1.801 1.801 0 01-.945-1.036L3.29 29.604a2.343 2.343 0 01.23-1.993c.375-.616.997-1.064 1.751-1.264l6.5-1.715c.764-.202 1.583.023 2.085.574.502.55.582 1.307.203 1.929l-2.142 3.523c6.843 3.291 15.423 1.018 19.125-5.068l.745-1.226c.258-.423.852-.58 1.329-.352.476.23.653.758.395 1.181l-.745 1.226c-2.043 3.358-5.433 5.807-9.547 6.897-4.114 1.09-8.46.69-12.235-1.125-.95-.458-1.306-1.517-.792-2.362l2.143-3.523-.003-.004h-.003l-6.5 1.716a.96.96 0 00-.584.422.782.782 0 00-.077.665l1.943 5.777v.002h.006c0 .001 0 0 0 0l.511-.84c.258-.423.853-.58 1.329-.352.476.23.653.758.395 1.181l-.51.84c-.379.623-1.135.978-1.927.905a2.148 2.148 0 01-.737-.201z" fill="#FFC130"/></g><g clip-path="url(#clip1)"><path d="M27.823 7.603c.448.215.793.582.945 1.036l1.943 5.776c.226.67.144 1.379-.23 1.994-.375.615-.997 1.064-1.751 1.263l-6.5 1.716c-.764.202-1.583-.024-2.085-.574-.502-.55-.582-1.307-.203-1.93l2.142-3.522C15.241 10.07 6.661 12.344 2.96 18.429l-.745 1.227c-.258.423-.852.58-1.329.351-.476-.229-.653-.757-.395-1.18l.746-1.227c2.042-3.357 5.432-5.807 9.546-6.897 4.114-1.09 8.46-.69 12.235 1.126.95.457 1.306 1.517.792 2.362l-2.143 3.523.003.004h.003l6.5-1.717a.96.96 0 00.584-.421.781.781 0 00.077-.665L26.89 9.137v-.003h-.006l-.511.84c-.258.424-.853.581-1.329.352-.476-.229-.653-.757-.395-1.18l.51-.84c.379-.623 1.135-.978 1.927-.906.264.024.513.094.737.202z" fill="#FFC130"/></g><defs><clipPath id="clip0"><path fill="#fff" transform="matrix(.90119 .43342 -.51967 .85437 11.935 13.777)" d="M0 0h24.485v22.965H0z"/></clipPath><clipPath id="clip1"><path fill="#fff" transform="matrix(-.90119 -.43342 .51967 -.85437 22.065 30.243)" d="M0 0h24.485v22.965H0z"/></clipPath></defs></svg>