<svg width="230" height="200" fill="none" xmlns="http://www.w3.org/2000/svg"><g clip-path="url(#clip0)"><mask id="a" maskUnits="userSpaceOnUse" x="6" y="0" width="304" height="127"><path fill="url(#paint0_linear)" d="M6 0h304v127H6z"/><path fill="url(#paint1_linear)" d="M6 0h304v127H6z"/></mask><g mask="url(#a)"><g filter="url(#filter0_i)"><path d="M83 29c-1 0-39-17-41.5-17H35c-1 0-1.5 4-3 6s8.5 6 9.5 7.5c.8 1.2 14 10.5 20.5 15l-19 10C34.333 48 16.8 43.2 16 44c-1 1-3 2.5-4 3.5s-.5 7 0 8.5 13.5 5.5 15 6.5 5 2.5 5 4c0 1.2-5 2.833-7.5 3.5.834 1.833 2.5 5.7 2.5 6.5 0 1 3.5 6 5 6.5 1.2.4 30.5-15.167 45-23-.5 7-1.8 22.1-3 26.5-1.2 4.4-1.5 12.833-1.5 16.5l3 4c1.667-.5 5.5-1.5 7.5-1.5s.834-1.667 0-2.5l23-54.5 9-4.5c3-1.5 22.5-10 24-11s7-11 8.5-13.5c1.2-2-.5-5.167-1.5-6.5l-11-4.5c-11.166 4.833-33.8 14.7-35 15.5-1.5 1-16 5-17 5z" fill="#1E2A48"/></g><path d="M23.369 68.094a2.555 2.555 0 00-1.25 3.331l5.652 12.312a2.54 2.54 0 001.413 1.328c.274.102.565.154.858.155.367.004.729-.074 1.063-.225L74.142 64.91l-4.013 40.97a2.557 2.557 0 00.827 2.142 10.992 10.992 0 006.668 2.564 8.058 8.058 0 001.998-.247c3.491-.907 6.206-4.029 8.067-9.37l17.061-50.376 33.543-15.634c9.874-4.604 14.982-13.982 11.592-21.323a12.803 12.803 0 00-9.865-6.978 23.293 23.293 0 00-13.81 2.099L87.5 26.893l-41.513-16.49c-5.228-2-9.373-1.961-12.286.143a10.41 10.41 0 00-3.792 8.21 2.552 2.552 0 001.08 2.016l27.93 19.452-16.05 7.59-26.855-6.953a2.523 2.523 0 00-2.81 1.214L6.472 54.197a2.555 2.555 0 001.304 3.593l19.872 8.332-4.278 1.972zm11.725-50.595a4.363 4.363 0 011.526-2.745c1.445-1.04 4.074-.879 7.583.455l36.97 14.643-16.912 7.893-29.167-20.246zm-22.86 36.69l4.422-7.853L42.5 52.877a2.517 2.517 0 001.67-.147l84.176-39.285a18.368 18.368 0 0110.8-1.7 7.915 7.915 0 016.157 4.04c2.108 4.59-2.082 11.271-9.146 14.56l-29.164 13.66 1.786-5.265a2.592 2.592 0 00-1.621-3.275 2.568 2.568 0 00-3.254 1.632l-20.99 62.278c-1.249 3.535-2.797 5.644-4.517 6.096a4.256 4.256 0 01-3.083-.594l5.214-53.441a2.551 2.551 0 00-2.281-2.793 2.543 2.543 0 00-2.775 2.295l-.807 8.168-43.443 20.237-3.54-7.647 7.137-3.338a2.546 2.546 0 001.516-2.325 2.544 2.544 0 00-1.502-2.334l-22.599-9.51z" fill="#1C2845"/></g></g><defs><linearGradient id="paint0_linear" x1="352.085" y1="106.754" x2="5.422" y2="-15.318" gradientUnits="userSpaceOnUse"><stop stop-color="#60719D" stop-opacity=".1"/><stop offset=".547" stop-color="#3B496E" stop-opacity=".726"/><stop offset=".999" stop-color="#2A375A"/></linearGradient><linearGradient id="paint1_linear" x1="460.515" y1="104.26" x2="6" y2="103.277" gradientUnits="userSpaceOnUse"><stop stop-color="#1A2643"/><stop offset="1" stop-color="#1A2643" stop-opacity="0"/></linearGradient><clipPath id="clip0"><path fill="#fff" d="M0 0h230v200H0z"/></clipPath><filter id="filter0_i" x="11.423" y="8.5" width="136.49" height="98.5" filterUnits="userSpaceOnUse" color-interpolation-filters="sRGB"><feFlood flood-opacity="0" result="BackgroundImageFix"/><feBlend in="SourceGraphic" in2="BackgroundImageFix" result="shape"/><feColorMatrix in="SourceAlpha" values="0 0 0 0 0 0 0 0 0 0 0 0 0 0 0 0 0 0 127 0" result="hardAlpha"/><feOffset/><feGaussianBlur stdDeviation="5"/><feComposite in2="hardAlpha" operator="arithmetic" k2="-1" k3="1"/><feColorMatrix values="0 0 0 0 0 0 0 0 0 0 0 0 0 0 0 0 0 0 1 0"/><feBlend in2="shape" result="effect1_innerShadow"/></filter></defs></svg>