<svg width="35" height="35" fill="none" xmlns="http://www.w3.org/2000/svg"><g clip-path="url(#clip0)"><rect width="35" height="35" rx="8" fill="#CC1D1D"/><path d="M24.677 22.404H23.27l.006-.806c0-.359.298-.651.663-.651h.09a.66.66 0 01.664.65l-.016.807zm-5.275-1.728c-.356 0-.648.237-.648.527v3.921c0 .29.292.526.648.526.358 0 .65-.236.65-.526v-3.922c0-.289-.292-.526-.65-.526zm8.564-2.193v7.46c0 1.79-1.571 3.253-3.493 3.253H10.111c-1.923 0-3.494-1.464-3.494-3.253v-7.46c0-1.79 1.571-3.254 3.494-3.254h14.363c1.92 0 3.492 1.465 3.492 3.254zm-16.898 8.27v-7.858h1.78v-1.164l-4.746-.007v1.144l1.481.004v7.88h1.485zm5.338-6.687H14.92v4.196c0 .607.037.91-.002 1.017-.121.325-.664.67-.875.035-.036-.111-.004-.447-.005-1.024l-.007-4.225h-1.476l.006 4.158c0 .638-.015 1.113.004 1.33.036.38.023.826.382 1.079.668.476 1.948-.07 2.268-.75l-.003.867 1.192.001v-6.684zm4.748 4.804l-.002-3.492c-.002-1.331-1.01-2.129-2.38-1.052l.006-2.596-1.483.002-.007 8.962 1.22-.018.11-.558c1.559 1.413 2.539.445 2.536-1.248zm4.647-.462l-1.114.005-.003.15v.613a.604.604 0 01-.608.595h-.218a.604.604 0 01-.608-.595v-1.613h2.549v-.948c0-.692-.019-1.384-.077-1.78-.182-1.251-1.961-1.45-2.86-.81a1.66 1.66 0 00-.624.83c-.127.36-.19.85-.19 1.476v2.082c.002 3.461 4.26 2.972 3.753-.005zm-5.71-11.306a.993.993 0 00.357.445c.159.11.363.167.607.167a.95.95 0 00.569-.175c.165-.118.304-.292.417-.526l-.029.575h1.655V6.641h-1.303v5.407a.54.54 0 01-.543.532.54.54 0 01-.542-.532V6.64h-1.36v4.685c0 .597.011.995.03 1.197.019.2.066.393.142.579zm-5.014-3.924c0-.667.056-1.187.168-1.563a1.74 1.74 0 01.608-.901c.292-.228.667-.342 1.122-.342.382 0 .71.074.985.22.274.145.488.335.634.57.151.234.252.476.307.723.056.25.083.628.083 1.137v1.758c0 .644-.027 1.118-.077 1.42-.05.301-.158.581-.326.843-.165.26-.378.454-.637.578-.261.125-.56.186-.898.186-.377 0-.695-.051-.956-.159a1.31 1.31 0 01-.61-.482 2.104 2.104 0 01-.31-.778c-.063-.305-.093-.761-.093-1.37v-1.84zm1.295 2.76c0 .393.297.714.658.714.362 0 .657-.32.657-.714V8.24c0-.393-.295-.714-.657-.714-.36 0-.658.321-.658.714v3.7zm-4.58 1.868h1.562l.002-5.329L15.2 3.912h-1.707l-.981 3.391-.995-3.4h-1.69L11.79 8.48l.003 5.326z" fill="#fff"/></g><defs><clipPath id="clip0"><path fill="#fff" d="M0 0h35v35H0z"/></clipPath></defs></svg>