<svg width="25" height="47" fill="none" xmlns="http://www.w3.org/2000/svg"><path d="M11.548 2.95c.298-.924 1.606-.924 1.904 0l1.63 5.056a1 1 0 00.953.693h5.293c.967 0 1.371 1.236.59 1.807l-4.294 3.143a1 1 0 00-.361 1.114l1.637 5.076c.298.922-.76 1.686-1.542 1.114L13.09 17.83a1 1 0 00-1.18 0l-4.268 3.123c-.782.572-1.84-.192-1.542-1.114l1.637-5.076a1 1 0 00-.36-1.114L3.08 10.506c-.78-.571-.376-1.807.59-1.807h5.294a1 1 0 00.952-.693l1.631-5.056z" fill="url(#paint0_linear)"/><path d="M11.548 24.771c.298-.924 1.606-.924 1.904 0l1.63 5.056a1 1 0 00.953.693h5.293c.967 0 1.371 1.236.59 1.807l-4.294 3.143a1 1 0 00-.361 1.114L18.9 41.66c.298.923-.76 1.687-1.542 1.114l-4.268-3.123a1 1 0 00-1.18 0l-4.268 3.123c-.782.573-1.84-.191-1.542-1.114l1.637-5.076a1 1 0 00-.36-1.114L3.08 32.327c-.78-.57-.376-1.807.59-1.807h5.294a1 1 0 00.952-.693l1.631-5.056z" fill="#fff" fill-opacity=".5"/><defs><linearGradient id="paint0_linear" x1="0" y1=".063" x2="20.821" y2="-1.938" gradientUnits="userSpaceOnUse"><stop stop-color="#FFC738"/><stop offset="1" stop-color="#FF9B00"/></linearGradient></defs></svg>