<svg width="35" height="35" fill="none" xmlns="http://www.w3.org/2000/svg"><g clip-path="url(#clip0)"><path d="M17.5 35C27.165 35 35 27.165 35 17.5S27.165 0 17.5 0 0 7.835 0 17.5 7.835 35 17.5 35z" fill="#75B73B"/><path d="M24.626 10.379c-1.015-.254-2.507-1.13-3.473-1.482-3.77-1.178-8.838-.235-10.252 4.125-.118.118-.354.118-.471.118-2.829 3.3-.943 7.306-1.179 10.96-.08 1.287-.757 2.426-1.629 3.39l7.334 7.325c.83.121 1.68.185 2.544.185 8.643 0 15.822-6.266 17.244-14.503L24.626 10.379z" fill="#52891D"/><path d="M17.01 7.413c-5.333.254-9.543 4.696-9.527 10.036a9.973 9.973 0 001.09 4.518L7.51 27.13a.39.39 0 00.472.458l5.058-1.199a9.97 9.97 0 004.304 1.045c5.452.083 9.998-4.245 10.168-9.695.182-5.842-4.64-10.605-10.501-10.326zm6.036 15.551a7.792 7.792 0 01-5.546 2.298 7.762 7.762 0 01-3.49-.818l-.705-.351-3.101.734.652-3.169-.346-.68a7.754 7.754 0 01-.853-3.56c0-2.095.816-4.064 2.297-5.546A7.857 7.857 0 0117.5 9.575c2.095 0 4.065.816 5.546 2.297a7.792 7.792 0 012.297 5.546 7.857 7.857 0 01-2.297 5.546z" fill="#fff"/><path d="M22.361 19.59l-1.94-.556a.724.724 0 00-.716.188l-.474.484a.706.706 0 01-.769.162c-.917-.372-2.848-2.088-3.341-2.947a.707.707 0 01.056-.783l.414-.536a.723.723 0 00.09-.735l-.817-1.846a.724.724 0 00-1.13-.259c-.541.458-1.184 1.154-1.262 1.925-.138 1.36.446 3.073 2.65 5.13 2.547 2.378 4.586 2.692 5.915 2.37.753-.182 1.355-.913 1.734-1.512a.724.724 0 00-.41-1.084z" fill="#fff"/><path d="M24.336 10.097l-1.519 1.557a7.792 7.792 0 012.526 5.764 7.857 7.857 0 01-2.297 5.547 7.792 7.792 0 01-5.546 2.297 7.762 7.762 0 01-3.49-.818l-.705-.351-3.101.734.064-.31L7.52 27.33a.39.39 0 00.46.257l5.06-1.199a9.968 9.968 0 004.303 1.045c5.452.083 9.998-4.245 10.168-9.695a9.992 9.992 0 00-3.176-7.642z" fill="#D1D1D1"/><path d="M22.362 19.59l-1.94-.556a.724.724 0 00-.716.188l-.475.484a.706.706 0 01-.768.162c-.53-.215-1.398-.878-2.132-1.566l-1.349 1.383.14.133c2.547 2.377 4.587 2.691 5.915 2.37.754-.183 1.355-.914 1.735-1.513a.724.724 0 00-.41-1.084z" fill="#D1D1D1"/></g><defs><clipPath id="clip0"><path fill="#fff" d="M0 0h35v35H0z"/></clipPath></defs></svg>