<svg width="35" height="35" fill="none" xmlns="http://www.w3.org/2000/svg"><rect width="35" height="35" rx="8" fill="#F77C00"/><path d="M17.426 17.255a6.575 6.575 0 006.568-6.569 6.575 6.575 0 00-6.568-6.568 6.575 6.575 0 00-6.569 6.568 6.575 6.575 0 006.569 6.569zm0-9.853a3.288 3.288 0 013.284 3.284 3.288 3.288 0 01-3.284 3.285 3.288 3.288 0 01-3.285-3.285 3.288 3.288 0 013.285-3.284z" fill="#fff"/><path d="M26.133 17.073a1.64 1.64 0 00-2.322 0c-3.52 3.52-9.251 3.52-12.773 0a1.643 1.643 0 00-2.322 2.324 12.238 12.238 0 007.302 3.51l-4.681 4.682a1.64 1.64 0 000 2.322 1.64 1.64 0 002.322 0l3.765-3.765 3.765 3.765a1.638 1.638 0 002.322 0 1.64 1.64 0 000-2.322l-4.682-4.682a12.237 12.237 0 007.302-3.51 1.644 1.644 0 00.002-2.324z" fill="#fff"/></svg>