<svg width="35" height="35" fill="none" xmlns="http://www.w3.org/2000/svg"><g clip-path="url(#clip0)"><path d="M2.188 2.382C-.562 5.238.001 8.273.001 17.492c0 7.657-1.336 15.332 5.655 17.14 2.183.56 21.526.56 23.707-.004 2.91-.75 5.279-3.112 5.602-7.229.046-.574.046-19.228 0-19.814C34.62 3.2 31.92.672 28.363.16c-.816-.118-.979-.153-5.161-.16C8.367.007 5.115-.653 2.188 2.382z" fill="url(#paint0_linear)"/><path d="M17.497 4.578c-5.296 0-10.324-.471-12.245 4.458-.793 2.036-.678 4.68-.678 8.465 0 3.322-.106 6.445.678 8.464 1.917 4.933 6.986 4.46 12.242 4.46 5.07 0 10.298.528 12.242-4.46.795-2.056.678-4.66.678-8.464 0-5.048.279-8.308-2.17-10.755-2.479-2.479-5.831-2.168-10.753-2.168h.006zm-1.158 2.329c11.045-.018 12.45-1.246 11.675 15.812-.276 6.033-4.87 5.371-10.516 5.371-10.296 0-10.592-.294-10.592-10.595 0-10.42.817-10.583 9.433-10.591v.003zm8.055 2.145a1.55 1.55 0 100 3.1 1.55 1.55 0 000-3.1zm-6.897 1.813a6.636 6.636 0 000 13.272A6.634 6.634 0 0024.13 17.5a6.635 6.635 0 00-6.633-6.637zm0 2.328c5.694 0 5.702 8.616 0 8.616-5.694 0-5.703-8.616 0-8.616z" fill="#fff"/></g><defs><linearGradient id="paint0_linear" x1="2.255" y1="32.765" x2="34.784" y2="4.611" gradientUnits="userSpaceOnUse"><stop stop-color="#FD5"/><stop offset=".5" stop-color="#FF543E"/><stop offset="1" stop-color="#C837AB"/></linearGradient><clipPath id="clip0"><path fill="#fff" d="M0 0h35v35H0z"/></clipPath></defs></svg>