<svg width="62" height="62" fill="none" xmlns="http://www.w3.org/2000/svg"><g clip-path="url(#clip0)"><g clip-path="url(#clip1)"><path d="M32.096 50.367v-7.661c0-1.04.843-1.882 1.882-1.882 3.707 0 5.724-3.802 6.003-11.307h-6.003a1.882 1.882 0 01-1.882-1.882V11.458c0-1.04.843-1.881 1.882-1.881h16.006c1.04 0 1.882.843 1.882 1.881v16.178c0 3.597-.363 6.898-1.076 9.814-.732 2.988-1.857 5.601-3.34 7.767-1.527 2.225-3.438 3.971-5.677 5.187-2.256 1.224-4.879 1.845-7.796 1.845a1.883 1.883 0 01-1.88-1.882zM7.83 40.823a1.881 1.881 0 00-1.88 1.881v7.663a1.88 1.88 0 001.88 1.88c2.916 0 5.54-.62 7.795-1.844 2.24-1.216 4.15-2.96 5.677-5.188 1.485-2.165 2.61-4.778 3.341-7.768.714-2.916 1.076-6.217 1.076-9.813V11.456a1.88 1.88 0 00-1.881-1.88H7.83a1.882 1.882 0 00-1.88 1.88v16.178a1.88 1.88 0 001.88 1.881h5.92c-.277 7.506-2.264 11.308-5.92 11.308z" fill="#172340"/></g></g><defs><clipPath id="clip0"><path fill="#fff" transform="rotate(-179.881 30.481 30.73)" d="M0 0h60.899v60.899H0z"/></clipPath><clipPath id="clip1"><path fill="#fff" transform="translate(5.95 7.954)" d="M0 0h45.917v45.917H0z"/></clipPath></defs></svg>