<svg width="47" height="47" fill="none" xmlns="http://www.w3.org/2000/svg"><g clip-path="url(#clip0)" fill="#42506E"><path d="M46.021 22.52c.548 0 .98.432.98.98a.97.97 0 01-.98.98h-.979v-1.96h.98zm-21.541 0h20.562v1.96H24.479v-1.96z"/><path d="M42.104 47H23.5a.97.97 0 00.98-.98v-.978h17.624a2.934 2.934 0 002.938-2.938V24.48h.979A.97.97 0 0047 23.5v18.604A4.898 4.898 0 0142.104 47zM47 4.896V23.5a.97.97 0 00-.98-.98h-.978V4.897a2.934 2.934 0 00-2.938-2.938H24.48V.98A.97.97 0 0023.5 0h18.604A4.898 4.898 0 0147 4.896z"/><path d="M39.167 11.75c.548 0 .98.43.98.98a.97.97 0 01-.98.978h-7.833a.97.97 0 01-.98-.979.97.97 0 01.98-.979h7.833zm0 19.583a.97.97 0 01.98.98.97.97 0 01-.98.979h-7.833a.97.97 0 01-.98-.98.97.97 0 01.98-.979h7.833zm0 5.875a.97.97 0 01.98.98.97.97 0 01-.98.979h-7.833a.97.97 0 01-.98-.98.97.97 0 01.98-.979h7.833zm-14.688 7.834v.979a.97.97 0 01-.98.979.97.97 0 01-.979-.98v-.978h1.959zM22.52 24.48h1.959v20.562H22.52V24.479z"/><path d="M22.52 22.52h1.959v1.96H22.52v-1.96z"/><path d="M22.52 1.958h1.959v20.563H22.52V1.958zM24.479.98v.978H22.52V.98a.97.97 0 01.98-.979.97.97 0 01.979.98zM1.958 22.52H22.52v1.96H1.958v-1.96zm13.709-10.77c.548 0 .98.43.98.98a.97.97 0 01-.98.978h-2.938V11.75h2.938zm-.294 25.752a.946.946 0 010 1.37.918.918 0 01-.685.295.918.918 0 01-.686-.294L11.75 36.62l1.37-1.371 2.253 2.252z"/><path d="M14.002 31.627a.947.947 0 011.37 0 .947.947 0 010 1.371l-2.251 2.252-1.371-1.37 2.252-2.253zm-3.629 3.621l1.371-1.37 1.37 1.37-1.37 1.371-1.371-1.371zm2.356-21.54v2.938a.97.97 0 01-.98.979.97.97 0 01-.979-.98v-2.937h1.959zM10.77 11.75h1.959v1.958H10.77V11.75zm1.959-2.937v2.937H10.77V8.813c0-.549.43-.98.979-.98a.97.97 0 01.979.98z"/><path d="M11.75 33.88l-1.371 1.37-2.252-2.252a.947.947 0 010-1.37.947.947 0 011.37 0l2.253 2.251zm-.979-22.13v1.958H7.834a.97.97 0 01-.98-.979.97.97 0 01.98-.979h2.937zM9.498 38.873a.918.918 0 01-.686.294.918.918 0 01-.685-.294.946.946 0 010-1.37l2.252-2.253 1.37 1.37-2.251 2.253zM1.958 22.52v1.96H.98A.97.97 0 010 23.5c0-.548.43-.98.98-.98h.978z"/><path d="M0 4.896A4.898 4.898 0 014.896 0H23.5a.97.97 0 00-.98.98v.978H4.897a2.934 2.934 0 00-2.938 2.938V22.52H.98a.97.97 0 00-.98.98V4.896zm1.958 37.208a2.934 2.934 0 002.938 2.938H22.52v.979c0 .548.43.979.979.979H4.896A4.898 4.898 0 010 42.104V23.5c0 .548.43.98.98.98h.978v17.624z"/></g><defs><clipPath id="clip0"><path fill="#fff" d="M0 0h47v47H0z"/></clipPath></defs></svg>