<svg width="144" height="216" fill="none" xmlns="http://www.w3.org/2000/svg"><path d="M8 13.5c-1 1.5-4 9-4 11V30l21.5 1v-8.5l6-3.5h6c1.167 1.833 3.6 6.1 4 8.5.5 3-5 6-6 7s-9 10.5-10 12c-.8 1.2-.333 7.833 0 11h19c.5-2.167 1.5-6.6 1.5-7 0-.4 2.333-2.833 3.5-4L58 39l5.5-9V17.5L54.5 7 40 1.5c-6.167.667-18.6 2.1-19 2.5-.5.5-12 8-13 9.5zm38 51H26.5l-1 18.5H46V64.5zM84 57c-1 1.5-4 9-4 11v7.5l21.5-1V66l6-3.5h6c1.167 1.833 3.6 6.1 4 8.5.5 3-3 8-4 9s-10 9.5-11 11c-.8 1.2-.833 11.333-.5 14.5l20 .5c.5-2.167 1.5-9.1 1.5-9.5 0-.4 3.833-2.833 5-4l9.5-9 4.5-11.5-3-15-9-6.5L116 45c-6.167.667-18.6 2.1-19 2.5-.5.5-12 8-13 9.5zm38.5 57l-20-.5-.5 20.5h20l.5-20zm-112 11c-1 1.5-8 10-8 12L2 151.5l24-1 2.5-11.5 6-3.5h6c1.167 1.833 3.6 6.1 4 8.5.5 3-3 8-4 9s-10 9.5-11 11c-.8 1.2-2.833 16.833-2.5 20l23.5-.5c.5-2.167 1-9.1 1-9.5 0-.4 6.333-4.333 7.5-5.5L71 156l2.5-17-5-9.5-9.5-8-14.5-6c-6.167.667-15.5 2-21 3-3.966.721-12 5-13 6.5zm39 67.5H27l1 21 22.5 1-1-22z" fill="#172340"/><path d="M51.851 185H25.334v-11.907a11.63 11.63 0 011.466-5.754 25.234 25.234 0 013.518-4.769c1.348-1.538 2.8-2.923 4.324-4.338a57.307 57.307 0 004.104-4.2 22.736 22.736 0 003.035-4.354 9.193 9.193 0 001.084-4.477 10.442 10.442 0 00-.498-3.169 7.44 7.44 0 00-1.43-2.562 7.03 7.03 0 00-2.279-1.761 6.786 6.786 0 00-3.034-.661 7.18 7.18 0 00-3.65.8 5.803 5.803 0 00-2.081 2.092 9.183 9.183 0 00-1.07 3.185 27.003 27.003 0 00-.308 4.092v1.984c.003.556.042 1.111.117 1.662l.278 2.015H.561l-.147-1.538c-.088-.908-.175-1.8-.263-2.646a25.805 25.805 0 01-.147-2.862 29.43 29.43 0 012.932-13.322c1.984-3.948 4.777-7.384 8.18-10.061a37.165 37.165 0 0112.239-6.293 52.017 52.017 0 0115.26-2.153 48.21 48.21 0 0114.658 2.123 34.595 34.595 0 0111.492 6.153c3.18 2.624 5.76 5.962 7.55 9.769a30.031 30.031 0 012.682 12.754 22.168 22.168 0 01-1.891 9.368 30.781 30.781 0 01-4.56 7.185 43.098 43.098 0 01-5.79 5.615c-1.993 1.538-3.854 3.077-5.584 4.354a33.239 33.239 0 00-4.09 3.599 3.55 3.55 0 00-.848 1.086 3.704 3.704 0 00-.383 1.345V185zm-23.146-3.492H48.48V177.2a7.19 7.19 0 01.622-2.708 6.89 6.89 0 011.59-2.23 38.533 38.533 0 014.486-3.954 507.244 507.244 0 005.541-4.323 37.102 37.102 0 005.307-5.153 27.433 27.433 0 004.045-6.354 18.742 18.742 0 001.598-7.892 26.183 26.183 0 00-2.345-11.184 24.426 24.426 0 00-6.611-8.554 30.993 30.993 0 00-10.393-5.522 44.584 44.584 0 00-13.618-1.97 49.176 49.176 0 00-14.306 2 33.67 33.67 0 00-11.155 5.723 26.35 26.35 0 00-7.227 8.877 25.854 25.854 0 00-2.595 11.676c-.002.828.043 1.655.132 2.477 0 .354.074.723.103 1.092h21.548v-2.046a30.72 30.72 0 01.352-4.615c.211-1.567.71-3.077 1.466-4.446a9.181 9.181 0 013.283-3.323 10.195 10.195 0 015.336-1.277c1.552-.022 3.09.32 4.5 1a10.909 10.909 0 013.327 2.6 11.154 11.154 0 012.096 3.769c.458 1.391.69 2.852.69 4.323a13.146 13.146 0 01-1.466 6.154 26.874 26.874 0 01-3.518 5.015 58.157 58.157 0 01-4.398 4.461 72.72 72.72 0 00-4.134 4.139 21.84 21.84 0 00-3.034 4.107 7.981 7.981 0 00-1.055 3.954l.058 8.492zM52 216H25v-26h27v26zm-23.658-3.477h20.257v-19.046H28.401l-.06 19.046zM46.834 59H24V48.828a9.788 9.788 0 011.319-4.883 20.98 20.98 0 012.981-3.987 59.176 59.176 0 013.61-3.58 45.557 45.557 0 003.374-3.419 18.508 18.508 0 002.464-3.483 7.154 7.154 0 00.847-3.466 7.6 7.6 0 00-.408-2.458 5.736 5.736 0 00-1.083-1.953 5.79 5.79 0 00-1.773-1.35 5.249 5.249 0 00-2.338-.489 5.448 5.448 0 00-2.825.602 4.27 4.27 0 00-1.57 1.628 7.136 7.136 0 00-.831 2.457 22.441 22.441 0 00-.251 3.255v1.628c0 .43.032.86.094 1.286l.298 2.148H3.505l-.392-3.874a23.186 23.186 0 01-.11-2.376 24.2 24.2 0 012.51-11.116 24.797 24.797 0 016.89-8.382 30.94 30.94 0 0110.295-5.224A43.762 43.762 0 0135.457.002a40.96 40.96 0 0112.24 1.757 28.895 28.895 0 019.667 5.11 23.225 23.225 0 016.372 8.139 24.586 24.586 0 012.26 10.627c.057 2.71-.48 5.398-1.57 7.861a25.205 25.205 0 01-3.844 5.99 34.04 34.04 0 01-4.865 4.655c-1.648 1.302-3.139 2.49-4.63 3.564a30.632 30.632 0 00-3.343 2.913 2.642 2.642 0 00-.91 1.628V59zM27.61 55.24h15.583v-3.076a6.305 6.305 0 01.553-2.38 6.108 6.108 0 011.409-1.965 33.719 33.719 0 013.766-3.255 258.685 258.685 0 004.583-3.532 30.444 30.444 0 004.316-4.183 21.757 21.757 0 003.28-5.11 14.862 14.862 0 001.24-6.234 20.962 20.962 0 00-1.9-8.984 19.59 19.59 0 00-5.367-6.868A25.293 25.293 0 0046.6 5.21a37.14 37.14 0 00-11.19-1.628A40.165 40.165 0 0023.672 5.21a27.593 27.593 0 00-9.134 4.606 21.519 21.519 0 00-5.885 7.145 20.716 20.716 0 00-2.087 9.374c-.001.663.03 1.326.094 1.986v.504h17.122v-1.253a24.46 24.46 0 01.298-3.873c.197-1.344.64-2.636 1.302-3.809a8.092 8.092 0 012.872-2.864 8.914 8.914 0 014.63-1.107 8.751 8.751 0 013.907.863 9.31 9.31 0 012.888 2.23 9.56 9.56 0 011.82 3.254 11.54 11.54 0 01.597 3.679 11.024 11.024 0 01-1.303 5.29 21.644 21.644 0 01-2.966 4.198 49.864 49.864 0 01-3.64 3.695 62.229 62.229 0 00-3.406 3.369 17.832 17.832 0 00-2.464 3.255 5.957 5.957 0 00-.816 3.027l.11 6.461zM47 85H24V63h23v22zm-19.394-3.656h15.772V66.656H27.606v14.688zM123.352 107H99.676V96.304c.004-1.82.474-3.604 1.361-5.164a22.648 22.648 0 013.146-4.298c1.194-1.355 2.504-2.616 3.852-3.89 1.348-1.274 2.567-2.494 3.684-3.796a20.935 20.935 0 002.722-3.917 8.497 8.497 0 00.963-4.067 9.233 9.233 0 00-.449-2.86 6.775 6.775 0 00-1.284-2.319 6.45 6.45 0 00-2.054-1.6 6.023 6.023 0 00-2.735-.596 6.443 6.443 0 00-3.287.719 5.388 5.388 0 00-1.874 1.898 8.501 8.501 0 00-.95 2.874 23.501 23.501 0 00-.283 3.7v1.708c.003.504.037 1.006.103 1.505l.244 1.776H77.503l-.129-1.356c-.09-.84-.166-1.626-.243-2.4a26.699 26.699 0 01-.129-2.575 26.64 26.64 0 012.658-11.97c1.771-3.555 4.271-6.649 7.318-9.055a32.844 32.844 0 0110.952-5.653 46.126 46.126 0 0113.597-1.965c4.418-.05 8.819.593 13.057 1.911a30.374 30.374 0 0110.272 5.517c2.851 2.348 5.157 5.352 6.74 8.785a26.842 26.842 0 012.401 11.468 20.263 20.263 0 01-1.682 8.432 27.733 27.733 0 01-4.07 6.452 37.823 37.823 0 01-5.135 5.043c-1.785 1.423-3.441 2.711-4.995 3.931a32.985 32.985 0 00-3.672 3.24 3.356 3.356 0 00-1.104 2.21l.013 7.008zm-20.723-3.091h17.77v-3.877a6.529 6.529 0 01.555-2.42 6.23 6.23 0 011.409-1.999 35.551 35.551 0 014.019-3.552 347.534 347.534 0 004.956-3.904 34 34 0 004.763-4.636 24.813 24.813 0 003.621-5.72 17.045 17.045 0 001.387-7.076 23.933 23.933 0 00-2.093-10.1 22.145 22.145 0 00-5.932-7.713 27.713 27.713 0 00-9.308-4.975 39.704 39.704 0 00-12.198-1.776 43.17 43.17 0 00-12.839 1.817 29.53 29.53 0 00-10.002 5.151c-2.699 2.128-4.914 4.865-6.484 8.012a23.355 23.355 0 00-2.31 10.519c-.007.747.028 1.494.102 2.237 0 .338.064.677.103 1.016h19.387v-1.911a28.189 28.189 0 01.308-4.189 11.577 11.577 0 011.348-4.067 8.36 8.36 0 012.928-2.982 9.066 9.066 0 014.763-1.152 8.861 8.861 0 014.019.908 9.247 9.247 0 012.976 2.328 9.848 9.848 0 011.864 3.38c.411 1.25.62 2.565.616 3.89a11.853 11.853 0 01-1.348 5.571 23.54 23.54 0 01-3.133 4.514 53.401 53.401 0 01-3.851 4.067c-1.284 1.22-2.568 2.48-3.711 3.728a20.72 20.72 0 00-2.722 3.714 7.07 7.07 0 00-.95 3.579l-.013 7.618zM124 135h-24v-23h24v23zm-21.034-3.031h18.055v-16.951h-18.055v16.951z" fill="#303D61"/></svg>