<svg width="71" height="71" fill="none" xmlns="http://www.w3.org/2000/svg"><g clip-path="url(#clip0)"><g opacity=".1"><circle cx="35.915" cy="35.915" r="32.415" stroke="url(#paint0_linear)" stroke-width="5"/><g filter="url(#filter0_dii)" fill-rule="evenodd" clip-rule="evenodd"><path d="M36.178 61.586c14.114 0 25.556-11.442 25.556-25.557 0-14.114-11.442-25.556-25.556-25.556-14.115 0-25.557 11.442-25.557 25.556 0 14.115 11.442 25.557 25.557 25.557zm-.18-44.992a1.62 1.62 0 100-3.24 1.62 1.62 0 000 3.24zm0 42.473a1.62 1.62 0 100-3.24 1.62 1.62 0 000 3.24zM17.1 35.85a1.62 1.62 0 11-3.24 0 1.62 1.62 0 013.24 0zm39.414 1.62a1.62 1.62 0 100-3.24 1.62 1.62 0 000 3.24zm-3.059-14.218a1.62 1.62 0 11-3.24 0 1.62 1.62 0 013.24 0zm-1.62 29.697a1.62 1.62 0 100-3.24 1.62 1.62 0 000 3.24zM39.056 35.851c0 .32-.05.63-.14.92 1.694 1.793 5.981 6.116 8.272 8.412l.213 1.901-10.576-8.287a3.064 3.064 0 01-3.888-2.946c0-1.14.624-2.135 1.549-2.661.18-2.588.466-8.411.612-11.557l1.26-1.44.98 12.907a3.06 3.06 0 011.718 2.75zM20.88 52.949a1.62 1.62 0 100-3.24 1.62 1.62 0 000 3.24zm1.62-29.697a1.62 1.62 0 11-3.24 0 1.62 1.62 0 013.24 0z" fill="url(#paint1_linear)"/><path d="M36.178 61.586c14.114 0 25.556-11.442 25.556-25.557 0-14.114-11.442-25.556-25.556-25.556-14.115 0-25.557 11.442-25.557 25.556 0 14.115 11.442 25.557 25.557 25.557zm-.18-44.992a1.62 1.62 0 100-3.24 1.62 1.62 0 000 3.24zm0 42.473a1.62 1.62 0 100-3.24 1.62 1.62 0 000 3.24zM17.1 35.85a1.62 1.62 0 11-3.24 0 1.62 1.62 0 013.24 0zm39.414 1.62a1.62 1.62 0 100-3.24 1.62 1.62 0 000 3.24zm-3.059-14.218a1.62 1.62 0 11-3.24 0 1.62 1.62 0 013.24 0zm-1.62 29.697a1.62 1.62 0 100-3.24 1.62 1.62 0 000 3.24zM39.056 35.851c0 .32-.05.63-.14.92 1.694 1.793 5.981 6.116 8.272 8.412l.213 1.901-10.576-8.287a3.064 3.064 0 01-3.888-2.946c0-1.14.624-2.135 1.549-2.661.18-2.588.466-8.411.612-11.557l1.26-1.44.98 12.907a3.06 3.06 0 011.718 2.75zM20.88 52.949a1.62 1.62 0 100-3.24 1.62 1.62 0 000 3.24zm1.62-29.697a1.62 1.62 0 11-3.24 0 1.62 1.62 0 013.24 0z" fill="url(#paint2_linear)"/></g></g><circle cx="43.316" cy="43.684" r="24.816" stroke="url(#paint3_linear)" stroke-width="5"/><path fill-rule="evenodd" clip-rule="evenodd" d="M43.522 63.188c10.545 0 19.094-8.548 19.094-19.094C62.616 33.55 54.067 25 43.522 25c-10.545 0-19.094 8.549-19.094 19.094 0 10.546 8.549 19.094 19.094 19.094zm-.135-33.616a1.21 1.21 0 100-2.42 1.21 1.21 0 000 2.42zm0 31.733a1.21 1.21 0 100-2.42 1.21 1.21 0 000 2.42zM29.268 43.96a1.21 1.21 0 11-2.42 0 1.21 1.21 0 012.42 0zm29.448 1.21a1.21 1.21 0 100-2.42 1.21 1.21 0 000 2.42zM56.43 34.547a1.21 1.21 0 11-2.42 0 1.21 1.21 0 012.42 0zm-1.21 22.188a1.21 1.21 0 100-2.42 1.21 1.21 0 000 2.42zM45.673 43.96c0 .24-.036.47-.105.688 1.267 1.338 4.47 4.568 6.18 6.283l.16 1.42-7.9-6.19a2.286 2.286 0 01-1.75-4.189c.135-1.933.348-6.285.457-8.635l.941-1.076.732 9.643a2.286 2.286 0 011.285 2.056zm-13.58 12.774a1.21 1.21 0 100-2.42 1.21 1.21 0 000 2.42zm1.21-22.188a1.21 1.21 0 11-2.42 0 1.21 1.21 0 012.42 0z" fill="url(#paint4_linear)"/><path fill-rule="evenodd" clip-rule="evenodd" d="M43.522 63.188c10.545 0 19.094-8.548 19.094-19.094C62.616 33.55 54.067 25 43.522 25c-10.545 0-19.094 8.549-19.094 19.094 0 10.546 8.549 19.094 19.094 19.094zm-.135-33.616a1.21 1.21 0 100-2.42 1.21 1.21 0 000 2.42zm0 31.733a1.21 1.21 0 100-2.42 1.21 1.21 0 000 2.42zM29.268 43.96a1.21 1.21 0 11-2.42 0 1.21 1.21 0 012.42 0zm29.448 1.21a1.21 1.21 0 100-2.42 1.21 1.21 0 000 2.42zM56.43 34.547a1.21 1.21 0 11-2.42 0 1.21 1.21 0 012.42 0zm-1.21 22.188a1.21 1.21 0 100-2.42 1.21 1.21 0 000 2.42zM45.673 43.96c0 .24-.036.47-.105.688 1.267 1.338 4.47 4.568 6.18 6.283l.16 1.42-7.9-6.19a2.286 2.286 0 01-1.75-4.189c.135-1.933.348-6.285.457-8.635l.941-1.076.732 9.643a2.286 2.286 0 011.285 2.056zm-13.58 12.774a1.21 1.21 0 100-2.42 1.21 1.21 0 000 2.42zm1.21-22.188a1.21 1.21 0 11-2.42 0 1.21 1.21 0 012.42 0z" fill="url(#paint5_linear)"/></g><defs><linearGradient id="paint0_linear" x1="1" y1="1.174" x2="59.151" y2="-4.455" gradientUnits="userSpaceOnUse"><stop stop-color="#FFC738"/><stop offset="1" stop-color="#FF9B00"/></linearGradient><linearGradient id="paint1_linear" x1="10.621" y1="10.473" x2="61.734" y2="61.586" gradientUnits="userSpaceOnUse"><stop stop-color="#EAA81B"/><stop offset="1" stop-color="#FFBA1D"/></linearGradient><linearGradient id="paint2_linear" x1="14.651" y1="3.214" x2="58.22" y2="14.417" gradientUnits="userSpaceOnUse"><stop stop-color="#FFC738"/><stop offset="1" stop-color="#FF9B00"/></linearGradient><linearGradient id="paint3_linear" x1="16" y1="16.504" x2="61.494" y2="12.1" gradientUnits="userSpaceOnUse"><stop stop-color="#FFC738"/><stop offset="1" stop-color="#FF9B00"/></linearGradient><linearGradient id="paint4_linear" x1="24.428" y1="25" x2="62.616" y2="63.188" gradientUnits="userSpaceOnUse"><stop stop-color="#EAA81B"/><stop offset="1" stop-color="#FFBA1D"/></linearGradient><linearGradient id="paint5_linear" x1="27.439" y1="19.577" x2="59.99" y2="27.947" gradientUnits="userSpaceOnUse"><stop stop-color="#FFC738"/><stop offset="1" stop-color="#FF9B00"/></linearGradient><clipPath id="clip0"><path fill="#fff" d="M0 0h71v71H0z"/></clipPath><filter id="filter0_dii" x="-166.379" y="-166.527" width="287.113" height="287.113" filterUnits="userSpaceOnUse" color-interpolation-filters="sRGB"><feFlood flood-opacity="0" result="BackgroundImageFix"/><feColorMatrix in="SourceAlpha" values="0 0 0 0 0 0 0 0 0 0 0 0 0 0 0 0 0 0 127 0"/><feOffset dx="-59" dy="-59"/><feGaussianBlur stdDeviation="59"/><feColorMatrix values="0 0 0 0 0.529412 0 0 0 0 0.380392 0 0 0 0 0.0588235 0 0 0 0.2 0"/><feBlend in2="BackgroundImageFix" result="effect1_dropShadow"/><feBlend in="SourceGraphic" in2="effect1_dropShadow" result="shape"/><feColorMatrix in="SourceAlpha" values="0 0 0 0 0 0 0 0 0 0 0 0 0 0 0 0 0 0 127 0" result="hardAlpha"/><feOffset dx="-2" dy="2"/><feGaussianBlur stdDeviation="1"/><feComposite in2="hardAlpha" operator="arithmetic" k2="-1" k3="1"/><feColorMatrix values="0 0 0 0 0.529412 0 0 0 0 0.380392 0 0 0 0 0.0588235 0 0 0 0.5 0"/><feBlend in2="shape" result="effect2_innerShadow"/><feColorMatrix in="SourceAlpha" values="0 0 0 0 0 0 0 0 0 0 0 0 0 0 0 0 0 0 127 0" result="hardAlpha"/><feOffset dx="2" dy="-2"/><feGaussianBlur stdDeviation="1"/><feComposite in2="hardAlpha" operator="arithmetic" k2="-1" k3="1"/><feColorMatrix values="0 0 0 0 1 0 0 0 0 1 0 0 0 0 0.160784 0 0 0 0.3 0"/><feBlend in2="effect2_innerShadow" result="effect3_innerShadow"/></filter></defs></svg>