<svg width="35" height="35" fill="none" xmlns="http://www.w3.org/2000/svg"><path d="M17.5 35C27.165 35 35 27.165 35 17.5S27.165 0 17.5 0 0 7.835 0 17.5 7.835 35 17.5 35z" fill="#6F3FAA"/><path d="M25.092 9.6c-4.26-1.028-8.527-2.232-12.895-.703-2.829 1.06-2.829 4.125-2.71 6.717 0 .707-.826 1.65-.472 2.475.707 2.357 1.296 4.714 3.77 5.892.354.236 0 .707.237 1.06-.118 0-.354.119-.354.237 0 .564.254 1.428.085 1.985l7.52 7.517c7.73-1.23 13.773-7.524 14.623-15.375L25.092 9.6z" fill="#512D84"/><path d="M26.757 12.3l-.005-.024c-.468-1.89-2.576-3.918-4.512-4.34l-.022-.005a25.072 25.072 0 00-9.437 0l-.022.005c-1.935.422-4.043 2.45-4.512 4.34l-.005.024a18.471 18.471 0 000 7.956l.005.024c.449 1.81 2.4 3.744 4.263 4.277v2.11c0 .763.931 1.139 1.46.587l2.138-2.222a25.158 25.158 0 006.11-.407l.022-.005c1.936-.422 4.044-2.45 4.512-4.34l.005-.024c.578-2.64.578-5.316 0-7.956zm-1.692 7.574c-.312 1.233-1.912 2.766-3.184 3.05a23.357 23.357 0 01-5.02.405.119.119 0 00-.088.036l-1.561 1.602-1.66 1.704a.194.194 0 01-.335-.134v-3.495a.12.12 0 00-.098-.118h-.001c-1.272-.284-2.872-1.817-3.185-3.05a16.761 16.761 0 010-7.192c.313-1.233 1.913-2.766 3.185-3.05a23.35 23.35 0 018.763 0c1.272.284 2.872 1.817 3.184 3.05a16.742 16.742 0 010 7.192z" fill="#fff"/><path d="M20.266 21.487c-.195-.06-.382-.099-.555-.17-1.793-.745-3.443-1.704-4.75-3.176-.744-.836-1.325-1.78-1.817-2.78-.233-.474-.43-.967-.63-1.456-.183-.446.086-.907.37-1.244a2.92 2.92 0 01.978-.735c.29-.139.574-.059.786.186.456.53.876 1.087 1.215 1.701.209.378.152.84-.227 1.097-.092.063-.176.136-.261.207a.86.86 0 00-.198.208.57.57 0 00-.038.5c.467 1.283 1.253 2.28 2.544 2.817.207.086.414.186.652.159.399-.047.528-.484.807-.712.273-.224.622-.226.916-.04.294.186.58.386.863.588.278.198.555.392.812.618.246.217.331.502.192.797-.254.54-.624.99-1.158 1.276-.15.08-.33.107-.5.16-.196-.06.17-.053 0 0zm-2.762-10.178c2.345.065 4.271 1.622 4.684 3.94.07.396.096.8.127 1.2.013.17-.082.33-.264.332-.188.002-.273-.155-.285-.324-.024-.334-.041-.669-.087-1-.243-1.747-1.636-3.193-3.375-3.503-.262-.046-.53-.059-.795-.086-.167-.018-.387-.028-.424-.236-.03-.175.116-.314.283-.323.045-.003.09 0 .136 0 2.345.065-.046 0 0 0z" fill="#fff"/><path d="M21.069 15.93c-.004.029-.006.097-.023.162-.062.236-.42.265-.502.027a.709.709 0 01-.028-.226 2.84 2.84 0 00-.359-1.425 2.653 2.653 0 00-1.112-1.044 3.2 3.2 0 00-.887-.272c-.134-.022-.269-.035-.403-.054-.163-.023-.25-.127-.242-.287a.252.252 0 01.281-.249c.538.03 1.058.147 1.537.4.973.516 1.529 1.329 1.69 2.415.008.05.02.098.024.147.009.122.015.244.024.405-.004.03-.01-.16 0 0z" fill="#fff"/><path d="M19.61 15.872c-.196.004-.3-.105-.321-.285-.014-.125-.025-.252-.055-.374a1.054 1.054 0 00-.39-.61 1.019 1.019 0 00-.316-.154c-.144-.041-.294-.03-.437-.065-.156-.038-.242-.165-.218-.31a.282.282 0 01.298-.227c.909.065 1.559.535 1.652 1.606.006.075.014.155-.003.228-.029.123-.12.185-.21.191-.196.004.09-.006 0 0z" fill="#fff"/><path d="M26.758 12.3l-.006-.024c-.262-1.06-1.04-2.162-2.014-3.001l-1.316 1.166c.782.624 1.453 1.488 1.644 2.241.52 2.387.52 4.806 0 7.192-.313 1.233-1.913 2.766-3.185 3.05a23.37 23.37 0 01-5.02.405.118.118 0 00-.088.036l-1.56 1.602-1.661 1.705a.194.194 0 01-.335-.135v-3.495a.12.12 0 00-.098-.118c-.723-.162-1.552-.726-2.19-1.41l-1.301 1.153c.812.883 1.86 1.598 2.883 1.89v2.11c0 .764.93 1.139 1.46.588l2.137-2.223a25.158 25.158 0 006.11-.407l.022-.004c1.936-.422 4.044-2.45 4.512-4.341l.005-.023c.578-2.64.578-5.317 0-7.957z" fill="#D1D1D1"/><path d="M20.266 21.487c.17-.052-.195-.06 0 0z" fill="#fff"/><path d="M21.733 19.254c-.257-.226-.534-.42-.812-.618a19.041 19.041 0 00-.863-.588c-.294-.186-.642-.183-.915.04-.28.229-.409.666-.807.712-.238.028-.446-.072-.652-.158a4.217 4.217 0 01-1.853-1.473l-.968.857c.033.038.065.078.098.115 1.307 1.471 2.957 2.431 4.75 3.175.173.072.36.112.555.171-.195-.06.17-.052 0 0 .17-.052.35-.079.501-.16.534-.286.904-.736 1.159-1.276.139-.294.054-.58-.193-.797z" fill="#D1D1D1"/><path d="M17.513 11.309zm-.006 0h.006c.13.004 2.247.06-.006 0z" fill="#fff"/><path d="M20.87 12.704l-.413.365a4.14 4.14 0 011.224 2.388c.046.33.062.666.087 1 .012.168.096.326.284.323.182-.002.278-.162.265-.33-.032-.402-.057-.806-.127-1.2a4.709 4.709 0 00-1.32-2.546zm.153 2.673c-.119-.792-.447-1.438-.992-1.93l-.412.365c.213.189.397.41.539.655.25.433.358.929.36 1.425 0 .076.003.157.027.227.082.238.44.209.502-.027.017-.065.019-.134.023-.163-.004.03-.01-.16 0 0-.01-.16-.015-.283-.025-.405-.003-.05-.015-.098-.022-.147z" fill="#D1D1D1"/><path d="M21.07 15.93c-.01-.162-.004.028 0 0zm-1.46-.058l.008-.002h-.033l.024.002zm0 .001l-.025-.002a.366.366 0 00.025.002zm.009-.003l-.009.002c.023-.001.02-.002.009-.002z" fill="#fff"/><path d="M19.196 14.186l-.419.372a.94.94 0 01.068.044c.202.147.33.37.389.61.03.123.04.25.055.375.02.172.117.278.296.284h.034a.233.233 0 00.201-.19.726.726 0 00.003-.228c-.052-.599-.279-1.01-.627-1.267z" fill="#D1D1D1"/></svg>