<svg width="71" height="71" fill="none" xmlns="http://www.w3.org/2000/svg"><path opacity=".1" fill-rule="evenodd" clip-rule="evenodd" d="M49.82 67.949H9.977A5.98 5.98 0 014 61.977V5.972A5.98 5.98 0 019.977 0h25.898v13.935a5.98 5.98 0 005.977 5.972h13.945v42.07a5.98 5.98 0 01-5.977 5.972zm-7.968-39.947H17.945a1.99 1.99 0 100 3.982h23.907a1.99 1.99 0 100-3.982zm0 7.963H17.945a1.99 1.99 0 100 3.981h23.907a1.99 1.99 0 100-3.981zm0 7.963H17.945a1.99 1.99 0 100 3.981h23.907a1.99 1.99 0 100-3.981zm-7.97 7.963H17.946a1.99 1.99 0 100 3.98h15.938a1.99 1.99 0 100-3.98zm20.8-36.835H42.156c-1.078 0-1.953-.91-1.953-2.028V.018l14.48 15.038z" fill="url(#paint0_linear)"/><path fill-rule="evenodd" clip-rule="evenodd" d="M61.96 70.327H30.69A4.694 4.694 0 0126 65.64V21.687A4.694 4.694 0 0130.69 17h20.326v10.936a4.694 4.694 0 004.69 4.687h10.945V65.64a4.694 4.694 0 01-4.69 4.687zm-6.254-31.35H36.944a1.562 1.562 0 100 3.124h18.762a1.562 1.562 0 100-3.124zm0 6.249H36.944a1.562 1.562 0 100 3.124h18.762a1.562 1.562 0 100-3.124zm0 6.249H36.944a1.562 1.562 0 100 3.125h18.762a1.562 1.562 0 100-3.125zm-6.254 6.25H36.944a1.562 1.562 0 100 3.124h12.508a1.562 1.562 0 100-3.125zm16.913-28.91h-9.832c-.846 0-1.533-.713-1.533-1.591v-10.21l11.365 11.802z" fill="url(#paint1_linear)"/><defs><linearGradient id="paint0_linear" x1="-1.31" y1="-5.123" x2="61.742" y2="58.447" gradientUnits="userSpaceOnUse"><stop stop-color="#989898"/><stop offset="1" stop-color="#EFEFEF"/></linearGradient><linearGradient id="paint1_linear" x1="21.105" y1="12.979" x2="69.891" y2="70.757" gradientUnits="userSpaceOnUse"><stop stop-color="#989898"/><stop offset="1" stop-color="#EFEFEF"/></linearGradient></defs></svg>