<svg width="230" height="200" fill="none" xmlns="http://www.w3.org/2000/svg"><g clip-path="url(#clip0)" filter="url(#filter0_i)" fill="#1F2B49"><path d="M42.284 126.712l-8.556 12.74c-2.215 3.289-7.253 3.278-9.457.003l-8.57-12.74c-7.54 1.661-12.19 4.702-12.19 8.337 0 6.308 13.133 9.71 25.489 9.71 12.356 0 25.488-3.402 25.488-9.71 0-3.637-4.655-6.68-12.204-8.34z"/><path d="M29 89.524c-10.191 0-18.691 7.819-18.691 17.801 0 3.798 1.198 7.185 3.498 10.358l13.763 20.453c.667.995 2.194.993 2.86 0l13.823-20.523c2.25-3.029 3.438-6.586 3.438-10.288 0-9.815-8.385-17.801-18.691-17.801zm0 25.893c-4.684 0-8.496-3.63-8.496-8.092 0-4.461 3.811-8.091 8.496-8.091 4.684 0 8.496 3.63 8.496 8.091 0 4.462-3.812 8.092-8.496 8.092z"/></g><g filter="url(#filter1_i)"><path d="M53.128 119.601c2.181-.929 29.818 16.49 30.878-22.148 1.06-38.638 13.064-39.895 22.692-33.9" stroke="#202B48" stroke-width="6" stroke-linecap="round" stroke-dasharray="5 10"/></g><g clip-path="url(#clip1)" filter="url(#filter2_i)" fill="#1F2B48"><path d="M134.284 37.189l-8.556 12.74c-2.215 3.288-7.253 3.277-9.457.003l-8.57-12.74c-7.541 1.66-12.19 4.702-12.19 8.337 0 6.307 13.133 9.71 25.489 9.71 12.356 0 25.488-3.403 25.488-9.71 0-3.638-4.655-6.68-12.204-8.34z"/><path d="M121 0c-10.191 0-18.691 7.819-18.691 17.801 0 3.798 1.198 7.185 3.498 10.358l13.763 20.453c.667.995 2.194.993 2.86 0l13.823-20.523c2.25-3.029 3.438-6.586 3.438-10.288C139.691 7.986 131.306 0 121 0zm0 25.893c-4.685 0-8.496-3.63-8.496-8.092 0-4.461 3.811-8.091 8.496-8.091 4.685 0 8.496 3.63 8.496 8.091 0 4.462-3.811 8.092-8.496 8.092z"/></g><g filter="url(#filter3_i)" fill="#1F2B48" clip-path="url(#clip2)"><path d="M10.914 57.297a8.856 8.856 0 100 17.711 8.856 8.856 0 000-17.711zm0 12.593a3.742 3.742 0 01-3.737-3.737 3.742 3.742 0 013.737-3.738 3.742 3.742 0 013.738 3.738 3.742 3.742 0 01-3.738 3.737zm53.172-12.593a8.856 8.856 0 100 17.711 8.856 8.856 0 000-17.711zm0 12.593a3.742 3.742 0 01-3.737-3.737 3.742 3.742 0 013.737-3.738 3.742 3.742 0 013.738 3.738 3.741 3.741 0 01-3.738 3.737z"/><path d="M80.346 43.495l-7.776-3.583-8.551-17.13-2.545-1.573h-65.63L-7 24.052v40.852l2.844 2.844h3.538a11.723 11.723 0 01-.167-1.96c0-6.452 5.248-11.7 11.699-11.7s11.7 5.249 11.7 11.7c0 .667-.06 1.322-.168 1.96h30.108a11.719 11.719 0 01-.168-1.96c0-6.452 5.249-11.7 11.7-11.7 6.45 0 11.7 5.249 11.7 11.7 0 .667-.06 1.322-.168 1.96h3.538L82 64.904V46.078l-1.654-2.583zm-66.21-1.437l-9.937.014v-11.89h9.936v11.876zm18.198 0l-9.936.014v-11.89h9.936v11.876zm8.832.014v-11.89h14.91L62 42.053l-20.834.02z"/></g><defs><filter id="filter0_i" x="0" y="89.524" width="58" height="57.238" filterUnits="userSpaceOnUse" color-interpolation-filters="sRGB"><feFlood flood-opacity="0" result="BackgroundImageFix"/><feBlend in="SourceGraphic" in2="BackgroundImageFix" result="shape"/><feColorMatrix in="SourceAlpha" values="0 0 0 0 0 0 0 0 0 0 0 0 0 0 0 0 0 0 127 0" result="hardAlpha"/><feOffset dy="2"/><feGaussianBlur stdDeviation="1.5"/><feComposite in2="hardAlpha" operator="arithmetic" k2="-1" k3="1"/><feColorMatrix values="0 0 0 0 0 0 0 0 0 0 0 0 0 0 0 0 0 0 0.3 0"/><feBlend in2="shape" result="effect1_innerShadow"/></filter><filter id="filter1_i" x="50.109" y="59.179" width="59.607" height="68.529" filterUnits="userSpaceOnUse" color-interpolation-filters="sRGB"><feFlood flood-opacity="0" result="BackgroundImageFix"/><feBlend in="SourceGraphic" in2="BackgroundImageFix" result="shape"/><feColorMatrix in="SourceAlpha" values="0 0 0 0 0 0 0 0 0 0 0 0 0 0 0 0 0 0 127 0" result="hardAlpha"/><feOffset dy="2"/><feGaussianBlur stdDeviation="1.5"/><feComposite in2="hardAlpha" operator="arithmetic" k2="-1" k3="1"/><feColorMatrix values="0 0 0 0 0 0 0 0 0 0 0 0 0 0 0 0 0 0 0.3 0"/><feBlend in2="shape" result="effect1_innerShadow"/></filter><filter id="filter2_i" x="92" y="0" width="58" height="57.238" filterUnits="userSpaceOnUse" color-interpolation-filters="sRGB"><feFlood flood-opacity="0" result="BackgroundImageFix"/><feBlend in="SourceGraphic" in2="BackgroundImageFix" result="shape"/><feColorMatrix in="SourceAlpha" values="0 0 0 0 0 0 0 0 0 0 0 0 0 0 0 0 0 0 127 0" result="hardAlpha"/><feOffset dy="2"/><feGaussianBlur stdDeviation="1.5"/><feComposite in2="hardAlpha" operator="arithmetic" k2="-1" k3="1"/><feColorMatrix values="0 0 0 0 0 0 0 0 0 0 0 0 0 0 0 0 0 0 0.3 0"/><feBlend in2="shape" result="effect1_innerShadow"/></filter><filter id="filter3_i" x="-7" y="21.209" width="89" height="55.799" filterUnits="userSpaceOnUse" color-interpolation-filters="sRGB"><feFlood flood-opacity="0" result="BackgroundImageFix"/><feBlend in="SourceGraphic" in2="BackgroundImageFix" result="shape"/><feColorMatrix in="SourceAlpha" values="0 0 0 0 0 0 0 0 0 0 0 0 0 0 0 0 0 0 127 0" result="hardAlpha"/><feOffset dy="2"/><feGaussianBlur stdDeviation="1.5"/><feComposite in2="hardAlpha" operator="arithmetic" k2="-1" k3="1"/><feColorMatrix values="0 0 0 0 0 0 0 0 0 0 0 0 0 0 0 0 0 0 0.3 0"/><feBlend in2="shape" result="effect1_innerShadow"/></filter><clipPath id="clip0"><path fill="#fff" transform="translate(0 89.524)" d="M0 0h58v55.238H0z"/></clipPath><clipPath id="clip1"><path fill="#fff" transform="translate(92)" d="M0 0h58v55.238H0z"/></clipPath><clipPath id="clip2"><path fill="#fff" transform="translate(0 3.048)" d="M0 0h91v81H0z"/></clipPath></defs></svg>