<svg width="232" height="109" fill="none" xmlns="http://www.w3.org/2000/svg"><g filter="url(#filter0_i)"><path fill-rule="evenodd" clip-rule="evenodd" d="M116.136 108.376c64.024-.194 115.879-24.533 115.821-54.364C231.899 24.182 179.95.157 115.926.352 51.902.546.046 24.885.105 54.716c.058 29.83 52.007 53.855 116.031 53.66zM18.58 32.127l22.593-.068.087 44.753-22.593.068-.087-44.753zm34.074-.103l20.494-.062.04 20.216 12.306-20.254 21.728-.066-12.803 19.02 13.878 25.73-25.432.078-9.667-18.798.037 18.827-20.494.062-.087-44.753zm101.358-.308l-41.358.126.087 44.753 41.358-.126-.022-11.42-20.617.063-.012-5.864 16.667-.05-.019-9.568-16.666.05-.012-6.173 20.617-.062-.023-11.729zm4.038 44.741l16.42-.05 2.209-6.642 13.086-.04 2.235 6.63 21.605-.066-13.914-44.711-29.259.089-12.382 44.79z" fill="#202C4A"/></g><defs><filter id="filter0_i" x=".104" y=".35" width="231.852" height="110.027" filterUnits="userSpaceOnUse" color-interpolation-filters="sRGB"><feFlood flood-opacity="0" result="BackgroundImageFix"/><feBlend in="SourceGraphic" in2="BackgroundImageFix" result="shape"/><feColorMatrix in="SourceAlpha" values="0 0 0 0 0 0 0 0 0 0 0 0 0 0 0 0 0 0 127 0" result="hardAlpha"/><feOffset dy="2"/><feGaussianBlur stdDeviation="5.5"/><feComposite in2="hardAlpha" operator="arithmetic" k2="-1" k3="1"/><feColorMatrix values="0 0 0 0 0 0 0 0 0 0 0 0 0 0 0 0 0 0 0.34 0"/><feBlend in2="shape" result="effect1_innerShadow"/></filter></defs></svg>