<svg width="40" height="40" fill="none" xmlns="http://www.w3.org/2000/svg"><path d="M11.77 25.011c2.818 3.372 6.211 6.027 10.084 7.906 1.475.7 3.447 1.529 5.643 1.671.137.006.267.012.403.012 1.475 0 2.659-.51 3.624-1.559a.098.098 0 00.024-.03c.343-.414.734-.787 1.143-1.185.278-.266.562-.545.835-.83 1.261-1.315 1.261-2.986-.012-4.26l-3.559-3.562c-.604-.628-1.326-.96-2.084-.96s-1.487.332-2.109.954l-2.12 2.122a11.238 11.238 0 00-.586-.308 7.322 7.322 0 01-.651-.356c-1.93-1.227-3.684-2.827-5.36-4.883-.846-1.073-1.415-1.973-1.811-2.892a35.681 35.681 0 001.58-1.547c.178-.184.362-.367.546-.551.639-.64.983-1.38.983-2.133 0-.753-.338-1.494-.983-2.134L15.595 8.72c-.208-.207-.403-.409-.604-.616-.391-.403-.8-.818-1.202-1.191-.61-.599-1.327-.913-2.085-.913-.752 0-1.474.314-2.108.919L7.381 9.135a4.556 4.556 0 00-1.356 2.916c-.112 1.416.148 2.921.823 4.74 1.037 2.816 2.6 5.43 4.921 8.22zm-4.3-12.836a3.136 3.136 0 01.942-2.015l2.203-2.204c.343-.332.722-.504 1.09-.504.36 0 .728.172 1.065.516.397.367.77.752 1.173 1.161.201.207.408.415.616.628l1.764 1.766c.367.368.557.741.557 1.109 0 .367-.19.74-.557 1.108-.183.183-.367.373-.55.557-.551.557-1.066 1.084-1.635 1.588a8.275 8.275 0 00-.03.03c-.491.492-.414.96-.296 1.315l.018.048c.456 1.096 1.09 2.139 2.079 3.384 1.776 2.192 3.647 3.893 5.708 5.203.255.166.527.296.782.426.237.119.456.232.651.356.024.012.042.024.065.036.196.1.385.148.575.148.473 0 .781-.302.882-.403l2.215-2.217c.343-.343.716-.527 1.084-.527.45 0 .817.278 1.048.527l3.57 3.568c.711.711.705 1.482-.017 2.234-.249.267-.51.522-.788.788-.414.403-.847.818-1.238 1.286-.68.735-1.492 1.079-2.54 1.079-.1 0-.207-.006-.308-.012-1.942-.124-3.748-.883-5.104-1.529-3.684-1.784-6.917-4.314-9.6-7.526-2.208-2.661-3.695-5.138-4.678-7.793-.61-1.63-.84-2.94-.746-4.13z" fill="url(#paint0_linear)"/><defs><linearGradient id="paint0_linear" x1="6" y1="6" x2="29.744" y2="3.715" gradientUnits="userSpaceOnUse"><stop stop-color="#FFC738"/><stop offset="1" stop-color="#FF9B00"/></linearGradient></defs></svg>