<svg width="23" height="24" fill="none" xmlns="http://www.w3.org/2000/svg"><g clip-path="url(#clip0)"><path fill-rule="evenodd" clip-rule="evenodd" d="M20.135 7.867a.959.959 0 011.725-.832A11.315 11.315 0 0123 12.023c0 6.32-5.16 11.463-11.5 11.463S0 18.343 0 12.022C0 5.702 5.16.56 11.5.56c2.59 0 5.126.88 7.142 2.476.415.329.483.93.154 1.343a.96.96 0 01-1.347.153A9.487 9.487 0 0011.5 2.47c-5.284 0-9.583 4.285-9.583 9.552 0 5.268 4.299 9.553 9.583 9.553s9.583-4.285 9.583-9.553a9.43 9.43 0 00-.948-4.155zM10.54 5.336a.958.958 0 011.917 0v5.731h3.833c.53 0 .959.428.959.955 0 .528-.43.955-.959.955H11.5a.957.957 0 01-.959-.955V5.336z" fill="url(#paint0_linear)"/></g><defs><linearGradient id="paint0_linear" x1="0" y1=".616" x2="19.152" y2="-1.243" gradientUnits="userSpaceOnUse"><stop stop-color="#FFC738"/><stop offset="1" stop-color="#FF9B00"/></linearGradient><clipPath id="clip0"><path fill="#fff" transform="translate(0 .56)" d="M0 0h23v22.926H0z"/></clipPath></defs></svg>