<svg width="94" height="94" fill="none" xmlns="http://www.w3.org/2000/svg"><circle cx="47" cy="47" r="46" fill="#172340"/><circle cx="47" cy="47" r="46.5" stroke="url(#paint0_linear)" stroke-opacity=".55"/><mask id="a" maskUnits="userSpaceOnUse" x="1" y="1" width="92" height="92"><circle cx="47" cy="47" r="46" fill="#172340"/></mask><g mask="url(#a)"><path d="M62.466 44.823c0 8.85-7.184 16.026-16.047 16.026-8.864 0-16.047-7.176-16.047-16.026s7.183-16.027 16.047-16.027c8.863 0 16.047 7.177 16.047 16.027z" fill="#172340"/><path d="M62.466 44.823c0 8.85-7.184 16.026-16.047 16.026-8.864 0-16.047-7.176-16.047-16.026s7.183-16.027 16.047-16.027c8.863 0 16.047 7.177 16.047 16.027z" stroke="#FF9B00" stroke-width="2"/><path d="M62.466 44.823c0 8.85-7.184 16.026-16.047 16.026-8.864 0-16.047-7.176-16.047-16.026s7.183-16.027 16.047-16.027c8.863 0 16.047 7.177 16.047 16.027z" stroke="url(#paint1_linear)" stroke-width="2"/><path d="M75.25 86.342c0 2.47-.418 3.989-1.19 4.976-.756.97-1.995 1.608-4.079 1.977-2.092.371-4.87.444-8.533.416-1.36-.01-2.845-.034-4.453-.06a540.59 540.59 0 00-9.023-.092 481 481 0 00-8.253.089c-1.62.027-3.14.053-4.553.063-3.657.028-6.63-.044-8.977-.419-2.354-.375-3.929-1.034-4.927-2.057-.974-.998-1.544-2.496-1.544-4.893 0-8.854 4.43-14.992 10.078-18.954 5.684-3.986 12.552-5.724 17.2-5.724 4.682 0 11.8 1.498 17.717 5.358 5.874 3.832 10.538 9.962 10.538 19.32z" fill="#172340"/><path d="M75.25 86.342c0 2.47-.418 3.989-1.19 4.976-.756.97-1.995 1.608-4.079 1.977-2.092.371-4.87.444-8.533.416-1.36-.01-2.845-.034-4.453-.06a540.59 540.59 0 00-9.023-.092 481 481 0 00-8.253.089c-1.62.027-3.14.053-4.553.063-3.657.028-6.63-.044-8.977-.419-2.354-.375-3.929-1.034-4.927-2.057-.974-.998-1.544-2.496-1.544-4.893 0-8.854 4.43-14.992 10.078-18.954 5.684-3.986 12.552-5.724 17.2-5.724 4.682 0 11.8 1.498 17.717 5.358 5.874 3.832 10.538 9.962 10.538 19.32z" stroke="#FF9B00" stroke-width="2"/><path d="M75.25 86.342c0 2.47-.418 3.989-1.19 4.976-.756.97-1.995 1.608-4.079 1.977-2.092.371-4.87.444-8.533.416-1.36-.01-2.845-.034-4.453-.06a540.59 540.59 0 00-9.023-.092 481 481 0 00-8.253.089c-1.62.027-3.14.053-4.553.063-3.657.028-6.63-.044-8.977-.419-2.354-.375-3.929-1.034-4.927-2.057-.974-.998-1.544-2.496-1.544-4.893 0-8.854 4.43-14.992 10.078-18.954 5.684-3.986 12.552-5.724 17.2-5.724 4.682 0 11.8 1.498 17.717 5.358 5.874 3.832 10.538 9.962 10.538 19.32z" stroke="url(#paint2_linear)" stroke-width="2"/></g><defs><linearGradient id="paint0_linear" x1="1" y1="47" x2="98.444" y2="47" gradientUnits="userSpaceOnUse"><stop stop-color="#fff"/><stop offset="1" stop-color="#fff" stop-opacity=".25"/></linearGradient><linearGradient id="paint1_linear" x1="29.372" y1="27.796" x2="57.803" y2="25.044" gradientUnits="userSpaceOnUse"><stop stop-color="#FFC738"/><stop offset="1" stop-color="#FF9B00"/></linearGradient><linearGradient id="paint2_linear" x1="18.718" y1="60.664" x2="65.886" y2="52.958" gradientUnits="userSpaceOnUse"><stop stop-color="#FFC738"/><stop offset="1" stop-color="#FF9B00"/></linearGradient></defs></svg>