<svg width="72" height="67" fill="none" xmlns="http://www.w3.org/2000/svg"><path d="M40.722 62.219v-11.31a2.782 2.782 0 012.786-2.778c5.49 0 8.477-5.613 8.892-16.692h-8.892a2.783 2.783 0 01-2.786-2.778V4.779a2.782 2.782 0 012.786-2.777h23.705A2.783 2.783 0 0170 4.779V28.66c0 5.31-.538 10.184-1.594 14.488-1.084 4.413-2.75 8.27-4.947 11.467-2.26 3.285-5.09 5.862-8.407 7.658-3.34 1.806-7.225 2.723-11.545 2.723a2.784 2.784 0 01-2.785-2.778zM4.786 48.129A2.782 2.782 0 002 50.907V62.22a2.781 2.781 0 002.786 2.776c4.318 0 8.204-.917 11.543-2.723 3.317-1.795 6.147-4.371 8.407-7.658 2.2-3.197 3.864-7.055 4.949-11.47 1.056-4.303 1.593-9.177 1.593-14.485V4.776A2.782 2.782 0 0028.492 2H4.786A2.782 2.782 0 002 4.776V28.66a2.782 2.782 0 002.786 2.777h8.766c-.41 11.08-3.353 16.694-8.766 16.694z" stroke="#42506E" stroke-width="2.5"/></svg>