<svg width="35" height="35" fill="none" xmlns="http://www.w3.org/2000/svg"><g clip-path="url(#clip0)"><path d="M17.5 35C27.165 35 35 27.166 35 17.5 35 7.837 27.165 0 17.5 0S0 7.837 0 17.5C0 27.167 7.835 35 17.5 35z" fill="#41B4E6"/><path d="M35 17.5c0-.426-.016-.849-.046-1.267L27.7 8.98 7.3 17.005l7.806 7.806.102.369.133-.134-.133.134 8.635 8.635C30.372 31.275 35 24.928 35 17.5z" fill="#0091C8"/><path d="M15.8 20.05l7.91 5.97L27.7 8.98 7.3 17.005l6.208 2.056 11.33-7.6L15.8 20.05z" fill="#fff"/><path d="M13.507 19.061l1.7 6.119.593-5.13 9.037-8.589-11.33 7.6z" fill="#D2D2D7"/><path d="M18.37 21.99l-3.163 3.19.593-5.13 2.57 1.94z" fill="#B9B9BE"/></g><defs><clipPath id="clip0"><path fill="#fff" d="M0 0h35v35H0z"/></clipPath></defs></svg>