<svg width="40" height="40" fill="none" xmlns="http://www.w3.org/2000/svg"><circle cx="20" cy="20" r="20" fill="url(#paint0_linear)"/><g clip-path="url(#clip0)" fill="#172340"><path d="M32.135 12.727a2.85 2.85 0 00-2.051-.832H25.98v-.047c0-.594-.247-1.165-.667-1.545a2.308 2.308 0 00-1.607-.641h-7.414c-.643 0-1.211.237-1.631.641-.42.404-.668.95-.668 1.545v.047H9.916a2.85 2.85 0 00-2.051.832C7.346 13.227 7 13.94 7 14.7v11.834c0 .785.321 1.474.865 1.973.519.499 1.26.831 2.051.831h20.168a2.85 2.85 0 002.051-.831c.519-.5.865-1.212.865-1.973V14.7a2.64 2.64 0 00-.865-1.973zm-.42 13.807h-.025c0 .428-.173.808-.47 1.093a1.619 1.619 0 01-1.136.452H9.916a1.62 1.62 0 01-1.137-.452 1.496 1.496 0 01-.47-1.093V14.7c0-.428.174-.808.47-1.093a1.62 1.62 0 011.137-.452h4.77a.653.653 0 00.668-.642v-.689c0-.261.099-.499.272-.665a.992.992 0 01.691-.262h7.39c.272 0 .52.095.692.262a.915.915 0 01.272.665v.69c0 .356.297.641.667.641h4.77c.445 0 .84.166 1.137.452.297.285.47.665.47 1.093v11.834z"/><path d="M20 14.77c-1.68 0-3.213.666-4.3 1.712-1.113 1.07-1.78 2.519-1.78 4.135 0 1.616.692 3.09 1.78 4.135a6.155 6.155 0 004.3 1.71c1.68 0 3.213-.665 4.3-1.71 1.112-1.07 1.78-2.52 1.78-4.135 0-1.616-.692-3.09-1.78-4.135A6.216 6.216 0 0020 14.77zm3.361 9.103A4.93 4.93 0 0120 25.203a4.93 4.93 0 01-3.361-1.33 4.456 4.456 0 01-1.384-3.232c0-1.26.543-2.4 1.384-3.232a4.822 4.822 0 013.36-1.331 4.93 4.93 0 013.362 1.33 4.456 4.456 0 011.384 3.233c.025 1.26-.519 2.4-1.384 3.232zm5.437-6.797c.67 0 1.212-.521 1.212-1.165 0-.643-.543-1.164-1.212-1.164-.668 0-1.21.521-1.21 1.165 0 .643.542 1.164 1.21 1.164z"/></g><defs><linearGradient id="paint0_linear" x1="0" y1=".1" x2="33.309" y2="-3.125" gradientUnits="userSpaceOnUse"><stop stop-color="#FFC738"/><stop offset="1" stop-color="#FF9B00"/></linearGradient><clipPath id="clip0"><path fill="#fff" transform="translate(7 7)" d="M0 0h26v25H0z"/></clipPath></defs></svg>