<svg width="228" height="134" fill="none" xmlns="http://www.w3.org/2000/svg"><g filter="url(#filter0_i)"><path d="M28.359 127.587c.258-.566.836-1.762 1.085-2.021.311-.322-1.13-.517-.508-1.163.622-.645 1.245-1.291 1.07-1.507-.174-.217-.417-.164-1.092.238-.676.402-.213-.973.827-1.455 1.04-.481 1.043-1.629.747-1.819-.295-.191-.307-.825.1-1.296.405-.471-2.49-1.496-3.513-1.527-1.025-.031-1.996.18-2.428.53-.433.349-1.453-.83-1.533-1.195-.08-.365-1.024-.031-1.643-.534-.618-.502-.181-1.999-1.232-2.152-1.05-.153-1.123 1.265-2.08.964-.764-.241-1.301-1.5-1.475-2.099.477-.147 1.458-.548 1.567-.979.137-.54-1.157-.64-1.654-1.168-.496-.529-1.41-1.222-1.714-3.194-.242-1.578-1.664-.826-2.344-.253-.283.062-.984.036-1.521-.56-.672-.746-1.745-2.168-1.635-2.829.11-.661-1.157-.64-.535-1.285.498-.516-.29-1.72-.747-2.258.227-.517.718-1.609.87-1.846.19-.296-.888-.57.368-1.227 1.004-.525.96-.847.812-.942.382.002 1.11-.038.97-.212-.174-.216-2.935-.633-2.704-1.32.232-.688.695-2.063 1.317-2.709.622-.645 2.846-4.443 1.689-5.083-1.157-.64-2.477-.861-2.61-1.47-.133-.607.558-1.522.236-1.834-.323-.312-.793-.72-.926-1.328-.132-.608-1.05-.153-.777-1.231.273-1.08-.652-2.406-.019-2.417.634-.011-2.105-3.236-2.264-3.966-.16-.73.505-1.766.319-2.618-.186-.851-1.764-.507-2.405-2.278-.64-1.772.388-2.888.308-3.253-.08-.365.232-.688.584-1.402 1.04-.481 1.7-.37 1.662-1.127-.038-.756.152-1.052.69-.915.54.137 1.314-1.56 1.7-.37.387 1.19.277 1.85.79 1.866.511.015.606-.133.97-.212.365-.08 1.093-.239 1.658.02.566.26 1.632-.1 3.798 1.083 2.166 1.184 2.367 1.522 3.444 1.797.862.22 2.17 1.395 2.716 1.956.201.338.562 1.177.398 1.824-.205.81-.831 2.602-1.074 2.655-.243.053-1.366 1.318-2.026 1.207-.66-.11-3.073-.094-3.437-.015-.364.08-1.832-.237-2.155-.549-.322-.312-.903-.058-1.563-.168-.66-.111-1.384-1.1-1.749-1.02-.364.079.201.338.778 1.231.577.894 1.692 1.925 2.056 1.845.364-.08 1.954.211 1.6.925-.352.714-.246 1.2-.193 1.444.042.195.607 1.227.884 1.719-.051.35-.026 1.05.481 1.041.634-.01 1.135-.63 1.267-.021.133.608.17 1.364.751 1.11.58-.254 1.078.275 1.51-.075.433-.349.918-.454.422-.983-.497-.53.11-.661-.74-.476-.85.185-.808-.206-1.279-.613-.47-.407-.185-.852-.239-1.095-.053-.243-.143-1.243.422-.984.565.26 1.236 1.005 1.48.952.242-.053.606-.133 1.024.031.417.164.902.058.956.301.053.243.432-.349.5-.619.069-.27.1-1.295-.197-1.486-.296-.19-.75-1.11-.413-1.311.338-.201.838-.82.786-1.063-.054-.244.516-1.132.811-.942.296.19.448-.862.57-.889.121-.026-.118-1.12.447-.862.566.259.566.259.93.18.364-.08.527-.498 1.024.03.497.53.861.45.835.328-.027-.121.178-.93.246-1.2.069-.27-.185-.851-.413-1.312-.227-.46-.28-.703-.671-.745-.39-.042-.698-.867-.577-.894.122-.026-.09-1 .152-1.052.243-.053.152-1.053.073-1.417a2.348 2.348 0 00-.456-.92v-.001c-.174-.216-.349-.433-.644-.623-.296-.19-.782-.085-.592-.38.19-.297.19-.297.607-.133.417.163.687.232.808.206l.486-.106.728-.16c.486-.105 1.172.127 1.347.344.174.217.375.555.523.65.148.096.376.556.524.65.118.077.155.519.159.73-.162.036-.553.147-.823.308-.338.2-.418-.164-.702.28-.327.836-.96.847-.49 1.254.47.407.766.597 1.009.544.243-.053.011.635.429.798.237.119.805.309 1.172.127.459-.228.85-.186.971-.212.121-.026.46-.227.406-.47-.053-.244-.402-.678-.212-.974.19-.296.353-.714.057-.904-.237-.152.056-.522.231-.688.243-.053.805-.277 1.108-.751.38-.593 1.176-1.021 1.461-1.466.285-.444.383-1.74 1.017-1.75.634-.011.755-.038 1.282-.535.528-.498.3-.958.976-1.36.675-.402.595-.767.865-.698.269.069-.016.513.185.851.201.339.24 1.095.63 1.137.39.042.755-.037.808.206.053.243.16.73.375.555.217-.174.084-.782.152-1.052.069-.27.258-.566.623-.646.364-.08.163-.417.554-.375.39.042.364-.08.85-.186.269.069.85.171 1.024.032.216-.175.284-.445.258-.566-.027-.122 1.165-1.656 1.46-1.466.297.19.877-.064.888.571.011.635-.516 1.132.023 1.27.538.137.444.285.781.084.338-.202-.049-1.391.585-1.402.633-.01 1.256-.656 1.054-.995-.2-.338-.295-.19-.819-.84-.523-.65-.565-.26-.698-.867-.132-.609-.185-.852-.481-1.042-.296-.19-.163.418-.782-.084-.618-.503-.592-.381-.982-.423-.391-.042-.46.227-.713-.354-.255-.582-.645-.624-.387-1.19s-.319-1.46.542-1.01c.862.449 1.237 1.004 1.707 1.411.47.407.994 1.057 1.237 1.004.243-.053 1.43-.439 1.942-.423.513.015 2.952.12 3.718.718.766.597 1.01.544 1.574.803.566.259.956.301 1.67.655.713.354.755-.037 1.13.518.375.555.133.608.94.814.809.206-.015.513.55.772.566.259.801-1.576.695-2.063-.106-.486-.523-.65-.82-.84-.295-.19-.94-.815-.925-1.328.016-.513-.36-1.068-.698-.867-.337.201-.432.35-1.05-.153-.619-.502-.778-1.232-.414-1.311.365-.08.513.016.285-.444-.228-.46-.345-1.581-.371-1.703-.027-.122.352-.714.03-1.026-.322-.312-.296-.19-.687-.233-.39-.042-.618-.502-.481-1.041.136-.54.584-1.402.827-1.455.243-.053.812-.942.854-1.333.033-.313.072-1.417.087-1.93l-.075-1.513-.065-.878c.02-.684.12-2.014.357-1.861.296.19-.041.391.687.232.728-.159 1.066-.36 1.335-.291.27.068.137-.54.676-.402.538.137.607-.133.903.057.296.19.633-.01.956.302.322.311.443.285.496.528l.24 1.095c.159.73.037.756-.02 1.66-.057.905.228.46-.167 1.566-.121.026-.744.672-.421.984.322.312.227.46.55.772.322.312.808.206.914.692.106.487.375.555.333.947-.041.391-.269-.069.012.634.28.704.2.339.307.825.106.487.038.757-.057.905-.095.148.011.634.159.73.148.094.106.486.16.73.042.194.222.63.306.824-.014.13-.03.44.012.635l.132.608c.126.185.357.585.281.703-.095.148-.338.201.038.756.3.444.671.746.82.84l.913.693c.108.104.28.347.106.487-.216.175-.231.688-.326.836-.095.148-.406.47-.084.782a1.5 1.5 0 01.402.677c0 .383-.095 1.193-.463 1.375-.459.228-.31.323-.516 1.132-.205.81-.167 1.566-.531 1.645-.364.08-.068.27-.797.429-.728.159-1.347-.343-1.335.291.011.635-.528.497.185.852.714.354 1.078.274 1.563.168.486-.106.755-.037 1.267-.021.513.015.486-.106.555-.376.068-.27-.144-1.243.368-1.227.512.016.77-.55.96-.847.19-.296.231-.687.151-1.052-.08-.365.168-1.566.41-1.619.243-.053.543-1.01.342-1.348-.2-.339-.36-1.068-.682-1.38-.323-.312-.752-1.11-.535-1.285.216-.175.057-.905.569-.889.512.016.38-.592.987-.725.607-.132.675-.402.944-.333.27.068.634-.011.888.57.254.582.618.503.698.867l.239 1.095c.106.487-.327.836-.031 1.026.296.19.645.624.66.111.015-.513-.144-1.243.099-1.296.243-.053.285-.444.11-.66-.174-.218-.656-1.26-.804-1.354l-.592-.381c-.148-.095-.512-.016-.982-.423s-.565-.259-.835-.327c-.27-.069-.296-.19-.633.01-.338.202-.433.35-.77.55-.338.202-.243.054-.608.133-.364.08-.269-.068-.607.133-.337.2-.284.444-.485.106-.201-.339.099-1.296-.345-1.582-.444-.285-.751-1.11-.508-1.163.194-.042-.015-.846-.144-1.243l.584-1.401c-.285-.533-.927-1.684-1.206-2.03-.349-.434-.375-.556-.724-.99-.35-.433-.725-.988-.508-1.163.216-.174-.091-1 .341-1.348.433-.35.474-.741.975-1.36.501-.619.517-1.132.437-1.497-.064-.292-.436-1.221-.614-1.65-.053-.243-.066-.648.31-.322.471.407.444.285.577.893.133.608.535 1.285.319 1.46-.217.174.307.825-.004 1.148-.312.322-.004 1.147.17 1.364.175.217.133.608.16.73.026.121.037.756.454.92.418.163.497.528 1.469.316.97-.212 1.092-.238 1.483-.196.39.042.174.217.47.407.296.19.254.582.74.476.486-.106.633-.01.823-.307.19-.296.137-.54-.106-.487-.243.053-.296-.19-.592-.38s-.132-.608-.644-.624c-.513-.016-.608.133-1.146-.005-.539-.137-.903-.058-1.252-.491-.35-.434-.698-.867-.777-1.232-.08-.365-.038-.756.205-.81.242-.052.459-.227.728-.158.27.068.47.407.74.475.269.069.808.206.97-.212.164-.417.232-.687.084-.782-.147-.096-.08-.365-.538-.138-.46.228-.433.35-.58.254-.149-.095-.471-.407-.133-.608.27-.16.446-.48.5-.619a.934.934 0 01.65-.524c.485-.105.58-.253 1.361-.17.782.085 1.104.397 1.67.656.564.259.739.476 1.061.788.323.312.577.893.941.814.364-.08.58-.254 1.04-.482.459-.227.607-.132.97-.212.365-.08.46-.227.433-.349-.026-.122-.322-.312-.565-.259-.243.053-.728.159-.903-.058-.174-.217-.2-.338-.375-.555-.175-.217.3-.957-.455-.92-.755.037-1.336.291-1.51.075-.175-.217-.35-.434-.402-.677l-.213-.973c-.08-.365.126-1.174-.291-1.338-.418-.164-.524-.65-.482-1.042.042-.391-.376-.555-.307-.825.068-.27.015-.513.231-.687.217-.175 1.54-1.1 1.932-1.059.39.042 1.092-.238 1.7-.37.606-.133 1.039-.482 1.134-.63.076-.119.615-.092.876-.064.09.023.313.034.486-.106.216-.175.353-.714.474-.74.121-.027.675-.403.797-.43.097-.02.508-.195.702-.28l-.24-1.095c.046-.18.038-.645-.36-1.068-.496-.528.521-6.357 1.762-6.5 1.24-.143 6.469-3.577 6.473-4.725.004-1.148 1.901-4.11 2.557-2.851.656 1.258-2.193 2.772-.13 2.321 2.065-.45 4.25-.927 4.011-2.021-.239-1.095-1.237-1.005-.857-1.597.38-.593 1.309-.413 2.322-1.016 1.013-.604-.25-1.73.076-2.565.326-.836.22-1.323.763-2.333.434-.808 1.724-2.202 2.315-2.798.714-.029 2.207-.023 2.465.226.323.312 1.4.587.763 1.745-.638 1.159.493 1.676 1.1 1.544.607-.133 1.362-.17 1.225.37s-.6 1.914.018 2.417c.619.502 1.7-.371 1.837-.91.136-.54 4.727-2.816 6.43-.257 1.703 2.56 2.507 3.913 2.26 5.113-.246 1.2-.171 2.713-1.036 3.412-.865.698-1.096 1.386-1.84 2.058-.744.672-.922 1.603-1.423 2.221-.501.62-.691.916-.922 1.603-.182.54-1.46 2.917-2.109 4.1.087-.022.259-.047.572-.07.876-.063 2.633-1.338 2.917-1.783.285-.444.918-.455 1.287-1.682.294-.982 1.984-.815 2.792-.61-.018-.08.127-.231.85-.185.122.008.216.013.287.015a1.235 1.235 0 01-.045-.068c.183.031.393.08.045.068.163.233.524.573.965.477.607-.133 1.767-.64 1.984-.815.216-.175 1.134-.63 2.064-.45.743.143 1.657.02 2.022-.06.355-.12 1.057-.281 1.024.032-.042.391-.501.619-.395 1.105.106.487 1.533 1.195 1.897 1.116.364-.08 2.898-.123 3.141-.176l1.7-.37c.202-.045.575-.28.448-.863-.16-.73-1.662-2.95-.69-3.163.971-.212 1.282-.534 1.9-.032.619.502.577.894 1.548.682.971-.212 1.499-.71 2.307-.504.808.206 1.589.29 2.059.698.471.407.55.772.683 1.38.133.608-.638 5.236 2.563 7.086 2.562 1.48 3.111-.51 3.066-1.688-.203-.933-.352-2.548.679-1.55 1.29 1.247 1.514 2.855 2.732 1.442 1.218-1.412 1.612-2.517 3.957-2.264 2.344.253 3.179.58 3.172-1.202-.008-1.782-.333-5.024 1.04-4.56 1.373.466 2.724-.339 4.355-.44 1.305-.08 3.455.096 4.366.194l2.868.904 2.121 2.722c.551.39 1.945 1.105 3.11.85l3.157-.688c1.214-.265 5.952-2.445 7.064-.267 1.111 2.178-1.807 3.962.875 4.014 2.146.041 6.433-1.021 8.309-1.558l3.02-.15c.943.05 2.883.391 3.095 1.364.265 1.216-.136-3.538 1.226-3.708 1.362-.17 2.284-1.772 5.543-.827 3.258.946 4.336 1.22 5.129 1.94.634.575 1.811 2.28 2.321 3.06 1.313 3.494 3.656 10.696 2.521 11.555-1.136.86-2.82.87-3.521.768.789.508 2.425 1.79 2.659 2.86.292 1.338 2.579 2.496.823 3.771-3.339 1.952-7.356 5.342-8.947 6.794-.48.911-1.444 2.71-1.465 2.613-.026-.122-1.532-1.195-2.155-.55-.497.517-1.441 1.165-1.851 1.424l-1.34 1.439c.501-.62 1.171-1.632-.159-.73-1.662 1.127-2.253.747-2.511 1.313s-.934.968-.923 1.602c.012.635-.796.429-.504 1.767.233 1.07.64 1.771.815 1.988-.056.522-.044 1.666.451 2.068.618.502 1.195 1.396.504 2.31-.69.916-.588 2.55-.603 3.063-.016.513-.611 1.28-1.044 1.63-.433.349-.395 1.105-.6 1.914-.205.81-1.149 1.143-1.286 1.682-.137.54.466 1.555-.251 2.348-.717.794-.721 1.942-1.233 1.926-.512-.016-1.199-.248-1.68-1.29-.482-1.042-2.488-5.573-2.405-6.356.084-.783-.587-5.605.077-6.642.664-1.037 2.004-2.476 2.315-2.799.311-.323 1.761-2.423 2.045-2.867.285-.444 1.867-1.936 2.019-2.989.152-1.052 1.533-2.883 1.374-3.612-.159-.73.251-2.349-.193-2.634-.355-.228-1.365.935-1.825 1.545-.269.908-.926 2.75-1.412 2.856-.607.133-.289 1.592-1.419 1.074-1.13-.517-1.502-2.22-1.46-2.612.042-.391-1.279-.613-1.832-.237-.554.376-2.318-.131-2.133.72.186.851-1.328 2.074-1.374 3.613-.045 1.539-.455 3.157.015 3.564.47.407-.531 1.645-1.529 1.735-.998.09-.565-.259-2.007-.454-1.441-.195-1.934-1.871-3.327-.675-1.392 1.195-2.485 1.434-3.942 1.752-1.457.317-3.869.334-4.492.98-.622.645-.956-.302-1.973 1.45-1.017 1.75-2.375 4.85-3.35 6.21-.976 1.359-2.213 4.432-2.862 4.956-.649.523-1.756 1.275-.626 1.793s3.095 1.363 4.283.977c1.187-.387 3.008-.784 4.139-.266 1.13.517 1.324-.926 1.688-1.006.292-.063.326 3.242.307 4.903-.419.218-1.309 1.228-1.522 3.517-.266 2.861-1.09 7.246-1.162 8.663-.073 1.418-1.306 3.343-2.144 4.163-.839.82.488 2.824-1.94 3.354-2.428.529-3.805 1.212-4.271-.342-.467-1.555.456-3.158 1.674-4.57 1.218-1.413 1.908-2.328 1.484-4.274-.425-1.946.345 1.581-3.278.715s-3.642.795-5.277-2.034c-1.635-2.829-1.054-3.083-4.324-4.663-3.27-1.58-4.203-4.69-5.77-3.71-1.567.978-4.522 2.005-4.31 2.978.212.974 1.927 4.167 1.115 5.109-.812.942-3.142 4.253-6.469 3.577-3.327-.676-1.988 1.963-5.509 2.731-3.521.768-2.576.435-5.66-.294s-2.246-1.549-5.065-1.061c-2.818.488-4.309-1.098-5.554.192-3.877 2.63-4.886 2.086-7.436 2.642-2.549.556.482 1.042-4.04 3.048-4.523 2.006-4.25.927-6.799 1.483-2.55.556 1.343 1.491-4.42-.437-5.762-1.929-4.23-.734-6.824-2.716-2.595-1.982 1.093-4.316-3.641-3.283-4.735 1.033-5.061 1.868-7.535-.14-2.473-2.009-2.283-2.305-4.499-.802-2.216 1.502-1.093.238-4.12 2.682-4.045 4.196-2.732 2.635-3.912 4.804-1.18 2.169 1.49 1.586.902 4.135-4.104 1.711-6.766 2.411-7.584 2.547-.252.012-1.054-.05-2.25-.401-1.494-.439-7.765.547-7.921 2.747-.156 2.2-2.026 1.207-.323 3.766 1.703 2.559 3.182 3.51 3.447 4.727.266 1.216-.213 3.104-.941 3.263-.728.159.053.243.235 2.242.181 1.999 3.243 1.459 1.43 3.638-1.814 2.18-2.186.477-3.885.848-1.7.371-3.002 2.566-5.919.272-4.851-4.166-6.282-3.726-6.308-3.848z" fill="#1D2946"/></g><path d="M28.359 127.587c.258-.566.836-1.762 1.085-2.021.311-.322-1.13-.517-.508-1.163.622-.645 1.245-1.291 1.07-1.507-.174-.217-.417-.164-1.092.238-.676.402-.213-.973.827-1.455 1.04-.481 1.043-1.629.747-1.819-.295-.191-.307-.825.1-1.296.405-.471-2.49-1.496-3.513-1.527-1.025-.031-1.996.18-2.428.53-.433.349-1.453-.83-1.533-1.195-.08-.365-1.024-.031-1.643-.534-.618-.502-.181-1.999-1.232-2.152-1.05-.153-1.123 1.265-2.08.964-.764-.241-1.301-1.5-1.475-2.099.477-.147 1.458-.548 1.567-.979.137-.54-1.157-.64-1.654-1.168-.496-.529-1.41-1.222-1.714-3.194-.242-1.578-1.664-.826-2.344-.253-.283.062-.984.036-1.521-.56-.672-.746-1.745-2.168-1.635-2.829.11-.661-1.157-.64-.535-1.285.498-.516-.29-1.72-.747-2.258.227-.517.718-1.609.87-1.846.19-.296-.888-.57.368-1.227 1.004-.525.96-.847.812-.942.382.002 1.11-.038.97-.212-.174-.216-2.935-.633-2.704-1.32.232-.688.695-2.063 1.317-2.709.622-.645 2.846-4.443 1.689-5.083-1.157-.64-2.477-.861-2.61-1.47-.133-.607.558-1.522.236-1.834-.323-.312-.793-.72-.926-1.328-.132-.608-1.05-.153-.777-1.231.273-1.08-.652-2.406-.019-2.417.634-.011-2.105-3.236-2.264-3.966-.16-.73.505-1.766.319-2.618-.186-.851-1.764-.507-2.405-2.278-.64-1.772.388-2.888.308-3.253-.08-.365.232-.688.584-1.402 1.04-.481 1.7-.37 1.662-1.127-.038-.756.152-1.052.69-.915.54.137 1.314-1.56 1.7-.37.387 1.19.277 1.85.79 1.866.511.015.606-.133.97-.212h0c.365-.08 1.093-.239 1.658.02.566.26 1.632-.1 3.798 1.083 2.166 1.184 2.367 1.522 3.444 1.797.862.22 2.17 1.395 2.716 1.956.201.338.562 1.177.398 1.824-.205.81-.831 2.602-1.074 2.655-.243.053-1.366 1.318-2.026 1.207-.66-.11-3.073-.094-3.437-.015-.364.08-1.832-.237-2.155-.549-.322-.312-.903-.058-1.563-.168-.66-.111-1.384-1.1-1.749-1.02-.364.079.201.338.778 1.231.577.894 1.692 1.925 2.056 1.845.364-.08 1.954.211 1.6.925-.352.714-.246 1.2-.193 1.444.042.195.607 1.227.884 1.719-.051.35-.026 1.05.481 1.041.634-.01 1.135-.63 1.267-.021.133.608.17 1.364.751 1.11.58-.254 1.078.275 1.51-.075.433-.349.918-.454.422-.983-.497-.53.11-.661-.74-.476-.85.185-.808-.206-1.279-.613-.47-.407-.185-.852-.239-1.095-.053-.243-.143-1.243.422-.984.565.26 1.236 1.005 1.48.952.242-.053.606-.133 1.024.031.417.164.902.058.956.301.053.243.432-.349.5-.619.069-.27.1-1.295-.197-1.486-.296-.19-.75-1.11-.413-1.311.338-.201.838-.82.786-1.063-.054-.244.516-1.132.811-.942.296.19.448-.862.57-.889.121-.026-.118-1.12.447-.862.566.259.566.259.93.18.364-.08.527-.498 1.024.03.497.53.861.45.835.328-.027-.121.178-.93.246-1.2.069-.27-.185-.851-.413-1.312-.227-.46-.28-.703-.671-.745-.39-.042-.698-.867-.577-.894.122-.026-.09-1 .152-1.052.243-.053.152-1.053.073-1.417a2.348 2.348 0 00-.456-.92v-.001c-.174-.216-.349-.433-.644-.623-.296-.19-.782-.085-.592-.38.19-.297.19-.297.607-.133.417.163.687.232.808.206l.486-.106.728-.16c.486-.105 1.172.127 1.347.344.174.217.375.555.523.65.148.096.376.556.524.65.118.077.155.519.159.73-.162.036-.553.147-.823.308-.338.2-.418-.164-.702.28-.327.836-.96.847-.49 1.254.47.407.766.597 1.009.544.243-.053.011.635.429.798.237.119.805.309 1.172.127.459-.228.85-.186.971-.212.121-.026.46-.227.406-.47-.053-.244-.402-.678-.212-.974.19-.296.353-.714.057-.904-.237-.152.056-.522.231-.688.243-.053.805-.277 1.108-.751.38-.593 1.176-1.021 1.461-1.466.285-.444.383-1.74 1.017-1.75.634-.011.755-.038 1.282-.535.528-.498.3-.958.976-1.36.675-.402.595-.767.865-.698.269.069-.016.513.185.851.201.339.24 1.095.63 1.137.39.042.755-.037.808.206.053.243.16.73.375.555.217-.174.084-.782.152-1.052.069-.27.258-.566.623-.646.364-.08.163-.417.554-.375.39.042.364-.08.85-.186.269.069.85.171 1.024.032.216-.175.284-.445.258-.566-.027-.122 1.165-1.656 1.46-1.466.297.19.877-.064.888.571.011.635-.516 1.132.023 1.27.538.137.444.285.781.084.338-.202-.049-1.391.585-1.402.633-.01 1.256-.656 1.054-.995-.2-.338-.295-.19-.819-.84-.523-.65-.565-.26-.698-.867-.132-.609-.185-.852-.481-1.042-.296-.19-.163.418-.782-.084-.618-.503-.592-.381-.982-.423-.391-.042-.46.227-.713-.354-.255-.582-.645-.624-.387-1.19s-.319-1.46.542-1.01c.862.449 1.237 1.004 1.707 1.411.47.407.994 1.057 1.237 1.004.243-.053 1.43-.439 1.942-.423.513.015 2.952.12 3.718.718.766.597 1.01.544 1.574.803.566.259.956.301 1.67.655.713.354.755-.037 1.13.518.375.555.133.608.94.814.809.206-.015.513.55.772.566.259.801-1.576.695-2.063-.106-.486-.523-.65-.82-.84-.295-.19-.94-.815-.925-1.328.016-.513-.36-1.068-.698-.867-.337.201-.432.35-1.05-.153-.619-.502-.778-1.232-.414-1.311.365-.08.513.016.285-.444-.228-.46-.345-1.581-.371-1.703-.027-.122.352-.714.03-1.026-.322-.312-.296-.19-.687-.233-.39-.042-.618-.502-.481-1.041.136-.54.584-1.402.827-1.455.243-.053.812-.942.854-1.333.033-.313.072-1.417.087-1.93l-.075-1.513-.065-.878c.02-.684.12-2.014.357-1.861.296.19-.041.391.687.232.728-.159 1.066-.36 1.335-.291.27.068.137-.54.676-.402.538.137.607-.133.903.057.296.19.633-.01.956.302.322.311.443.285.496.528l.24 1.095c.159.73.037.756-.02 1.66-.057.905.228.46-.167 1.566-.121.026-.744.672-.421.984.322.312.227.46.55.772.322.312.808.206.914.692.106.487.375.555.333.947-.041.391-.269-.069.012.634.28.704.2.339.307.825.106.487.038.757-.057.905-.095.148.011.634.159.73.148.094.106.486.16.73.042.194.222.63.306.824-.014.13-.03.44.012.635l.132.608c.126.185.357.585.281.703-.095.148-.338.201.038.756.3.444.671.746.82.84l.913.693c.108.104.28.347.106.487-.216.175-.231.688-.326.836-.095.148-.406.47-.084.782a1.5 1.5 0 01.402.677c0 .383-.095 1.193-.463 1.375-.459.228-.31.323-.516 1.132-.205.81-.167 1.566-.531 1.645-.364.08-.068.27-.797.429-.728.159-1.347-.343-1.335.291.011.635-.528.497.185.852.714.354 1.078.274 1.563.168.486-.106.755-.037 1.267-.021.513.015.486-.106.555-.376.068-.27-.144-1.243.368-1.227.512.016.77-.55.96-.847.19-.296.231-.687.151-1.052-.08-.365.168-1.566.41-1.619.243-.053.543-1.01.342-1.348-.2-.339-.36-1.068-.682-1.38-.323-.312-.752-1.11-.535-1.285.216-.175.057-.905.569-.889.512.016.38-.592.987-.725.607-.132.675-.402.944-.333.27.068.634-.011.888.57.254.582.618.503.698.867l.239 1.095c.106.487-.327.836-.031 1.026.296.19.645.624.66.111.015-.513-.144-1.243.099-1.296.243-.053.285-.444.11-.66-.174-.218-.656-1.26-.804-1.354l-.592-.381c-.148-.095-.512-.016-.982-.423s-.565-.259-.835-.327c-.27-.069-.296-.19-.633.01-.338.202-.433.35-.77.55-.338.202-.243.054-.608.133-.364.08-.269-.068-.607.133-.337.2-.284.444-.485.106-.201-.339.099-1.296-.345-1.582-.444-.285-.751-1.11-.508-1.163.194-.042-.015-.846-.144-1.243l.584-1.401c-.285-.533-.927-1.684-1.206-2.03-.349-.434-.375-.556-.724-.99-.35-.433-.725-.988-.508-1.163.216-.174-.091-1 .341-1.348.433-.35.474-.741.975-1.36.501-.619.517-1.132.437-1.497-.064-.292-.436-1.221-.614-1.65-.053-.243-.066-.648.31-.322.471.407.444.285.577.893.133.608.535 1.285.319 1.46-.217.174.307.825-.004 1.148-.312.322-.004 1.147.17 1.364.175.217.133.608.16.73.026.121.037.756.454.92.418.163.497.528 1.469.316.97-.212 1.092-.238 1.483-.196.39.042.174.217.47.407.296.19.254.582.74.476.486-.106.633-.01.823-.307.19-.296.137-.54-.106-.487-.243.053-.296-.19-.592-.38s-.132-.608-.644-.624c-.513-.016-.608.133-1.146-.005-.539-.137-.903-.058-1.252-.491h0c-.35-.434-.698-.867-.777-1.232-.08-.365-.038-.756.205-.81.242-.052.459-.227.728-.158.27.068.47.407.74.475.269.069.808.206.97-.212.164-.417.232-.687.084-.782-.147-.096-.08-.365-.538-.138-.46.228-.433.35-.58.254-.149-.095-.471-.407-.133-.608.27-.16.446-.48.5-.619a.934.934 0 01.65-.524c.485-.105.58-.253 1.361-.17.782.085 1.104.397 1.67.656.564.259.739.476 1.061.788.323.312.577.893.941.814.364-.08.58-.254 1.04-.482.459-.227.607-.132.97-.212.365-.08.46-.227.433-.349-.026-.122-.322-.312-.565-.259-.243.053-.728.159-.903-.058-.174-.217-.2-.338-.375-.555-.175-.217.3-.957-.455-.92-.755.037-1.336.291-1.51.075h0c-.175-.217-.35-.434-.402-.677l-.213-.973c-.08-.365.126-1.174-.291-1.338-.418-.164-.524-.65-.482-1.042.042-.391-.376-.555-.307-.825.068-.27.015-.513.231-.687.217-.175 1.54-1.1 1.932-1.059.39.042 1.092-.238 1.7-.37.606-.133 1.039-.482 1.134-.63.076-.119.615-.092.876-.064.09.023.313.034.486-.106.216-.175.353-.714.474-.74.121-.027.675-.403.797-.43.097-.02.508-.195.702-.28l-.24-1.095c.046-.18.038-.645-.36-1.068-.496-.528.521-6.357 1.762-6.5 1.24-.143 6.469-3.577 6.473-4.725.004-1.148 1.901-4.11 2.557-2.851.656 1.258-2.193 2.772-.13 2.321h0c2.065-.45 4.25-.927 4.011-2.021-.239-1.095-1.237-1.005-.857-1.597.38-.593 1.309-.413 2.322-1.016 1.013-.604-.25-1.73.076-2.565.326-.836.22-1.323.763-2.333.434-.808 1.724-2.202 2.315-2.798.714-.029 2.207-.023 2.465.226.323.312 1.4.587.763 1.745-.638 1.159.493 1.676 1.1 1.544.607-.133 1.362-.17 1.225.37s-.6 1.914.018 2.417c.619.502 1.7-.371 1.837-.91.136-.54 4.727-2.816 6.43-.257 1.703 2.56 2.507 3.913 2.26 5.113-.246 1.2-.171 2.713-1.036 3.412-.865.698-1.096 1.386-1.84 2.058-.744.672-.922 1.603-1.423 2.221-.501.62-.691.916-.922 1.603-.182.54-1.46 2.917-2.109 4.1.087-.022.259-.047.572-.07.876-.063 2.633-1.338 2.917-1.783.285-.444.918-.455 1.287-1.682.294-.982 1.984-.815 2.792-.61-.018-.08.127-.231.85-.185.122.008.216.013.287.015a1.235 1.235 0 01-.045-.068c.183.031.393.08.045.068.163.233.524.573.965.477.607-.133 1.767-.64 1.984-.815.216-.175 1.134-.63 2.064-.45.743.143 1.657.02 2.022-.06.355-.12 1.057-.281 1.024.032-.042.391-.501.619-.395 1.105.106.487 1.533 1.195 1.897 1.116.364-.08 2.898-.123 3.141-.176l1.7-.37c.202-.045.575-.28.448-.863-.16-.73-1.662-2.95-.69-3.163.971-.212 1.282-.534 1.9-.032.619.502.577.894 1.548.682.971-.212 1.499-.71 2.307-.504.808.206 1.589.29 2.059.698.471.407.55.772.683 1.38.133.608-.638 5.236 2.563 7.086 2.562 1.48 3.111-.51 3.066-1.688-.203-.933-.352-2.548.679-1.55 1.29 1.247 1.514 2.855 2.732 1.442 1.218-1.412 1.612-2.517 3.957-2.264 2.344.253 3.179.58 3.172-1.202-.008-1.782-.333-5.024 1.04-4.56 1.373.466 2.724-.339 4.355-.44 1.305-.08 3.455.096 4.366.194l2.868.904 2.121 2.722c.551.39 1.945 1.105 3.11.85l3.157-.688c1.214-.265 5.952-2.445 7.064-.267 1.111 2.178-1.807 3.962.875 4.014 2.146.041 6.433-1.021 8.309-1.558l3.02-.15c.943.05 2.883.391 3.095 1.364.265 1.216-.136-3.538 1.226-3.708 1.362-.17 2.284-1.772 5.543-.827 3.258.946 4.336 1.22 5.129 1.94.634.575 1.811 2.28 2.321 3.06 1.313 3.494 3.656 10.696 2.521 11.555-1.136.86-2.82.87-3.521.768.789.508 2.425 1.79 2.659 2.86.292 1.338 2.579 2.496.823 3.771-3.339 1.952-7.356 5.342-8.947 6.794-.48.911-1.444 2.71-1.465 2.613-.026-.122-1.532-1.195-2.155-.55-.497.517-1.441 1.165-1.851 1.424l-1.34 1.439c.501-.62 1.171-1.632-.159-.73-1.662 1.127-2.253.747-2.511 1.313s-.934.968-.923 1.602c.012.635-.796.429-.504 1.767.233 1.07.64 1.771.815 1.988-.056.522-.044 1.666.451 2.068.618.502 1.195 1.396.504 2.31-.69.916-.588 2.55-.603 3.063-.016.513-.611 1.28-1.044 1.63-.433.349-.395 1.105-.6 1.914-.205.81-1.149 1.143-1.286 1.682-.137.54.466 1.555-.251 2.348-.717.794-.721 1.942-1.233 1.926-.512-.016-1.199-.248-1.68-1.29-.482-1.042-2.488-5.573-2.405-6.356.084-.783-.587-5.605.077-6.642.664-1.037 2.004-2.476 2.315-2.799.311-.323 1.761-2.423 2.045-2.867.285-.444 1.867-1.936 2.019-2.989.152-1.052 1.533-2.883 1.374-3.612-.159-.73.251-2.349-.193-2.634-.355-.228-1.365.935-1.825 1.545-.269.908-.926 2.75-1.412 2.856-.607.133-.289 1.592-1.419 1.074-1.13-.517-1.502-2.22-1.46-2.612.042-.391-1.279-.613-1.832-.237-.554.376-2.318-.131-2.133.72.186.851-1.328 2.074-1.374 3.613-.045 1.539-.455 3.157.015 3.564.47.407-.531 1.645-1.529 1.735-.998.09-.565-.259-2.007-.454-1.441-.195-1.934-1.871-3.327-.675-1.392 1.195-2.485 1.434-3.942 1.752-1.457.317-3.869.334-4.492.98-.622.645-.956-.302-1.973 1.45-1.017 1.75-2.375 4.85-3.35 6.21-.976 1.359-2.213 4.432-2.862 4.956-.649.523-1.756 1.275-.626 1.793s3.095 1.363 4.283.977c1.187-.387 3.008-.784 4.139-.266 1.13.517 1.324-.926 1.688-1.006.292-.063.326 3.242.307 4.903-.419.218-1.309 1.228-1.522 3.517-.266 2.861-1.09 7.246-1.162 8.663-.073 1.418-1.306 3.343-2.144 4.163-.839.82.488 2.824-1.94 3.354-2.428.529-3.805 1.212-4.271-.342-.467-1.555.456-3.158 1.674-4.57 1.218-1.413 1.908-2.328 1.484-4.274-.425-1.946.345 1.581-3.278.715s-3.642.795-5.277-2.034c-1.635-2.829-1.054-3.083-4.324-4.663-3.27-1.58-4.203-4.69-5.77-3.71-1.567.978-4.522 2.005-4.31 2.978.212.974 1.927 4.167 1.115 5.109-.812.942-3.142 4.253-6.469 3.577-3.327-.676-1.988 1.963-5.509 2.731-3.521.768-2.576.435-5.66-.294s-2.246-1.549-5.065-1.061c-2.818.488-4.309-1.098-5.554.192-3.877 2.63-4.886 2.086-7.436 2.642-2.549.556.482 1.042-4.04 3.048-4.523 2.006-4.25.927-6.799 1.483-2.55.556 1.343 1.491-4.42-.437-5.762-1.929-4.23-.734-6.824-2.716-2.595-1.982 1.093-4.316-3.641-3.283-4.735 1.033-5.061 1.868-7.535-.14-2.473-2.009-2.283-2.305-4.499-.802-2.216 1.502-1.093.238-4.12 2.682-4.045 4.196-2.732 2.635-3.912 4.804-1.18 2.169 1.49 1.586.902 4.135-4.104 1.711-6.766 2.411-7.584 2.547-.252.012-1.054-.05-2.25-.401-1.494-.439-7.765.547-7.921 2.747-.156 2.2-2.026 1.207-.323 3.766 1.703 2.559 3.182 3.51 3.447 4.727.266 1.216-.213 3.104-.941 3.263-.728.159.053.243.235 2.242.181 1.999 3.243 1.459 1.43 3.638-1.814 2.18-2.186.477-3.885.848-1.7.371-3.002 2.566-5.919.272-4.851-4.166-6.282-3.726-6.308-3.848z" stroke="#172340" stroke-width="3"/><defs><filter id="filter0_i" x="-10.405" y="-22.672" width="238.291" height="165.799" filterUnits="userSpaceOnUse" color-interpolation-filters="sRGB"><feFlood flood-opacity="0" result="BackgroundImageFix"/><feBlend in="SourceGraphic" in2="BackgroundImageFix" result="shape"/><feColorMatrix in="SourceAlpha" values="0 0 0 0 0 0 0 0 0 0 0 0 0 0 0 0 0 0 127 0" result="hardAlpha"/><feOffset dy="4"/><feGaussianBlur stdDeviation="2"/><feComposite in2="hardAlpha" operator="arithmetic" k2="-1" k3="1"/><feColorMatrix values="0 0 0 0 0 0 0 0 0 0 0 0 0 0 0 0 0 0 0.55 0"/><feBlend in2="shape" result="effect1_innerShadow"/></filter></defs></svg>