<svg width="71" height="71" fill="none" xmlns="http://www.w3.org/2000/svg"><path opacity=".1" fill-rule="evenodd" clip-rule="evenodd" d="M0 35.066C0 15.805 15.806 0 35.066 0 55.659 0 70.13 15.806 70.13 35.066c0 19.26-15.806 35.065-35.066 35.065C15.805 70.131 0 54.325 0 35.065zm6.957 0c0 16.14 12.524 28.386 28.109 28.386 15.584 0 28.942-11.967 28.942-28.386C63.73 18.088 50.373 5.843 35.066 5.843c-14.728 0-28.109 12.524-28.109 29.221zm3.897.28c0-13.35 10.862-24.212 24.212-24.212s24.212 10.861 24.212 24.212c0 13.35-10.861 24.212-24.212 24.212-13.35 0-24.212-10.862-24.212-24.212zm26.413 15.208c5.017-.818 8.804-4.374 8.804-8.627 0-4.252-3.787-7.808-8.804-8.626V24.6c2.53.621 4.402 2.25 4.402 4.122a2.2 2.2 0 002.201 2.201 2.2 2.2 0 002.202-2.201c0-4.253-3.788-7.808-8.805-8.626v-2.38a2.2 2.2 0 00-2.201-2.2 2.2 2.2 0 00-2.201 2.2v2.38c-5.017.818-8.804 4.373-8.804 8.626 0 4.252 3.787 7.808 8.804 8.626v8.703c-2.53-.622-4.402-2.25-4.402-4.123a2.2 2.2 0 00-2.201-2.2 2.2 2.2 0 00-2.201 2.2c0 4.253 3.787 7.809 8.804 8.627v2.4a2.2 2.2 0 002.201 2.201 2.2 2.2 0 002.201-2.2v-2.401zm3.963-9.345c0 1.748-1.747 3.268-4.11 3.848v-7.695c2.363.58 4.11 2.1 4.11 3.847zm-8.22-16.175c-2.362.58-4.11 2.101-4.11 3.848 0 1.748 1.748 3.268 4.11 3.848v-7.695z" fill="url(#paint0_linear)"/><path fill-rule="evenodd" clip-rule="evenodd" d="M16 41.325c0-14.83 12.17-27 27-27 15.857 0 27 12.17 27 27s-12.17 27-27 27-27-12.17-27-27zm5.357 0C21.357 53.754 31 63.182 43 63.182s22.286-9.214 22.286-21.857c-.215-13.071-10.5-22.5-22.286-22.5-11.34 0-21.643 9.643-21.643 22.5zm3 .216C24.357 31.261 32.721 22.9 43 22.9c10.28 0 18.643 8.363 18.643 18.642 0 10.28-8.363 18.643-18.643 18.643-10.28 0-18.643-8.363-18.643-18.643zm20.338 11.71c3.863-.63 6.78-3.367 6.78-6.642 0-3.274-2.917-6.012-6.78-6.642v-6.7c1.949.478 3.39 1.732 3.39 3.173a1.694 1.694 0 103.39 0c0-3.274-2.917-6.012-6.78-6.641v-1.832a1.694 1.694 0 10-3.39 0v1.832c-3.863.63-6.779 3.367-6.779 6.642 0 3.274 2.916 6.012 6.78 6.642v6.7c-1.949-.478-3.39-1.732-3.39-3.174a1.694 1.694 0 10-3.39 0c0 3.275 2.916 6.013 6.78 6.642V55.1a1.694 1.694 0 103.389 0v-1.85zm3.05-7.194c0 1.345-1.345 2.516-3.163 2.962v-5.925c1.818.447 3.164 1.617 3.164 2.963zM41.419 33.6c-1.819.446-3.164 1.617-3.164 2.962 0 1.346 1.345 2.517 3.164 2.963V33.6z" fill="url(#paint1_linear)"/><defs><linearGradient id="paint0_linear" x1="23.377" y1="-7.236" x2="70.584" y2="14.642" gradientUnits="userSpaceOnUse"><stop stop-color="#FF9B00"/><stop offset="1" stop-color="#FFC738"/></linearGradient><linearGradient id="paint1_linear" x1="34" y1="8.754" x2="70.349" y2="25.599" gradientUnits="userSpaceOnUse"><stop stop-color="#FF9B00"/><stop offset="1" stop-color="#FFC738"/></linearGradient></defs></svg>