<svg width="40" height="40" fill="none" xmlns="http://www.w3.org/2000/svg"><path d="M25.567 13.226c0 3.458-2.74 6.226-6.073 6.226-3.334 0-6.073-2.768-6.073-6.226C13.42 9.767 16.16 7 19.494 7c3.334 0 6.073 2.767 6.073 6.226z" stroke="#FF9B00" stroke-width="2"/><path d="M25.567 13.226c0 3.458-2.74 6.226-6.073 6.226-3.334 0-6.073-2.768-6.073-6.226C13.42 9.767 16.16 7 19.494 7c3.334 0 6.073 2.767 6.073 6.226z" stroke="url(#paint0_linear)" stroke-width="2"/><path d="M30.871 30.446c0 1.005-.17 1.496-.377 1.766-.188.248-.535.475-1.33.619-.806.146-1.907.179-3.43.167a216.81 216.81 0 01-1.83-.025 215.06 215.06 0 00-3.766-.04c-1.231 0-2.393.02-3.448.038-.67.012-1.297.023-1.87.027-1.517.012-2.706-.02-3.625-.17-.923-.15-1.427-.4-1.713-.7C9.216 31.85 9 31.38 9 30.447c0-3.543 1.721-5.986 3.941-7.578 2.256-1.619 4.985-2.32 6.792-2.32 1.84 0 4.676.61 7.022 2.175 2.303 1.537 4.116 3.971 4.116 7.723z" stroke="#FF9B00" stroke-width="2"/><path d="M30.871 30.446c0 1.005-.17 1.496-.377 1.766-.188.248-.535.475-1.33.619-.806.146-1.907.179-3.43.167a216.81 216.81 0 01-1.83-.025 215.06 215.06 0 00-3.766-.04c-1.231 0-2.393.02-3.448.038-.67.012-1.297.023-1.87.027-1.517.012-2.706-.02-3.625-.17-.923-.15-1.427-.4-1.713-.7C9.216 31.85 9 31.38 9 30.447c0-3.543 1.721-5.986 3.941-7.578 2.256-1.619 4.985-2.32 6.792-2.32 1.84 0 4.676.61 7.022 2.175 2.303 1.537 4.116 3.971 4.116 7.723z" stroke="url(#paint1_linear)" stroke-width="2"/><defs><linearGradient id="paint0_linear" x1="12.421" y1="6" x2="24.222" y2="4.883" gradientUnits="userSpaceOnUse"><stop stop-color="#FFC738"/><stop offset="1" stop-color="#FF9B00"/></linearGradient><linearGradient id="paint1_linear" x1="8" y1="19.549" x2="27.593" y2="16.419" gradientUnits="userSpaceOnUse"><stop stop-color="#FFC738"/><stop offset="1" stop-color="#FF9B00"/></linearGradient></defs></svg>