<svg width="232" height="200" fill="none" xmlns="http://www.w3.org/2000/svg"><g clip-path="url(#clip0)"><g filter="url(#filter0_i)"><path fill-rule="evenodd" clip-rule="evenodd" d="M116.136 108.673c64.024-.194 115.879-24.534 115.821-54.364C231.899 24.48 179.95.454 115.926.65 51.902.842.046 25.181.105 55.011c.058 29.83 52.007 53.855 116.031 53.661zM18.58 32.424l22.593-.069.087 44.754-22.593.068-.087-44.753zm34.074-.103l20.494-.063.04 20.216 12.306-20.253 21.728-.066-12.803 19.02 13.878 25.73-25.432.077-9.667-18.798.037 18.828-20.494.062-.087-44.753zm101.358-.308l-41.358.126.087 44.753 41.358-.126-.022-11.42-20.617.063-.012-5.864 16.667-.05-.019-9.569-16.666.05-.012-6.172 20.617-.062-.023-11.729zm4.038 44.741l16.42-.05 2.209-6.642 13.086-.04 2.235 6.63 21.605-.066-13.914-44.711-29.259.088-12.382 44.791z" fill="#202C4A"/></g><path d="M182.688 47.976c-1.227 4.068-3.656 12.296-3.556 12.666l7.531-.023-3.975-12.643z" fill="#202B49"/></g><defs><clipPath id="clip0"><path fill="#fff" d="M0 0h232v200H0z"/></clipPath><filter id="filter0_i" x=".104" y=".647" width="231.852" height="110.027" filterUnits="userSpaceOnUse" color-interpolation-filters="sRGB"><feFlood flood-opacity="0" result="BackgroundImageFix"/><feBlend in="SourceGraphic" in2="BackgroundImageFix" result="shape"/><feColorMatrix in="SourceAlpha" values="0 0 0 0 0 0 0 0 0 0 0 0 0 0 0 0 0 0 127 0" result="hardAlpha"/><feOffset dy="2"/><feGaussianBlur stdDeviation="5.5"/><feComposite in2="hardAlpha" operator="arithmetic" k2="-1" k3="1"/><feColorMatrix values="0 0 0 0 0 0 0 0 0 0 0 0 0 0 0 0 0 0 0.34 0"/><feBlend in2="shape" result="effect1_innerShadow"/></filter></defs></svg>