<svg width="35" height="35" fill="none" xmlns="http://www.w3.org/2000/svg"><path d="M17.5 35C27.165 35 35 27.165 35 17.5S27.165 0 17.5 0 0 7.835 0 17.5 7.835 35 17.5 35z" fill="#9ED9F7"/><path d="M17.5 6.62c-.786 0-1.553.085-2.293.245a6.112 6.112 0 00-8.274 8.274c-.16.739-.244 1.506-.244 2.293 0 3.003 1.224 5.72 3.201 7.679l-.05.049 9.72 9.719c8.03-.942 14.397-7.32 15.323-15.354L25.18 9.82a10.778 10.778 0 00-7.68-3.2z" fill="#73C8F0"/><path d="M28.068 19.724c.16-.739.244-1.506.244-2.292 0-5.971-4.84-10.812-10.812-10.812-.786 0-1.553.085-2.292.245a6.112 6.112 0 00-8.275 8.275 10.81 10.81 0 00-.244 2.292c0 5.971 4.84 10.812 10.811 10.812.787 0 1.554-.085 2.293-.245a6.111 6.111 0 008.275-8.275z" fill="#2896FF"/><path d="M20.905 14.116c-.456-.455-1.999-1.246-3.399-1.246-1.08 0-2.01.343-2.01 1.424 0 1.127 1.328 1.41 2.882 1.798 2.264.61 4.058 1.282 4.058 3.737 0 .676-.128 1.255-.383 1.735-.255.48-.599.87-1.032 1.166-1.616 1.106-4.178 1.011-6.077.427a8.675 8.675 0 01-2.492-1.21l1.086-2.118c.236.236 1.334.987 2.83 1.37 1.119.287 3.452.438 3.452-1.121 0-.91-.971-1.304-1.922-1.584-2.482-.729-4.93-1.114-4.93-3.808 0-2.584 2.05-3.969 4.61-3.969.89 0 1.708.14 2.455.418.748.28 1.4.608 1.958.988l-1.085 1.993z" fill="#fff"/></svg>