<svg width="30" height="30" fill="none" xmlns="http://www.w3.org/2000/svg"><path d="M14.547 0C8.73 0 4 4.731 4 10.547c0 1.965.544 3.882 1.574 5.546l8.373 13.491c.16.259.442.416.746.416h.007a.879.879 0 00.747-.427l8.16-13.623a10.534 10.534 0 001.487-5.403C25.094 4.73 20.362 0 14.547 0zm7.55 15.048L14.68 27.433 7.068 15.167a8.778 8.778 0 01-1.322-4.62c0-4.846 3.955-8.8 8.8-8.8 4.847 0 8.796 3.954 8.796 8.8a8.78 8.78 0 01-1.244 4.5z" fill="url(#paint0_linear)"/><path d="M14.273 5.273A5.28 5.28 0 009 10.547a5.267 5.267 0 005.273 5.273c2.983 0 5.274-2.416 5.274-5.273a5.28 5.28 0 00-5.274-5.274zm0 8.801a3.53 3.53 0 01-3.527-3.527 3.54 3.54 0 013.527-3.527 3.535 3.535 0 013.522 3.527 3.523 3.523 0 01-3.522 3.527z" fill="url(#paint1_linear)"/><defs><linearGradient id="paint0_linear" x1="4" y1=".075" x2="21.648" y2="-1.126" gradientUnits="userSpaceOnUse"><stop stop-color="#FFC738"/><stop offset="1" stop-color="#FF9B00"/></linearGradient><linearGradient id="paint1_linear" x1="9" y1="5.3" x2="17.783" y2="4.45" gradientUnits="userSpaceOnUse"><stop stop-color="#FFC738"/><stop offset="1" stop-color="#FF9B00"/></linearGradient></defs></svg>