<svg width="71" height="71" fill="none" xmlns="http://www.w3.org/2000/svg"><g clip-path="url(#clip0)" fill-rule="evenodd" clip-rule="evenodd"><path d="M59.871 18.09l.002.052c.15 7.855.334 17.63-2.942 26.511-1.796 4.871-4.514 9.105-8.078 12.586-4.057 3.962-9.37 7.11-15.791 9.356a4.905 4.905 0 01-1.591.27 4.808 4.808 0 01-1.59-.27c-6.428-2.241-11.747-5.387-15.807-9.35-3.566-3.48-6.284-7.713-8.078-12.582-3.264-8.856-3.079-18.612-2.93-26.452l.004-.12c.029-.648.049-1.327.06-2.078.055-3.687 2.986-6.737 6.673-6.943 7.688-.43 13.635-2.936 18.716-7.889l.044-.041a4.28 4.28 0 015.815 0l.044.041c5.081 4.953 11.028 7.46 18.716 7.889 3.688.206 6.618 3.256 6.673 6.942.012.756.031 1.436.06 2.078zM14.806 33.434c0 9.189 7.475 16.664 16.663 16.664 9.189 0 16.664-7.475 16.664-16.664 0-9.189-7.475-16.664-16.664-16.664-9.188 0-16.663 7.475-16.663 16.664zm3.922 0c0-7.025 5.715-12.74 12.74-12.74s12.74 5.715 12.74 12.74-5.715 12.74-12.74 12.74-12.74-5.715-12.74-12.74zm11.177 6.728l9.127-9.127a1.961 1.961 0 10-2.774-2.774L28.518 36l-2.1-2.101a1.961 1.961 0 10-2.775 2.774l3.488 3.488c.383.383.885.575 1.387.575s1.004-.192 1.387-.575z" fill="url(#paint0_linear)" opacity=".08"/><path d="M68.005 29.447l.002.044c.127 6.706.285 15.053-2.512 22.637-1.534 4.159-3.855 7.774-6.898 10.746-3.464 3.383-8 6.071-13.483 7.988a4.17 4.17 0 01-1.359.232 4.1 4.1 0 01-1.356-.23c-5.49-1.915-10.031-4.6-13.498-7.985-3.045-2.97-5.366-6.585-6.898-10.743-2.787-7.562-2.628-15.893-2.5-22.586l.002-.103c.025-.553.042-1.133.051-1.774.047-3.149 2.55-5.752 5.698-5.928 6.564-.367 11.642-2.507 15.981-6.737l.037-.035a3.654 3.654 0 014.966 0l.037.035c4.339 4.23 9.417 6.37 15.981 6.736 3.149.177 5.651 2.78 5.698 5.928.01.646.027 1.226.051 1.775zm-38.48 13.1c0 7.847 6.383 14.23 14.23 14.23 7.845 0 14.228-6.383 14.228-14.23 0-7.845-6.383-14.228-14.229-14.228-7.846 0-14.228 6.383-14.228 14.229zm3.351 0c0-5.997 4.88-10.877 10.879-10.877 5.998 0 10.878 4.88 10.878 10.878s-4.88 10.878-10.878 10.878c-5.999 0-10.879-4.88-10.879-10.878zm9.544 5.745l7.793-7.793a1.675 1.675 0 10-2.369-2.369l-6.609 6.61-1.794-1.795a1.675 1.675 0 10-2.368 2.37l2.978 2.977a1.671 1.671 0 002.37 0z" fill="url(#paint1_linear)"/></g><defs><linearGradient id="paint0_linear" x1="-2.837" y1="-5.041" x2="58.776" y2="64.352" gradientUnits="userSpaceOnUse"><stop stop-color="#EFEFEF"/><stop offset="1" stop-color="#989898"/></linearGradient><linearGradient id="paint1_linear" x1="14.461" y1="9.695" x2="67.07" y2="68.947" gradientUnits="userSpaceOnUse"><stop stop-color="#EFEFEF"/><stop offset="1" stop-color="#989898"/></linearGradient><clipPath id="clip0"><path fill="#fff" d="M0 0h71v71H0z"/></clipPath></defs></svg>