<svg width="35" height="35" fill="none" xmlns="http://www.w3.org/2000/svg"><rect width="35" height="35" rx="8" fill="#4D76A1"/><g clip-path="url(#clip0)"><path d="M28.621 22.564c-.06-.102-.437-.92-2.25-2.601-1.896-1.761-1.641-1.475.643-4.52 1.392-1.855 1.948-2.987 1.774-3.471-.166-.462-1.189-.34-1.189-.34l-3.403.02s-.252-.034-.44.078c-.183.11-.3.365-.3.365s-.54 1.435-1.259 2.656c-1.516 2.574-2.123 2.71-2.37 2.55-.577-.372-.433-1.497-.433-2.296 0-2.495.378-3.536-.737-3.805-.37-.089-.643-.148-1.59-.158-1.214-.013-2.243.004-2.825.289-.388.19-.687.613-.504.637.225.03.735.137 1.005.505.35.474.337 1.541.337 1.541s.2 2.938-.469 3.303c-.46.25-1.09-.26-2.442-2.598-.692-1.196-1.215-2.52-1.215-2.52s-.1-.246-.28-.377a1.41 1.41 0 00-.524-.211l-3.236.02s-.486.014-.664.225c-.159.188-.013.576-.013.576s2.534 5.927 5.402 8.915c2.631 2.74 5.618 2.56 5.618 2.56h1.353s.41-.046.617-.271c.193-.207.186-.595.186-.595s-.027-1.816.817-2.083c.83-.264 1.898 1.755 3.029 2.532.855.588 1.505.459 1.505.459l3.025-.043s1.582-.097.832-1.342z" fill="#fff"/></g><defs><clipPath id="clip0"><path fill="#fff" transform="translate(6.176 6.176)" d="M0 0h22.647v22.647H0z"/></clipPath></defs></svg>