<svg width="25" height="25" fill="none" xmlns="http://www.w3.org/2000/svg"><path d="M5.176 25h14.648a2.2 2.2 0 002.197-2.197V7.324h-5.127a2.2 2.2 0 01-2.197-2.197V0H5.176a2.2 2.2 0 00-2.197 2.197v20.606A2.2 2.2 0 005.176 25zm2.93-14.697h8.789a.732.732 0 110 1.465h-8.79a.732.732 0 110-1.465zm0 2.93h8.789a.732.732 0 110 1.464h-8.79a.732.732 0 110-1.465zm0 2.93h8.789a.732.732 0 110 1.464h-8.79a.732.732 0 110-1.465zm0 2.929h5.859a.732.732 0 110 1.465h-5.86a.732.732 0 110-1.465z" fill="#454545"/><path d="M16.895 5.859h4.697l-5.43-5.43v4.698c0 .404.328.732.733.732z" fill="#454545"/></svg>