<svg width="30" height="30" fill="none" xmlns="http://www.w3.org/2000/svg"><g clip-path="url(#clip0)"><path fill-rule="evenodd" clip-rule="evenodd" d="M23.135 11.308a.959.959 0 011.725-.832A11.315 11.315 0 0126 15.463c0 6.32-5.16 11.463-11.5 11.463S3 21.783 3 15.463C3 9.143 8.16 4 14.5 4c2.59 0 5.126.88 7.142 2.476.415.328.483.93.154 1.342a.96.96 0 01-1.347.153 9.487 9.487 0 00-5.949-2.06c-5.284 0-9.583 4.285-9.583 9.552 0 5.267 4.299 9.553 9.583 9.553s9.583-4.286 9.583-9.553a9.43 9.43 0 00-.948-4.155zM13.54 8.776a.958.958 0 011.917 0v5.732h3.833c.53 0 .959.428.959.955 0 .527-.43.955-.959.955H14.5a.957.957 0 01-.959-.955V8.776z" fill="url(#paint0_linear)"/></g><defs><linearGradient id="paint0_linear" x1="3" y1="4.057" x2="22.152" y2="2.197" gradientUnits="userSpaceOnUse"><stop stop-color="#FFC738"/><stop offset="1" stop-color="#FF9B00"/></linearGradient><clipPath id="clip0"><path fill="#fff" transform="translate(3 4)" d="M0 0h23v22.926H0z"/></clipPath></defs></svg>