<svg width="34" height="34" fill="none" xmlns="http://www.w3.org/2000/svg"><path d="M30.357 3.643h-3.643V1.214a1.214 1.214 0 00-2.428 0v2.429H9.714V1.214a1.214 1.214 0 10-2.428 0v2.429H3.643A3.643 3.643 0 000 7.286v23.071A3.643 3.643 0 003.643 34h26.714A3.643 3.643 0 0034 30.357V7.286a3.643 3.643 0 00-3.643-3.643zm1.214 26.714c0 .67-.543 1.215-1.214 1.215H3.643c-.67 0-1.214-.544-1.214-1.215V14.571H31.57v15.786zm0-18.214H2.43V7.286c0-.67.543-1.215 1.214-1.215h3.643V8.5a1.214 1.214 0 102.428 0V6.07h14.572V8.5a1.214 1.214 0 002.428 0V6.07h3.643c.67 0 1.215.544 1.215 1.215v4.857z" fill="#FFC738" fill-opacity=".75"/><path d="M9.49 17.018H7.048c-.674 0-1.22.543-1.22 1.213s.546 1.213 1.22 1.213H9.49c.674 0 1.22-.543 1.22-1.213s-.546-1.213-1.22-1.213zm8.547 0h-2.442c-.674 0-1.221.543-1.221 1.213s.547 1.213 1.22 1.213h2.443c.674 0 1.22-.543 1.22-1.213s-.546-1.213-1.22-1.213zm8.544 0H24.14c-.675 0-1.221.543-1.221 1.213s.546 1.213 1.22 1.213h2.442c.675 0 1.221-.543 1.221-1.213s-.546-1.213-1.22-1.213zM9.49 21.87H7.048c-.674 0-1.22.543-1.22 1.213s.546 1.213 1.22 1.213H9.49c.674 0 1.22-.543 1.22-1.213s-.546-1.213-1.22-1.213zm8.547 0h-2.442c-.674 0-1.221.543-1.221 1.213s.547 1.213 1.22 1.213h2.443c.674 0 1.22-.543 1.22-1.213s-.546-1.213-1.22-1.213zm8.544 0H24.14c-.675 0-1.221.543-1.221 1.213s.546 1.213 1.22 1.213h2.442c.675 0 1.221-.543 1.221-1.213s-.546-1.213-1.22-1.213zM9.49 26.722H7.048c-.674 0-1.22.543-1.22 1.213s.546 1.213 1.22 1.213H9.49c.674 0 1.22-.543 1.22-1.213s-.546-1.213-1.22-1.213zm8.547 0h-2.442c-.674 0-1.221.543-1.221 1.213s.547 1.213 1.22 1.213h2.443c.674 0 1.22-.543 1.22-1.213s-.546-1.213-1.22-1.213zm8.544 0H24.14c-.675 0-1.221.543-1.221 1.213s.546 1.213 1.22 1.213h2.442c.675 0 1.221-.543 1.221-1.213s-.546-1.213-1.22-1.213z" fill="#FFC738" fill-opacity=".75"/></svg>