<svg width="30" height="31" fill="none" xmlns="http://www.w3.org/2000/svg"><g clip-path="url(#clip0)"><path d="M15 .685C9.184.685 4.453 5.416 4.453 11.232c0 1.965.544 3.882 1.574 5.546L14.4 30.269c.16.259.443.416.746.416h.007a.879.879 0 00.747-.427l8.16-13.623a10.534 10.534 0 001.487-5.403C25.547 5.416 20.815.685 15 .685zm7.55 15.048l-7.417 12.385-7.611-12.266a8.778 8.778 0 01-1.323-4.62C6.2 6.385 10.154 2.43 15 2.43s8.795 3.954 8.795 8.8a8.78 8.78 0 01-1.244 4.502z" fill="url(#paint0_linear)"/><path d="M15 5.958a5.28 5.28 0 00-5.273 5.274A5.267 5.267 0 0015 16.505c2.983 0 5.273-2.416 5.273-5.273A5.28 5.28 0 0015 5.958zm0 8.801a3.53 3.53 0 01-3.527-3.527A3.54 3.54 0 0115 7.704a3.535 3.535 0 013.521 3.528A3.523 3.523 0 0115 14.759z" fill="url(#paint1_linear)"/></g><defs><linearGradient id="paint0_linear" x1="4.453" y1=".759" x2="22.102" y2="-.442" gradientUnits="userSpaceOnUse"><stop stop-color="#FFC738"/><stop offset="1" stop-color="#FF9B00"/></linearGradient><linearGradient id="paint1_linear" x1="9.727" y1="5.985" x2="18.509" y2="5.134" gradientUnits="userSpaceOnUse"><stop stop-color="#FFC738"/><stop offset="1" stop-color="#FF9B00"/></linearGradient><clipPath id="clip0"><path fill="#fff" transform="translate(0 .685)" d="M0 0h30v30H0z"/></clipPath></defs></svg>