<svg width="62" height="29" fill="none" xmlns="http://www.w3.org/2000/svg"><path d="M17.571 21v1.84a1 1 0 01-1.647.763l-10.052-8.53a1 1 0 01-.023-1.505l10.053-9.063c.643-.58 1.67-.123 1.67.743v8.085a1 1 0 001 1h24.857a1 1 0 011 1v7.507a1 1 0 001.647.763l10.052-8.53a1 1 0 00.023-1.505L46.098 4.505c-.643-.58-1.67-.123-1.67.743v2.419" stroke="url(#paint0_linear)" stroke-width="3" stroke-linecap="round" stroke-linejoin="round"/><defs><linearGradient id="paint0_linear" x1="22.333" y1=".73" x2="41.661" y2="21.902" gradientUnits="userSpaceOnUse"><stop stop-color="#FF9B00"/><stop offset="1" stop-color="#FFC738"/></linearGradient></defs></svg>