<svg width="30" height="30" fill="none" xmlns="http://www.w3.org/2000/svg"><path d="M24.213 6H6.091C4.938 6 4 6.984 4 8.194v13.164c0 1.21.938 2.194 2.091 2.194h18.122c1.153 0 2.091-.984 2.091-2.194V8.194c0-1.21-.938-2.194-2.09-2.194zm0 1.463c.095 0 .185.02.267.056l-9.328 8.483L5.824 7.52a.666.666 0 01.267-.056h18.122zm0 14.626H6.091c-.385 0-.697-.327-.697-.731V9.065l9.301 8.458a.677.677 0 00.914 0l9.301-8.458v12.293c0 .404-.312.731-.697.731z" fill="url(#paint0_linear)"/><defs><linearGradient id="paint0_linear" x1="4" y1="6.044" x2="22.468" y2="3.772" gradientUnits="userSpaceOnUse"><stop stop-color="#FFC738"/><stop offset="1" stop-color="#FF9B00"/></linearGradient></defs></svg>