<svg width="251" height="82" fill="none" xmlns="http://www.w3.org/2000/svg"><g opacity=".2"><path d="M1.785 81.724h-.063A1.222 1.222 0 01.555 80.45a25.17 25.17 0 01.919-5.443 1.22 1.22 0 012.242-.27 1.222 1.222 0 01.112.93 22.763 22.763 0 00-.832 4.89 1.22 1.22 0 01-1.211 1.168zm2.797-10.033a1.223 1.223 0 01-1.088-1.79 23.71 23.71 0 013.114-4.547 1.222 1.222 0 111.841 1.607 21.164 21.164 0 00-2.785 4.078 1.222 1.222 0 01-1.08.653l-.002-.001zm6.83-7.8a1.222 1.222 0 01-.712-2.219 25.244 25.244 0 014.808-2.635 1.222 1.222 0 01.942 2.254 22.826 22.826 0 00-4.35 2.378c-.2.143-.44.221-.686.224l-.002-.002zm9.556-4.07a1.223 1.223 0 01-1.003-1.934c.176-.246.438-.417.733-.481a39.244 39.244 0 015.34-.777 1.226 1.226 0 011.026 2.018 1.229 1.229 0 01-.836.424c-1.682.127-3.353.37-5.001.728-.085.02-.17.03-.257.03l-.002-.008zm14.393-.72c-.76.004-1.544-.017-2.328-.065a58.717 58.717 0 00-1.71-.079 1.224 1.224 0 01-.397-2.365c.15-.057.31-.083.471-.078.585.017 1.186.045 1.785.081 1.117.07 2.237.08 3.356.031a1.223 1.223 0 01.114 2.443 22.55 22.55 0 01-1.29.04l-.002-.008zm6.41-.775a1.223 1.223 0 01-.306-2.406 20.018 20.018 0 004.59-1.764 1.233 1.233 0 011.804.965 1.228 1.228 0 01-.644 1.205 22.475 22.475 0 01-5.15 1.981 1.2 1.2 0 01-.291.028l-.002-.009zm9.094-4.94a1.222 1.222 0 01-.853-2.105 19.38 19.38 0 003.086-3.819 1.226 1.226 0 012.236.376 1.227 1.227 0 01-.156.926 21.83 21.83 0 01-3.473 4.298 1.222 1.222 0 01-.838.338l-.002-.014zm5.522-8.777a1.223 1.223 0 01-1.16-1.627c.55-1.578.953-3.204 1.205-4.856a1.221 1.221 0 112.415.373 29.595 29.595 0 01-1.315 5.293 1.22 1.22 0 01-1.143.83l-.002-.013zm162.548-2.912a1.223 1.223 0 01-1.051-.585 66.485 66.485 0 00-2.848-4.28 1.222 1.222 0 111.983-1.429 69.999 69.999 0 012.952 4.437 1.216 1.216 0 01.024 1.23 1.22 1.22 0 01-1.06.627zM48.901 34.605h-.072a35.571 35.571 0 01-5.377-.666 1.223 1.223 0 11.498-2.392c1.65.336 3.322.545 5.004.626a1.224 1.224 0 01.82 2.105 1.223 1.223 0 01-.873.339v-.012zm5.237-.047a1.224 1.224 0 01-.936-2.055c.221-.237.527-.376.851-.388a54.926 54.926 0 002.7-.239 31.13 31.13 0 00-.42-3.77 1.22 1.22 0 011.474-1.44 1.224 1.224 0 01.933 1.022 33.28 33.28 0 01.443 3.868 1.223 1.223 0 01.336 2.42c-.261.04-.523.077-.781.113a1.209 1.209 0 01-.711.238 1.267 1.267 0 01-.463-.084c-1.15.138-2.268.242-3.354.311l-.072.004zm158.68-1.353a1.221 1.221 0 01-.943-.434 73.405 73.405 0 00-3.453-3.819 1.22 1.22 0 01.895-2.072c.325.005.634.138.859.37a78.87 78.87 0 013.569 3.948 1.226 1.226 0 01.174 1.298 1.219 1.219 0 01-1.101.71zm-148.325-.169a1.223 1.223 0 01-1-1.935c.177-.245.438-.416.733-.48 1.608-.359 3.299-.768 5.024-1.238a1.223 1.223 0 01.643 2.358c-1.765.48-3.496.907-5.146 1.266-.085.02-.172.03-.26.03h.006zm-25.772-.638a1.21 1.21 0 01-.49-.098c-1.4-.6-2.74-1.335-3.997-2.194a24.352 24.352 0 01-.763-.535 1.221 1.221 0 111.42-1.988c.233.169.475.338.725.507a20.994 20.994 0 003.58 1.965 1.222 1.222 0 01-.475 2.343zm35.883-2.095a1.223 1.223 0 01-.375-2.387 161.536 161.536 0 004.929-1.65 1.222 1.222 0 11.812 2.304c-1.71.603-3.395 1.166-5.004 1.675a1.25 1.25 0 01-.368.06l.006-.002zm9.886-3.469a1.222 1.222 0 01-.444-2.363c1.557-.594 3.189-1.24 4.85-1.91a1.223 1.223 0 11.92 2.263c-1.677.68-3.324 1.33-4.897 1.93a1.198 1.198 0 01-.434.082l.005-.002zm121.041-1.144a1.222 1.222 0 01-.824-.312 80.774 80.774 0 00-3.944-3.324 1.216 1.216 0 01-.457-.816 1.23 1.23 0 01.255-.9 1.215 1.215 0 01.816-.457 1.22 1.22 0 01.9.255 77.495 77.495 0 014.065 3.426 1.224 1.224 0 01.324 1.342 1.225 1.225 0 01-1.135.786zm-175.393.792a1.223 1.223 0 01-.858-.343c-1.549-1.504-2.705-2.998-3.437-4.44a1.221 1.221 0 112.179-1.104c.61 1.2 1.606 2.477 2.96 3.79a1.223 1.223 0 01-.844 2.1v-.003zM56.2 24.06a1.223 1.223 0 01-1.156-.803 21.66 21.66 0 00-2.19-4.434 1.22 1.22 0 011.71-1.678c.133.09.246.206.334.34a24.06 24.06 0 012.442 4.934 1.221 1.221 0 01-1.14 1.64zm37.997-1.16a1.223 1.223 0 01-1.093-1.789c.131-.25.345-.447.605-.558a463.74 463.74 0 004.792-2.077 1.223 1.223 0 01.988 2.235 393.082 393.082 0 01-4.821 2.09c-.149.065-.309.1-.47.104v-.006zm103.114-3.702a1.22 1.22 0 01-.699-.217 83.268 83.268 0 00-4.334-2.807 1.226 1.226 0 01-.553-.754 1.218 1.218 0 01.895-1.477c.315-.077.648-.026.925.142a87.837 87.837 0 014.458 2.888 1.224 1.224 0 01.472 1.363 1.219 1.219 0 01-1.157.862h-.007zm-93.525-.518a1.221 1.221 0 01-.513-2.333 673.243 673.243 0 004.765-2.177 1.224 1.224 0 011.66 1.532 1.223 1.223 0 01-.635.687c-1.718.792-3.28 1.506-4.772 2.182-.158.073-.331.11-.505.11zm-77.3-1.354a1.223 1.223 0 01-1.135-1.694c.71-1.695 2.216-3.12 4.352-4.12a1.22 1.22 0 011.766 1.045 1.22 1.22 0 01-.73 1.167c-1.577.739-2.66 1.726-3.133 2.852a1.222 1.222 0 01-1.12.75zm23.885-1.795a1.223 1.223 0 01-.744-.247 9.666 9.666 0 00-2.687-1.45 38.363 38.363 0 00-1.63-.502 1.222 1.222 0 11.649-2.354c.594.17 1.19.342 1.77.544a12.096 12.096 0 013.372 1.813 1.222 1.222 0 01-.73 2.196zm62.932-1.233a1.22 1.22 0 01-.526-2.328l3.259-1.52 1.488-.697a1.223 1.223 0 011.035 2.216l-1.488.692-3.261 1.522a1.222 1.222 0 01-.507.115zm75.053-.52a1.22 1.22 0 01-.575-.139 87.235 87.235 0 00-4.639-2.27 1.22 1.22 0 01.536-2.35c.164.01.324.052.471.125a88.68 88.68 0 014.771 2.333 1.225 1.225 0 01.623 1.374 1.222 1.222 0 01-1.187.931v-.003zm-153.09-1.285a1.224 1.224 0 01-.15-2.442 26.823 26.823 0 015.48-.055 1.224 1.224 0 01.676 2.154 1.222 1.222 0 01-.893.28 24.392 24.392 0 00-5.113.063zM122.8 9.88a1.223 1.223 0 01-1.12-1.772c.128-.253.339-.453.598-.567l1.638-.757a52.317 52.317 0 013.237-1.364 1.223 1.223 0 01.877 2.28c-1.046.401-2.09.84-3.09 1.303l-1.636.755c-.158.074-.33.113-.504.115v.007zm56.018-.416c-.151 0-.302-.027-.444-.08a87.823 87.823 0 00-4.876-1.707 1.215 1.215 0 01-.718-.601 1.21 1.21 0 01-.081-.933 1.204 1.204 0 01.603-.716 1.224 1.224 0 01.934-.078 89.615 89.615 0 015.013 1.753 1.219 1.219 0 01.764 1.36 1.22 1.22 0 01-1.195 1.002zM168.836 6.3a1.206 1.206 0 01-.305-.036 83.678 83.678 0 00-5.044-1.098 1.226 1.226 0 01-.034-2.402 1.22 1.22 0 01.478-.007c1.724.318 3.472.699 5.192 1.13a1.223 1.223 0 01-.287 2.406V6.3zm-36.266-.159a1.224 1.224 0 01-1.216-1.055 1.223 1.223 0 01.886-1.344 61.212 61.212 0 015.208-1.203 1.224 1.224 0 011.224 1.89c-.182.267-.461.45-.778.512a58.386 58.386 0 00-4.995 1.155 1.22 1.22 0 01-.329.045zm25.97-1.738c-.051 0-.102-.003-.152-.01a76.043 76.043 0 00-5.136-.428 1.22 1.22 0 01-.847-.4 1.224 1.224 0 01.966-2.044 78.2 78.2 0 015.303.443 1.223 1.223 0 11-.134 2.444v-.005zm-15.687-.18a1.222 1.222 0 01-1.217-1.63 1.218 1.218 0 011.089-.813 72.001 72.001 0 015.321-.325 1.221 1.221 0 01.057 2.443 66.13 66.13 0 00-5.131.318c-.04.004-.079.006-.119.006z" fill="#fff"/><path d="M219.93 33.263l-3.917 6.5 34.211 23.029-30.294-29.529z" fill="#BDCDFF"/><path d="M212.547 47.558l2.11 7.418 34.045 6.754-36.155-14.172z" fill="#BDCDFF"/><path d="M250.226 62.794l-57.573-19.233 19.827-7.103 37.746 26.336zm-30.293-29.53l30.293 29.528-17.839-34.871-12.454 5.343z" fill="#fff"/></g></svg>