<svg width="269" height="88" fill="none" xmlns="http://www.w3.org/2000/svg"><g clip-path="url(#clip0)" filter="url(#filter0_d)"><path d="M37.362 74L91 56.96V16.55L37.362 28.094V74z" fill="#253354"/><path d="M5.001 55.4L37.363 74V28.095L5.001 12.35V55.4z" fill="#1E2A47"/><path d="M91 16.55L58.262 5 5 12.35l32.362 15.745L91 16.55z" fill="#3C465E"/><path opacity=".6" d="M75.432 11.058L24.882 22.25l-1.04 18.3-1.78 2.625-.882-3.375-1.195 1.05-1.187-2.4-.89 1.35 1.146-20.613 51.92-9.701 4.458 1.572z" fill="#1E2947"/><path opacity=".6" d="M68.963 21.294L37.36 7.884l-5.377.742 30.32 14.101 6.659-1.433z" fill="#1E2947"/><path d="M68.963 21.294v42.668l-6.659 2.115v-43.35l6.659-1.433z" fill="#1E2947"/><path d="M25.473 62.375c0 .497.366.667.89.9l5.49 2.802c.74.373.89-.409.89-.9v-8.55c0-.497-.322-.615-.89-.9l-5.49-2.803c-1.162-.6-.808.62-.89 2.925v6.526z" fill="#fff"/><path d="M32.182 57.468l-5.45-2.676v.308l5.45 2.769v-.4zm0 1.055l-5.45-2.678v.308l5.45 2.77v-.4zm0 1.183l-5.45-2.677v.307l5.45 2.77v-.4zm-.129 3.244l-3.444-1.692-.043.32 3.487 1.772v-.4zm0 .8l-3.444-1.691-.043.32 3.487 1.771v-.4zm0 .817l-3.444-1.692-.043.32 3.487 1.771v-.4z" fill="#25304C"/></g><g filter="url(#filter1_d)" opacity=".8"><path d="M230.406 20.796l19.736-15.608-.203 33.633-19.533 22.666V20.796z" fill="#202C49"/><path d="M230.406 61.486L169 56.45V18.59l61.406 2.206v40.691z" fill="#293759"/><path d="M169 18.589L195.452 4.06l54.69 1.128-19.736 15.608L169 18.588z" fill="#1E2A47"/><path d="M192.141 36.65v-3.149h-4.123v3.15a2.062 2.062 0 001.76 2.04v2.835c-.53.07-1.019.323-1.381.716h3.365a2.283 2.283 0 00-1.381-.716V38.69a2.063 2.063 0 001.76-2.04zm5.841-2.544v-.769h-.201v.77c-1.752.044-3.234 1.267-3.791 2.96a.657.657 0 011.184 0h.128a.651.651 0 01.592-.372.654.654 0 01.591.373h.127a.657.657 0 01.908-.294.66.66 0 01.251.246v3.56h-.095s-.112 1.234.33 1.546c.295.205.833.124 1.015-.184.2-.34.207-.664.033-.624-.174.04-.081.46-.335.575-.312.14-.581.033-.621-.343a8.036 8.036 0 01-.011-.981h-.114v-3.587a.656.656 0 011.134.086h.101a.651.651 0 01.591-.373.657.657 0 01.592.373h.128a.657.657 0 011.184 0h.06c-.547-1.694-2.028-2.923-3.781-2.962zm8.325 1.242l-1.655-1.983L203 35.348h1.042v5.803h1.222v-5.803h1.043zm3.638 0l-1.654-1.983-1.654 1.983h1.042v5.803h1.224v-5.803h1.042zm-.188 6.383h-6.568v.482h6.568v-.482z" fill="#1B2745"/><path d="M230.406 20.796l16.409 17.076 16.816-17.076-13.489-15.608-19.736 15.608zM169 18.589l31.823-4.395S223.822.592 223.122 1.01c-.7.418-27.663 3.051-27.663 3.051L169 18.59z" fill="#454F66"/></g><g filter="url(#filter2_d)"><path d="M77 73.416l103.532 5.005V64.202L77 59.788v13.628z" fill="#293759"/><path d="M180.535 64.202l20.286-17.451v12.27l-20.286 19.4V64.202z" fill="#1B2745"/><path d="M180.532 64.203l20.286-17.452L109.6 44 77 59.788l103.532 4.415z" fill="#3C465E"/><path d="M161.851 71.04v-2.377h-3.111v2.376a1.554 1.554 0 001.326 1.538v2.136c-.4.053-.768.243-1.042.539h2.539a1.73 1.73 0 00-1.043-.539v-2.136a1.555 1.555 0 001.331-1.538zm4.407-1.92v-.58h-.152v.58c-1.322.034-2.44.955-2.86 2.235h.007a.494.494 0 01.893 0h.097a.487.487 0 01.446-.284.492.492 0 01.446.284h.096a.49.49 0 01.685-.223.495.495 0 01.19.187v2.684h-.072s-.084.931.249 1.166c.222.156.628.094.764-.138.152-.257.157-.502.026-.471-.131.03-.061.347-.253.434-.235.106-.438.025-.468-.257a6.122 6.122 0 01-.009-.742h-.085v-2.707a.497.497 0 01.447-.215.493.493 0 01.408.282h.076a.494.494 0 01.893 0h.097a.494.494 0 01.893 0h.045c-.42-1.28-1.538-2.201-2.859-2.236zm6.282.937l-1.248-1.498-1.247 1.498h.785v4.378h.923v-4.378h.787zm2.745 0l-1.248-1.498-1.248 1.498h.786v4.378h.924v-4.378h.786zm-.143 4.815h-4.954v.365h4.954v-.365z" fill="#1B2745"/><path opacity=".6" d="M115.924 75.297v-13.85l24.103-16.564 4.322.164-21.946 17.067-.159 13.488-6.32-.305z" fill="#1A2644"/><path opacity=".6" d="M92.606 52.231l96.497 4.598v13.397l3.969-3.796V53.415l-96.344-3.18-4.122 1.996z" fill="#1A2644"/></g><defs><filter id="filter0_d" x="0" y="4" width="96" height="79" filterUnits="userSpaceOnUse" color-interpolation-filters="sRGB"><feFlood flood-opacity="0" result="BackgroundImageFix"/><feColorMatrix in="SourceAlpha" values="0 0 0 0 0 0 0 0 0 0 0 0 0 0 0 0 0 0 127 0"/><feOffset dy="4"/><feGaussianBlur stdDeviation="2.5"/><feColorMatrix values="0 0 0 0 0 0 0 0 0 0 0 0 0 0 0 0 0 0 0.17 0"/><feBlend in2="BackgroundImageFix" result="effect1_dropShadow"/><feBlend in="SourceGraphic" in2="effect1_dropShadow" result="shape"/></filter><filter id="filter1_d" x="164" y="0" width="104.631" height="70.487" filterUnits="userSpaceOnUse" color-interpolation-filters="sRGB"><feFlood flood-opacity="0" result="BackgroundImageFix"/><feColorMatrix in="SourceAlpha" values="0 0 0 0 0 0 0 0 0 0 0 0 0 0 0 0 0 0 127 0"/><feOffset dy="4"/><feGaussianBlur stdDeviation="2.5"/><feColorMatrix values="0 0 0 0 0 0 0 0 0 0 0 0 0 0 0 0 0 0 0.17 0"/><feBlend in2="BackgroundImageFix" result="effect1_dropShadow"/><feBlend in="SourceGraphic" in2="effect1_dropShadow" result="shape"/></filter><filter id="filter2_d" x="72" y="43" width="133.821" height="44.421" filterUnits="userSpaceOnUse" color-interpolation-filters="sRGB"><feFlood flood-opacity="0" result="BackgroundImageFix"/><feColorMatrix in="SourceAlpha" values="0 0 0 0 0 0 0 0 0 0 0 0 0 0 0 0 0 0 127 0"/><feOffset dy="4"/><feGaussianBlur stdDeviation="2.5"/><feColorMatrix values="0 0 0 0 0 0 0 0 0 0 0 0 0 0 0 0 0 0 0.17 0"/><feBlend in2="BackgroundImageFix" result="effect1_dropShadow"/><feBlend in="SourceGraphic" in2="effect1_dropShadow" result="shape"/></filter><clipPath id="clip0"><path fill="#fff" transform="matrix(-1 0 0 1 91 5)" d="M0 0h86v69H0z"/></clipPath></defs></svg>