<svg width="1920" height="600" fill="none" xmlns="http://www.w3.org/2000/svg"><g clip-path="url(#clip0)"><path d="M-35 599h813.5l299-601h-809L-35 599z" fill="#fff" fill-opacity=".05"/><path fill="#172340" d="M0-41h1077v709H0z"/><path d="M-138 599h57L219.5-2H-33l-105 601z" fill="url(#paint0_linear)"/><path d="M-202 599h57L155.5-2H-97l-105 601z" fill="url(#paint1_linear)"/><path d="M1722-2h200v602h-352L1722-2z" fill="#172340" fill-opacity=".6"/><path d="M2078-2h-51.93L1726 600h252.14L2078-2z" fill="url(#paint2_linear)"/><path d="M1186-2h114l-145.5 602H929L1186-2z" fill="url(#paint3_linear)"/><path d="M1078.5-3.5L1134-2l-123.54 601H779L1078.5-3.5z" fill="#172340"/><path d="M1176-2h-53.5L823 600h252.5L1176-2z" fill="url(#paint4_linear)"/><path d="M976.174 600H1076L1254-2h-117.5L976.174 600z" fill="url(#paint5_linear)"/><path d="M1623 600h51.93L1975-2h-252.14L1623 600z" fill="#FFC130"/><path d="M1660 600h51.93L2012-2h-252.14L1660 600z" fill="url(#paint6_linear)"/><path d="M-35 599h813.5l299-601h-809L-35 599z" fill="#fff" fill-opacity=".05"/></g><defs><linearGradient id="paint0_linear" x1="-81" y1="655.5" x2="-266.35" y2="577.546" gradientUnits="userSpaceOnUse"><stop stop-color="#FFC738"/><stop offset="1" stop-color="#FF9B00" stop-opacity=".69"/></linearGradient><linearGradient id="paint1_linear" x1="54.5" y1="322.5" x2="-73.997" y2="285.391" gradientUnits="userSpaceOnUse"><stop stop-color="#FF9B00" stop-opacity=".69"/><stop offset="1" stop-color="#FFC738"/></linearGradient><linearGradient id="paint2_linear" x1="1877.29" y1="609.015" x2="1732.4" y2="527.273" gradientUnits="userSpaceOnUse"><stop stop-color="#FFC738"/><stop offset="1" stop-color="#FF9B00"/></linearGradient><linearGradient id="paint3_linear" x1="1355" y1="52" x2="1091.5" y2="600" gradientUnits="userSpaceOnUse"><stop stop-color="#172340" stop-opacity=".49"/><stop offset=".639" stop-color="#232E4A"/></linearGradient><linearGradient id="paint4_linear" x1="1027.5" y1="9.009" x2="1294.56" y2="32.71" gradientUnits="userSpaceOnUse"><stop stop-color="#FFC738"/><stop offset="1" stop-color="#FF9B00" stop-opacity=".46"/></linearGradient><linearGradient id="paint5_linear" x1="1337.5" y1="598.998" x2="1041.74" y2="615.771" gradientUnits="userSpaceOnUse"><stop stop-color="#FFC738" stop-opacity=".5"/><stop offset="1" stop-color="#FF9B00"/></linearGradient><linearGradient id="paint6_linear" x1="2012" y1="600" x2="1716.65" y2="616.698" gradientUnits="userSpaceOnUse"><stop stop-color="#FFC738" stop-opacity=".5"/><stop offset="1" stop-color="#FF9B00"/></linearGradient><clipPath id="clip0"><path fill="#fff" d="M0 0h1920v600H0z"/></clipPath></defs></svg>