<svg width="108" height="99" fill="none" xmlns="http://www.w3.org/2000/svg"><g clip-path="url(#clip0)"><path d="M67.015 71.967c-16.737 4.01-25.053 7.761-24.947 11.256.15 5.037 17.877 9.54 53.177 13.51a173.44 173.44 0 01-34.611.372C37.288 94.994 8.66 92.43 2.157 76.613c-5.86-14.302 7.116-37.693 31.716-55.138l33.142 50.492z" fill="url(#paint0_linear)" fill-opacity=".39"/><path d="M21.285 75.391c-5.455-9.61 4.279-27.534 18.015-45.66l27.706 42.217c-16.738 4.01-25.053 7.761-24.947 11.256.15 5.037 17.876 9.54 53.177 13.51 0 0-60.177 2.9-73.951-21.323z" fill="url(#paint1_linear)"/><path d="M2.161 76.612C-3.699 62.31 9.278 38.92 33.878 21.475l2.649 4.039c-9.967 5.775-31.91 20.58-34.653 40.104-1.034 7.38 1.317 13.213 5.16 17.81a18.776 18.776 0 01-4.873-6.816z" fill="url(#paint2_linear)"/><path d="M65.8 92.585c-51.466-6.315-11.057-25.22-11.057-25.22l9.466.31 2.811 4.287c-16.737 4.009-22.49 7.453-22.383 10.947.098 3.366 5.444 6.796 21.164 9.676z" fill="url(#paint3_linear)"/><path d="M34.013 34.063S9.191 50.391 5.916 69.978C2.642 89.566 45.338 94.147 45.338 94.147c-.97-.117-36.393-5.278-35.076-21.57 1.317-16.293 38.372-27.674 38.372-27.674l-14.62-10.84z" fill="url(#paint4_linear)"/><path d="M34.013 34.063S9.191 50.391 5.916 69.978C2.642 89.566 45.338 94.147 45.338 94.147c-.97-.117-36.393-5.278-35.076-21.57 1.317-16.293 38.372-27.674 38.372-27.674l-14.62-10.84z" fill="url(#paint5_linear)"/><path d="M42.115 52.346c-.538.427-16.1 2.304-22.244 15.058-6.146 12.755 6.692 17.241 6.692 17.241-.903-.382-6.61-5.626-5.02-12.303C23.13 65.664 43.054 59.28 43.054 59.28l-.94-6.934z" fill="url(#paint6_linear)"/><path d="M59.38 57.825c-.596.347-16.266-.08-24.2 11.636-7.934 11.715 4.142 18.043 4.142 18.043-.838-.51-5.745-6.552-3.193-12.91 2.551-6.357 23.195-9.772 23.195-9.772l.055-6.997z" fill="url(#paint7_linear)"/><path d="M69.478 1.125l.002 41.24 35.261 16.41-.353-37.64-34.91-20.01z" fill="url(#paint8_linear)" stroke="#885300" stroke-width=".5"/><path d="M69.224 42.913L34.08 60.66l-.196-38.983L69.065 1.258l.16 41.655z" fill="url(#paint9_linear)" stroke="#885300" stroke-width=".5"/><path d="M35.222 60.89l-.49-.204.47-.247 34.043-17.934.11-.058.113.053 17.333 8.147h0l.003.001 16.714 8.146.471.23-.475.222-34.046 15.877-.1.047-.103-.043-34.043-14.236z" fill="url(#paint10_linear)" stroke="#885300" stroke-width=".5"/><path d="M92.866 53.365l-8.006-3.66-.436-40.559 8.016 4.567.426 39.652z" fill="#EFDAC1"/><path d="M84.86 49.705L50.174 66.85l7.428 3.095 35.264-16.58-8.006-3.66z" fill="#EFDAC1"/><path d="M103.154 22.228l-8.176-4.272.033 3.018 8.176 4.272-.033-3.018zm.04 3.684L96.78 22.86l.033 3.018 6.413 3.053-.032-3.018zM77.453 39.935l.046 4.251-5.668-2.433-.051-4.775 5.673 2.957z" fill="#FFEAE7"/><path d="M102.233 21.77l.94.463.019 1.729a18.927 18.927 0 00-.959-2.191z" fill="#fff" fill-opacity=".38"/><path d="M73.64 42.532l-1.808-.779-.023-2.126a19.135 19.135 0 001.832 2.905z" fill="#FFEAE7" fill-opacity=".35"/><path d="M92.693 35.978s-.787-20.105-.8-21.248c-.011-1.144-2.8-2.937-2.8-2.937l3.36 1.92.24 22.265z" fill="#FFE9CF"/></g><defs><linearGradient id="paint0_linear" x1="47.34" y1="21.331" x2="99.429" y2="101.011" gradientUnits="userSpaceOnUse"><stop stop-color="#A7C1FF"/><stop offset="0" stop-color="#A7C1FF"/><stop offset=".078" stop-color="#6075A9" stop-opacity=".922"/><stop offset="1" stop-color="#fff" stop-opacity=".2"/></linearGradient><linearGradient id="paint1_linear" x1="65.91" y1="64.897" x2="47.529" y2="99.823" gradientUnits="userSpaceOnUse"><stop stop-color="#4E5F89"/><stop offset="1" stop-color="#fff" stop-opacity="0"/></linearGradient><linearGradient id="paint2_linear" x1="39.987" y1="25.84" x2="6.507" y2="65.594" gradientUnits="userSpaceOnUse"><stop stop-color="#fff"/><stop offset="1" stop-color="#fff" stop-opacity="0"/></linearGradient><linearGradient id="paint3_linear" x1="-2317.89" y1="4165.57" x2="-3198.83" y2="4900.08" gradientUnits="userSpaceOnUse"><stop stop-color="#3E4C6B"/><stop offset="1" stop-color="#fff" stop-opacity="0"/></linearGradient><linearGradient id="paint4_linear" x1="32.099" y1="40.178" x2="28.251" y2="94.331" gradientUnits="userSpaceOnUse"><stop stop-color="#91A8DA"/><stop offset=".932" stop-color="#738BC0" stop-opacity="0"/></linearGradient><linearGradient id="paint5_linear" x1="49.947" y1="40.581" x2="-3.722" y2="77.625" gradientUnits="userSpaceOnUse"><stop stop-color="#989898"/><stop offset="1" stop-color="#fff" stop-opacity="0"/></linearGradient><linearGradient id="paint6_linear" x1="43.019" y1="55.907" x2="13.872" y2="77.06" gradientUnits="userSpaceOnUse"><stop stop-color="#989898"/><stop offset=".995" stop-color="#fff" stop-opacity=".08"/></linearGradient><linearGradient id="paint7_linear" x1="59.415" y1="61.099" x2="30.594" y2="83.558" gradientUnits="userSpaceOnUse"><stop stop-color="#989898"/><stop offset="1" stop-color="#fff" stop-opacity=".11"/></linearGradient><linearGradient id="paint8_linear" x1="92.519" y1="-5.593" x2="65.6" y2="2.233" gradientUnits="userSpaceOnUse"><stop stop-color="#FF9B00"/><stop offset="1" stop-color="#FFC738"/></linearGradient><linearGradient id="paint9_linear" x1="70.908" y1="11.778" x2="46.46" y2="2.49" gradientUnits="userSpaceOnUse"><stop stop-color="#FF9B00"/><stop offset="1" stop-color="#FFC738"/></linearGradient><linearGradient id="paint10_linear" x1="80.494" y1="39.288" x2="52.422" y2="67.43" gradientUnits="userSpaceOnUse"><stop stop-color="#FF9B00"/><stop offset="1" stop-color="#FFC738"/></linearGradient><clipPath id="clip0"><path fill="#fff" transform="scale(-1 1) rotate(.616 -53 -9864.31)" d="M0 0h105.971v97.476H0z"/></clipPath></defs></svg>