<svg width="553" height="195" fill="none" xmlns="http://www.w3.org/2000/svg"><g clip-path="url(#clip0)" filter="url(#filter0_d)"><path d="M63.2 124.009l95.461-30.376v-72.04L63.199 42.172v81.836z" fill="#253354"/><path d="M5.604 90.85L63.2 124.008V42.173L5.604 14.103v76.746z" fill="#1E2A47"/><path d="M158.661 21.591L100.396 1 5.603 14.102 63.2 42.174l95.462-20.582z" fill="#3C465E"/><path opacity=".6" d="M130.952 11.8L40.986 31.752l-1.85 32.623-3.168 4.68-1.569-6.016-2.127 1.873-2.113-4.28-1.583 2.407 2.038-36.747L123.02 8.996l7.932 2.804z" fill="#1E2947"/><path opacity=".6" d="M119.442 30.047L63.199 6.143l-9.57 1.321 53.962 25.139 11.851-2.556z" fill="#1E2947"/><path d="M119.442 30.047v76.067l-11.851 3.77V32.602l11.851-2.555z" fill="#1E2947"/><path d="M42.041 103.284c0 .887.653 1.191 1.586 1.604l9.769 4.996c1.32.666 1.583-.729 1.583-1.605V93.036c0-.884-.57-1.096-1.583-1.603l-9.77-4.997c-2.07-1.069-1.438 1.105-1.585 5.215v11.633z" fill="#fff"/><path d="M53.98 94.537l-9.697-4.77v.548l9.697 4.936v-.714zm0 1.88l-9.697-4.773v.55l9.697 4.938v-.715zm0 2.109l-9.697-4.77v.546l9.697 4.938v-.714zm-.23 5.786l-6.128-3.017-.077.571 6.206 3.157v-.711zm0 1.426l-6.128-3.017-.077.571 6.206 3.157v-.711zm0 1.454l-6.128-3.017-.077.571 6.206 3.158v-.712z" fill="#25304C"/></g><g filter="url(#filter1_d)" opacity=".8"><path d="M478.948 46.59l40.77-32.243-.42 69.478-40.35 46.825V46.59z" fill="#202C49"/><path d="M478.948 130.648l-126.852-10.407V42.029l126.852 4.559v84.06z" fill="#293759"/><path d="M352.096 42.03l54.644-30.013 112.979 2.33-40.771 32.242-126.852-4.558z" fill="#1E2A47"/><path d="M399.898 79.343v-6.507h-8.519v6.507a4.258 4.258 0 003.637 4.214v5.856a4.728 4.728 0 00-2.854 1.479h6.952a4.716 4.716 0 00-2.853-1.48v-5.855a4.262 4.262 0 003.637-4.215zm12.065-5.257v-1.589h-.416v1.59c-3.618.09-6.68 2.617-7.83 6.116a1.348 1.348 0 011.222-.77 1.358 1.358 0 011.223.77h.265a1.353 1.353 0 012.444 0h.261a1.355 1.355 0 012.396-.098v7.354h-.197s-.231 2.55.681 3.193c.61.424 1.722.257 2.097-.379.413-.703.428-1.373.068-1.29-.359.084-.166.95-.692 1.188-.644.288-1.2.069-1.283-.707a16.73 16.73 0 01-.023-2.028h-.235v-7.41a1.355 1.355 0 012.343.177h.208a1.355 1.355 0 012.445 0h.265a1.348 1.348 0 011.222-.77 1.358 1.358 0 011.223.77h.124c-1.131-3.499-4.189-6.037-7.811-6.117zm17.199 2.566l-3.417-4.097-3.414 4.097h2.153V88.64h2.525V76.652h2.153zm7.517 0l-3.418-4.097-3.417 4.097h2.153V88.64h2.528V76.652h2.154zm-.389 13.186h-13.568v.996h13.568v-.996z" fill="#1B2745"/><path d="M478.948 46.59l33.897 35.275 34.738-35.276-27.865-32.242-40.77 32.242zm-126.853-4.56l65.741-9.078s47.51-28.1 46.065-27.238c-1.446.863-57.146 6.303-57.146 6.303l-54.66 30.014z" fill="#454F66"/></g><g clip-path="url(#clip1)" filter="url(#filter2_d)"><path d="M175.229 177.798l-74.578-33.702V64.157l74.578 22.84v90.801z" fill="#253354"/><path d="M231.503 138.153l-56.274 39.644v-90.8l56.274-34.001v85.157z" fill="#1E2A47"/><path d="M100.651 64.157l74.578 22.84 56.273-34.001-73.906-15.535-56.945 26.696z" fill="#3C465E"/><path d="M135.771 74.91l50.611-31.399 1.726.364-50.168 31.702-2.169-.666z" fill="#1B2848"/><path d="M100.652 64.157L78.768 91.905l75.295 29.074 21.167-33.982-74.578-22.84z" fill="#3C465E"/><path d="M157.596 37.46l20.115-26.413 79.373 9.164-25.581 32.785-73.907-15.535zm19.009 48.704l-74.687-22.6-1.267.593 74.578 22.84 1.376-.833z" fill="#1B2848"/><path d="M157.596 37.46l73.906 15.536-1.155.698-73.411-15.924.66-.31z" fill="#1B2848"/><path d="M147.179 138.352v17.43l14.135 6.11v-20.125l-14.135-3.415z" fill="#fff"/><path d="M147.903 139.377l12.188 3.086v.641l-12.188-3.129v-.598zm0 1.414l12.188 3.084v.644l-12.188-3.129v-.599zm0 1.642l12.188 3.086v.644l-12.188-3.129v-.601zm0 1.587l12.188 3.083v.645l-12.188-3.13v-.598zm0 7.388l5.896 1.812-.019.727-5.877-1.938v-.601zm0 1.051l5.896 1.809-.019.727-5.877-1.937v-.599zm0 1.267l5.896 1.811-.019.728-5.877-1.938v-.601z" fill="#4C402C"/></g><g filter="url(#filter3_d)"><path d="M213.124 175.387l213.877 10.34v-29.374l-213.877-9.118v28.152z" fill="#293759"/><path d="M427.002 156.353l41.906-36.052v25.349l-41.906 40.076v-29.373z" fill="#1B2745"/><path d="M427 156.354l41.906-36.052-188.437-5.683-67.346 32.616L427 156.354z" fill="#3C465E"/><path d="M388.411 170.477v-4.908h-6.427v4.908a3.214 3.214 0 002.738 3.177v4.412a3.578 3.578 0 00-2.153 1.113h5.245a3.575 3.575 0 00-2.153-1.113v-4.412a3.217 3.217 0 002.75-3.177zm9.102-3.967v-1.198h-.314v1.198c-2.73.072-5.04 1.975-5.907 4.618h.014a1.02 1.02 0 011.844 0h.2a1.02 1.02 0 011.845 0h.197a1.016 1.016 0 011.415-.459c.164.09.299.223.392.385v5.545h-.149s-.174 1.924.514 2.409c.46.323 1.299.194 1.579-.285.314-.531.326-1.036.055-.973-.272.062-.126.716-.523.896-.485.22-.905.051-.968-.531a12.853 12.853 0 01-.017-1.533h-.177v-5.591a1.015 1.015 0 01.924-.445 1.023 1.023 0 01.843.582h.157a1.026 1.026 0 01.923-.585 1.019 1.019 0 01.922.585h.2a1.02 1.02 0 011.844 0h.094c-.868-2.643-3.177-4.546-5.907-4.618zm12.974 1.937l-2.578-3.094-2.576 3.094h1.622v9.044h1.908v-9.044h1.624zm5.672 0l-2.578-3.094-2.579 3.094h1.625v9.044h1.907v-9.044h1.625zm-.294 9.947h-10.236v.754h10.236v-.754z" fill="#1B2745"/><path opacity=".6" d="M293.531 179.272v-28.611l49.792-34.217 8.928.337-45.335 35.258-.328 27.864-13.057-.631z" fill="#1A2644"/><path opacity=".6" d="M245.361 131.624l199.344 9.498v27.675l8.2-7.843V134.07l-199.027-6.57-8.517 4.124z" fill="#1A2644"/></g><defs><filter id="filter0_d" x=".604" y="0" width="163.057" height="133.009" filterUnits="userSpaceOnUse" color-interpolation-filters="sRGB"><feFlood flood-opacity="0" result="BackgroundImageFix"/><feColorMatrix in="SourceAlpha" values="0 0 0 0 0 0 0 0 0 0 0 0 0 0 0 0 0 0 127 0"/><feOffset dy="4"/><feGaussianBlur stdDeviation="2.5"/><feColorMatrix values="0 0 0 0 0 0 0 0 0 0 0 0 0 0 0 0 0 0 0.17 0"/><feBlend in2="BackgroundImageFix" result="effect1_dropShadow"/><feBlend in="SourceGraphic" in2="effect1_dropShadow" result="shape"/></filter><filter id="filter1_d" x="347.095" y="4.695" width="205.488" height="134.955" filterUnits="userSpaceOnUse" color-interpolation-filters="sRGB"><feFlood flood-opacity="0" result="BackgroundImageFix"/><feColorMatrix in="SourceAlpha" values="0 0 0 0 0 0 0 0 0 0 0 0 0 0 0 0 0 0 127 0"/><feOffset dy="4"/><feGaussianBlur stdDeviation="2.5"/><feColorMatrix values="0 0 0 0 0 0 0 0 0 0 0 0 0 0 0 0 0 0 0.17 0"/><feBlend in2="BackgroundImageFix" result="effect1_dropShadow"/><feBlend in="SourceGraphic" in2="effect1_dropShadow" result="shape"/></filter><filter id="filter2_d" x="75" y="9" width="183" height="189" filterUnits="userSpaceOnUse" color-interpolation-filters="sRGB"><feFlood flood-opacity="0" result="BackgroundImageFix"/><feColorMatrix in="SourceAlpha" values="0 0 0 0 0 0 0 0 0 0 0 0 0 0 0 0 0 0 127 0"/><feOffset dy="4"/><feGaussianBlur stdDeviation="2.5"/><feColorMatrix values="0 0 0 0 0 0 0 0 0 0 0 0 0 0 0 0 0 0 0.17 0"/><feBlend in2="BackgroundImageFix" result="effect1_dropShadow"/><feBlend in="SourceGraphic" in2="effect1_dropShadow" result="shape"/></filter><filter id="filter3_d" x="208.123" y="113.619" width="265.785" height="81.108" filterUnits="userSpaceOnUse" color-interpolation-filters="sRGB"><feFlood flood-opacity="0" result="BackgroundImageFix"/><feColorMatrix in="SourceAlpha" values="0 0 0 0 0 0 0 0 0 0 0 0 0 0 0 0 0 0 127 0"/><feOffset dy="4"/><feGaussianBlur stdDeviation="2.5"/><feColorMatrix values="0 0 0 0 0 0 0 0 0 0 0 0 0 0 0 0 0 0 0.17 0"/><feBlend in2="BackgroundImageFix" result="effect1_dropShadow"/><feBlend in="SourceGraphic" in2="effect1_dropShadow" result="shape"/></filter><clipPath id="clip0"><path fill="#fff" transform="matrix(-1 0 0 1 158.661 1)" d="M0 0h153.057v123.009H0z"/></clipPath><clipPath id="clip1"><path fill="#fff" transform="translate(80 10)" d="M0 0h173v179H0z"/></clipPath></defs></svg>