<svg width="1096" height="600" fill="none" xmlns="http://www.w3.org/2000/svg"><g clip-path="url(#clip0)"><path d="M353-1h-53L0 601.5h252.5L353-1z" fill="#FFC130"/><path d="M353-1h-53L0 601.5h252.5L353-1z" fill="url(#paint0_linear)"/><path d="M226 601h52L578.5 0H326L226 601z" fill="#FFC130"/><path d="M263 601h52L615.5 0H363L263 601z" fill="url(#paint1_linear)"/><path d="M655.5 0h-57L298 601h252.5l105-601z" fill="url(#paint2_linear)"/><path d="M958 0h77.5v601H747L958 0z" fill="#172340" fill-opacity=".6"/><path d="M1019 0h77.5v601H808L1019 0z" fill="#172340"/><path d="M1096 0h77.5v601H885L1096 0z" fill="#20588F" fill-opacity=".26"/><path d="M1255.5 0h-52L903 601h252.5l100-601z" fill="url(#paint3_linear)"/></g><defs><linearGradient id="paint0_linear" x1="0" y1=".5" x2="295.759" y2="-16.273" gradientUnits="userSpaceOnUse"><stop stop-color="#FFC738"/><stop offset="1" stop-color="#FF9B00"/></linearGradient><linearGradient id="paint1_linear" x1="615.5" y1="601" x2="319.741" y2="617.773" gradientUnits="userSpaceOnUse"><stop stop-color="#FFC738" stop-opacity=".5"/><stop offset="1" stop-color="#FF9B00"/></linearGradient><linearGradient id="paint2_linear" x1="598.5" y1="-56.5" x2="783.85" y2="21.454" gradientUnits="userSpaceOnUse"><stop stop-color="#FFC738"/><stop offset="1" stop-color="#FF9B00" stop-opacity=".69"/></linearGradient><linearGradient id="paint3_linear" x1="1054.5" y1="610" x2="909.629" y2="528.012" gradientUnits="userSpaceOnUse"><stop stop-color="#FFC738"/><stop offset="1" stop-color="#FF9B00"/></linearGradient><clipPath id="clip0"><path fill="#fff" d="M0 0h1096v600H0z"/></clipPath></defs></svg>