<svg width="960" height="600" fill="none" xmlns="http://www.w3.org/2000/svg"><g clip-path="url(#clip0)"><path d="M-151 664h984.244L1195-63H216.201L-151 664z" fill="#172340"/><path d="M-34 601h813.5l299-601h-809L-34 601z" fill="#232E4A"/><path d="M1177-1h-53L824 601.5h252.5L1177-1z" fill="#FFC130"/><path d="M1177-1h-53L824 601.5h252.5L1177-1z" fill="url(#paint0_linear)"/><path d="M-137 601h57L220.5 0H-32l-105 601z" fill="url(#paint1_linear)"/><path d="M-201 601h57L156.5 0H-96l-105 601z" fill="url(#paint2_linear)"/></g><defs><linearGradient id="paint0_linear" x1="824" y1=".5" x2="1119.76" y2="-16.273" gradientUnits="userSpaceOnUse"><stop stop-color="#FFC738"/><stop offset="1" stop-color="#FF9B00"/></linearGradient><linearGradient id="paint1_linear" x1="-80" y1="657.5" x2="-265.35" y2="579.546" gradientUnits="userSpaceOnUse"><stop stop-color="#FFC738"/><stop offset="1" stop-color="#FF9B00" stop-opacity=".69"/></linearGradient><linearGradient id="paint2_linear" x1="55.5" y1="324.5" x2="-72.997" y2="287.391" gradientUnits="userSpaceOnUse"><stop stop-color="#FF9B00" stop-opacity=".69"/><stop offset="1" stop-color="#FFC738"/></linearGradient><clipPath id="clip0"><path fill="#fff" d="M0 0h960v600H0z"/></clipPath></defs></svg>