<svg width="1165" height="612" fill="none" xmlns="http://www.w3.org/2000/svg"><g clip-path="url(#clip0)"><path d="M130 57h61l281 554.5H219.5L130 57z" fill="#FFC130"/><path d="M130 57h61l281 554.5H219.5L130 57z" fill="url(#paint0_linear)"/><path d="M195.5 611h-52L-155 56.5h258.5l92 554.5z" fill="url(#paint1_linear)"/><path d="M195.5 611h-52L-155 56.5h258.5l92 554.5z" fill="url(#paint2_linear)"/><path d="M-239 10h57l300.5 601H-134L-239 10z" fill="url(#paint3_linear)"/><path d="M-239 10h57l300.5 601H-134L-239 10z" fill="url(#paint4_linear)"/><path d="M1145 612H532.5L319 179.5h597.5L1145 612z" fill="#1B2440" fill-opacity=".75"/><path d="M1145 612H532.5L319 179.5h597.5L1145 612z" fill="url(#paint5_linear)" fill-opacity=".2"/><path d="M521.081 119.511v-36h26.161v5.756h-17.896v9.157h15.423v5.808h-15.423v9.523h17.896v5.756h-26.161z" fill="url(#paint6_linear)"/><path d="M578.123 119.511l-8.655-12.977h-.456l-8.655 12.977h-9.111l12.82-18.105-12.559-17.895h9.306l8.46 12.558h.52l8.46-12.558h9.111l-12.56 17.738 12.755 18.262h-9.436z" fill="url(#paint7_linear)"/><path d="M593.276 83.51h17.44c3.384 0 5.966.472 7.745 1.413 1.822.907 3.037 2.216 3.644 3.925.651 1.674.976 3.872.976 6.593 0 2.616-.304 4.779-.911 6.488-.607 1.675-1.822 3.018-3.644 4.029-1.822.977-4.469 1.466-7.94 1.466h-9.045v12.087h-8.265v-36zm14.577 18.158c2.169 0 3.709-.157 4.621-.471.954-.349 1.561-.925 1.822-1.727.303-.837.455-2.18.455-4.029 0-1.849-.152-3.174-.455-3.977-.261-.837-.846-1.413-1.757-1.727-.911-.313-2.43-.47-4.556-.47h-6.442v12.401h6.312z" fill="url(#paint8_linear)"/><path d="M325 42h522.5l56.5 90H327.942l-1.471-1.667-1.471-4.865V42z" fill="url(#paint9_linear)" fill-opacity=".19"/><path d="M482.812 82.1L451 55v63.624h10.204l.6-40.06 21.008 16.496 31.812-25.332V55l-31.812 27.1z" fill="url(#paint10_linear)"/><path d="M482.987 102.427L466.271 87.61v13.632l16.716 14.816 21.49-17.78v20.743h10.149V75.757l-31.639 26.67z" fill="url(#paint11_linear)"/><g clip-path="url(#clip1)"><path d="M365.966 119.533c-25.481 6.103-38.14 11.815-37.978 17.135.229 7.668 27.214 14.524 80.953 20.567a264.024 264.024 0 01-52.69.567c-35.541-3.214-79.121-7.118-89.022-31.196-8.922-21.773 10.834-57.381 48.283-83.939l50.454 76.866z" fill="url(#paint12_linear)" fill-opacity=".39"/><path d="M296.348 124.746c-8.304-14.631 6.514-41.916 27.424-69.511l42.178 64.268c-25.48 6.104-38.139 11.816-37.978 17.136.23 7.668 27.214 14.524 80.954 20.567 0 0-91.609 4.415-112.578-32.46z" fill="url(#paint13_linear)"/><path d="M267.235 126.606c-8.922-21.773 10.834-57.381 48.283-83.939l4.033 6.149c-15.173 8.792-48.579 31.33-52.753 61.053-1.574 11.235 2.004 20.114 7.854 27.113a28.577 28.577 0 01-7.417-10.376z" fill="url(#paint14_linear)"/><path d="M364.117 150.921c-78.35-9.615-16.834-38.394-16.834-38.394l14.411.471 4.279 6.527c-25.48 6.103-34.237 11.346-34.075 16.666.15 5.124 8.288 10.346 32.219 14.73z" fill="#3E4C6B"/><path d="M315.725 61.829s-37.788 24.857-42.773 54.675c-4.985 29.819 60.014 36.793 60.014 36.793-1.476-.178-55.404-8.034-53.399-32.837 2.006-24.803 58.417-42.129 58.417-42.129l-22.259-16.502z" fill="url(#paint15_linear)"/><path d="M315.725 61.829s-37.788 24.857-42.773 54.675c-4.985 29.819 60.014 36.793 60.014 36.793-1.476-.178-55.404-8.034-53.399-32.837 2.006-24.803 58.417-42.129 58.417-42.129l-22.259-16.502z" fill="url(#paint16_linear)"/><path d="M328.059 89.664c-.819.649-24.509 3.507-33.864 22.923-9.355 19.416 10.187 26.247 10.187 26.247-1.373-.582-10.061-8.565-7.643-18.731 2.419-10.165 32.751-19.883 32.751-19.883l-1.431-10.556z" fill="url(#paint17_linear)"/><path d="M354.341 98.004c-.906.528-24.762-.122-36.84 17.713-12.078 17.835 6.306 27.468 6.306 27.468-1.276-.777-8.746-9.974-4.862-19.652 3.884-9.678 35.311-14.877 35.311-14.877l.085-10.652z" fill="url(#paint18_linear)"/><path d="M369.183 10.752l.69 64.147 53.972 24.675-.624-58.043-54.038-30.779z" fill="#FFB520" stroke="#000" stroke-width=".2"/><path d="M369.773 74.963l-53.629 25.926-.626-58.257 53.563-32.053.692 64.384z" fill="#FFB520"/><path d="M316.145 100.888L369.773 121l54.173-21.27-54.173-24.768-53.628 25.926z" fill="#FFB520"/><path d="M405.319 91.215l-12.188-5.572-.663-61.745 12.202 6.952.649 60.365z" fill="#EFDAC1"/><path d="M393.132 85.642l-57.081 22.691 13.47 5.048 55.798-22.167-12.187-5.572z" fill="#EFDAC1"/><path d="M420.981 43.814l-12.446-6.504.049 4.595 12.447 6.504-.05-4.595zm.06 5.608l-9.763-4.649.049 4.595 9.764 4.649-.05-4.595zM381.855 70.77l.07 6.47-8.628-3.703-.078-7.27 8.636 4.502z" fill="#FFEAE7"/><path d="M336.582 108.126l3.901 1.871-4.433-1.664.532-.207z" fill="#C49D72"/><path d="M369.082 10.578l18.507 10.538s-14.93-7.03-16.442-5.893c-1.645 1.284-1.897 8.334-1.906 12.188l-.159-16.833z" fill="#FF9B00" fill-opacity=".4"/><path d="M419.579 43.115l1.432.704.028 2.632a28.644 28.644 0 00-1.46-3.336z" fill="#fff" fill-opacity=".38"/><path d="M408.246 92.549s11.676 4.44 13.294 3.28c1.619-1.161 2.265-9.301 2.265-9.301l.142 13.201-15.701-7.18z" fill="#F99837" fill-opacity=".67"/><path d="M376.052 74.723l-2.755-1.186-.034-3.236a29.096 29.096 0 002.789 4.422z" fill="#FFEAE7" fill-opacity=".35"/><path d="M405.055 64.746s-1.197-30.608-1.216-32.348c-.019-1.74-4.264-4.47-4.264-4.47l5.116 2.922.364 33.896z" fill="#FFE9CF"/><path d="M369.591 11.445l.679 63.195 53.168 24.308-.614-57.183-53.233-30.32zm-54.086 31.337l.981 57.429 53.009-25.523-.981-63.318-53.009 31.412z" stroke="#6F4300"/><path d="M370.366 75.285l-52.945 25.544 52.929 19.636 54.443-21.476-54.427-23.704z" stroke="#6F4300"/></g></g><defs><linearGradient id="paint0_linear" x1="472" y1="10.504" x2="176.241" y2="-6.269" gradientUnits="userSpaceOnUse"><stop stop-color="#FFC738"/><stop offset="1" stop-color="#FF9B00"/></linearGradient><linearGradient id="paint1_linear" x1="-157" y1="611" x2="138.759" y2="627.773" gradientUnits="userSpaceOnUse"><stop stop-color="#FFC738" stop-opacity=".5"/><stop offset="1" stop-color="#FF9B00"/></linearGradient><linearGradient id="paint2_linear" x1="-123" y1="-261.5" x2="-444.875" y2="25.336" gradientUnits="userSpaceOnUse"><stop stop-color="#FFC738"/><stop offset="1" stop-color="#FF9B00"/></linearGradient><linearGradient id="paint3_linear" x1="-182" y1="-46.5" x2="-367.35" y2="31.454" gradientUnits="userSpaceOnUse"><stop stop-color="#FFC738"/><stop offset="1" stop-color="#FF9B00" stop-opacity=".69"/></linearGradient><linearGradient id="paint4_linear" x1="-223.501" y1="-21.501" x2="-470.776" y2="230.797" gradientUnits="userSpaceOnUse"><stop stop-color="#FFC738"/><stop offset="1" stop-color="#FF9B00"/></linearGradient><linearGradient id="paint5_linear" x1="288" y1="389.5" x2="917" y2="179.5" gradientUnits="userSpaceOnUse"><stop stop-color="#fff"/><stop offset="1" stop-color="#fff" stop-opacity=".1"/></linearGradient><linearGradient id="paint6_linear" x1="521.081" y1="83.6" x2="600.818" y2="61.732" gradientUnits="userSpaceOnUse"><stop stop-color="#FFC738"/><stop offset="1" stop-color="#FF9B00"/></linearGradient><linearGradient id="paint7_linear" x1="521.081" y1="83.6" x2="600.818" y2="61.732" gradientUnits="userSpaceOnUse"><stop stop-color="#FFC738"/><stop offset="1" stop-color="#FF9B00"/></linearGradient><linearGradient id="paint8_linear" x1="521.081" y1="83.6" x2="600.818" y2="61.732" gradientUnits="userSpaceOnUse"><stop stop-color="#FFC738"/><stop offset="1" stop-color="#FF9B00"/></linearGradient><linearGradient id="paint9_linear" x1="372.928" y1="92.626" x2="901.514" y2="102.76" gradientUnits="userSpaceOnUse"><stop stop-color="#fff"/><stop offset="1" stop-color="#fff" stop-opacity="0"/></linearGradient><linearGradient id="paint10_linear" x1="472.208" y1="48.436" x2="515.035" y2="68.284" gradientUnits="userSpaceOnUse"><stop stop-color="#FF9B00"/><stop offset="1" stop-color="#FFC738"/></linearGradient><linearGradient id="paint11_linear" x1="466.271" y1="80.564" x2="508.169" y2="123.249" gradientUnits="userSpaceOnUse"><stop stop-color="#989898"/><stop offset="1" stop-color="#fff"/></linearGradient><linearGradient id="paint12_linear" x1="336.014" y1="42.447" x2="415.31" y2="163.748" gradientUnits="userSpaceOnUse"><stop stop-color="#A7C1FF"/><stop offset="0" stop-color="#A7C1FF"/><stop offset=".078" stop-color="#6075A9" stop-opacity=".922"/><stop offset="1" stop-color="#fff" stop-opacity=".2"/></linearGradient><linearGradient id="paint13_linear" x1="364.283" y1="108.77" x2="336.3" y2="161.938" gradientUnits="userSpaceOnUse"><stop stop-color="#4E5F89"/><stop offset="1" stop-color="#fff" stop-opacity="0"/></linearGradient><linearGradient id="paint14_linear" x1="324.819" y1="49.313" x2="273.851" y2="109.832" gradientUnits="userSpaceOnUse"><stop stop-color="#fff"/><stop offset="1" stop-color="#fff" stop-opacity="0"/></linearGradient><linearGradient id="paint15_linear" x1="312.811" y1="71.138" x2="306.953" y2="153.577" gradientUnits="userSpaceOnUse"><stop stop-color="#91A8DA"/><stop offset=".932" stop-color="#738BC0" stop-opacity="0"/></linearGradient><linearGradient id="paint16_linear" x1="339.982" y1="71.752" x2="258.279" y2="128.145" gradientUnits="userSpaceOnUse"><stop stop-color="#989898"/><stop offset="1" stop-color="#fff" stop-opacity="0"/></linearGradient><linearGradient id="paint17_linear" x1="329.434" y1="95.084" x2="285.062" y2="127.286" gradientUnits="userSpaceOnUse"><stop stop-color="#989898"/><stop offset=".995" stop-color="#fff" stop-opacity=".08"/></linearGradient><linearGradient id="paint18_linear" x1="354.394" y1="102.987" x2="310.52" y2="137.177" gradientUnits="userSpaceOnUse"><stop stop-color="#989898"/><stop offset="1" stop-color="#fff" stop-opacity=".11"/></linearGradient><clipPath id="clip0"><path fill="#fff" d="M0 0h1165v612H0z"/></clipPath><clipPath id="clip1"><path fill="#fff" transform="scale(-1 1) rotate(.616 -1142.086 -39357.504)" d="M0 0h158.992v148.392H0z"/></clipPath></defs></svg>