<svg width="1920" height="600" fill="none" xmlns="http://www.w3.org/2000/svg"><g clip-path="url(#clip0)"><path fill="#172340" d="M0 0h1176v1141H0z"/><path d="M-34 600h813.5l299-601h-809L-34 600z" fill="#fff" fill-opacity=".05"/><path d="M1176-2h-53L823 600.5h252.5L1176-2z" fill="#FFC130"/><path d="M1176-2h-53L823 600.5h252.5L1176-2z" fill="url(#paint0_linear)"/><path d="M1049 600h52L1401.5-1H1149l-100 601z" fill="#FFC130"/><path d="M1086 600h52L1438.5-1H1186l-100 601z" fill="url(#paint1_linear)"/><path d="M1478.5-1h-57L1121 600h252.5l105-601z" fill="url(#paint2_linear)"/><path d="M-138 600h57L219.5-1H-33l-105 601z" fill="url(#paint3_linear)"/><path d="M-202 600h57L155.5-1H-97l-105 601z" fill="url(#paint4_linear)"/><path d="M1781-1h77.5v601H1570L1781-1z" fill="#172340" fill-opacity=".6"/><path d="M1842-1h77.5v601H1631L1842-1z" fill="#172340"/><path d="M1919-1h77.5v601H1708L1919-1z" fill="#20588F" fill-opacity=".26"/><path d="M2078.5-1h-52L1726 600h252.5l100-601z" fill="url(#paint5_linear)"/></g><defs><linearGradient id="paint0_linear" x1="823" y1="-.5" x2="1118.76" y2="-17.273" gradientUnits="userSpaceOnUse"><stop stop-color="#FFC738"/><stop offset="1" stop-color="#FF9B00"/></linearGradient><linearGradient id="paint1_linear" x1="1438.5" y1="600" x2="1142.74" y2="616.773" gradientUnits="userSpaceOnUse"><stop stop-color="#FFC738" stop-opacity=".5"/><stop offset="1" stop-color="#FF9B00"/></linearGradient><linearGradient id="paint2_linear" x1="1421.5" y1="-57.5" x2="1606.85" y2="20.454" gradientUnits="userSpaceOnUse"><stop stop-color="#FFC738"/><stop offset="1" stop-color="#FF9B00" stop-opacity=".69"/></linearGradient><linearGradient id="paint3_linear" x1="-81" y1="656.5" x2="-266.35" y2="578.546" gradientUnits="userSpaceOnUse"><stop stop-color="#FFC738"/><stop offset="1" stop-color="#FF9B00" stop-opacity=".69"/></linearGradient><linearGradient id="paint4_linear" x1="54.5" y1="323.5" x2="-73.997" y2="286.391" gradientUnits="userSpaceOnUse"><stop stop-color="#FF9B00" stop-opacity=".69"/><stop offset="1" stop-color="#FFC738"/></linearGradient><linearGradient id="paint5_linear" x1="1877.5" y1="609" x2="1732.63" y2="527.012" gradientUnits="userSpaceOnUse"><stop stop-color="#FFC738"/><stop offset="1" stop-color="#FF9B00"/></linearGradient><clipPath id="clip0"><path fill="#fff" d="M0 0h1920v600H0z"/></clipPath></defs></svg>