<svg width="1011" height="598" fill="none" xmlns="http://www.w3.org/2000/svg"><path d="M284 32h443.087L775 122H286.495l-1.248-1.667-1.247-4.865V32z" fill="url(#paint0_linear)" fill-opacity=".19"/><path d="M0 43h61l281 554.5H89.5L0 43z" fill="#FFC130"/><path d="M0 43h61l281 554.5H89.5L0 43z" fill="url(#paint1_linear)"/><path d="M1011 597.5H398.5L185 165h597.5L1011 597.5z" fill="#1B2440" fill-opacity=".75"/><path d="M1011 597.5H398.5L185 165h597.5L1011 597.5z" fill="url(#paint2_linear)" fill-opacity=".2"/><path d="M519.858 93.353h-18.643c0 2.745.148 4.686.443 5.824.339 1.137 1.079 1.921 2.22 2.352 1.184.432 3.15.647 5.897.647 2.283 0 5.285-.196 9.005-.588v4.471c-1.183.274-2.748.49-4.692.647a70.178 70.178 0 01-5.644.235c-4.016 0-6.976-.47-8.878-1.412-1.86-.98-3.086-2.509-3.678-4.588-.592-2.078-.888-5.216-.888-9.412 0-4.117.275-7.215.824-9.294.55-2.117 1.734-3.686 3.552-4.706 1.817-1.02 4.671-1.529 8.56-1.529 3.763 0 6.469.51 8.117 1.53 1.692.98 2.748 2.49 3.171 4.529.423 2 .634 5.137.634 9.412v1.882zM507.81 80.765c-2.03 0-3.488.215-4.376.647-.845.431-1.416 1.215-1.712 2.353-.296 1.137-.465 3-.507 5.588h12.682v-.294c0-2.51-.169-4.334-.507-5.47-.338-1.138-.93-1.883-1.775-2.236-.804-.392-2.072-.588-3.805-.588z" fill="url(#paint3_linear)"/><path d="M545.183 106.471l-7.229-10.883h-.381l-7.166 10.883h-6.595l10.273-15.236-9.892-14.764h6.849l6.848 10.411h.317l6.849-10.411h6.532l-9.893 14.706 10.337 15.294h-6.849z" fill="url(#paint4_linear)"/><path d="M557.698 76.47h5.58l.254 4h.444c.718-1.725 1.839-2.901 3.361-3.529 1.522-.627 3.318-.941 5.39-.941 2.663 0 4.714.451 6.151 1.353 1.48.902 2.537 2.45 3.171 4.647.634 2.196.951 5.333.951 9.412 0 4.078-.317 7.235-.951 9.47-.592 2.196-1.607 3.765-3.044 4.706-1.437.902-3.467 1.353-6.088 1.353-2.198 0-4.016-.294-5.453-.882-1.396-.628-2.474-1.667-3.235-3.118h-.38V118h-6.151V76.47zm12.619 25.354c2.029 0 3.467-.216 4.312-.648.888-.431 1.48-1.333 1.776-2.705.296-1.412.444-3.746.444-7 0-3.255-.148-5.569-.444-6.942-.296-1.411-.888-2.333-1.776-2.764-.845-.432-2.283-.647-4.312-.647-1.606 0-2.875.235-3.805.706-.887.47-1.522 1.254-1.902 2.353-.338.823-.55 1.784-.634 2.882-.085 1.098-.127 2.569-.127 4.412 0 3.294.211 5.607.634 6.94.423 1.216 1.078 2.099 1.966 2.648.93.51 2.219.765 3.868.765z" fill="url(#paint5_linear)"/><g clip-path="url(#clip0)"><path d="M333.965 109.533c-25.48 6.103-38.139 11.815-37.978 17.135.23 7.668 27.214 14.524 80.954 20.567a264.035 264.035 0 01-52.691.566c-35.54-3.213-79.121-7.117-89.022-31.195-8.922-21.773 10.834-57.382 48.284-83.939l50.453 76.866z" fill="url(#paint6_linear)" fill-opacity=".39"/><path d="M264.348 114.746c-8.304-14.631 6.514-41.916 27.425-69.511l42.178 64.269c-25.48 6.103-38.14 11.815-37.978 17.135.229 7.668 27.214 14.524 80.953 20.567 0 0-91.608 4.415-112.578-32.46z" fill="url(#paint7_linear)"/><path d="M235.235 116.606c-8.922-21.773 10.834-57.381 48.284-83.939l4.032 6.149c-15.173 8.792-48.578 31.33-52.752 61.053-1.574 11.235 2.003 20.114 7.854 27.113a28.592 28.592 0 01-7.418-10.376z" fill="url(#paint8_linear)"/><path d="M332.116 140.921c-78.35-9.614-16.833-38.394-16.833-38.394l14.411.471 4.278 6.527c-25.48 6.104-34.236 11.346-34.075 16.666.15 5.124 8.288 10.346 32.219 14.73z" fill="url(#paint9_linear)"/><path d="M283.725 51.829s-37.788 24.857-42.773 54.675c-4.985 29.819 60.014 36.793 60.014 36.793-1.476-.178-55.404-8.034-53.399-32.837 2.006-24.803 58.417-42.129 58.417-42.129l-22.259-16.502z" fill="url(#paint10_linear)"/><path d="M283.725 51.829s-37.788 24.857-42.773 54.675c-4.985 29.819 60.014 36.793 60.014 36.793-1.476-.178-55.404-8.034-53.399-32.837 2.006-24.803 58.417-42.129 58.417-42.129l-22.259-16.502z" fill="url(#paint11_linear)"/><path d="M296.059 79.664c-.819.649-24.509 3.507-33.864 22.923-9.355 19.416 10.188 26.247 10.188 26.247-1.374-.582-10.062-8.565-7.643-18.731 2.419-10.165 32.75-19.883 32.75-19.883l-1.431-10.556z" fill="url(#paint12_linear)"/><path d="M322.341 88.004c-.906.528-24.762-.122-36.84 17.713-12.078 17.835 6.306 27.468 6.306 27.468-1.276-.777-8.746-9.974-4.862-19.652 3.884-9.678 35.311-14.877 35.311-14.877l.085-10.652z" fill="url(#paint13_linear)"/><path d="M337.183.752l.69 64.147 53.972 24.675-.624-58.043L337.183.752z" fill="#FFB520" stroke="#000" stroke-width=".2"/><path d="M337.773 64.963L284.144 90.89l-.626-58.257L337.081.579l.692 64.384z" fill="#FFB520"/><path d="M284.145 90.888l49.821 18.644 57.981-19.803-54.173-24.767-53.629 25.926z" fill="#FFB520"/><path d="M373.319 81.215l-12.187-5.572-.664-61.745 12.202 6.952.649 60.365z" fill="#EFDAC1"/><path d="M361.132 75.642l-57.081 22.691 13.47 5.048 55.798-22.167-12.187-5.572z" fill="#EFDAC1"/><path d="M388.981 33.814l-12.446-6.504.049 4.595 12.447 6.503-.05-4.594zm.061 5.608l-9.763-4.649.049 4.595 9.763 4.649-.049-4.595zM349.856 60.77l.069 6.47-8.628-3.703-.078-7.27 8.637 4.502z" fill="#FFEAE7"/><path d="M304.582 98.126l3.901 1.871-4.433-1.664.532-.207z" fill="#C49D72"/><path d="M337.082.578l18.507 10.538s-14.93-7.03-16.442-5.893c-1.645 1.284-1.897 8.334-1.906 12.189L337.082.578z" fill="#FF9B00" fill-opacity=".4"/><path d="M387.578 33.115l1.432.704.028 2.632a28.476 28.476 0 00-1.46-3.336z" fill="#fff" fill-opacity=".38"/><path d="M376.246 82.549s11.676 4.44 13.294 3.28c1.619-1.161 2.265-9.301 2.265-9.301l.142 13.201-15.701-7.18z" fill="#F99837" fill-opacity=".67"/><path d="M344.052 64.723l-2.755-1.186-.034-3.235a29.1 29.1 0 002.789 4.421z" fill="#FFEAE7" fill-opacity=".35"/><path d="M373.056 54.746s-1.198-30.608-1.216-32.348c-.019-1.74-4.264-4.47-4.264-4.47l5.116 2.922.364 33.896z" fill="#FFE9CF"/><path d="M337.591 1.445l.679 63.195 53.168 24.308-.614-57.183-53.233-30.32z" stroke="#6F4300"/><path d="M338.366 65.285l-52.949 25.546 48.557 18.171 58.741-20.047-54.349-23.67z" stroke="#6F4300"/></g><path d="M451.474 70.107l-30.8-26.237v61.6h9.879l.581-38.785 20.34 15.97 30.8-24.526v-14.26l-30.8 26.238z" fill="url(#paint14_linear)"/><path d="M451.642 89.787L435.459 75.44v13.2l16.183 14.345 20.807-17.214v20.083h9.826V63.965l-30.633 25.822z" fill="url(#paint15_linear)"/><defs><linearGradient id="paint0_linear" x1="324.643" y1="82.626" x2="772.938" y2="89.914" gradientUnits="userSpaceOnUse"><stop stop-color="#fff"/><stop offset="1" stop-color="#fff" stop-opacity="0"/></linearGradient><linearGradient id="paint1_linear" x1="342" y1="-3.496" x2="46.241" y2="-20.269" gradientUnits="userSpaceOnUse"><stop stop-color="#FFC738"/><stop offset="1" stop-color="#FF9B00"/></linearGradient><linearGradient id="paint2_linear" x1="154" y1="375" x2="783" y2="165" gradientUnits="userSpaceOnUse"><stop stop-color="#fff"/><stop offset="1" stop-color="#fff" stop-opacity=".1"/></linearGradient><linearGradient id="paint3_linear" x1="524.333" y1="71.667" x2="561.369" y2="107.63" gradientUnits="userSpaceOnUse"><stop stop-color="#FF9B00"/><stop offset="1" stop-color="#FFC738"/></linearGradient><linearGradient id="paint4_linear" x1="524.333" y1="71.667" x2="561.369" y2="107.63" gradientUnits="userSpaceOnUse"><stop stop-color="#FF9B00"/><stop offset="1" stop-color="#FFC738"/></linearGradient><linearGradient id="paint5_linear" x1="524.333" y1="71.667" x2="561.369" y2="107.63" gradientUnits="userSpaceOnUse"><stop stop-color="#FF9B00"/><stop offset="1" stop-color="#FFC738"/></linearGradient><linearGradient id="paint6_linear" x1="304.013" y1="32.447" x2="383.31" y2="153.747" gradientUnits="userSpaceOnUse"><stop stop-color="#A7C1FF"/><stop offset="0" stop-color="#A7C1FF"/><stop offset=".078" stop-color="#6075A9" stop-opacity=".922"/><stop offset="1" stop-color="#fff" stop-opacity=".2"/></linearGradient><linearGradient id="paint7_linear" x1="332.283" y1="98.77" x2="304.3" y2="151.939" gradientUnits="userSpaceOnUse"><stop stop-color="#4E5F89"/><stop offset="1" stop-color="#fff" stop-opacity="0"/></linearGradient><linearGradient id="paint8_linear" x1="292.819" y1="39.313" x2="241.851" y2="99.832" gradientUnits="userSpaceOnUse"><stop stop-color="#fff"/><stop offset="1" stop-color="#fff" stop-opacity="0"/></linearGradient><linearGradient id="paint9_linear" x1="-3296.68" y1="6341.41" x2="-4637.78" y2="7459.58" gradientUnits="userSpaceOnUse"><stop stop-color="#3E4C6B"/><stop offset="1" stop-color="#fff" stop-opacity="0"/></linearGradient><linearGradient id="paint10_linear" x1="280.811" y1="61.138" x2="274.953" y2="143.577" gradientUnits="userSpaceOnUse"><stop stop-color="#91A8DA"/><stop offset=".932" stop-color="#738BC0" stop-opacity="0"/></linearGradient><linearGradient id="paint11_linear" x1="307.982" y1="61.752" x2="226.279" y2="118.145" gradientUnits="userSpaceOnUse"><stop stop-color="#989898"/><stop offset="1" stop-color="#fff" stop-opacity="0"/></linearGradient><linearGradient id="paint12_linear" x1="297.435" y1="85.084" x2="253.063" y2="117.286" gradientUnits="userSpaceOnUse"><stop stop-color="#989898"/><stop offset=".995" stop-color="#fff" stop-opacity=".08"/></linearGradient><linearGradient id="paint13_linear" x1="322.394" y1="92.987" x2="278.52" y2="127.177" gradientUnits="userSpaceOnUse"><stop stop-color="#989898"/><stop offset="1" stop-color="#fff" stop-opacity=".11"/></linearGradient><linearGradient id="paint14_linear" x1="441.207" y1="37.514" x2="482.671" y2="56.731" gradientUnits="userSpaceOnUse"><stop stop-color="#FF9B00"/><stop offset="1" stop-color="#FFC738"/></linearGradient><linearGradient id="paint15_linear" x1="435.459" y1="68.62" x2="476.024" y2="109.947" gradientUnits="userSpaceOnUse"><stop stop-color="#989898"/><stop offset="1" stop-color="#fff"/></linearGradient><clipPath id="clip0"><path fill="#fff" transform="scale(-1 1) rotate(.616 -195.491 -36384.6)" d="M0 0h158.992v148.392H0z"/></clipPath></defs></svg>