<svg width="1920" height="600" fill="none" xmlns="http://www.w3.org/2000/svg"><g clip-path="url(#clip0)"><path d="M-151 664h984.244L1195-63H216.201L-151 664z" fill="#172340"/><path d="M-34 601h813.5l299-601h-809L-34 601z" fill="#232E4A"/><path d="M1177-1h-53L824 601.5h252.5L1177-1z" fill="#FFC130"/><path d="M1177-1h-53L824 601.5h252.5L1177-1z" fill="url(#paint0_linear)"/><path d="M1050 601h52L1402.5 0H1150l-100 601z" fill="#FFC130"/><path d="M1087 601h52L1439.5 0H1187l-100 601z" fill="url(#paint1_linear)"/><path d="M1479.5 0h-57L1122 601h252.5l105-601z" fill="url(#paint2_linear)"/><path d="M-137 601h57L220.5 0H-32l-105 601z" fill="url(#paint3_linear)"/><path d="M-201 601h57L156.5 0H-96l-105 601z" fill="url(#paint4_linear)"/><path d="M1782 0h77.5v601H1571L1782 0z" fill="#172340" fill-opacity=".6"/><path d="M1843 0h77.5v601H1632L1843 0z" fill="#172340"/><path d="M1920 0h77.5v601H1709L1920 0z" fill="#20588F" fill-opacity=".26"/><path d="M2079.5 0h-52L1727 601h252.5l100-601z" fill="url(#paint5_linear)"/></g><defs><linearGradient id="paint0_linear" x1="824" y1=".5" x2="1119.76" y2="-16.273" gradientUnits="userSpaceOnUse"><stop stop-color="#FFC738"/><stop offset="1" stop-color="#FF9B00"/></linearGradient><linearGradient id="paint1_linear" x1="1439.5" y1="601" x2="1143.74" y2="617.773" gradientUnits="userSpaceOnUse"><stop stop-color="#FFC738" stop-opacity=".5"/><stop offset="1" stop-color="#FF9B00"/></linearGradient><linearGradient id="paint2_linear" x1="1345" y1="-66" x2="1546.8" y2="-15.341" gradientUnits="userSpaceOnUse"><stop stop-color="#FFC738"/><stop offset="1" stop-color="#FF9B00" stop-opacity=".24"/></linearGradient><linearGradient id="paint3_linear" x1="-80" y1="657.5" x2="-265.35" y2="579.546" gradientUnits="userSpaceOnUse"><stop stop-color="#FFC738"/><stop offset="1" stop-color="#FF9B00" stop-opacity=".69"/></linearGradient><linearGradient id="paint4_linear" x1="55.5" y1="324.5" x2="-72.997" y2="287.391" gradientUnits="userSpaceOnUse"><stop stop-color="#FF9B00" stop-opacity=".69"/><stop offset="1" stop-color="#FFC738"/></linearGradient><linearGradient id="paint5_linear" x1="1878.5" y1="610" x2="1733.63" y2="528.012" gradientUnits="userSpaceOnUse"><stop stop-color="#FFC738"/><stop offset="1" stop-color="#FF9B00"/></linearGradient><clipPath id="clip0"><path fill="#fff" d="M0 0h1920v600H0z"/></clipPath></defs></svg>