<svg width="768" height="556" fill="none" xmlns="http://www.w3.org/2000/svg"><g clip-path="url(#clip0)"><path fill="#172340" d="M0 0h768v556H0z"/><path d="M-176 556h752.442L853 0H104.72L-176 556z" fill="#232E4A"/><path d="M942-1h-48.796L617 556h232.472L942-1z" fill="#FFC130"/><path d="M942-1h-48.796L617 556h232.472L942-1z" fill="url(#paint0_linear)"/><path d="M-270 556h52.615L60 0h-233.077L-270 556z" fill="url(#paint1_linear)"/><path d="M-329 556h52.615L1 0h-233.077L-329 556z" fill="url(#paint2_linear)"/></g><defs><linearGradient id="paint0_linear" x1="617" y1=".387" x2="889.306" y2="-14.993" gradientUnits="userSpaceOnUse"><stop stop-color="#FFC738"/><stop offset="1" stop-color="#FF9B00"/></linearGradient><linearGradient id="paint1_linear" x1="-217.385" y1="608.27" x2="-388.59" y2="536.423" gradientUnits="userSpaceOnUse"><stop stop-color="#FFC738"/><stop offset="1" stop-color="#FF9B00" stop-opacity=".69"/></linearGradient><linearGradient id="paint2_linear" x1="-92.231" y1="300.203" x2="-210.884" y2="266.012" gradientUnits="userSpaceOnUse"><stop stop-color="#FF9B00" stop-opacity=".69"/><stop offset="1" stop-color="#FFC738"/></linearGradient><clipPath id="clip0"><path fill="#fff" d="M0 0h768v556H0z"/></clipPath></defs></svg>