<svg width="270" height="276" fill="none" xmlns="http://www.w3.org/2000/svg"><g filter="url(#filter0_d)"><path d="M48 205.339C42.5 2.956 193.999-10.068 215 135.206l3 18.536 2 17.533" stroke="#FFC738" stroke-width="2"/></g><g clip-path="url(#clip0)"><path d="M225.214 172.27a1.687 1.687 0 01-.548 1.159l-4.337 4.055a2.762 2.762 0 01-1.843.747 2.467 2.467 0 01-1.784-.688l-4.006-3.919c-.471-.46-.587-1.156-.296-1.772a1.832 1.832 0 011.62-1.031l5.48-.321c0-5.601 1-4.398 0-8.398l.5-.5c-.5 1-.519.449-.5 0 1 1.5.029 2.507.5 2.5l-.5-5c0 .5-.5 1.5-.5 1 1.5 4.398 1.64 7.535 2.14 11.543-.037.898-2.323.724-3.265.74l-3.922.064-.003.004.002.002 4.006 3.918a.821.821 0 00.595.23.922.922 0 00.615-.249l4.337-4.055.002-.001-.001-.005-.936.015c-.472.008-.839-.35-.82-.8.019-.449.416-.82.887-.827l.936-.016c.693-.011 1.296.374 1.536.98.08.202.114.414.105.625z" fill="#FFC738"/></g><path d="M42.2 206.626c.036.423.245.833.6 1.136l4.51 3.867a2.76 2.76 0 001.875.666 2.466 2.466 0 001.752-.767l3.829-4.1c.45-.481.535-1.183.217-1.786a1.83 1.83 0 00-1.663-.961l-5.623.214c.765-7.026-.79-4.424.955-8.362l-.232-.616c.08-.161.039-1.254 0-1.703-.038-.45.471-2.259 0-2.246l.08.281c-.51 3.7-.24 1.822.152 4.008-1.348 5.829-.655 5.652-1.652 9.083.077.897 1.596 1.103 2.537 1.077l3.922-.11.002.005-.001.001-3.83 4.1a.827.827 0 01-.584.256.921.921 0 01-.626-.223l-4.511-3.866-.002-.002.001-.004.936-.026c.471-.013.822-.388.783-.837-.038-.449-.451-.803-.922-.79l-.936.026c-.692.02-1.278.431-1.491 1.049-.071.206-.096.42-.078.63z" fill="#FFC738"/><g filter="url(#filter1_d)"><ellipse cx="223.5" cy="195.321" rx="11.5" ry="11.522" fill="url(#paint0_linear)" fill-opacity=".5"/></g><g filter="url(#filter2_d)"><ellipse cx="223.5" cy="195.321" rx="4.929" ry="4.938" fill="url(#paint1_linear)"/></g><g filter="url(#filter3_d)"><ellipse cx="47" cy="229.385" rx="11.5" ry="11.522" fill="url(#paint2_linear)" fill-opacity=".5"/></g><g filter="url(#filter4_d)"><ellipse cx="47" cy="229.385" rx="5.308" ry="5.318" fill="url(#paint3_linear)"/></g><path d="M31.488 258.907v-7.616h-.112l-2 7.616h-1.952l-1.984-7.616h-.112v7.616h-2.336v-11.008h3.568l1.84 7.056h.112l1.84-7.056h3.536v11.008h-2.4zm5.835-9.888v-2h2.368v2h-2.368zm.016 9.888v-8.16h2.336v8.16h-2.336zm10.014-4.368c0-.651-.021-1.099-.064-1.344-.032-.256-.112-.416-.24-.48-.117-.075-.336-.112-.656-.112-.33 0-.57.059-.72.176-.139.107-.23.299-.272.576-.043.267-.064.709-.064 1.328v4.224h-2.32v-8.16h2.208l.064.976h.128c.341-.736 1.035-1.104 2.08-1.104.619 0 1.083.112 1.392.336.31.213.517.533.624.96.107.427.16 1.013.16 1.76v5.232h-2.32v-4.368zm8.39 4.496c-.458 0-.954-.021-1.487-.064a12.589 12.589 0 01-1.376-.176v-1.696c.704.085 1.44.128 2.208.128.416 0 .714-.016.896-.048.192-.043.314-.112.368-.208.064-.096.096-.251.096-.464 0-.213-.016-.363-.048-.448a.29.29 0 00-.192-.176c-.096-.043-.267-.08-.512-.112l-1.632-.224c-.544-.075-.918-.299-1.12-.672-.192-.373-.288-.965-.288-1.776 0-.661.122-1.173.368-1.536a1.88 1.88 0 011.04-.736c.437-.139.986-.208 1.648-.208.426 0 .88.027 1.36.08.48.043.864.101 1.152.176v1.68c-.896-.085-1.579-.128-2.048-.128-.374 0-.65.016-.832.048-.17.032-.294.096-.368.192-.064.085-.096.229-.096.432 0 .203.01.347.032.432a.365.365 0 00.16.176c.085.032.234.064.448.096l1.552.208c.352.053.634.144.848.272.224.128.4.357.528.688.128.331.192.811.192 1.44 0 .725-.118 1.28-.352 1.664a1.721 1.721 0 01-.96.768c-.406.128-.934.192-1.584.192zm10.376-.128l-1.696-3.152h-.48v3.152h-2.32v-11.888h2.32v6.912h.48l1.76-3.184h2.432l-2.288 3.904 2.32 4.256H66.12zm135.369-34.064v-7.616h-.112l-2 7.616h-1.952l-1.984-7.616h-.112v7.616h-2.336v-11.008h3.568l1.84 7.056h.112l1.84-7.056h3.536v11.008h-2.4zm9.051.128c-1.077 0-1.856-.118-2.336-.352-.469-.235-.768-.624-.896-1.168-.128-.555-.192-1.451-.192-2.688 0-1.238.064-2.128.192-2.672.128-.555.427-.95.896-1.184.48-.235 1.259-.352 2.336-.352s1.851.117 2.32.352c.469.234.768.629.896 1.184.139.544.208 1.434.208 2.672 0 1.226-.069 2.117-.208 2.672-.128.544-.427.938-.896 1.184-.469.234-1.243.352-2.32.352zm0-1.84c.384 0 .645-.048.784-.144.139-.096.224-.288.256-.576.043-.288.064-.838.064-1.648 0-.811-.021-1.36-.064-1.648-.032-.299-.117-.491-.256-.576-.139-.096-.4-.144-.784-.144s-.651.048-.8.144c-.139.085-.224.272-.256.56-.032.288-.048.842-.048 1.664 0 .821.016 1.376.048 1.664.032.277.117.464.256.56.149.096.416.144.8.144zm9.245 1.84c-.458 0-.954-.022-1.488-.064a12.85 12.85 0 01-1.376-.176v-1.696c.704.085 1.44.128 2.208.128.416 0 .715-.016.896-.048.192-.043.315-.112.368-.208.064-.096.096-.251.096-.464 0-.214-.016-.363-.048-.448a.288.288 0 00-.192-.176c-.096-.043-.266-.08-.512-.112l-1.632-.224c-.544-.075-.917-.299-1.12-.672-.192-.374-.288-.966-.288-1.776 0-.662.123-1.174.368-1.536a1.881 1.881 0 011.04-.736c.438-.139.987-.208 1.648-.208.427 0 .88.026 1.36.08.48.042.864.101 1.152.176v1.68c-.896-.086-1.578-.128-2.048-.128-.373 0-.65.016-.832.048-.17.032-.293.096-.368.192-.064.085-.096.229-.096.432 0 .202.011.346.032.432a.373.373 0 00.16.176c.086.032.235.064.448.096l1.552.208c.352.053.635.144.848.272.224.128.4.357.528.688.128.33.192.81.192 1.44 0 .725-.117 1.28-.352 1.664a1.721 1.721 0 01-.96.768c-.405.128-.933.192-1.584.192zm10.952-.256a8.656 8.656 0 01-2.16.256c-.939 0-1.632-.15-2.08-.448-.448-.31-.736-.747-.864-1.312-.128-.576-.192-1.392-.192-2.448 0-1.046.069-1.856.208-2.432.139-.576.427-1.014.864-1.312.448-.31 1.131-.464 2.048-.464.8 0 1.509.08 2.128.24v1.712a9.525 9.525 0 00-1.472-.112c-.448 0-.768.058-.96.176-.192.106-.32.314-.384.624-.064.309-.096.832-.096 1.568 0 .746.032 1.274.096 1.584.064.309.187.517.368.624.192.106.517.16.976.16.555 0 1.061-.038 1.52-.112v1.696zm6.212.256c-1.077 0-1.856-.118-2.336-.352-.469-.235-.768-.624-.896-1.168-.128-.555-.192-1.451-.192-2.688 0-1.238.064-2.128.192-2.672.128-.555.427-.95.896-1.184.48-.235 1.259-.352 2.336-.352 1.078 0 1.851.117 2.32.352.47.234.768.629.896 1.184.139.544.208 1.434.208 2.672 0 1.226-.069 2.117-.208 2.672-.128.544-.426.938-.896 1.184-.469.234-1.242.352-2.32.352zm0-1.84c.384 0 .646-.048.784-.144.139-.096.224-.288.256-.576.043-.288.064-.838.064-1.648 0-.811-.021-1.36-.064-1.648-.032-.299-.117-.491-.256-.576-.138-.096-.4-.144-.784-.144s-.65.048-.8.144c-.138.085-.224.272-.256.56-.032.288-.048.842-.048 1.664 0 .821.016 1.376.048 1.664.032.277.118.464.256.56.15.096.416.144.8.144zm12.546 1.712l-1.008-4.384h-.144l-.976 4.384h-2.88l-1.792-8.16h2.304l.976 5.632h.144l1.232-5.632h2.192l1.264 5.632h.128l.976-5.632h2.224l-1.792 8.16h-2.848zM118.336 18.452v-9.12l-1.888.88V8.74l2.368-1.296h1.168v11.008h-1.648zm5.472-1.424h5.088v1.424h-6.688v-1.344c0-.918.026-1.59.08-2.016.064-.438.208-.795.432-1.072.224-.288.592-.555 1.104-.8l2.368-1.136c.448-.214.736-.432.864-.656.138-.224.208-.587.208-1.088 0-.47-.064-.816-.192-1.04-.118-.224-.326-.374-.624-.448-.288-.075-.731-.112-1.328-.112-.758 0-1.664.064-2.72.192V7.604c.416-.086.928-.155 1.536-.208a19.07 19.07 0 011.68-.08c.714 0 1.301.064 1.76.192.458.128.826.405 1.104.832.277.416.416 1.034.416 1.856 0 .629-.059 1.136-.176 1.52-.107.384-.283.693-.528.928-.235.224-.56.437-.976.64l-2.624 1.248c-.299.138-.502.298-.608.48a1.72 1.72 0 00-.144.496 8.837 8.837 0 00-.032.88v.64zm12.065-4.032c0 .981.55 1.472 1.648 1.472.534 0 1.019-.08 1.456-.24a8.772 8.772 0 001.344-.672v-3.68h1.408v8.576h-1.408v-3.824c-.48.309-.954.554-1.424.736-.458.17-1.013.256-1.664.256-.874 0-1.557-.23-2.048-.688-.48-.459-.72-1.072-.72-1.84V9.876h1.408v3.12zm11.829-3.264c1.045 0 1.818.229 2.32.688.501.458.752 1.189.752 2.192v5.84h-1.024l-.272-1.216h-.064c-.374.469-.768.816-1.184 1.04-.406.224-.971.336-1.696.336-.779 0-1.424-.203-1.936-.608-.512-.416-.768-1.062-.768-1.936 0-.854.336-1.51 1.008-1.968.672-.47 1.706-.726 3.104-.768l1.456-.048v-.512c0-.715-.155-1.211-.464-1.488-.31-.278-.747-.416-1.312-.416-.448 0-.875.069-1.28.208a8.357 8.357 0 00-1.136.448l-.432-1.056a6.152 6.152 0 011.328-.512 5.684 5.684 0 011.6-.224zm.416 4.576c-1.067.042-1.808.213-2.224.512-.406.298-.608.72-.608 1.264 0 .48.144.832.432 1.056.298.224.677.336 1.136.336.725 0 1.328-.198 1.808-.592.48-.406.72-1.024.72-1.856v-.768l-1.264.048zm8.745 4.304c-.758 0-1.435-.155-2.032-.464-.587-.31-1.051-.79-1.392-1.44-.331-.651-.496-1.483-.496-2.496 0-1.056.176-1.915.528-2.576.352-.662.826-1.147 1.424-1.456.608-.31 1.296-.464 2.064-.464.437 0 .858.048 1.264.144.405.085.736.192.992.32l-.432 1.168a8.341 8.341 0 00-.896-.272 3.974 3.974 0 00-.96-.128c-1.686 0-2.528 1.082-2.528 3.248 0 1.034.202 1.829.608 2.384.416.544 1.029.816 1.84.816.469 0 .88-.048 1.232-.144.362-.096.693-.214.992-.352v1.248a3.804 3.804 0 01-.96.336 5.232 5.232 0 01-1.248.128zm11.703-4.464c0 1.418-.363 2.517-1.088 3.296-.715.778-1.685 1.168-2.912 1.168-.757 0-1.435-.171-2.032-.512-.587-.352-1.051-.859-1.392-1.52-.341-.672-.512-1.483-.512-2.432 0-1.419.357-2.512 1.072-3.28.715-.768 1.685-1.152 2.912-1.152.779 0 1.461.176 2.048.528.597.341 1.061.842 1.392 1.504.341.65.512 1.45.512 2.4zm-6.48 0c0 1.013.197 1.818.592 2.416.405.586 1.045.88 1.92.88.864 0 1.499-.294 1.904-.88.405-.598.608-1.403.608-2.416 0-1.014-.203-1.808-.608-2.384-.405-.576-1.045-.864-1.92-.864s-1.509.288-1.904.864c-.395.576-.592 1.37-.592 2.384zm15.608-2.112c0 .533-.16.949-.48 1.248-.32.298-.731.501-1.232.608v.064c.533.074.997.266 1.392.576.394.298.592.768.592 1.408a2.31 2.31 0 01-.816 1.808c-.534.469-1.419.704-2.656.704h-3.696V9.876h3.68a5.87 5.87 0 011.632.208c.49.128.874.352 1.152.672.288.309.432.736.432 1.28zm-1.424.176c0-.406-.15-.699-.448-.88-.288-.192-.763-.288-1.424-.288h-2.192v2.352h1.935c1.419 0 2.129-.395 2.129-1.184zm.24 3.728c0-.491-.187-.843-.56-1.056-.374-.214-.923-.32-1.648-.32h-2.096v2.752h2.128c.704 0 1.242-.102 1.616-.304.373-.214.56-.571.56-1.072z" fill="#fff"/><g clip-path="url(#clip1)" fill="#FFC738"><path d="M105.001 8a.792.792 0 00-.368 1.057 7.838 7.838 0 01.784 3.443c0 4.365-3.552 7.917-7.917 7.917s-7.917-3.552-7.917-7.917 3.552-7.917 7.917-7.917c1.809 0 3.508.591 4.915 1.708a.791.791 0 10.985-1.239A9.516 9.516 0 0097.5 3C92.262 3 88 7.262 88 12.5s4.262 9.5 9.5 9.5 9.5-4.262 9.5-9.5a9.404 9.404 0 00-.942-4.133.79.79 0 00-1.057-.368z"/><path d="M97.5 6.167a.792.792 0 00-.792.791V12.5c0 .437.355.792.792.792h3.958a.792.792 0 000-1.584h-3.167v-4.75a.792.792 0 00-.791-.791z"/></g><defs><filter id="filter0_d" x="36.853" y="29.029" width="194.139" height="188.337" filterUnits="userSpaceOnUse" color-interpolation-filters="sRGB"><feFlood flood-opacity="0" result="BackgroundImageFix"/><feColorMatrix in="SourceAlpha" values="0 0 0 0 0 0 0 0 0 0 0 0 0 0 0 0 0 0 127 0"/><feOffset dy="2"/><feGaussianBlur stdDeviation="5"/><feColorMatrix values="0 0 0 0 1 0 0 0 0 0.780392 0 0 0 0 0.219608 0 0 0 1 0"/><feBlend in2="BackgroundImageFix" result="effect1_dropShadow"/><feBlend in="SourceGraphic" in2="effect1_dropShadow" result="shape"/></filter><filter id="filter1_d" x="177" y="148.799" width="93" height="93.044" filterUnits="userSpaceOnUse" color-interpolation-filters="sRGB"><feFlood flood-opacity="0" result="BackgroundImageFix"/><feColorMatrix in="SourceAlpha" values="0 0 0 0 0 0 0 0 0 0 0 0 0 0 0 0 0 0 127 0"/><feOffset/><feGaussianBlur stdDeviation="17.5"/><feColorMatrix values="0 0 0 0 1 0 0 0 0 1 0 0 0 0 1 0 0 0 0.74 0"/><feBlend in2="BackgroundImageFix" result="effect1_dropShadow"/><feBlend in="SourceGraphic" in2="effect1_dropShadow" result="shape"/></filter><filter id="filter2_d" x="216.571" y="188.383" width="13.857" height="13.876" filterUnits="userSpaceOnUse" color-interpolation-filters="sRGB"><feFlood flood-opacity="0" result="BackgroundImageFix"/><feColorMatrix in="SourceAlpha" values="0 0 0 0 0 0 0 0 0 0 0 0 0 0 0 0 0 0 127 0"/><feOffset/><feGaussianBlur stdDeviation="1"/><feColorMatrix values="0 0 0 0 1 0 0 0 0 1 0 0 0 0 1 0 0 0 0.94 0"/><feBlend in2="BackgroundImageFix" result="effect1_dropShadow"/><feBlend in="SourceGraphic" in2="effect1_dropShadow" result="shape"/></filter><filter id="filter3_d" x=".5" y="182.863" width="93" height="93.044" filterUnits="userSpaceOnUse" color-interpolation-filters="sRGB"><feFlood flood-opacity="0" result="BackgroundImageFix"/><feColorMatrix in="SourceAlpha" values="0 0 0 0 0 0 0 0 0 0 0 0 0 0 0 0 0 0 127 0"/><feOffset/><feGaussianBlur stdDeviation="17.5"/><feColorMatrix values="0 0 0 0 1 0 0 0 0 1 0 0 0 0 1 0 0 0 0.74 0"/><feBlend in2="BackgroundImageFix" result="effect1_dropShadow"/><feBlend in="SourceGraphic" in2="effect1_dropShadow" result="shape"/></filter><filter id="filter4_d" x="39.692" y="222.068" width="14.615" height="14.636" filterUnits="userSpaceOnUse" color-interpolation-filters="sRGB"><feFlood flood-opacity="0" result="BackgroundImageFix"/><feColorMatrix in="SourceAlpha" values="0 0 0 0 0 0 0 0 0 0 0 0 0 0 0 0 0 0 127 0"/><feOffset/><feGaussianBlur stdDeviation="1"/><feColorMatrix values="0 0 0 0 1 0 0 0 0 1 0 0 0 0 1 0 0 0 0.94 0"/><feBlend in2="BackgroundImageFix" result="effect1_dropShadow"/><feBlend in="SourceGraphic" in2="effect1_dropShadow" result="shape"/></filter><linearGradient id="paint0_linear" x1="221.703" y1="190.64" x2="240.413" y2="200.318" gradientUnits="userSpaceOnUse"><stop stop-color="#fff"/><stop offset="1" stop-color="#fff"/></linearGradient><linearGradient id="paint1_linear" x1="218.677" y1="190.385" x2="228.391" y2="200.074" gradientUnits="userSpaceOnUse"><stop stop-color="#fff"/><stop offset="1" stop-color="#fff"/></linearGradient><linearGradient id="paint2_linear" x1="45.203" y1="224.704" x2="63.913" y2="234.383" gradientUnits="userSpaceOnUse"><stop stop-color="#fff"/><stop offset="1" stop-color="#fff"/></linearGradient><linearGradient id="paint3_linear" x1="41.806" y1="224.07" x2="52.268" y2="234.504" gradientUnits="userSpaceOnUse"><stop stop-color="#fff"/><stop offset="1" stop-color="#fff"/></linearGradient><clipPath id="clip0"><path fill="#fff" transform="matrix(-.23209 -.9727 .95741 -.28873 206.893 183.563)" d="M0 0h21.081v21.856H0z"/></clipPath><clipPath id="clip1"><path fill="#fff" transform="translate(88 3.457)" d="M0 0h19v19.036H0z"/></clipPath></defs></svg>