<svg width="200" height="90" fill="none" xmlns="http://www.w3.org/2000/svg"><path d="M141 69.013v-19h14.363v3.038h-9.825v4.833h8.467v3.065h-8.467v5.026h9.825v3.038H141z" fill="url(#paint0_linear)"/><path d="M172.317 69.013l-4.752-6.849h-.25l-4.752 6.85h-5.002l7.039-9.556-6.896-9.445h5.109l4.645 6.628h.286l4.645-6.628h5.002l-6.896 9.362 7.003 9.638h-5.181z" fill="url(#paint1_linear)"/><path d="M180.636 50.013h9.576c1.857 0 3.275.249 4.251.746 1.001.478 1.668 1.169 2.001 2.071.357.884.536 2.044.536 3.48 0 1.38-.167 2.522-.5 3.424-.334.884-1.001 1.593-2.001 2.127-1 .515-2.453.773-4.359.773h-4.966v6.38h-4.538v-19zm8.004 9.583c1.19 0 2.036-.083 2.536-.248.524-.185.858-.488 1.001-.912.166-.442.25-1.15.25-2.126s-.084-1.676-.25-2.1c-.143-.441-.465-.745-.965-.91-.5-.166-1.334-.249-2.501-.249h-3.537v6.545h3.466z" fill="url(#paint2_linear)"/><path d="M119.552 48.965L102 34.013v35.104h5.63l.331-22.102 11.591 9.1 17.552-13.976v-8.126l-17.552 14.952z" fill="#FFB520"/><path d="M119.648 60.18l-9.222-8.174v7.52l9.222 8.175 11.858-9.81v11.445h5.599v-23.87L119.648 60.18z" fill="url(#paint3_linear)"/><g clip-path="url(#clip0)"><path d="M56.103 63.134c-13.52 3.238-20.237 6.269-20.151 9.092.122 4.069 14.44 7.707 42.955 10.913a140.104 140.104 0 01-27.958.3C32.09 81.735 8.966 79.664 3.712 66.888c-4.734-11.553 5.749-30.448 25.62-44.54l26.771 40.787z" fill="url(#paint4_linear)" fill-opacity=".39"/><path d="M19.163 65.9c-4.406-7.764 3.457-22.242 14.552-36.884l22.38 34.102c-13.52 3.239-20.237 6.27-20.151 9.092.122 4.07 14.44 7.707 42.955 10.914 0 0-48.61 2.342-59.736-17.224z" fill="url(#paint5_linear)"/><path d="M3.715 66.886C-1.02 55.333 9.464 36.44 29.335 22.347l2.14 3.262C23.424 30.275 5.698 42.233 3.483 58.005c-.835 5.962 1.063 10.673 4.168 14.387a15.167 15.167 0 01-3.936-5.506z" fill="url(#paint6_linear)"/><path d="M55.123 79.788c-41.574-5.101-8.933-20.372-8.933-20.372l7.647.25 2.27 3.463c-13.52 3.239-18.166 6.02-18.08 8.844.08 2.718 4.397 5.49 17.096 7.815z" fill="url(#paint7_linear)"/><path d="M29.445 32.515S9.394 45.705 6.749 61.527C4.104 77.349 38.593 81.05 38.593 81.05c-.783-.094-29.398-4.263-28.334-17.424 1.064-13.16 30.997-22.354 30.997-22.354l-11.811-8.757z" fill="url(#paint8_linear)"/><path d="M29.445 32.515S9.394 45.705 6.749 61.527C4.104 77.349 38.593 81.05 38.593 81.05c-.783-.094-29.398-4.263-28.334-17.424 1.064-13.16 30.997-22.354 30.997-22.354l-11.811-8.757z" fill="url(#paint9_linear)"/><path d="M35.989 47.285c-.435.344-13.005 1.86-17.97 12.163-4.963 10.303 5.406 13.927 5.406 13.927-.728-.309-5.338-4.545-4.055-9.939 1.283-5.394 17.378-10.55 17.378-10.55l-.76-5.602z" fill="url(#paint10_linear)"/><path d="M49.935 51.71c-.48.28-13.138-.065-19.547 9.399-6.409 9.463 3.346 14.575 3.346 14.575-.677-.413-4.64-5.292-2.58-10.428 2.06-5.135 18.737-7.894 18.737-7.894l.044-5.652z" fill="url(#paint11_linear)"/><path d="M58.141 5.991l.002 33.2 28.386 13.21-.284-30.3L58.141 5.99z" fill="url(#paint12_linear)" stroke="#885300" stroke-width=".5"/><path d="M57.888 39.665L29.499 54l-.158-31.49L57.76 6.016l.128 33.649z" fill="url(#paint13_linear)" stroke="#885300" stroke-width=".5"/><path d="M30.404 54.23l-.49-.204.47-.247 27.5-14.487.11-.058.112.053 14.001 6.58h0l.003.002 13.502 6.58.47.23-.474.222-27.503 12.826-.1.046-.102-.042-27.5-11.5z" fill="url(#paint14_linear)" stroke="#885300" stroke-width=".5"/><path d="M76.984 48.107l-6.466-2.956-.353-32.763 6.475 3.689.344 32.03z" fill="#EFDAC1"/><path d="M70.519 45.15L42.5 59l6 2.5 28.486-13.393-6.467-2.956z" fill="#EFDAC1"/><path d="M85.296 22.956l-6.605-3.452.027 2.438 6.604 3.451-.026-2.438zm.032 2.975l-5.18-2.466.026 2.438 5.18 2.467-.026-2.439zM64.534 37.259l.037 3.434-4.578-1.966-.042-3.857 4.583 2.389z" fill="#FFEAE7"/><path d="M84.551 22.586l.76.373.015 1.397a15.13 15.13 0 00-.775-1.77z" fill="#fff" fill-opacity=".38"/><path d="M61.455 39.356l-1.461-.629-.019-1.717c.422.826.918 1.611 1.48 2.346z" fill="#FFEAE7" fill-opacity=".35"/><path d="M76.845 34.063s-.635-16.241-.645-17.165c-.01-.923-2.263-2.372-2.263-2.372l2.715 1.55.193 17.987z" fill="#FFE9CF"/></g><defs><linearGradient id="paint0_linear" x1="141" y1="50.06" x2="184.527" y2="37.642" gradientUnits="userSpaceOnUse"><stop stop-color="#FFC738"/><stop offset="1" stop-color="#FF9B00"/></linearGradient><linearGradient id="paint1_linear" x1="141" y1="50.06" x2="184.527" y2="37.642" gradientUnits="userSpaceOnUse"><stop stop-color="#FFC738"/><stop offset="1" stop-color="#FF9B00"/></linearGradient><linearGradient id="paint2_linear" x1="141" y1="50.06" x2="184.527" y2="37.642" gradientUnits="userSpaceOnUse"><stop stop-color="#FFC738"/><stop offset="1" stop-color="#FF9B00"/></linearGradient><linearGradient id="paint3_linear" x1="110.426" y1="48.118" x2="133.542" y2="71.669" gradientUnits="userSpaceOnUse"><stop stop-color="#989898"/><stop offset="1" stop-color="#fff"/></linearGradient><linearGradient id="paint4_linear" x1="40.211" y1="22.23" x2="82.287" y2="86.595" gradientUnits="userSpaceOnUse"><stop stop-color="#A7C1FF"/><stop offset="0" stop-color="#A7C1FF"/><stop offset=".078" stop-color="#6075A9" stop-opacity=".922"/><stop offset="1" stop-color="#fff" stop-opacity=".2"/></linearGradient><linearGradient id="paint5_linear" x1="55.211" y1="57.423" x2="40.362" y2="85.635" gradientUnits="userSpaceOnUse"><stop stop-color="#4E5F89"/><stop offset="1" stop-color="#fff" stop-opacity="0"/></linearGradient><linearGradient id="paint6_linear" x1="34.27" y1="25.873" x2="7.226" y2="57.986" gradientUnits="userSpaceOnUse"><stop stop-color="#fff"/><stop offset="1" stop-color="#fff" stop-opacity="0"/></linearGradient><linearGradient id="paint7_linear" x1="-1870.38" y1="3369.87" x2="-2581.99" y2="3963.19" gradientUnits="userSpaceOnUse"><stop stop-color="#3E4C6B"/><stop offset="1" stop-color="#fff" stop-opacity="0"/></linearGradient><linearGradient id="paint8_linear" x1="27.899" y1="37.455" x2="24.79" y2="81.198" gradientUnits="userSpaceOnUse"><stop stop-color="#91A8DA"/><stop offset=".932" stop-color="#738BC0" stop-opacity="0"/></linearGradient><linearGradient id="paint9_linear" x1="42.316" y1="37.781" x2="-1.037" y2="67.704" gradientUnits="userSpaceOnUse"><stop stop-color="#989898"/><stop offset="1" stop-color="#fff" stop-opacity="0"/></linearGradient><linearGradient id="paint10_linear" x1="36.718" y1="50.161" x2="13.174" y2="67.248" gradientUnits="userSpaceOnUse"><stop stop-color="#989898"/><stop offset=".995" stop-color="#fff" stop-opacity=".08"/></linearGradient><linearGradient id="paint11_linear" x1="49.964" y1="54.354" x2="26.683" y2="72.496" gradientUnits="userSpaceOnUse"><stop stop-color="#989898"/><stop offset="1" stop-color="#fff" stop-opacity=".11"/></linearGradient><linearGradient id="paint12_linear" x1="76.705" y1=".482" x2="54.961" y2="6.804" gradientUnits="userSpaceOnUse"><stop stop-color="#FF9B00"/><stop offset="1" stop-color="#FFC738"/></linearGradient><linearGradient id="paint13_linear" x1="59.248" y1="14.514" x2="39.5" y2="7.011" gradientUnits="userSpaceOnUse"><stop stop-color="#FF9B00"/><stop offset="1" stop-color="#FFC738"/></linearGradient><linearGradient id="paint14_linear" x1="66.992" y1="36.736" x2="44.316" y2="59.469" gradientUnits="userSpaceOnUse"><stop stop-color="#FF9B00"/><stop offset="1" stop-color="#FFC738"/></linearGradient><clipPath id="clip0"><path fill="#fff" transform="scale(-1 1) rotate(.616 -509.095 -8149.114)" d="M0 0h85.601v78.739H0z"/></clipPath></defs></svg>