<svg width="195" height="80" fill="none" xmlns="http://www.w3.org/2000/svg"><path d="M117.553 43.965l-17.552-14.951v35.104h5.63l.331-22.103 11.591 9.101 17.552-13.976v-8.126l-17.552 14.951z" fill="url(#paint0_linear)"/><path d="M117.649 55.181l-9.222-8.175v7.521l9.222 8.175 11.857-9.81v11.445h5.6v-23.87L117.649 55.18z" fill="url(#paint1_linear)"/><path d="M139 64.014v-19h14.363v3.037h-9.825v4.833h8.467v3.066h-8.467v5.026h9.825v3.038H139z" fill="url(#paint2_linear)"/><path d="M170.317 64.014l-4.752-6.85h-.25l-4.752 6.85h-5.002l7.039-9.556-6.896-9.444h5.109l4.645 6.628h.286l4.645-6.628h5.002l-6.896 9.362 7.003 9.638h-5.181z" fill="url(#paint3_linear)"/><path d="M178.636 45.014h9.576c1.857 0 3.275.248 4.251.745 1.001.479 1.668 1.17 2.001 2.072.357.883.536 2.043.536 3.48 0 1.38-.167 2.522-.5 3.424-.334.883-1.001 1.592-2.001 2.126-1 .516-2.453.773-4.359.773h-4.966v6.38h-4.538v-19zm8.004 9.582c1.19 0 2.036-.082 2.536-.248.524-.184.858-.488 1.001-.911.166-.442.25-1.151.25-2.127 0-.976-.084-1.675-.25-2.099-.143-.441-.465-.745-.965-.911-.5-.166-1.334-.248-2.501-.248h-3.537v6.544h3.466z" fill="url(#paint4_linear)"/><g clip-path="url(#clip0)"><path d="M54.105 58.134c-13.52 3.238-20.238 6.269-20.152 9.092.121 4.069 14.44 7.707 42.955 10.913a140.103 140.103 0 01-27.958.3C30.09 76.735 6.967 74.664 1.713 61.888c-4.734-11.553 5.749-30.448 25.62-44.54l26.772 40.787z" fill="url(#paint5_linear)" fill-opacity=".39"/><path d="M17.164 60.9c-4.406-7.764 3.457-22.242 14.552-36.884l22.38 34.102c-13.52 3.239-20.237 6.27-20.151 9.092.122 4.07 14.44 7.707 42.955 10.914 0 0-48.61 2.342-59.736-17.224z" fill="url(#paint6_linear)"/><path d="M1.716 61.886c-4.734-11.553 5.749-30.447 25.62-44.54l2.14 3.263C21.424 25.275 3.699 37.233 1.484 53.005.65 58.967 2.547 63.678 5.652 67.392a15.166 15.166 0 01-3.936-5.506z" fill="url(#paint7_linear)"/><path d="M53.124 74.788C11.55 69.687 44.19 54.416 44.19 54.416l7.647.25 2.27 3.463c-13.52 3.239-18.166 6.02-18.08 8.844.08 2.718 4.397 5.49 17.096 7.815z" fill="url(#paint8_linear)"/><path d="M27.446 27.515S7.395 40.706 4.75 56.528C2.105 72.35 36.594 76.05 36.594 76.05c-.783-.094-29.398-4.263-28.334-17.424 1.064-13.16 30.997-22.354 30.997-22.354l-11.811-8.756z" fill="url(#paint9_linear)"/><path d="M27.446 27.515S7.395 40.706 4.75 56.528C2.105 72.35 36.594 76.05 36.594 76.05c-.783-.094-29.398-4.263-28.334-17.424 1.064-13.16 30.997-22.354 30.997-22.354l-11.811-8.756z" fill="url(#paint10_linear)"/><path d="M33.99 42.284c-.434.345-13.004 1.861-17.968 12.164-4.964 10.303 5.405 13.927 5.405 13.927-.728-.31-5.338-4.545-4.055-9.939 1.283-5.394 17.378-10.55 17.378-10.55l-.76-5.602z" fill="url(#paint11_linear)"/><path d="M47.937 46.71c-.481.28-13.14-.064-19.548 9.4-6.409 9.463 3.346 14.574 3.346 14.574-.677-.412-4.64-5.292-2.58-10.428 2.06-5.135 18.736-7.894 18.736-7.894l.046-5.652z" fill="url(#paint12_linear)"/><path d="M56.142.991l.002 33.2L84.53 47.4l-.284-30.3L56.142.99z" fill="url(#paint13_linear)" stroke="#885300" stroke-width=".5"/><path d="M55.889 34.665L27.507 48.688l-.165-31.178L55.76 1.016l.128 33.649z" fill="url(#paint14_linear)" stroke="#885300" stroke-width=".5"/><path d="M28.416 49.405l-.525-.192.493-.263 27.498-14.657.11-.059.114.053 14.001 6.58h0l.003.002 13.502 6.58.532.26-.558.2-29.855 10.726-.086.03-.085-.031-25.145-9.229z" fill="url(#paint15_linear)" stroke="#885300" stroke-width=".5"/><path d="M74.986 43.107l-6.467-2.956-.352-32.763 6.475 3.689.344 32.03z" fill="#EFDAC1"/><path d="M68.519 40.15L38.23 52.19l7.147 2.68 29.608-11.763-6.467-2.956z" fill="#EFDAC1"/><path d="M83.297 17.956l-6.605-3.452.027 2.438 6.604 3.451-.026-2.438zm.032 2.975l-5.18-2.466.025 2.438 5.181 2.466-.026-2.438zM62.536 32.26l.037 3.433-4.578-1.966-.042-3.857 4.583 2.39z" fill="#FFEAE7"/><path d="M38.513 52.081l2.07.993-2.352-.883.282-.11z" fill="#C49D72"/><path d="M82.552 17.586l.76.373.015 1.397a15.13 15.13 0 00-.775-1.77z" fill="#fff" fill-opacity=".38"/><path d="M59.456 34.356l-1.462-.629-.018-1.717c.422.826.918 1.61 1.48 2.346z" fill="#FFEAE7" fill-opacity=".35"/><path d="M74.846 29.063s-.636-16.241-.645-17.165c-.01-.923-2.263-2.372-2.263-2.372l2.715 1.55.193 17.987z" fill="#FFE9CF"/></g><defs><linearGradient id="paint0_linear" x1="111.702" y1="25.392" x2="135.332" y2="36.343" gradientUnits="userSpaceOnUse"><stop stop-color="#FF9B00"/><stop offset="1" stop-color="#FFC738"/></linearGradient><linearGradient id="paint1_linear" x1="108.427" y1="43.119" x2="131.543" y2="66.67" gradientUnits="userSpaceOnUse"><stop stop-color="#989898"/><stop offset="1" stop-color="#fff"/></linearGradient><linearGradient id="paint2_linear" x1="139" y1="45.061" x2="182.527" y2="32.643" gradientUnits="userSpaceOnUse"><stop stop-color="#FFC738"/><stop offset="1" stop-color="#FF9B00"/></linearGradient><linearGradient id="paint3_linear" x1="139" y1="45.061" x2="182.527" y2="32.643" gradientUnits="userSpaceOnUse"><stop stop-color="#FFC738"/><stop offset="1" stop-color="#FF9B00"/></linearGradient><linearGradient id="paint4_linear" x1="139" y1="45.061" x2="182.527" y2="32.643" gradientUnits="userSpaceOnUse"><stop stop-color="#FFC738"/><stop offset="1" stop-color="#FF9B00"/></linearGradient><linearGradient id="paint5_linear" x1="38.212" y1="17.23" x2="80.287" y2="81.595" gradientUnits="userSpaceOnUse"><stop stop-color="#A7C1FF"/><stop offset="0" stop-color="#A7C1FF"/><stop offset=".078" stop-color="#6075A9" stop-opacity=".922"/><stop offset="1" stop-color="#fff" stop-opacity=".2"/></linearGradient><linearGradient id="paint6_linear" x1="53.212" y1="52.423" x2="38.363" y2="80.635" gradientUnits="userSpaceOnUse"><stop stop-color="#4E5F89"/><stop offset="1" stop-color="#fff" stop-opacity="0"/></linearGradient><linearGradient id="paint7_linear" x1="32.271" y1="20.873" x2="5.227" y2="52.986" gradientUnits="userSpaceOnUse"><stop stop-color="#fff"/><stop offset="1" stop-color="#fff" stop-opacity="0"/></linearGradient><linearGradient id="paint8_linear" x1="-1872.38" y1="3364.87" x2="-2583.99" y2="3958.19" gradientUnits="userSpaceOnUse"><stop stop-color="#3E4C6B"/><stop offset="1" stop-color="#fff" stop-opacity="0"/></linearGradient><linearGradient id="paint9_linear" x1="25.9" y1="32.455" x2="22.791" y2="76.199" gradientUnits="userSpaceOnUse"><stop stop-color="#91A8DA"/><stop offset=".932" stop-color="#738BC0" stop-opacity="0"/></linearGradient><linearGradient id="paint10_linear" x1="40.317" y1="32.781" x2="-3.036" y2="62.704" gradientUnits="userSpaceOnUse"><stop stop-color="#989898"/><stop offset="1" stop-color="#fff" stop-opacity="0"/></linearGradient><linearGradient id="paint11_linear" x1="34.72" y1="45.16" x2="11.176" y2="62.248" gradientUnits="userSpaceOnUse"><stop stop-color="#989898"/><stop offset=".995" stop-color="#fff" stop-opacity=".08"/></linearGradient><linearGradient id="paint12_linear" x1="47.965" y1="49.355" x2="24.684" y2="67.496" gradientUnits="userSpaceOnUse"><stop stop-color="#989898"/><stop offset="1" stop-color="#fff" stop-opacity=".11"/></linearGradient><linearGradient id="paint13_linear" x1="74.706" y1="-4.518" x2="52.962" y2="1.804" gradientUnits="userSpaceOnUse"><stop stop-color="#FF9B00"/><stop offset="1" stop-color="#FFC738"/></linearGradient><linearGradient id="paint14_linear" x1="57.249" y1="9.515" x2="37.501" y2="2.011" gradientUnits="userSpaceOnUse"><stop stop-color="#FF9B00"/><stop offset="1" stop-color="#FFC738"/></linearGradient><linearGradient id="paint15_linear" x1="64.994" y1="31.955" x2="44.235" y2="54.622" gradientUnits="userSpaceOnUse"><stop stop-color="#FF9B00"/><stop offset="1" stop-color="#FFC738"/></linearGradient><clipPath id="clip0"><path fill="#fff" transform="scale(-1 1) rotate(.616 -42.798 -7965.495)" d="M0 0h85.601v78.739H0z"/></clipPath></defs></svg>