<svg width="111" height="42" fill="none" xmlns="http://www.w3.org/2000/svg"><path d="M21 17.889L0 0v42h6.736l.396-26.444L21 26.444 42 9.722V0L21 17.889z" fill="url(#paint0_linear)"/><path d="M21.062 31.26L10 21.671v8.822l11.062 9.59 14.222-11.508V42H42V14L21.062 31.26z" fill="url(#paint1_linear)"/><path d="M48 42V22h16.158v3.198H53.105v5.087h9.526v3.227h-9.526v5.29h11.053V42H48z" fill="url(#paint2_linear)"/><path d="M83.232 42l-5.346-7.21h-.281L72.259 42H66.63l7.919-10.058L66.792 22h5.748l5.225 6.977h.322L83.312 22h5.627l-7.757 9.855L89.06 42h-5.828z" fill="url(#paint3_linear)"/><path d="M92.59 22h10.773c2.09 0 3.685.262 4.783.785 1.126.504 1.876 1.23 2.251 2.18.402.93.603 2.151.603 3.663 0 1.453-.188 2.655-.563 3.605-.375.93-1.125 1.676-2.251 2.238-1.125.543-2.76.814-4.903.814h-5.587V42H92.59V22zm9.004 10.087c1.34 0 2.292-.087 2.854-.261.59-.194.965-.514 1.126-.96.187-.465.281-1.211.281-2.238s-.094-1.764-.281-2.21c-.161-.465-.523-.784-1.086-.959-.562-.174-1.5-.261-2.813-.261h-3.98v6.89h3.899z" fill="url(#paint4_linear)"/><defs><linearGradient id="paint0_linear" x1="14" y1="-4.333" x2="42.271" y2="8.769" gradientUnits="userSpaceOnUse"><stop stop-color="#FF9B00"/><stop offset="1" stop-color="#FFC738"/></linearGradient><linearGradient id="paint1_linear" x1="10" y1="17.111" x2="37.097" y2="45.341" gradientUnits="userSpaceOnUse"><stop stop-color="#989898"/><stop offset="1" stop-color="#fff"/></linearGradient><linearGradient id="paint2_linear" x1="48" y1="22.05" x2="96.45" y2="7.277" gradientUnits="userSpaceOnUse"><stop stop-color="#FFC738"/><stop offset="1" stop-color="#FF9B00"/></linearGradient><linearGradient id="paint3_linear" x1="48" y1="22.05" x2="96.45" y2="7.277" gradientUnits="userSpaceOnUse"><stop stop-color="#FFC738"/><stop offset="1" stop-color="#FF9B00"/></linearGradient><linearGradient id="paint4_linear" x1="48" y1="22.05" x2="96.45" y2="7.277" gradientUnits="userSpaceOnUse"><stop stop-color="#FFC738"/><stop offset="1" stop-color="#FF9B00"/></linearGradient></defs></svg>