<svg width="588" height="442" fill="none" xmlns="http://www.w3.org/2000/svg"><g clip-path="url(#clip0)" filter="url(#filter0_d)"><path d="M66.337 367L168 334.651v-76.722L66.337 279.848V367z" fill="#253354"/><path d="M5 331.686L66.339 367v-87.153L5 249.953v81.733z" fill="#1E2A47"/><path d="M168 257.929L105.95 236 5 249.954l61.337 29.894L168 257.929z" fill="#3C465E"/><path opacity=".6" d="M138.492 247.501l-95.81 21.249-1.97 34.742-3.374 4.985-1.67-6.408-2.266 1.994-2.25-4.558-1.687 2.564 2.172-39.134 98.408-18.419 8.447 2.985z" fill="#1E2947"/><path opacity=".6" d="M126.234 266.934l-59.896-25.457-10.192 1.407 57.467 26.772 12.621-2.722z" fill="#1E2947"/><path d="M126.234 266.934v81.008l-12.621 4.015v-82.302l12.621-2.721z" fill="#1E2947"/><path d="M43.806 344.929c0 .944.695 1.267 1.688 1.707l10.404 5.321c1.405.709 1.686-.776 1.686-1.71v-16.232c0-.942-.608-1.167-1.686-1.708l-10.404-5.321c-2.204-1.138-1.532 1.177-1.688 5.554v12.389z" fill="#fff"/><path d="M56.52 335.613l-10.328-5.081v.585l10.328 5.257v-.761zm0 2.003l-10.328-5.084v.585l10.328 5.259v-.76zm0 2.245l-10.328-5.08v.582l10.328 5.259v-.761zm-.245 6.162l-6.526-3.213-.082.608 6.608 3.363v-.758zm0 1.519l-6.526-3.213-.082.608 6.608 3.362v-.757zm0 1.549l-6.526-3.213-.082.608 6.608 3.363v-.758z" fill="#25304C"/></g><g filter="url(#filter1_d)" opacity=".8"><path d="M509.092 284.551l43.419-34.337-.448 73.991-42.971 49.867v-89.521z" fill="#202C49"/><path d="M509.093 374.07L374 362.987v-83.292l135.093 4.854v89.521z" fill="#293759"/><path d="M374 279.696l58.194-31.964 120.318 2.482-43.419 34.336L374 279.696z" fill="#1E2A47"/><path d="M424.908 319.432v-6.93h-9.072v6.93a4.54 4.54 0 003.873 4.488v6.236a5.039 5.039 0 00-3.039 1.575h7.404a5.03 5.03 0 00-3.039-1.575v-6.236a4.54 4.54 0 003.873-4.488zm12.849-5.598v-1.692h-.444v1.692c-3.853.097-7.113 2.788-8.338 6.514a1.443 1.443 0 012.603 0h.282a1.446 1.446 0 012.072-.598c.23.145.415.353.532.598h.278a1.442 1.442 0 012.551-.104v7.831h-.209s-.246 2.716.725 3.401c.649.451 1.834.274 2.233-.403.439-.749.455-1.463.072-1.374-.382.089-.177 1.011-.737 1.265-.685.306-1.278.073-1.366-.753-.052-.719-.06-1.44-.025-2.16h-.249v-7.892a1.444 1.444 0 012.494.189h.222a1.443 1.443 0 012.604 0h.282a1.443 1.443 0 012.603 0h.133c-1.205-3.726-4.461-6.429-8.318-6.514zm18.317 2.732l-3.64-4.363-3.635 4.363h2.293v12.767h2.688v-12.767h2.294zm8.004 0l-3.64-4.363-3.639 4.363h2.293v12.767h2.692v-12.767h2.294zm-.414 14.043h-14.449v1.06h14.449v-1.06z" fill="#1B2745"/><path d="M509.092 284.551l36.1 37.567 36.994-37.567-29.675-34.337-43.419 34.337zM374 279.696l70.011-9.669s50.597-29.925 49.057-29.006c-1.539.918-60.858 6.711-60.858 6.711L374 279.696z" fill="#454F66"/></g><g clip-path="url(#clip1)" filter="url(#filter2_d)"><path d="M185.643 424.282l-79.422-35.89V303.26l79.422 24.323v96.699z" fill="#253354"/><path d="M245.573 382.062l-59.928 42.22v-96.699l59.928-36.209v90.688z" fill="#1E2A47"/><path d="M106.221 303.26l79.422 24.323 59.929-36.209-78.708-16.545-60.643 28.431z" fill="#3C465E"/><path d="M143.623 314.712l53.899-33.439 1.838.387-53.427 33.761-2.31-.709z" fill="#1B2848"/><path d="M106.222 303.26l-23.306 29.55 80.187 30.963 22.542-36.19-79.423-24.323z" fill="#3C465E"/><path d="M166.865 274.829l21.422-28.129 84.529 9.759-27.243 34.915-78.708-16.545zm20.243 51.867l-79.538-24.068-1.349.632 79.422 24.323 1.465-.887z" fill="#1B2848"/><path d="M166.866 274.829l78.707 16.545-1.23.743-78.181-16.958.704-.33z" fill="#1B2848"/><path d="M155.771 382.274v18.563l15.054 6.507v-21.433l-15.054-3.637z" fill="#fff"/><path d="M156.543 383.366l12.98 3.286v.683l-12.98-3.332v-.637zm0 1.506l12.98 3.284v.686l-12.98-3.332v-.638zm0 1.748l12.98 3.287v.686l-12.98-3.333v-.64zm0 1.691l12.98 3.283v.686l-12.98-3.332v-.637zm0 7.868l6.279 1.929-.02.775-6.259-2.064v-.64zm0 1.119l6.279 1.926-.02.775-6.259-2.064v-.637zm0 1.349l6.279 1.929-.02.775-6.259-2.064v-.64z" fill="#4C402C"/></g><g filter="url(#filter3_d)"><path d="M226 421.715l227.771 11.012v-31.282L226 391.734v29.981z" fill="#293759"/><path d="M453.773 401.445l44.628-38.394v26.996l-44.628 42.679v-31.281z" fill="#1B2745"/><path d="M453.771 401.445l44.628-38.394L297.72 357 226 391.734l227.771 9.711z" fill="#3C465E"/><path d="M412.675 416.487v-5.228h-6.845v5.228a3.42 3.42 0 002.916 3.383v4.699a3.807 3.807 0 00-2.293 1.185h5.586a3.804 3.804 0 00-2.293-1.185v-4.699a3.427 3.427 0 002.929-3.383zm9.693-4.225v-1.276h-.335v1.276c-2.907.076-5.366 2.103-6.291 4.918h.015a1.087 1.087 0 011.965 0h.213a1.078 1.078 0 01.982-.623 1.087 1.087 0 01.982.623h.21a1.083 1.083 0 011.924-.079v5.906h-.158s-.185 2.048.548 2.565c.489.343 1.383.207 1.681-.304.335-.565.347-1.103.058-1.036-.289.066-.134.762-.557.954-.517.234-.964.055-1.03-.565a13.69 13.69 0 01-.019-1.633h-.188v-5.954a1.087 1.087 0 011.882.146h.167a1.087 1.087 0 011.964 0h.213a1.087 1.087 0 011.965 0h.1c-.924-2.815-3.384-4.842-6.291-4.918zm13.818 2.063l-2.746-3.295-2.743 3.295h1.727v9.631h2.032v-9.631h1.73zm6.04 0l-2.746-3.295-2.746 3.295h1.731v9.631h2.031v-9.631h1.73zm-.313 10.592h-10.901v.804h10.901v-.804z" fill="#1B2745"/><path opacity=".6" d="M311.631 425.853v-30.47l53.026-36.439 9.508.358-48.279 37.549-.35 29.674-13.905-.672z" fill="#1A2644"/><path opacity=".6" d="M260.332 375.109l212.294 10.115v29.473l8.732-8.352v-28.631l-211.956-6.997-9.07 4.392z" fill="#1A2644"/></g><g opacity=".2"><path d="M170.785 81.724h-.063a1.225 1.225 0 01-1.095-.804 1.202 1.202 0 01-.072-.471 25.17 25.17 0 01.919-5.443 1.219 1.219 0 011.031-.884 1.227 1.227 0 011.211.615 1.23 1.23 0 01.112.928 22.729 22.729 0 00-.832 4.892 1.223 1.223 0 01-1.211 1.167zm2.797-10.033a1.22 1.22 0 01-1.088-1.79 23.69 23.69 0 013.114-4.547 1.224 1.224 0 011.734-.127 1.225 1.225 0 01.107 1.734 21.173 21.173 0 00-2.785 4.078 1.229 1.229 0 01-1.08.653l-.002-.001zm6.83-7.8a1.223 1.223 0 01-1.165-1.608 1.22 1.22 0 01.453-.61 25.233 25.233 0 014.808-2.636 1.217 1.217 0 011.332.26c.114.114.205.248.266.396a1.21 1.21 0 01.004.935 1.225 1.225 0 01-.66.663 22.85 22.85 0 00-4.35 2.378c-.2.143-.44.221-.686.224l-.002-.002zm9.556-4.07a1.222 1.222 0 01-.27-2.415 39.244 39.244 0 015.34-.777 1.225 1.225 0 01.19 2.442c-1.682.127-3.353.37-5.001.728-.085.02-.17.03-.257.03l-.002-.008zm14.393-.72c-.76.004-1.544-.017-2.328-.065a58.714 58.714 0 00-1.71-.079 1.229 1.229 0 01-.853-.384 1.225 1.225 0 01.052-1.728 1.224 1.224 0 01.875-.331c.585.017 1.186.045 1.785.081 1.117.07 2.237.08 3.356.031a1.227 1.227 0 011.164.702 1.238 1.238 0 01.044.934 1.219 1.219 0 01-.63.692 1.228 1.228 0 01-.464.115c-.422.027-.857.038-1.29.04l-.001-.008zm6.411-.775a1.226 1.226 0 01-1.222-1.067 1.223 1.223 0 01.915-1.339 20.024 20.024 0 004.59-1.764 1.227 1.227 0 011.36.134 1.227 1.227 0 01-.2 2.036 22.457 22.457 0 01-5.15 1.981c-.096.021-.193.03-.291.028l-.002-.009zm9.093-4.94a1.224 1.224 0 01-1.203-1.478c.051-.24.173-.458.35-.627a19.346 19.346 0 003.086-3.819 1.22 1.22 0 011.243-.558 1.23 1.23 0 01.993.934 1.223 1.223 0 01-.156.926 21.834 21.834 0 01-3.473 4.298 1.224 1.224 0 01-.838.338l-.002-.014zm5.522-8.777a1.226 1.226 0 01-1.218-1.05 1.226 1.226 0 01.057-.577c.55-1.578.954-3.204 1.206-4.856a1.233 1.233 0 01.479-.816 1.226 1.226 0 011.372-.063 1.216 1.216 0 01.564 1.252 29.502 29.502 0 01-1.315 5.293 1.22 1.22 0 01-1.143.83l-.002-.013zm162.548-2.912a1.223 1.223 0 01-1.051-.585 66.485 66.485 0 00-2.848-4.28 1.222 1.222 0 111.983-1.429 69.999 69.999 0 012.952 4.437 1.216 1.216 0 01.024 1.23 1.22 1.22 0 01-1.06.627zm-170.034-7.092h-.072a35.601 35.601 0 01-5.378-.666 1.224 1.224 0 01-.947-1.445 1.222 1.222 0 011.446-.947c1.65.336 3.322.545 5.004.626a1.223 1.223 0 01-.053 2.444v-.012zm5.237-.047a1.222 1.222 0 01-.085-2.443 54.916 54.916 0 002.7-.239 31.19 31.19 0 00-.42-3.77 1.225 1.225 0 011.474-1.439 1.227 1.227 0 01.933 1.021 33.28 33.28 0 01.443 3.868 1.222 1.222 0 01.336 2.42c-.261.04-.523.077-.781.113a1.21 1.21 0 01-.711.238 1.264 1.264 0 01-.463-.084 60.81 60.81 0 01-3.354.311l-.072.004zm158.68-1.353a1.221 1.221 0 01-.943-.434 73.405 73.405 0 00-3.453-3.819 1.22 1.22 0 01.895-2.072c.325.005.634.138.859.37a78.87 78.87 0 013.569 3.948 1.226 1.226 0 01.174 1.298 1.219 1.219 0 01-1.101.71zm-148.325-.169a1.22 1.22 0 01-1.222-1.088 1.218 1.218 0 01.955-1.327c1.608-.359 3.299-.768 5.024-1.238a1.222 1.222 0 01.643 2.358c-1.765.48-3.496.907-5.146 1.266-.085.02-.172.03-.26.03h.006zm-25.772-.638a1.216 1.216 0 01-.49-.098c-1.4-.6-2.739-1.335-3.997-2.194a24.352 24.352 0 01-.763-.535 1.226 1.226 0 01-.522-.796 1.22 1.22 0 011.019-1.426 1.225 1.225 0 01.922.234c.234.169.476.338.726.507a20.986 20.986 0 003.579 1.965 1.22 1.22 0 01-.474 2.343zm35.883-2.095a1.22 1.22 0 01-1.215-1.033 1.218 1.218 0 01.84-1.354 161.08 161.08 0 004.929-1.65 1.222 1.222 0 11.812 2.304 161.342 161.342 0 01-5.004 1.675 1.25 1.25 0 01-.368.06l.006-.002zm9.886-3.469a1.223 1.223 0 01-.444-2.363c1.557-.594 3.189-1.24 4.85-1.91a1.222 1.222 0 11.92 2.263c-1.677.68-3.324 1.33-4.897 1.93a1.197 1.197 0 01-.434.082l.005-.002zm121.041-1.144a1.222 1.222 0 01-.824-.312 80.774 80.774 0 00-3.944-3.324 1.216 1.216 0 01-.457-.816 1.23 1.23 0 01.255-.9 1.215 1.215 0 01.816-.457 1.22 1.22 0 01.9.255 77.495 77.495 0 014.065 3.426 1.224 1.224 0 01.324 1.342 1.225 1.225 0 01-1.135.786zm-175.393.792a1.223 1.223 0 01-.858-.343c-1.549-1.504-2.705-2.998-3.437-4.44a1.225 1.225 0 01.138-1.374 1.228 1.228 0 011.332-.367 1.223 1.223 0 01.709.637c.61 1.2 1.606 2.477 2.96 3.79a1.223 1.223 0 01-.163 1.888c-.201.137-.438.21-.681.211v-.002zM225.2 24.06a1.223 1.223 0 01-1.156-.803 21.692 21.692 0 00-2.191-4.434 1.223 1.223 0 012.045-1.338 24.06 24.06 0 012.442 4.934 1.225 1.225 0 01-.578 1.5c-.174.091-.366.14-.562.14zm37.997-1.16a1.222 1.222 0 01-.488-2.347c1.524-.65 3.135-1.348 4.792-2.077a1.222 1.222 0 01.988 2.235 391.774 391.774 0 01-4.821 2.09c-.149.065-.309.1-.471.104v-.006zm103.114-3.702a1.22 1.22 0 01-.699-.217 83.268 83.268 0 00-4.334-2.807 1.226 1.226 0 01-.553-.754 1.218 1.218 0 01.895-1.477c.315-.077.648-.026.925.142a87.837 87.837 0 014.458 2.888 1.224 1.224 0 01.472 1.363 1.219 1.219 0 01-1.157.862h-.007zm-93.525-.518a1.221 1.221 0 01-.513-2.333 673.243 673.243 0 004.765-2.177 1.224 1.224 0 011.66 1.532 1.223 1.223 0 01-.635.687c-1.718.792-3.28 1.506-4.772 2.182-.158.073-.331.11-.505.11zm-77.3-1.354a1.224 1.224 0 01-1.135-1.694c.711-1.695 2.215-3.12 4.351-4.12a1.223 1.223 0 111.037 2.212c-1.577.739-2.66 1.726-3.133 2.852a1.226 1.226 0 01-1.12.75zm23.885-1.795a1.227 1.227 0 01-.744-.247 9.661 9.661 0 00-2.687-1.45 38.439 38.439 0 00-1.63-.502 1.219 1.219 0 01-.916-1.027 1.21 1.21 0 01.252-.915 1.207 1.207 0 01.831-.458c.162-.017.326-.001.482.046.594.17 1.189.342 1.77.544a12.101 12.101 0 013.372 1.813 1.223 1.223 0 01.423 1.36 1.216 1.216 0 01-1.153.836zm62.932-1.233a1.22 1.22 0 01-.526-2.328l3.259-1.52 1.488-.697a1.223 1.223 0 011.035 2.216l-1.488.692-3.261 1.522a1.222 1.222 0 01-.507.115zm75.053-.52a1.22 1.22 0 01-.575-.139 87.235 87.235 0 00-4.639-2.27 1.22 1.22 0 01.536-2.35c.164.01.324.052.471.125a88.68 88.68 0 014.771 2.333 1.225 1.225 0 01.623 1.374 1.222 1.222 0 01-1.187.931v-.003zm-153.09-1.285a1.224 1.224 0 01-.15-2.442 26.821 26.821 0 015.48-.055 1.223 1.223 0 11-.217 2.434 24.387 24.387 0 00-5.113.063zm87.535-2.612a1.223 1.223 0 01-1.12-1.772c.128-.253.339-.453.598-.567l1.638-.757a52.317 52.317 0 013.237-1.364 1.223 1.223 0 01.877 2.28c-1.046.401-2.09.84-3.09 1.303l-1.636.755c-.158.074-.33.113-.504.115v.007zm56.018-.416c-.151 0-.302-.027-.444-.08a87.823 87.823 0 00-4.876-1.707 1.215 1.215 0 01-.718-.601 1.21 1.21 0 01-.081-.933 1.204 1.204 0 01.603-.716 1.224 1.224 0 01.934-.078 89.615 89.615 0 015.013 1.753 1.219 1.219 0 01.764 1.36 1.22 1.22 0 01-1.195 1.002zm-9.982-3.164a1.206 1.206 0 01-.305-.036 83.678 83.678 0 00-5.044-1.098 1.226 1.226 0 01-.034-2.402 1.22 1.22 0 01.478-.007c1.724.318 3.472.699 5.192 1.13a1.223 1.223 0 01-.287 2.406v.007zm-36.266-.159a1.224 1.224 0 01-1.216-1.055 1.223 1.223 0 01.886-1.344 61.212 61.212 0 015.208-1.203 1.224 1.224 0 011.224 1.89c-.182.267-.461.45-.778.512a58.386 58.386 0 00-4.995 1.155 1.22 1.22 0 01-.329.045zm25.97-1.738c-.051 0-.102-.003-.152-.01a76.043 76.043 0 00-5.136-.428 1.22 1.22 0 01-.847-.4 1.224 1.224 0 01.966-2.044 78.2 78.2 0 015.303.443 1.223 1.223 0 11-.134 2.444v-.005zm-15.687-.18a1.222 1.222 0 01-1.217-1.63 1.218 1.218 0 011.089-.813 72.001 72.001 0 015.321-.325 1.221 1.221 0 01.057 2.443 66.13 66.13 0 00-5.131.318c-.04.004-.079.006-.119.006z" fill="#fff"/><path d="M388.93 33.263l-3.917 6.5 34.211 23.029-30.294-29.529z" fill="#BDCDFF"/><path d="M381.547 47.558l2.11 7.418 34.045 6.754-36.155-14.172z" fill="#BDCDFF"/><path d="M419.226 62.794l-57.573-19.233 19.827-7.103 37.746 26.336zm-30.293-29.53l30.293 29.528-17.839-34.871-12.454 5.343z" fill="#fff"/></g><defs><filter id="filter0_d" x="0" y="235" width="173" height="141" filterUnits="userSpaceOnUse" color-interpolation-filters="sRGB"><feFlood flood-opacity="0" result="BackgroundImageFix"/><feColorMatrix in="SourceAlpha" values="0 0 0 0 0 0 0 0 0 0 0 0 0 0 0 0 0 0 127 0"/><feOffset dy="4"/><feGaussianBlur stdDeviation="2.5"/><feColorMatrix values="0 0 0 0 0 0 0 0 0 0 0 0 0 0 0 0 0 0 0.17 0"/><feBlend in2="BackgroundImageFix" result="effect1_dropShadow"/><feBlend in="SourceGraphic" in2="effect1_dropShadow" result="shape"/></filter><filter id="filter1_d" x="369" y="240" width="218.186" height="143.072" filterUnits="userSpaceOnUse" color-interpolation-filters="sRGB"><feFlood flood-opacity="0" result="BackgroundImageFix"/><feColorMatrix in="SourceAlpha" values="0 0 0 0 0 0 0 0 0 0 0 0 0 0 0 0 0 0 127 0"/><feOffset dy="4"/><feGaussianBlur stdDeviation="2.5"/><feColorMatrix values="0 0 0 0 0 0 0 0 0 0 0 0 0 0 0 0 0 0 0.17 0"/><feBlend in2="BackgroundImageFix" result="effect1_dropShadow"/><feBlend in="SourceGraphic" in2="effect1_dropShadow" result="shape"/></filter><filter id="filter2_d" x="79" y="245" width="195" height="183" filterUnits="userSpaceOnUse" color-interpolation-filters="sRGB"><feFlood flood-opacity="0" result="BackgroundImageFix"/><feColorMatrix in="SourceAlpha" values="0 0 0 0 0 0 0 0 0 0 0 0 0 0 0 0 0 0 127 0"/><feOffset dy="4"/><feGaussianBlur stdDeviation="2.5"/><feColorMatrix values="0 0 0 0 0 0 0 0 0 0 0 0 0 0 0 0 0 0 0.17 0"/><feBlend in2="BackgroundImageFix" result="effect1_dropShadow"/><feBlend in="SourceGraphic" in2="effect1_dropShadow" result="shape"/></filter><filter id="filter3_d" x="221" y="356" width="282.401" height="85.727" filterUnits="userSpaceOnUse" color-interpolation-filters="sRGB"><feFlood flood-opacity="0" result="BackgroundImageFix"/><feColorMatrix in="SourceAlpha" values="0 0 0 0 0 0 0 0 0 0 0 0 0 0 0 0 0 0 127 0"/><feOffset dy="4"/><feGaussianBlur stdDeviation="2.5"/><feColorMatrix values="0 0 0 0 0 0 0 0 0 0 0 0 0 0 0 0 0 0 0.17 0"/><feBlend in2="BackgroundImageFix" result="effect1_dropShadow"/><feBlend in="SourceGraphic" in2="effect1_dropShadow" result="shape"/></filter><clipPath id="clip0"><path fill="#fff" transform="matrix(-1 0 0 1 168 236)" d="M0 0h163v131H0z"/></clipPath><clipPath id="clip1"><path fill="#fff" transform="translate(84 246)" d="M0 0h185v173H0z"/></clipPath></defs></svg>