<svg width="80" height="80" fill="none" xmlns="http://www.w3.org/2000/svg"><path d="M40.152 9.985l.002 33.2 28.386 13.21-.284-30.3-28.104-16.11z" fill="url(#paint0_linear)" stroke="#885300" stroke-width=".5"/><path d="M39.899 43.659L11.516 57.682l-.164-31.178L39.77 10.01l.13 33.65z" fill="url(#paint1_linear)" stroke="#885300" stroke-width=".5"/><path d="M12.412 58.234l-.522-.195.493-.26 27.51-14.492.11-.058.113.053 14.001 6.58h0l.003.002 13.501 6.58.533.26-.558.2-29.855 10.725-.087.03-.085-.031-25.157-9.394z" fill="url(#paint2_linear)" stroke="#885300" stroke-width=".5"/><path d="M58.996 52.102l-6.467-2.957-.352-32.763 6.475 3.69.344 32.03z" fill="#fff" fill-opacity=".83"/><path d="M52.529 49.145L22.24 61.185l7.148 2.678 29.607-11.762-6.466-2.956z" fill="#fff" fill-opacity=".64"/><path d="M67.306 26.95l-6.604-3.451.026 2.438 6.605 3.45-.027-2.437zm.033 2.975l-5.18-2.466.025 2.438 5.18 2.467-.025-2.438zM46.546 41.253l.037 3.434-4.578-1.965-.042-3.858 4.583 2.39z" fill="#FFEAE7"/><path d="M22.523 61.075l2.07.993-2.352-.883.282-.11z" fill="#C49D72"/><path d="M66.562 26.58l.76.373.014 1.397a15.124 15.124 0 00-.774-1.77z" fill="#fff" fill-opacity=".38"/><path d="M43.466 43.35l-1.462-.629-.018-1.717c.422.826.918 1.611 1.48 2.346z" fill="#FFEAE7" fill-opacity=".35"/><path d="M58.856 38.057s-.636-16.241-.646-17.165c-.01-.923-2.262-2.372-2.262-2.372l2.715 1.551.193 17.986z" fill="#FFE9CF"/><path d="M25.99 31.795l-9.329-6.122.291 21.865 2.917-1.167V31.096l6.413 4.489 8.62-10.787-.166-3.79-8.746 10.787z" fill="url(#paint3_linear)"/><path d="M26.478 36.75l-5.284-3.557v3.85l5.379 3.498 5.836-6.414v6.889l2.674-1.003V26.256L26.478 36.75z" fill="url(#paint4_linear)"/><defs><linearGradient id="paint0_linear" x1="58.716" y1="4.476" x2="36.972" y2="10.798" gradientUnits="userSpaceOnUse"><stop stop-color="#FF9B00"/><stop offset="1" stop-color="#FFC738"/></linearGradient><linearGradient id="paint1_linear" x1="41.259" y1="18.509" x2="21.51" y2="11.006" gradientUnits="userSpaceOnUse"><stop stop-color="#FF9B00"/><stop offset="1" stop-color="#FFC738"/></linearGradient><linearGradient id="paint2_linear" x1="49.001" y1="40.949" x2="28.242" y2="63.62" gradientUnits="userSpaceOnUse"><stop stop-color="#FF9B00"/><stop offset="1" stop-color="#FFC738"/></linearGradient><linearGradient id="paint3_linear" x1="22.536" y1="20.688" x2="35.649" y2="25.756" gradientUnits="userSpaceOnUse"><stop stop-color="#172340"/><stop offset="1" stop-color="#3E4C6B"/></linearGradient><linearGradient id="paint4_linear" x1="21.147" y1="30.961" x2="33.82" y2="42.771" gradientUnits="userSpaceOnUse"><stop stop-color="#D5D5D5"/><stop offset="1" stop-color="#fff"/></linearGradient></defs></svg>