<svg width="452" height="326" viewBox="0 0 452 326" fill="none" xmlns="http://www.w3.org/2000/svg">
<path d="M360.217 304.692H92.1113L92.124 98.0706H360.217V304.692Z" fill="url(#paint0_linear)"/>
<path d="M412.084 153.334L356.922 101.542L360.216 98.0706L415.34 149.862L412.084 153.334Z" fill="#FFC130"/>
<path d="M40.2687 153.334L95.4176 101.542L92.1236 98.0706L37 149.862L40.2687 153.334Z" fill="#FFC130"/>
<g filter="url(#filter0_d)">
<path d="M378.106 166.763H74.2227L92.1242 98.0706H360.217L378.106 166.763Z" fill="url(#paint1_linear)"/>
</g>
<path d="M143 220.68H162.44V224.16H146.84V232.8H160.8V236.28H146.84V245.2H162.92V248.68H143V220.68ZM187.213 248.68L181.653 239.88C181.013 239.933 180.493 239.96 180.093 239.96H172.973V248.68H169.133V220.68H180.093C183.639 220.68 186.373 221.506 188.293 223.16C190.239 224.786 191.213 227.106 191.213 230.12C191.213 232.386 190.679 234.293 189.613 235.84C188.573 237.386 187.066 238.506 185.093 239.2L191.613 248.68H187.213ZM180.093 236.48C182.493 236.48 184.333 235.96 185.613 234.92C186.893 233.853 187.533 232.293 187.533 230.24C187.533 228.24 186.893 226.733 185.613 225.72C184.333 224.68 182.493 224.16 180.093 224.16H172.973V236.48H180.093ZM216.119 248.68L210.559 239.88C209.919 239.933 209.399 239.96 208.999 239.96H201.879V248.68H198.039V220.68H208.999C212.546 220.68 215.279 221.506 217.199 223.16C219.146 224.786 220.119 227.106 220.119 230.12C220.119 232.386 219.586 234.293 218.519 235.84C217.479 237.386 215.972 238.506 213.999 239.2L220.519 248.68H216.119ZM208.999 236.48C211.399 236.48 213.239 235.96 214.519 234.92C215.799 233.853 216.439 232.293 216.439 230.24C216.439 228.24 215.799 226.733 214.519 225.72C213.239 224.68 211.399 224.16 208.999 224.16H201.879V236.48H208.999ZM239.185 220.44C241.879 220.44 244.345 221.066 246.585 222.32C248.852 223.573 250.639 225.293 251.945 227.48C253.252 229.64 253.905 232.026 253.905 234.64C253.905 237.253 253.252 239.666 251.945 241.88C250.639 244.066 248.852 245.8 246.585 247.08C244.345 248.333 241.879 248.96 239.185 248.96C236.492 248.96 234.012 248.333 231.745 247.08C229.505 245.8 227.732 244.066 226.425 241.88C225.119 239.666 224.465 237.253 224.465 234.64C224.465 232.026 225.119 229.64 226.425 227.48C227.732 225.293 229.505 223.573 231.745 222.32C233.985 221.066 236.465 220.44 239.185 220.44ZM239.225 223.88C237.279 223.88 235.465 224.36 233.785 225.32C232.132 226.28 230.812 227.586 229.825 229.24C228.839 230.866 228.345 232.666 228.345 234.64C228.345 236.613 228.839 238.426 229.825 240.08C230.812 241.733 232.132 243.053 233.785 244.04C235.465 245 237.279 245.48 239.225 245.48C241.172 245.48 242.959 245 244.585 244.04C246.239 243.053 247.545 241.733 248.505 240.08C249.492 238.426 249.985 236.613 249.985 234.64C249.985 232.666 249.492 230.866 248.505 229.24C247.545 227.586 246.239 226.28 244.585 225.32C242.959 224.36 241.172 223.88 239.225 223.88ZM277.486 248.68L271.926 239.88C271.286 239.933 270.766 239.96 270.366 239.96H263.246V248.68H259.406V220.68H270.366C273.913 220.68 276.646 221.506 278.566 223.16C280.513 224.786 281.486 227.106 281.486 230.12C281.486 232.386 280.953 234.293 279.886 235.84C278.846 237.386 277.34 238.506 275.366 239.2L281.886 248.68H277.486ZM270.366 236.48C272.766 236.48 274.606 235.96 275.886 234.92C277.166 233.853 277.806 232.293 277.806 230.24C277.806 228.24 277.166 226.733 275.886 225.72C274.606 224.68 272.766 224.16 270.366 224.16H263.246V236.48H270.366ZM297.581 221.08H301.181V227.92L300.581 240.08H298.141L297.581 227.92V221.08ZM299.381 244.44C299.995 244.44 300.501 244.653 300.901 245.08C301.328 245.506 301.541 246.053 301.541 246.72C301.541 247.386 301.328 247.946 300.901 248.4C300.501 248.826 299.995 249.04 299.381 249.04C298.768 249.04 298.248 248.826 297.821 248.4C297.395 247.946 297.181 247.386 297.181 246.72C297.181 246.053 297.395 245.506 297.821 245.08C298.248 244.653 298.768 244.44 299.381 244.44Z" fill="#1C2845"/>
<path opacity="0.1" d="M452 314.242C452 327.644 350.824 325.929 226.006 325.929C101.187 325.929 0 327.644 0 314.242C0 300.839 101.187 290 226.006 290C350.824 290 452 300.952 452 314.242Z" fill="white"/>
<g filter="url(#filter1_dii)">
<path d="M256.905 0.0253438L256.943 0H174.285C171.524 0 169.285 2.23858 169.285 5V136.903H283.029V26.1492L256.905 0.0253438Z" fill="#F1F2F2"/>
<path d="M256.905 0.0253438L256.943 0H174.285C171.524 0 169.285 2.23858 169.285 5V136.903H283.029V26.1492L256.905 0.0253438Z" fill="url(#paint2_linear)"/>
<path d="M262.721 10.5535H175.836V12.0484H262.721V10.5535Z" fill="#E6E7E8"/>
<path d="M276.809 24.0208H175.836V25.5157H276.809V24.0208Z" fill="#E6E7E8"/>
<path d="M276.809 37.4882H175.836V38.9831H276.809V37.4882Z" fill="#E6E7E8"/>
<path d="M276.809 50.9425H175.836V52.4375H276.809V50.9425Z" fill="#E6E7E8"/>
<path d="M276.809 64.4102H175.836V65.9051H276.809V64.4102Z" fill="#E6E7E8"/>
<path d="M276.809 77.8773H175.836V79.3723H276.809V77.8773Z" fill="#E6E7E8"/>
<path d="M276.809 91.3322H175.836V92.8271H276.809V91.3322Z" fill="#E6E7E8"/>
<path d="M283.041 26.162H261.904C259.143 26.162 256.904 23.9235 256.904 21.162V0.0255127L283.041 26.162Z" fill="white"/>
</g>
<path d="M217.01 48.6372C217.01 51.8019 216.072 54.8956 214.313 57.527C212.555 60.1583 210.056 62.2093 207.132 63.4203C204.209 64.6314 200.991 64.9483 197.887 64.3309C194.783 63.7135 191.932 62.1895 189.694 59.9517C187.457 57.7139 185.933 54.8628 185.315 51.7589C184.698 48.6549 185.015 45.4376 186.226 42.5138C187.437 39.59 189.488 37.0909 192.119 35.3327C194.751 33.5744 197.844 32.636 201.009 32.636C203.111 32.6343 205.192 33.0471 207.134 33.8506C209.076 34.6542 210.841 35.8327 212.327 37.3189C213.813 38.8051 214.992 40.5697 215.796 42.5118C216.599 44.4539 217.012 46.5354 217.01 48.6372Z" fill="white"/>
<path d="M212.896 48.638C212.899 50.9864 212.205 53.2828 210.902 55.2367C209.599 57.1905 207.746 58.714 205.577 59.6145C203.408 60.5149 201.021 60.7518 198.717 60.2952C196.414 59.8386 194.297 58.709 192.636 57.0493C190.974 55.3896 189.842 53.2744 189.383 50.9713C188.924 48.6682 189.159 46.2807 190.057 44.1108C190.955 41.9409 192.476 40.0861 194.429 38.7812C196.381 37.4762 198.677 36.7797 201.025 36.7797C204.171 36.783 207.186 38.033 209.411 40.2558C211.636 42.4786 212.89 45.4929 212.896 48.638Z" fill="#414042"/>
<path d="M201.497 40.453C201.499 41.2553 201.264 42.0404 200.82 42.7088C200.376 43.3771 199.744 43.8987 199.003 44.2075C198.262 44.5163 197.447 44.5984 196.66 44.4434C195.872 44.2884 195.149 43.9033 194.581 43.3368C194.012 42.7704 193.625 42.048 193.467 41.2612C193.31 40.4745 193.39 39.6587 193.696 38.9171C194.003 38.1756 194.522 37.5417 195.189 37.0956C195.856 36.6496 196.64 36.4115 197.443 36.4115C198.516 36.4115 199.545 36.8369 200.305 37.5944C201.065 38.352 201.494 39.3799 201.497 40.453Z" fill="white"/>
<path d="M195.388 48.9034C195.388 49.3023 195.27 49.6923 195.048 50.0238C194.826 50.3553 194.511 50.6135 194.142 50.7656C193.773 50.9177 193.367 50.9568 192.976 50.8781C192.585 50.7993 192.226 50.6062 191.945 50.3232C191.664 50.0402 191.473 49.6801 191.397 49.2885C191.32 48.8969 191.362 48.4915 191.516 48.1237C191.671 47.7558 191.931 47.4421 192.264 47.2223C192.597 47.0025 192.988 46.8864 193.386 46.889C193.919 46.8923 194.428 47.106 194.803 47.4834C195.178 47.8608 195.388 48.3713 195.388 48.9034Z" fill="white"/>
<path d="M200.895 54.351C200.898 54.961 200.719 55.5579 200.382 56.0661C200.045 56.5744 199.564 56.9709 199.001 57.2055C198.438 57.4401 197.818 57.5021 197.219 57.3837C196.621 57.2653 196.071 56.9719 195.64 56.5406C195.209 56.1092 194.915 55.5595 194.797 54.9612C194.678 54.3628 194.74 53.7427 194.975 53.1797C195.21 52.6166 195.606 52.1359 196.114 51.7986C196.623 51.4613 197.22 51.2826 197.83 51.2851C198.643 51.2851 199.423 51.6081 199.997 52.1831C200.572 52.758 200.895 53.5379 200.895 54.351Z" fill="white"/>
<path d="M211.273 50.5758C207.726 51.1206 207.282 51.564 206.725 55.1114C206.18 51.564 205.737 51.1206 202.189 50.5758C205.737 50.0184 206.18 49.575 206.725 46.0276C207.282 49.575 207.726 50.0184 211.273 50.5758Z" fill="white"/>
<path d="M268.381 48.6372C268.381 51.8019 267.443 54.8956 265.685 57.527C263.926 60.1583 261.427 62.2092 258.503 63.4203C255.58 64.6314 252.362 64.9483 249.258 64.3309C246.155 63.7135 243.303 62.1895 241.066 59.9517C238.828 57.7139 237.304 54.8628 236.686 51.7589C236.069 48.6549 236.386 45.4376 237.597 42.5138C238.808 39.5899 240.859 37.0909 243.49 35.3327C246.122 33.5744 249.215 32.636 252.38 32.636C256.624 32.636 260.694 34.3218 263.695 37.3226C266.695 40.3234 268.381 44.3934 268.381 48.6372Z" fill="white"/>
<path d="M264.238 48.637C264.238 50.9824 263.543 53.2751 262.24 55.2252C260.937 57.1753 259.085 58.6952 256.918 59.5927C254.751 60.4903 252.367 60.7251 250.066 60.2675C247.766 59.81 245.653 58.6806 243.995 57.0222C242.336 55.3637 241.207 53.2508 240.749 50.9505C240.292 48.6502 240.527 46.2659 241.424 44.0991C242.322 41.9322 243.842 40.0802 245.792 38.7772C247.742 37.4742 250.035 36.7787 252.38 36.7787C255.524 36.782 258.538 38.0325 260.761 40.2556C262.984 42.4788 264.235 45.493 264.238 48.637Z" fill="#414042"/>
<path d="M252.839 40.4529C252.841 41.2558 252.605 42.0413 252.161 42.71C251.716 43.3786 251.083 43.9002 250.342 44.2086C249.601 44.517 248.784 44.5984 247.997 44.4424C247.209 44.2863 246.486 43.9 245.918 43.3322C245.35 42.7645 244.964 42.0409 244.808 41.2533C244.652 40.4657 244.733 39.6495 245.042 38.9082C245.35 38.1669 245.871 37.5339 246.54 37.0894C247.209 36.6448 247.994 36.4089 248.797 36.4114C249.868 36.4147 250.894 36.8416 251.651 37.5988C252.409 38.356 252.835 39.382 252.839 40.4529Z" fill="white"/>
<path d="M246.744 48.9032C246.744 49.3016 246.625 49.6911 246.404 50.0223C246.183 50.3536 245.868 50.6118 245.5 50.7643C245.132 50.9167 244.727 50.9566 244.336 50.8789C243.945 50.8012 243.587 50.6093 243.305 50.3276C243.023 50.0459 242.831 49.6869 242.754 49.2962C242.676 48.9054 242.716 48.5004 242.868 48.1323C243.021 47.7642 243.279 47.4496 243.61 47.2283C243.941 47.0069 244.331 46.8888 244.729 46.8888C245.263 46.8888 245.776 47.101 246.154 47.4788C246.531 47.8566 246.744 48.3689 246.744 48.9032Z" fill="white"/>
<path d="M252.243 54.351C252.243 54.9574 252.063 55.5501 251.727 56.0543C251.39 56.5585 250.911 56.9515 250.351 57.1835C249.79 57.4156 249.174 57.4763 248.579 57.358C247.984 57.2397 247.438 56.9477 247.009 56.5189C246.581 56.0901 246.289 55.5439 246.17 54.9491C246.052 54.3544 246.113 53.7379 246.345 53.1777C246.577 52.6175 246.97 52.1386 247.474 51.8017C247.978 51.4648 248.571 51.285 249.177 51.285C249.99 51.285 250.77 51.6081 251.345 52.183C251.92 52.758 252.243 53.5378 252.243 54.351Z" fill="white"/>
<path d="M262.62 50.5756C259.085 51.1204 258.629 51.5638 258.084 55.1111C257.527 51.5638 257.084 51.1204 253.549 50.5756C257.084 50.0181 257.527 49.5747 258.084 46.0273C258.629 49.5747 259.085 50.0181 262.62 50.5756Z" fill="white"/>
<path d="M247.668 93.2939C247.035 93.2907 246.429 93.0461 245.983 92.6138C245.536 92.1815 245.286 91.5965 245.286 90.9867C245.286 86.2435 243.33 81.6947 239.85 78.3408C236.369 74.9869 231.648 73.1027 226.726 73.1027C221.803 73.1027 217.083 74.9869 213.602 78.3408C210.121 81.6947 208.166 86.2435 208.166 90.9867C208.166 91.5953 207.915 92.1791 207.468 92.6095C207.022 93.0399 206.416 93.2817 205.784 93.2817C205.152 93.2817 204.547 93.0399 204.1 92.6095C203.653 92.1791 203.402 91.5953 203.402 90.9867C203.402 85.0262 205.86 79.3099 210.234 75.0952C214.608 70.8805 220.54 68.5127 226.726 68.5127C232.912 68.5127 238.844 70.8805 243.218 75.0952C247.592 79.3099 250.049 85.0262 250.049 90.9867C250.049 91.5965 249.799 92.1815 249.352 92.6138C248.906 93.0461 248.3 93.2907 247.668 93.2939Z" fill="#414042"/>
<defs>
<filter id="filter0_d" x="64.2227" y="92.0706" width="323.883" height="88.6923" filterUnits="userSpaceOnUse" color-interpolation-filters="sRGB">
<feFlood flood-opacity="0" result="BackgroundImageFix"/>
<feColorMatrix in="SourceAlpha" type="matrix" values="0 0 0 0 0 0 0 0 0 0 0 0 0 0 0 0 0 0 127 0"/>
<feOffset dy="4"/>
<feGaussianBlur stdDeviation="5"/>
<feColorMatrix type="matrix" values="0 0 0 0 0 0 0 0 0 0 0 0 0 0 0 0 0 0 0.36 0"/>
<feBlend mode="normal" in2="BackgroundImageFix" result="effect1_dropShadow"/>
<feBlend mode="normal" in="SourceGraphic" in2="effect1_dropShadow" result="shape"/>
</filter>
<filter id="filter1_dii" x="165.285" y="0" width="121.756" height="144.903" filterUnits="userSpaceOnUse" color-interpolation-filters="sRGB">
<feFlood flood-opacity="0" result="BackgroundImageFix"/>
<feColorMatrix in="SourceAlpha" type="matrix" values="0 0 0 0 0 0 0 0 0 0 0 0 0 0 0 0 0 0 127 0"/>
<feOffset dy="4"/>
<feGaussianBlur stdDeviation="2"/>
<feColorMatrix type="matrix" values="0 0 0 0 0 0 0 0 0 0 0 0 0 0 0 0 0 0 0.25 0"/>
<feBlend mode="normal" in2="BackgroundImageFix" result="effect1_dropShadow"/>
<feBlend mode="normal" in="SourceGraphic" in2="effect1_dropShadow" result="shape"/>
<feColorMatrix in="SourceAlpha" type="matrix" values="0 0 0 0 0 0 0 0 0 0 0 0 0 0 0 0 0 0 127 0" result="hardAlpha"/>
<feOffset dx="-1" dy="1"/>
<feGaussianBlur stdDeviation="1"/>
<feComposite in2="hardAlpha" operator="arithmetic" k2="-1" k3="1"/>
<feColorMatrix type="matrix" values="0 0 0 0 0.470833 0 0 0 0 0.470833 0 0 0 0 0.470833 0 0 0 0.5 0"/>
<feBlend mode="normal" in2="shape" result="effect2_innerShadow"/>
<feColorMatrix in="SourceAlpha" type="matrix" values="0 0 0 0 0 0 0 0 0 0 0 0 0 0 0 0 0 0 127 0" result="hardAlpha"/>
<feOffset dx="3" dy="3"/>
<feGaussianBlur stdDeviation="2.5"/>
<feComposite in2="hardAlpha" operator="arithmetic" k2="-1" k3="1"/>
<feColorMatrix type="matrix" values="0 0 0 0 1 0 0 0 0 1 0 0 0 0 1 0 0 0 1 0"/>
<feBlend mode="normal" in2="effect2_innerShadow" result="effect3_innerShadow"/>
</filter>
<linearGradient id="paint0_linear" x1="181.48" y1="76.7523" x2="342.485" y2="173.573" gradientUnits="userSpaceOnUse">
<stop stop-color="#FF9B00"/>
<stop offset="1" stop-color="#FFC738"/>
</linearGradient>
<linearGradient id="paint1_linear" x1="226.164" y1="98.0706" x2="226.164" y2="166.763" gradientUnits="userSpaceOnUse">
<stop stop-color="#FFAD2F"/>
<stop offset="0.46875" stop-color="#FFC12F"/>
<stop offset="1" stop-color="#FFC94B"/>
</linearGradient>
<linearGradient id="paint2_linear" x1="169.285" y1="-24.9547" x2="230.633" y2="108.104" gradientUnits="userSpaceOnUse">
<stop stop-color="#B9B9B9"/>
<stop offset="1" stop-color="#EFEFEF"/>
</linearGradient>
</defs>
</svg>
