<svg width="618" height="446" viewBox="0 0 618 446" fill="none" xmlns="http://www.w3.org/2000/svg">
<path opacity="0.1" d="M618 429.669C618 448.283 479.667 445.901 309.008 445.901C138.349 445.901 0 448.283 0 429.669C0 411.054 138.349 396 309.008 396C479.667 396 618 411.211 618 429.669Z" fill="white"/>
<g filter="url(#filter0_dii)">
<path d="M351.403 0.0347719L351.455 0H236.188C233.426 0 231.188 2.23858 231.188 5V187.832H387.245V35.877L351.403 0.0347719Z" fill="#F1F2F2"/>
<path d="M351.403 0.0347719L351.455 0H236.188C233.426 0 231.188 2.23858 231.188 5V187.832H387.245V35.877L351.403 0.0347719Z" fill="url(#paint0_linear)"/>
<path d="M359.381 14.4796H240.174V16.5307H359.381V14.4796Z" fill="#E6E7E8"/>
<path d="M378.71 32.9568H240.174V35.0079H378.71V32.9568Z" fill="#E6E7E8"/>
<path d="M378.71 51.4343H240.174V53.4854H378.71V51.4343Z" fill="#E6E7E8"/>
<path d="M378.71 69.8938H240.174V71.9449H378.71V69.8938Z" fill="#E6E7E8"/>
<path d="M378.71 88.3715H240.174V90.4226H378.71V88.3715Z" fill="#E6E7E8"/>
<path d="M378.71 106.849H240.174V108.9H378.71V106.849Z" fill="#E6E7E8"/>
<path d="M378.71 125.309H240.174V127.36H378.71V125.309Z" fill="#E6E7E8"/>
<path d="M387.26 35.8945H356.4C353.639 35.8945 351.4 33.6559 351.4 30.8945V0.0349121L387.26 35.8945Z" fill="white"/>
</g>
<path d="M296.665 66.7305C296.665 71.0726 295.378 75.3171 292.965 78.9274C290.553 82.5376 287.124 85.3515 283.113 87.0132C279.101 88.6748 274.687 89.1095 270.429 88.2624C266.17 87.4154 262.258 85.3245 259.188 82.2542C256.118 79.1839 254.027 75.2721 253.18 71.0135C252.333 66.7549 252.767 62.3407 254.429 58.3292C256.091 54.3176 258.904 50.8889 262.515 48.4766C266.125 46.0643 270.37 44.7767 274.712 44.7767C277.595 44.7745 280.451 45.3407 283.116 46.4432C285.78 47.5457 288.201 49.1627 290.24 51.2018C292.279 53.2408 293.896 55.6619 294.999 58.3265C296.101 60.991 296.668 63.8469 296.665 66.7305Z" fill="white"/>
<path d="M291.016 66.7317C291.019 69.9537 290.067 73.1044 288.279 75.7851C286.492 78.4658 283.949 80.5561 280.973 81.7915C277.998 83.0269 274.722 83.3519 271.562 82.7254C268.401 82.0989 265.498 80.5491 263.218 78.272C260.938 75.9949 259.385 73.0928 258.756 69.9329C258.126 66.7731 258.447 63.4974 259.68 60.5203C260.912 57.5432 262.999 54.9984 265.678 53.208C268.357 51.4176 271.507 50.4619 274.729 50.4619C279.044 50.4665 283.181 52.1816 286.234 55.2312C289.287 58.2809 291.007 62.4165 291.016 66.7317Z" fill="#414042"/>
<path d="M275.371 55.5017C275.374 56.6026 275.051 57.6797 274.442 58.5967C273.833 59.5137 272.965 60.2293 271.949 60.653C270.933 61.0767 269.814 61.1893 268.734 60.9766C267.654 60.764 266.661 60.2356 265.881 59.4584C265.102 58.6812 264.57 57.6901 264.354 56.6107C264.138 55.5312 264.247 54.4119 264.668 53.3945C265.088 52.3771 265.801 51.5074 266.716 50.8954C267.631 50.2835 268.708 49.9568 269.808 49.9568C271.281 49.9568 272.693 50.5404 273.735 51.5798C274.778 52.6192 275.366 54.0295 275.371 55.5017Z" fill="white"/>
<path d="M266.996 67.0956C266.996 67.643 266.834 68.178 266.529 68.6329C266.225 69.0878 265.792 69.442 265.286 69.6506C264.78 69.8593 264.224 69.913 263.687 69.805C263.15 69.6969 262.658 69.4319 262.272 69.0437C261.886 68.6554 261.624 68.1613 261.52 67.6241C261.415 67.0868 261.472 66.5306 261.684 66.0259C261.896 65.5212 262.253 65.0907 262.71 64.7892C263.167 64.4876 263.703 64.3284 264.25 64.3318C264.98 64.3364 265.678 64.6296 266.193 65.1475C266.708 65.6653 266.996 66.3656 266.996 67.0956Z" fill="white"/>
<path d="M274.555 74.5699C274.559 75.4068 274.313 76.2259 273.851 76.9231C273.388 77.6204 272.728 78.1645 271.956 78.4863C271.183 78.8082 270.332 78.8933 269.512 78.7308C268.691 78.5684 267.936 78.1658 267.345 77.574C266.753 76.9823 266.35 76.228 266.188 75.4071C266.025 74.5861 266.11 73.7354 266.432 72.9629C266.754 72.1904 267.298 71.5308 267.996 71.068C268.693 70.6052 269.512 70.36 270.349 70.3634C271.464 70.3634 272.534 70.8066 273.323 71.5955C274.112 72.3844 274.555 73.4543 274.555 74.5699Z" fill="white"/>
<path d="M288.789 69.3903C283.922 70.1377 283.314 70.7461 282.549 75.6131C281.802 70.7461 281.193 70.1377 276.326 69.3903C281.193 68.6254 281.802 68.0171 282.549 63.15C283.314 68.0171 283.922 68.6254 288.789 69.3903Z" fill="white"/>
<path d="M367.15 66.7305C367.15 71.0726 365.862 75.3171 363.45 78.9274C361.038 82.5376 357.609 85.3515 353.597 87.0131C349.586 88.6748 345.172 89.1095 340.913 88.2624C336.654 87.4153 332.743 85.3245 329.672 82.2542C326.602 79.1839 324.511 75.2721 323.664 71.0135C322.817 66.7549 323.252 62.3407 324.913 58.3292C326.575 54.3176 329.389 50.8889 332.999 48.4766C336.609 46.0643 340.854 44.7767 345.196 44.7767C351.018 44.7767 356.603 47.0897 360.72 51.2068C364.837 55.324 367.15 60.908 367.15 66.7305Z" fill="white"/>
<path d="M361.463 66.7306C361.463 69.9485 360.509 73.094 358.721 75.7696C356.934 78.4451 354.393 80.5305 351.42 81.7619C348.447 82.9933 345.176 83.3155 342.02 82.6877C338.864 82.06 335.965 80.5104 333.689 78.2351C331.414 75.9597 329.864 73.0607 329.236 69.9047C328.609 66.7486 328.931 63.4773 330.162 60.5044C331.394 57.5315 333.479 54.9905 336.155 53.2028C338.83 51.415 341.976 50.4608 345.194 50.4608C349.507 50.4654 353.643 52.181 356.693 55.2312C359.743 58.2814 361.459 62.417 361.463 66.7306Z" fill="#414042"/>
<path d="M345.822 55.5017C345.825 56.6033 345.502 57.6811 344.892 58.5985C344.282 59.5159 343.413 60.2315 342.396 60.6547C341.379 61.0778 340.259 61.1895 339.179 60.9754C338.098 60.7613 337.105 60.2312 336.326 59.4522C335.547 58.6733 335.017 57.6806 334.803 56.6C334.589 55.5194 334.701 54.3996 335.124 53.3825C335.547 52.3654 336.263 51.4969 337.18 50.887C338.098 50.2771 339.175 49.9534 340.277 49.9568C341.746 49.9614 343.154 50.5471 344.193 51.5859C345.232 52.6248 345.817 54.0325 345.822 55.5017Z" fill="white"/>
<path d="M337.461 67.0957C337.461 67.6423 337.299 68.1767 336.995 68.6312C336.692 69.0857 336.26 69.4399 335.755 69.6491C335.25 69.8583 334.694 69.913 334.158 69.8064C333.622 69.6997 333.13 69.4365 332.743 69.05C332.357 68.6635 332.093 68.171 331.987 67.6349C331.88 67.0987 331.935 66.5431 332.144 66.038C332.353 65.533 332.707 65.1014 333.162 64.7977C333.616 64.494 334.151 64.3319 334.697 64.3319C335.43 64.3319 336.133 64.6231 336.652 65.1414C337.17 65.6597 337.461 66.3627 337.461 67.0957Z" fill="white"/>
<path d="M345.005 74.5698C345.005 75.4017 344.758 76.215 344.296 76.9068C343.834 77.5985 343.177 78.1377 342.408 78.4561C341.639 78.7745 340.794 78.8578 339.978 78.6955C339.162 78.5332 338.412 78.1325 337.824 77.5442C337.236 76.9559 336.835 76.2064 336.673 75.3904C336.51 74.5745 336.594 73.7287 336.912 72.96C337.23 72.1914 337.77 71.5344 338.461 71.0722C339.153 70.61 339.966 70.3633 340.798 70.3633C341.914 70.3633 342.984 70.8065 343.773 71.5953C344.562 72.3842 345.005 73.4541 345.005 74.5698Z" fill="white"/>
<path d="M359.239 69.3899C354.389 70.1373 353.763 70.7457 353.016 75.6127C352.251 70.7457 351.643 70.1373 346.793 69.3899C351.643 68.6251 352.251 68.0167 353.016 63.1497C353.763 68.0167 354.389 68.6251 359.239 69.3899Z" fill="white"/>
<path d="M338.732 128C337.864 127.996 337.033 127.66 336.42 127.067C335.808 126.474 335.464 125.671 335.464 124.834C335.464 118.327 332.782 112.086 328.006 107.484C323.231 102.883 316.754 100.298 310 100.298C303.246 100.298 296.769 102.883 291.994 107.484C287.218 112.086 284.536 118.327 284.536 124.834C284.536 125.67 284.191 126.47 283.578 127.061C282.966 127.652 282.134 127.983 281.268 127.983C280.401 127.983 279.57 127.652 278.957 127.061C278.344 126.47 278 125.67 278 124.834C278 116.657 281.371 108.814 287.373 103.031C293.374 97.2486 301.513 94 310 94C318.487 94 326.626 97.2486 332.627 103.031C338.629 108.814 342 116.657 342 124.834C342 125.671 341.656 126.474 341.044 127.067C340.432 127.66 339.6 127.996 338.732 128Z" fill="#414042"/>
<path d="M492.398 418.041H124.555L124.572 134.554H492.398V418.041Z" fill="url(#paint1_linear)"/>
<path d="M563.559 210.375L487.877 139.316L492.396 134.554L568.026 205.612L563.559 210.375Z" fill="#FFC130"/>
<path d="M53.426 210.375L129.091 139.316L124.572 134.554L48.9414 205.612L53.426 210.375Z" fill="#FFC130"/>
<g filter="url(#filter1_d)">
<path d="M516.94 228.8H100.01L124.571 134.554H492.396L516.94 228.8Z" fill="url(#paint2_linear)"/>
</g>
<path d="M191 292H220.16V297.22H196.76V310.18H217.7V315.4H196.76V328.78H220.88V334H191V292ZM257.319 334L248.979 320.8C248.019 320.88 247.239 320.92 246.639 320.92H235.959V334H230.199V292H246.639C251.959 292 256.059 293.24 258.939 295.72C261.859 298.16 263.319 301.64 263.319 306.16C263.319 309.56 262.519 312.42 260.919 314.74C259.359 317.06 257.099 318.74 254.139 319.78L263.919 334H257.319ZM246.639 315.7C250.239 315.7 252.999 314.92 254.919 313.36C256.839 311.76 257.799 309.42 257.799 306.34C257.799 303.34 256.839 301.08 254.919 299.56C252.999 298 250.239 297.22 246.639 297.22H235.959V315.7H246.639ZM300.679 334L292.339 320.8C291.379 320.88 290.599 320.92 289.999 320.92H279.319V334H273.559V292H289.999C295.319 292 299.419 293.24 302.299 295.72C305.219 298.16 306.679 301.64 306.679 306.16C306.679 309.56 305.879 312.42 304.279 314.74C302.719 317.06 300.459 318.74 297.499 319.78L307.279 334H300.679ZM289.999 315.7C293.599 315.7 296.359 314.92 298.279 313.36C300.199 311.76 301.159 309.42 301.159 306.34C301.159 303.34 300.199 301.08 298.279 299.56C296.359 298 293.599 297.22 289.999 297.22H279.319V315.7H289.999ZM335.278 291.64C339.318 291.64 343.018 292.58 346.378 294.46C349.778 296.34 352.458 298.92 354.418 302.2C356.378 305.44 357.358 309.02 357.358 312.94C357.358 316.86 356.378 320.48 354.418 323.8C352.458 327.08 349.778 329.68 346.378 331.6C343.018 333.48 339.318 334.42 335.278 334.42C331.238 334.42 327.518 333.48 324.118 331.6C320.758 329.68 318.098 327.08 316.138 323.8C314.178 320.48 313.198 316.86 313.198 312.94C313.198 309.02 314.178 305.44 316.138 302.2C318.098 298.92 320.758 296.34 324.118 294.46C327.478 292.58 331.198 291.64 335.278 291.64ZM335.338 296.8C332.418 296.8 329.698 297.52 327.178 298.96C324.698 300.4 322.718 302.36 321.238 304.84C319.758 307.28 319.018 309.98 319.018 312.94C319.018 315.9 319.758 318.62 321.238 321.1C322.718 323.58 324.698 325.56 327.178 327.04C329.698 328.48 332.418 329.2 335.338 329.2C338.258 329.2 340.938 328.48 343.378 327.04C345.858 325.56 347.818 323.58 349.258 321.1C350.738 318.62 351.478 315.9 351.478 312.94C351.478 309.98 350.738 307.28 349.258 304.84C347.818 302.36 345.858 300.4 343.378 298.96C340.938 297.52 338.258 296.8 335.338 296.8ZM392.729 334L384.389 320.8C383.429 320.88 382.649 320.92 382.049 320.92H371.369V334H365.609V292H382.049C387.369 292 391.469 293.24 394.349 295.72C397.269 298.16 398.729 301.64 398.729 306.16C398.729 309.56 397.929 312.42 396.329 314.74C394.769 317.06 392.509 318.74 389.549 319.78L399.329 334H392.729ZM382.049 315.7C385.649 315.7 388.409 314.92 390.329 313.36C392.249 311.76 393.209 309.42 393.209 306.34C393.209 303.34 392.249 301.08 390.329 299.56C388.409 298 385.649 297.22 382.049 297.22H371.369V315.7H382.049ZM422.872 292.6H428.272V302.86L427.372 321.1H423.712L422.872 302.86V292.6ZM425.572 327.64C426.492 327.64 427.252 327.96 427.852 328.6C428.492 329.24 428.812 330.06 428.812 331.06C428.812 332.06 428.492 332.9 427.852 333.58C427.252 334.22 426.492 334.54 425.572 334.54C424.652 334.54 423.872 334.22 423.232 333.58C422.592 332.9 422.272 332.06 422.272 331.06C422.272 330.06 422.592 329.24 423.232 328.6C423.872 327.96 424.652 327.64 425.572 327.64Z" fill="#1C2845"/>
<defs>
<filter id="filter0_dii" x="227.188" y="0" width="164.072" height="195.832" filterUnits="userSpaceOnUse" color-interpolation-filters="sRGB">
<feFlood flood-opacity="0" result="BackgroundImageFix"/>
<feColorMatrix in="SourceAlpha" type="matrix" values="0 0 0 0 0 0 0 0 0 0 0 0 0 0 0 0 0 0 127 0"/>
<feOffset dy="4"/>
<feGaussianBlur stdDeviation="2"/>
<feColorMatrix type="matrix" values="0 0 0 0 0 0 0 0 0 0 0 0 0 0 0 0 0 0 0.25 0"/>
<feBlend mode="normal" in2="BackgroundImageFix" result="effect1_dropShadow"/>
<feBlend mode="normal" in="SourceGraphic" in2="effect1_dropShadow" result="shape"/>
<feColorMatrix in="SourceAlpha" type="matrix" values="0 0 0 0 0 0 0 0 0 0 0 0 0 0 0 0 0 0 127 0" result="hardAlpha"/>
<feOffset dx="-1" dy="1"/>
<feGaussianBlur stdDeviation="1"/>
<feComposite in2="hardAlpha" operator="arithmetic" k2="-1" k3="1"/>
<feColorMatrix type="matrix" values="0 0 0 0 0.470833 0 0 0 0 0.470833 0 0 0 0 0.470833 0 0 0 0.5 0"/>
<feBlend mode="normal" in2="shape" result="effect2_innerShadow"/>
<feColorMatrix in="SourceAlpha" type="matrix" values="0 0 0 0 0 0 0 0 0 0 0 0 0 0 0 0 0 0 127 0" result="hardAlpha"/>
<feOffset dx="3" dy="3"/>
<feGaussianBlur stdDeviation="2.5"/>
<feComposite in2="hardAlpha" operator="arithmetic" k2="-1" k3="1"/>
<feColorMatrix type="matrix" values="0 0 0 0 1 0 0 0 0 1 0 0 0 0 1 0 0 0 1 0"/>
<feBlend mode="normal" in2="effect2_innerShadow" result="effect3_innerShadow"/>
</filter>
<filter id="filter1_d" x="90.0098" y="128.554" width="436.93" height="114.246" filterUnits="userSpaceOnUse" color-interpolation-filters="sRGB">
<feFlood flood-opacity="0" result="BackgroundImageFix"/>
<feColorMatrix in="SourceAlpha" type="matrix" values="0 0 0 0 0 0 0 0 0 0 0 0 0 0 0 0 0 0 127 0"/>
<feOffset dy="4"/>
<feGaussianBlur stdDeviation="5"/>
<feColorMatrix type="matrix" values="0 0 0 0 0 0 0 0 0 0 0 0 0 0 0 0 0 0 0.36 0"/>
<feBlend mode="normal" in2="BackgroundImageFix" result="effect1_dropShadow"/>
<feBlend mode="normal" in="SourceGraphic" in2="effect1_dropShadow" result="shape"/>
</filter>
<linearGradient id="paint0_linear" x1="231.188" y1="-34.238" x2="315.358" y2="148.32" gradientUnits="userSpaceOnUse">
<stop stop-color="#B9B9B9"/>
<stop offset="1" stop-color="#EFEFEF"/>
</linearGradient>
<linearGradient id="paint1_linear" x1="247.169" y1="105.305" x2="468.069" y2="238.144" gradientUnits="userSpaceOnUse">
<stop stop-color="#FF9B00"/>
<stop offset="1" stop-color="#FFC738"/>
</linearGradient>
<linearGradient id="paint2_linear" x1="308.475" y1="134.554" x2="308.475" y2="228.8" gradientUnits="userSpaceOnUse">
<stop stop-color="#FFAD2F"/>
<stop offset="0.46875" stop-color="#FFC12F"/>
<stop offset="1" stop-color="#FFC94B"/>
</linearGradient>
</defs>
</svg>
