<svg width="618" height="318" viewBox="0 0 618 318" fill="none" xmlns="http://www.w3.org/2000/svg">
<path opacity="0.1" d="M618 301.669C618 320.283 479.667 317.901 309.008 317.901C138.349 317.901 0 320.283 0 301.669C0 283.054 138.349 268 309.008 268C479.667 268 618 283.211 618 301.669Z" fill="white"/>
<path d="M492.398 290.041H124.555L124.572 6.55371H492.398V290.041Z" fill="url(#paint0_linear)"/>
<path d="M563.559 82.375L487.877 11.3164L492.396 6.55371L568.026 77.6123L563.559 82.375Z" fill="#FFC130"/>
<path d="M53.426 82.375L129.091 11.3164L124.572 6.55371L48.9414 77.6123L53.426 82.375Z" fill="#FFC130"/>
<g filter="url(#filter0_d)">
<path d="M516.94 100.8H100.01L124.571 6.55371H492.396L516.94 100.8Z" fill="url(#paint1_linear)"/>
</g>
<defs>
<filter id="filter0_d" x="90.0098" y="0.553711" width="436.93" height="114.246" filterUnits="userSpaceOnUse" color-interpolation-filters="sRGB">
<feFlood flood-opacity="0" result="BackgroundImageFix"/>
<feColorMatrix in="SourceAlpha" type="matrix" values="0 0 0 0 0 0 0 0 0 0 0 0 0 0 0 0 0 0 127 0"/>
<feOffset dy="4"/>
<feGaussianBlur stdDeviation="5"/>
<feColorMatrix type="matrix" values="0 0 0 0 0 0 0 0 0 0 0 0 0 0 0 0 0 0 0.36 0"/>
<feBlend mode="normal" in2="BackgroundImageFix" result="effect1_dropShadow"/>
<feBlend mode="normal" in="SourceGraphic" in2="effect1_dropShadow" result="shape"/>
</filter>
<linearGradient id="paint0_linear" x1="247.169" y1="-22.6951" x2="468.069" y2="110.144" gradientUnits="userSpaceOnUse">
<stop stop-color="#FF9B00"/>
<stop offset="1" stop-color="#FFC738"/>
</linearGradient>
<linearGradient id="paint1_linear" x1="308.475" y1="6.55371" x2="308.475" y2="100.8" gradientUnits="userSpaceOnUse">
<stop stop-color="#FFAD2F"/>
<stop offset="0.46875" stop-color="#FFC12F"/>
<stop offset="1" stop-color="#FFC94B"/>
</linearGradient>
</defs>
</svg>
