<svg width="165" height="196" viewBox="0 0 165 196" fill="none" xmlns="http://www.w3.org/2000/svg">
<g filter="url(#filter0_dii)">
<path d="M124.403 0.0347719L124.455 0H9.1875C6.42608 0 4.1875 2.23858 4.1875 5V187.832H160.245V35.877L124.403 0.0347719Z" fill="#F1F2F2"/>
<path d="M124.403 0.0347719L124.455 0H9.1875C6.42608 0 4.1875 2.23858 4.1875 5V187.832H160.245V35.877L124.403 0.0347719Z" fill="url(#paint0_linear)"/>
<path d="M132.381 14.4796H13.1738V16.5307H132.381V14.4796Z" fill="#E6E7E8"/>
<path d="M151.71 32.9568H13.1738V35.0079H151.71V32.9568Z" fill="#E6E7E8"/>
<path d="M151.71 51.4343H13.1738V53.4854H151.71V51.4343Z" fill="#E6E7E8"/>
<path d="M151.71 69.8938H13.1738V71.9449H151.71V69.8938Z" fill="#E6E7E8"/>
<path d="M151.71 88.3715H13.1738V90.4226H151.71V88.3715Z" fill="#E6E7E8"/>
<path d="M151.71 106.849H13.1738V108.9H151.71V106.849Z" fill="#E6E7E8"/>
<path d="M151.71 125.309H13.1738V127.36H151.71V125.309Z" fill="#E6E7E8"/>
<path d="M160.26 35.8945H129.4C126.639 35.8945 124.4 33.6559 124.4 30.8945V0.0349121L160.26 35.8945Z" fill="white"/>
</g>
<path d="M69.6653 66.7305C69.6653 71.0726 68.3778 75.3171 65.9654 78.9274C63.5531 82.5376 60.1244 85.3515 56.1129 87.0132C52.1014 88.6748 47.6872 89.1095 43.4286 88.2624C39.17 87.4154 35.2582 85.3245 32.1879 82.2542C29.1176 79.1839 27.0267 75.2721 26.1797 71.0135C25.3326 66.7549 25.7673 62.3407 27.429 58.3292C29.0906 54.3176 31.9044 50.8889 35.5147 48.4766C39.125 46.0643 43.3695 44.7767 47.7116 44.7767C50.5952 44.7745 53.451 45.3407 56.1156 46.4432C58.7802 47.5457 61.2012 49.1627 63.2403 51.2018C65.2793 53.2408 66.8964 55.6619 67.9989 58.3265C69.1013 60.991 69.6676 63.8469 69.6653 66.7305Z" fill="white"/>
<path d="M64.0157 66.7317C64.0192 69.9537 63.0669 73.1044 61.2793 75.7851C59.4917 78.4658 56.9493 80.5561 53.9735 81.7915C50.9977 83.0269 47.7223 83.3519 44.5618 82.7254C41.4012 82.0989 38.4975 80.5491 36.218 78.272C33.9385 75.9949 32.3855 73.0928 31.7556 69.9329C31.1258 66.7731 31.4473 63.4974 32.6795 60.5203C33.9118 57.5432 35.9994 54.9984 38.6781 53.208C41.3569 51.4176 44.5066 50.4619 47.7286 50.4619C52.0438 50.4665 56.1812 52.1816 59.2341 55.2312C62.2871 58.2809 64.0065 62.4165 64.0157 66.7317Z" fill="#414042"/>
<path d="M48.3707 55.5017C48.3741 56.6026 48.0509 57.6797 47.4418 58.5967C46.8327 59.5137 45.9651 60.2293 44.9491 60.653C43.933 61.0767 42.814 61.1893 41.7339 60.9766C40.6538 60.764 39.6611 60.2356 38.8815 59.4584C38.1018 58.6812 37.5703 57.6901 37.3542 56.6107C37.1382 55.5312 37.2474 54.4119 37.6679 53.3945C38.0883 52.3771 38.8013 51.5074 39.7163 50.8954C40.6314 50.2835 41.7075 49.9568 42.8084 49.9568C44.2806 49.9568 45.6928 50.5404 46.7354 51.5798C47.778 52.6192 48.3661 54.0295 48.3707 55.5017Z" fill="white"/>
<path d="M39.9963 67.0956C39.9963 67.643 39.8337 68.178 39.5293 68.6329C39.2248 69.0878 38.7922 69.442 38.2861 69.6506C37.7801 69.8593 37.2235 69.913 36.687 69.805C36.1504 69.6969 35.6579 69.4319 35.2721 69.0437C34.8863 68.6554 34.6244 68.1613 34.5197 67.6241C34.4151 67.0868 34.4723 66.5306 34.6842 66.0259C34.896 65.5212 35.253 65.0907 35.7097 64.7892C36.1665 64.4876 36.7026 64.3284 37.2499 64.3318C37.9799 64.3364 38.6784 64.6296 39.193 65.1475C39.7075 65.6653 39.9963 66.3656 39.9963 67.0956Z" fill="white"/>
<path d="M47.5552 74.5699C47.5586 75.4068 47.3134 76.2259 46.8506 76.9231C46.3878 77.6204 45.7283 78.1645 44.9557 78.4863C44.1832 78.8082 43.3325 78.8933 42.5115 78.7308C41.6905 78.5684 40.9363 78.1658 40.3446 77.574C39.7528 76.9823 39.3502 76.228 39.1877 75.4071C39.0253 74.5861 39.1104 73.7354 39.4323 72.9629C39.7541 72.1904 40.2982 71.5308 40.9955 71.068C41.6928 70.6052 42.5118 70.36 43.3486 70.3634C44.4643 70.3634 45.5342 70.8066 46.3231 71.5955C47.112 72.3844 47.5552 73.4543 47.5552 74.5699Z" fill="white"/>
<path d="M61.7893 69.3903C56.9222 70.1377 56.3139 70.7461 55.549 75.6131C54.8016 70.7461 54.1932 70.1377 49.3262 69.3903C54.1932 68.6254 54.8016 68.0171 55.549 63.15C56.3139 68.0171 56.9222 68.6254 61.7893 69.3903Z" fill="white"/>
<path d="M140.15 66.7305C140.15 71.0726 138.862 75.3171 136.45 78.9274C134.038 82.5376 130.609 85.3515 126.597 87.0131C122.586 88.6748 118.172 89.1095 113.913 88.2624C109.654 87.4153 105.743 85.3245 102.672 82.2542C99.602 79.1839 97.5111 75.2721 96.664 71.0135C95.8169 66.7549 96.2517 62.3407 97.9133 58.3292C99.575 54.3176 102.389 50.8889 105.999 48.4766C109.609 46.0643 113.854 44.7767 118.196 44.7767C124.018 44.7767 129.603 47.0897 133.72 51.2068C137.837 55.324 140.15 60.908 140.15 66.7305Z" fill="white"/>
<path d="M134.463 66.7306C134.463 69.9485 133.509 73.094 131.721 75.7696C129.934 78.4451 127.393 80.5305 124.42 81.7619C121.447 82.9933 118.176 83.3155 115.02 82.6877C111.864 82.06 108.965 80.5104 106.689 78.2351C104.414 75.9597 102.864 73.0607 102.236 69.9047C101.609 66.7486 101.931 63.4773 103.162 60.5044C104.394 57.5315 106.479 54.9905 109.155 53.2028C111.83 51.415 114.976 50.4608 118.194 50.4608C122.507 50.4654 126.643 52.181 129.693 55.2312C132.743 58.2814 134.459 62.417 134.463 66.7306Z" fill="#414042"/>
<path d="M118.822 55.5017C118.825 56.6033 118.502 57.6811 117.892 58.5985C117.282 59.5159 116.413 60.2315 115.396 60.6547C114.379 61.0778 113.259 61.1895 112.179 60.9754C111.098 60.7613 110.105 60.2312 109.326 59.4522C108.547 58.6733 108.017 57.6806 107.803 56.6C107.589 55.5194 107.701 54.3996 108.124 53.3825C108.547 52.3654 109.263 51.4969 110.18 50.887C111.098 50.2771 112.175 49.9534 113.277 49.9568C114.746 49.9614 116.154 50.5471 117.193 51.5859C118.232 52.6248 118.817 54.0325 118.822 55.5017Z" fill="white"/>
<path d="M110.461 67.0957C110.461 67.6423 110.299 68.1767 109.995 68.6312C109.692 69.0857 109.26 69.4399 108.755 69.6491C108.25 69.8583 107.694 69.913 107.158 69.8064C106.622 69.6997 106.13 69.4365 105.743 69.05C105.357 68.6635 105.093 68.171 104.987 67.6349C104.88 67.0987 104.935 66.5431 105.144 66.038C105.353 65.533 105.707 65.1014 106.162 64.7977C106.616 64.494 107.151 64.3319 107.697 64.3319C108.43 64.3319 109.133 64.6231 109.652 65.1414C110.17 65.6597 110.461 66.3627 110.461 67.0957Z" fill="white"/>
<path d="M118.005 74.5698C118.005 75.4017 117.758 76.215 117.296 76.9068C116.834 77.5985 116.177 78.1377 115.408 78.4561C114.639 78.7745 113.794 78.8578 112.978 78.6955C112.162 78.5332 111.412 78.1325 110.824 77.5442C110.236 76.9559 109.835 76.2064 109.673 75.3904C109.51 74.5745 109.594 73.7287 109.912 72.96C110.23 72.1914 110.77 71.5344 111.461 71.0722C112.153 70.61 112.966 70.3633 113.798 70.3633C114.914 70.3633 115.984 70.8065 116.773 71.5953C117.562 72.3842 118.005 73.4541 118.005 74.5698Z" fill="white"/>
<path d="M132.239 69.3899C127.389 70.1373 126.763 70.7457 126.016 75.6127C125.251 70.7457 124.643 70.1373 119.793 69.3899C124.643 68.6251 125.251 68.0167 126.016 63.1497C126.763 68.0167 127.389 68.6251 132.239 69.3899Z" fill="white"/>
<path d="M111.732 128C110.864 127.996 110.033 127.66 109.42 127.067C108.808 126.474 108.464 125.671 108.464 124.834C108.464 118.327 105.782 112.086 101.006 107.484C96.2306 102.883 89.7536 100.298 83 100.298C76.2464 100.298 69.7695 102.883 64.994 107.484C60.2185 112.086 57.5356 118.327 57.5356 124.834C57.5356 125.67 57.1913 126.47 56.5785 127.061C55.9657 127.652 55.1345 127.983 54.2678 127.983C53.4011 127.983 52.57 127.652 51.9571 127.061C51.3443 126.47 51 125.67 51 124.834C51 116.657 54.3714 108.814 60.3726 103.031C66.3738 97.2486 74.5131 94 83 94C91.4869 94 99.6263 97.2486 105.627 103.031C111.629 108.814 115 116.657 115 124.834C115 125.671 114.656 126.474 114.044 127.067C113.432 127.66 112.6 127.996 111.732 128Z" fill="#414042"/>
<defs>
<filter id="filter0_dii" x="0.1875" y="0" width="164.072" height="195.832" filterUnits="userSpaceOnUse" color-interpolation-filters="sRGB">
<feFlood flood-opacity="0" result="BackgroundImageFix"/>
<feColorMatrix in="SourceAlpha" type="matrix" values="0 0 0 0 0 0 0 0 0 0 0 0 0 0 0 0 0 0 127 0"/>
<feOffset dy="4"/>
<feGaussianBlur stdDeviation="2"/>
<feColorMatrix type="matrix" values="0 0 0 0 0 0 0 0 0 0 0 0 0 0 0 0 0 0 0.25 0"/>
<feBlend mode="normal" in2="BackgroundImageFix" result="effect1_dropShadow"/>
<feBlend mode="normal" in="SourceGraphic" in2="effect1_dropShadow" result="shape"/>
<feColorMatrix in="SourceAlpha" type="matrix" values="0 0 0 0 0 0 0 0 0 0 0 0 0 0 0 0 0 0 127 0" result="hardAlpha"/>
<feOffset dx="-1" dy="1"/>
<feGaussianBlur stdDeviation="1"/>
<feComposite in2="hardAlpha" operator="arithmetic" k2="-1" k3="1"/>
<feColorMatrix type="matrix" values="0 0 0 0 0.470833 0 0 0 0 0.470833 0 0 0 0 0.470833 0 0 0 0.5 0"/>
<feBlend mode="normal" in2="shape" result="effect2_innerShadow"/>
<feColorMatrix in="SourceAlpha" type="matrix" values="0 0 0 0 0 0 0 0 0 0 0 0 0 0 0 0 0 0 127 0" result="hardAlpha"/>
<feOffset dx="3" dy="3"/>
<feGaussianBlur stdDeviation="2.5"/>
<feComposite in2="hardAlpha" operator="arithmetic" k2="-1" k3="1"/>
<feColorMatrix type="matrix" values="0 0 0 0 1 0 0 0 0 1 0 0 0 0 1 0 0 0 1 0"/>
<feBlend mode="normal" in2="effect2_innerShadow" result="effect3_innerShadow"/>
</filter>
<linearGradient id="paint0_linear" x1="4.1875" y1="-34.238" x2="88.3578" y2="148.32" gradientUnits="userSpaceOnUse">
<stop stop-color="#B9B9B9"/>
<stop offset="1" stop-color="#EFEFEF"/>
</linearGradient>
</defs>
</svg>
