<svg width="72" height="72" viewBox="0 0 72 72" fill="none" xmlns="http://www.w3.org/2000/svg">
<g filter="url(#filter0_d)">
<ellipse cx="36" cy="34.5" rx="31" ry="31.5" fill="white"/>
</g>
<circle cx="36" cy="34" r="24.5" stroke="#6AAE3B"/>
<g clip-path="url(#clip0)">
<path d="M35.7089 29.5459C35.3181 29.1628 34.6889 29.1671 34.3038 29.558L31.0699 32.8592L29.7751 31.5881C29.3842 31.2049 28.7551 31.2112 28.372 31.6021C27.9888 31.993 27.9951 32.6221 28.386 33.0052L30.3904 34.9699C30.5849 35.1625 30.8399 35.2572 31.0939 35.2546C31.3479 35.2521 31.601 35.1523 31.7936 34.9578L35.723 30.949C36.1061 30.5581 36.0998 29.929 35.7089 29.5459Z" fill="#454545"/>
<path d="M35.7884 37.4842C35.3975 37.1011 34.7684 37.1054 34.3833 37.4963L31.1494 40.7976L29.8545 39.5284C29.4637 39.1453 28.8346 39.1516 28.4514 39.5424C28.0683 39.9333 28.0746 40.5624 28.4655 40.9455L30.4699 42.9102C30.6644 43.1008 30.9194 43.1955 31.1734 43.193C31.4274 43.1904 31.6805 43.0906 31.873 42.8962L35.8024 38.8873C36.1856 38.4965 36.1793 37.8674 35.7884 37.4842Z" fill="#454545"/>
<path d="M42.9617 31.1663L38.9925 31.206C38.4448 31.2115 38.0047 31.6605 38.0102 32.2082C38.0157 32.756 38.4647 33.1961 39.0124 33.1906L42.9815 33.1509C43.5293 33.1454 43.9694 32.6964 43.9639 32.1486C43.9584 31.6009 43.5094 31.1608 42.9617 31.1663Z" fill="#454545"/>
<path d="M43.0412 39.1045L39.072 39.1442C38.5243 39.1497 38.0842 39.5987 38.0896 40.1465C38.0951 40.6942 38.5441 41.1343 39.0919 41.1288L43.061 41.0891C43.6088 41.0836 44.0489 40.6346 44.0434 40.0869C44.0379 39.5391 43.5889 39.099 43.0412 39.1045Z" fill="#454545"/>
<path d="M45.8392 21.2137L41.87 21.2534L41.8601 20.2611C41.8546 19.7134 41.4056 19.2733 40.8579 19.2788L38.7046 19.3003C38.2822 18.1494 37.1705 17.3309 35.8766 17.3438C34.5826 17.3568 33.4875 18.1974 33.0883 19.3565L30.935 19.3781C30.3872 19.3836 29.9472 19.8325 29.9526 20.3803L29.9626 21.3726L25.9934 21.4123C24.8999 21.4232 24.0178 22.3232 24.0287 23.4167L24.2671 47.2316C24.278 48.3251 25.178 49.2073 26.2715 49.1964L46.1172 48.9977C47.2107 48.9868 48.0929 48.0868 48.082 46.9933L47.8436 23.1784C47.8327 22.0849 46.9327 21.2027 45.8392 21.2137ZM31.9471 21.3527L33.9317 21.3328C34.4795 21.3274 34.9196 20.8784 34.9141 20.3306C34.9086 19.7829 35.3487 19.3339 35.8964 19.3284C36.4442 19.3229 36.8932 19.763 36.8986 20.3108C36.9041 20.8585 37.3531 21.2986 37.9009 21.2931L39.8854 21.2733L39.9053 23.2578L31.967 23.3373L31.9471 21.3527ZM46.0974 47.0131L26.2516 47.2118L26.0133 23.3969L29.9824 23.3571L29.9924 24.3494C29.9978 24.8972 30.4468 25.3373 30.9946 25.3318L40.9175 25.2325C41.4652 25.227 41.9053 24.778 41.8998 24.2303L41.8899 23.238L45.859 23.1982L46.0974 47.0131Z" fill="#454545"/>
</g>
<defs>
<filter id="filter0_d" x="1" y="1" width="70" height="71" filterUnits="userSpaceOnUse" color-interpolation-filters="sRGB">
<feFlood flood-opacity="0" result="BackgroundImageFix"/>
<feColorMatrix in="SourceAlpha" type="matrix" values="0 0 0 0 0 0 0 0 0 0 0 0 0 0 0 0 0 0 127 0"/>
<feOffset dy="2"/>
<feGaussianBlur stdDeviation="2"/>
<feColorMatrix type="matrix" values="0 0 0 0 0 0 0 0 0 0 0 0 0 0 0 0 0 0 0.25 0"/>
<feBlend mode="normal" in2="BackgroundImageFix" result="effect1_dropShadow"/>
<feBlend mode="normal" in="SourceGraphic" in2="effect1_dropShadow" result="shape"/>
</filter>
<clipPath id="clip0">
<rect width="31.7548" height="31.7548" fill="white" transform="translate(20 17.5027) rotate(-0.57343)"/>
</clipPath>
</defs>
</svg>
