<svg width="72" height="72" viewBox="0 0 72 72" fill="none" xmlns="http://www.w3.org/2000/svg">
<g filter="url(#filter0_d)">
<ellipse cx="36" cy="34.5" rx="31" ry="31.5" fill="white"/>
</g>
<circle cx="36" cy="34" r="24.5" stroke="#6AAE3B"/>
<path d="M47.3418 24.9741H47.0174C46.8257 24.3007 46.5578 23.6546 46.2173 23.0437L46.4479 22.8131C46.7117 22.5494 46.8569 22.1977 46.8569 21.8228C46.8569 21.4479 46.7117 21.0963 46.4477 20.8323L44.9115 19.2979C44.6477 19.0324 44.2955 18.8863 43.9199 18.8863C43.5444 18.8863 43.1922 19.0324 42.9297 19.2966L42.6994 19.5269C42.0881 19.1853 41.4417 18.917 40.7688 18.7253V18.401C40.7688 17.6285 40.1404 17 39.3679 17H37.1959C36.4234 17 35.7949 17.6285 35.7949 18.401V18.7253C35.1221 18.9169 34.4754 19.1853 33.8628 19.5271L33.6336 19.2979C33.3696 19.0324 33.0175 18.8863 32.642 18.8864C32.2664 18.8864 31.9143 19.0326 31.6518 19.2966L30.1159 20.8326C29.8521 21.0963 29.7069 21.4479 29.7069 21.8229C29.7069 22.1978 29.8521 22.5494 30.1158 22.8131L30.3463 23.0437C30.0044 23.6564 29.7364 24.3026 29.5457 24.9741H29.2202C28.4477 24.9741 27.8192 25.6026 27.8192 26.3751V28.5489C27.8192 29.3214 28.4477 29.9499 29.2202 29.9499H29.5457C29.7364 30.6213 30.0044 31.2675 30.3463 31.8803L30.1158 32.1109C29.852 32.3745 29.7069 32.7262 29.7069 33.1012C29.7069 33.476 29.852 33.8277 30.1158 34.0914L31.6505 35.6261C31.9143 35.8915 32.2663 36.0376 32.6419 36.0376H32.642C33.0175 36.0376 33.3697 35.8915 33.6323 35.6274L33.8627 35.3968C34.4759 35.739 35.1227 36.007 35.7949 36.1976V36.5231C35.7949 37.2955 36.4234 37.924 37.1958 37.924H39.3678C40.1403 37.924 40.7688 37.2955 40.7688 36.5231V36.1976C41.4412 36.007 42.0874 35.739 42.6994 35.3971L42.9284 35.6261C43.1922 35.8915 43.5443 36.0376 43.9199 36.0376C44.2955 36.0376 44.6477 35.8915 44.9099 35.6276L46.4479 34.0914C46.7116 33.8276 46.8568 33.476 46.8568 33.1011C46.8568 32.7262 46.7116 32.3745 46.4479 32.1109L46.2172 31.8802C46.5577 31.2694 46.8255 30.6233 47.0173 29.9499H47.3417C48.1142 29.9499 48.7427 29.3214 48.7427 28.5489V26.3751C48.7427 25.6026 48.1143 24.9741 47.3418 24.9741ZM39.5189 36.523C39.5189 36.6049 39.4497 36.674 39.3679 36.674H37.1959C37.114 36.674 37.0449 36.6049 37.0449 36.523V35.7116V31.7715C37.0449 31.5101 36.8823 31.2764 36.6373 31.1855C34.9578 30.5627 33.8295 28.9463 33.8295 27.1635C33.8295 25.7506 34.533 24.4261 35.7111 23.6208C35.764 23.5847 35.8108 23.5552 35.8516 23.531C35.8494 23.6123 35.8436 23.6895 35.8406 23.7298C35.8359 23.7933 35.8321 23.8433 35.8321 23.893V26.8427C35.8321 28.1967 36.89 29.3274 38.2404 29.4169C38.268 29.4187 38.2956 29.4187 38.3232 29.4169C39.6727 29.3274 40.7298 28.1967 40.7298 26.8427V23.893C40.7298 23.8436 40.7261 23.7938 40.7214 23.7308C40.7184 23.6903 40.7127 23.6126 40.7105 23.531C40.7513 23.5551 40.7978 23.5845 40.8504 23.6206C42.0289 24.4261 42.7324 25.7505 42.7324 27.1634C42.7324 28.9461 41.6047 30.5625 39.9262 31.1855C39.6813 31.2764 39.5187 31.5101 39.5187 31.7714V35.7115V36.523H39.5189ZM47.4928 28.5489C47.4928 28.6293 47.4222 28.6999 47.3418 28.6999H46.5322C46.2402 28.6999 45.9871 28.9021 45.9226 29.1869C45.7247 30.0614 45.3819 30.8884 44.9037 31.6448C44.7476 31.8918 44.7835 32.2141 44.9901 32.4207L45.5641 32.9947C45.6014 33.032 45.6069 33.0773 45.6069 33.1011C45.6069 33.1248 45.6014 33.1702 45.5643 33.2072L44.025 34.7448C43.9899 34.7802 43.9484 34.7876 43.9199 34.7876C43.8915 34.7876 43.8501 34.7802 43.8136 34.7434L43.2396 34.1694C43.0326 33.9625 42.7101 33.9269 42.4631 34.0834C41.9296 34.4214 41.3617 34.6897 40.7688 34.8879V32.1872C42.7078 31.2848 43.9825 29.3184 43.9825 27.1634C43.9825 25.3373 43.0753 23.6271 41.556 22.5886C41.3232 22.4295 40.6154 21.9456 39.9964 22.3019C39.3885 22.6519 39.4491 23.4723 39.4749 23.8227C39.4772 23.8531 39.4794 23.8787 39.4799 23.893V26.8427C39.4799 27.5269 38.957 28.1004 38.2819 28.1663C37.6058 28.1003 37.0822 27.5268 37.0822 26.8427L37.0821 23.8975C37.0827 23.8787 37.0849 23.8531 37.0872 23.8226C37.1132 23.4724 37.1743 22.6524 36.5669 22.3022C35.9481 21.9453 35.2393 22.4294 35.0061 22.5886C33.4866 23.6272 32.5795 25.3374 32.5795 27.1634C32.5795 29.3188 33.8549 31.2853 35.7949 32.1874V34.888C35.2019 34.6897 34.6334 34.4214 34.0983 34.0831C33.9954 34.0181 33.8797 33.9864 33.7645 33.9864C33.6031 33.9864 33.4429 34.0489 33.3224 34.1695L32.7472 34.7448C32.712 34.7802 32.6705 34.7877 32.642 34.7877C32.6135 34.7877 32.5722 34.7802 32.5357 34.7435L30.9998 33.2075C30.9624 33.1703 30.9569 33.1248 30.9569 33.1012C30.9569 33.0774 30.9624 33.032 30.9998 32.9947L31.5737 32.4207C31.7804 32.2141 31.8162 31.8918 31.6601 31.6448C31.1795 30.8844 30.8368 30.0578 30.6415 29.1879C30.5775 28.9026 30.3241 28.6998 30.0317 28.6998H29.2203C29.1399 28.6998 29.0693 28.6293 29.0693 28.5488V26.375C29.0693 26.2931 29.1384 26.224 29.2203 26.224H30.0317C30.3241 26.224 30.5774 26.0212 30.6415 25.7359C30.8368 24.866 31.1794 24.0394 31.6601 23.279C31.8162 23.032 31.7804 22.7098 31.5737 22.5032L30.9997 21.9291C30.9624 21.8919 30.9569 21.8465 30.9569 21.8228C30.9569 21.799 30.9624 21.7536 30.9998 21.7163L32.537 20.179C32.5722 20.1436 32.6136 20.1362 32.6421 20.1362C32.6706 20.1362 32.712 20.1436 32.7485 20.1803L33.3224 20.7543C33.5292 20.961 33.8514 20.9968 34.0984 20.8407C34.8578 20.3606 35.6853 20.0172 36.5577 19.8201C36.8427 19.7557 37.045 19.5026 37.045 19.2105V18.401C37.045 18.3191 37.1142 18.25 37.196 18.25H39.368C39.4499 18.25 39.519 18.3191 39.519 18.401V19.2106C39.519 19.5027 39.7213 19.7559 40.0062 19.8202C40.8794 20.0175 41.706 20.3607 42.4632 20.8405C42.7103 20.997 43.0328 20.9614 43.2397 20.7545L43.815 20.1792C43.8502 20.1438 43.8916 20.1364 43.9201 20.1364C43.9486 20.1364 43.9899 20.1438 44.0267 20.1807L45.5643 21.7165C45.6015 21.7538 45.6071 21.7991 45.6071 21.8229C45.6071 21.8466 45.6015 21.892 45.5642 21.9293L44.9902 22.5034C44.7836 22.71 44.7477 23.0322 44.9038 23.2792C45.382 24.0356 45.7248 24.8626 45.9228 25.7372C45.9872 26.022 46.2403 26.2241 46.5323 26.2241H47.3419C47.4238 26.2241 47.4929 26.2933 47.4929 26.3751V28.5489H47.4928Z" fill="#454545"/>
<path d="M44.8188 38.4651L39.857 41.0132C39.4364 40.5776 38.847 40.3058 38.1951 40.3058H34.7954C34.6051 40.3058 34.5586 40.2907 34.5554 40.2896C34.5279 40.2751 34.4408 40.1933 34.3708 40.1275L34.3398 40.0984C31.5894 37.5093 29.266 37.6733 26.6239 38.716C26.1964 38.8848 26.1882 38.8852 25.7589 38.9035L24.9901 38.904C24.7711 38.2434 24.1479 37.7653 23.4147 37.7653H20.915C20.0009 37.7653 19.2572 38.5098 19.2572 39.4249V45.9853C19.2572 46.8994 20.0009 47.6431 20.915 47.6431H23.4147C24.1478 47.6431 24.771 47.1656 24.9901 46.5057H26.3963C26.5205 46.5057 26.5205 46.5057 26.6649 46.5464C26.7174 46.5612 26.7813 46.5792 26.8638 46.6014L33.332 48.3319C33.6171 48.4089 33.8786 48.4847 34.1315 48.5579C34.9602 48.798 35.6569 48.9999 36.3829 48.9999C37.2035 48.9999 38.0615 48.742 39.1901 47.9899C39.1955 47.9863 39.2009 47.9826 39.2063 47.9788L40.4412 47.0982C40.7222 46.8978 40.7876 46.5075 40.5872 46.2265C40.3867 45.9454 39.9964 45.8801 39.7155 46.0805L38.4888 46.9552C36.8511 48.0444 36.1557 47.8431 34.4794 47.3573C34.2211 47.2825 33.9541 47.2051 33.6566 47.1248L27.1879 45.3943C27.1121 45.3739 27.0527 45.3571 27.0039 45.3434C26.7679 45.2769 26.6797 45.2559 26.3963 45.2559H25.0744V40.1545H25.7498C25.7588 40.1545 25.7677 40.1543 25.7767 40.1539L25.8123 40.1525C26.3362 40.1301 26.4828 40.1158 27.0829 39.8788C29.4034 38.9631 31.1946 38.8543 33.4839 41.0094L33.5148 41.0385C33.9061 41.4062 34.1314 41.5559 34.7955 41.5559H38.1952C38.5942 41.5559 38.9421 41.7774 39.1234 42.1037C39.1254 42.1073 39.1276 42.1108 39.1296 42.1144C39.2106 42.2642 39.2568 42.4356 39.2568 42.6176C39.2568 43.202 38.7806 43.6774 38.1952 43.6774H32.6856C32.3404 43.6774 32.0606 43.9572 32.0606 44.3024C32.0606 44.6476 32.3404 44.9274 32.6856 44.9274H38.1952C39.4698 44.9274 40.5067 43.8912 40.5067 42.6176C40.5067 42.4445 40.487 42.276 40.4507 42.1137L45.3899 39.5772C45.8573 39.3372 46.4966 39.3629 46.8139 39.8779C47.0947 40.3318 46.9403 40.9352 46.455 41.2812L39.7155 46.0805C39.4343 46.2807 37.5645 47.7776 37.7647 48.0588C37.8867 48.23 39.6471 46.647 39.7155 46.0805C39.8409 46.0805 40.3968 47.1227 40.5067 47.0445L47.1802 42.2992C48.2093 41.5655 48.5088 40.2419 47.8775 39.2213C47.2566 38.2137 45.9418 37.8886 44.8188 38.4651ZM23.8243 45.9853C23.8243 46.2064 23.6368 46.3932 23.4147 46.3932H20.915C20.6939 46.3932 20.5072 46.2064 20.5072 45.9853V39.425C20.5072 39.1991 20.6902 39.0153 20.915 39.0153H23.4147C23.6368 39.0153 23.8243 39.2028 23.8243 39.425V45.9853Z" fill="#454545"/>
<defs>
<filter id="filter0_d" x="1" y="1" width="70" height="71" filterUnits="userSpaceOnUse" color-interpolation-filters="sRGB">
<feFlood flood-opacity="0" result="BackgroundImageFix"/>
<feColorMatrix in="SourceAlpha" type="matrix" values="0 0 0 0 0 0 0 0 0 0 0 0 0 0 0 0 0 0 127 0"/>
<feOffset dy="2"/>
<feGaussianBlur stdDeviation="2"/>
<feColorMatrix type="matrix" values="0 0 0 0 0 0 0 0 0 0 0 0 0 0 0 0 0 0 0.25 0"/>
<feBlend mode="normal" in2="BackgroundImageFix" result="effect1_dropShadow"/>
<feBlend mode="normal" in="SourceGraphic" in2="effect1_dropShadow" result="shape"/>
</filter>
</defs>
</svg>
