<svg width="72" height="72" viewBox="0 0 72 72" fill="none" xmlns="http://www.w3.org/2000/svg">
<g filter="url(#filter0_d)">
<ellipse cx="36" cy="34.5" rx="31" ry="31.5" fill="white"/>
</g>
<circle cx="36" cy="34" r="24.5" stroke="#6AAE3B"/>
<g clip-path="url(#clip0)">
<path d="M52.4866 29.947L51.0194 28.4797C50.334 27.7943 49.2188 27.7944 48.5334 28.4797L45.4429 31.5702V21.6367C45.4429 20.1828 44.26 19 42.8062 19H25.6382C24.1843 19 23.0015 20.1828 23.0015 21.6367V46.3633C23.0015 47.8172 24.1843 49 25.6382 49H42.8062C44.26 49 45.4429 47.8172 45.4429 46.3633V39.3887L52.4866 32.4329C53.172 31.7475 53.172 30.6323 52.4866 29.947ZM41.9749 40.3428L39.3311 41.5767L40.5637 38.9354L47.1247 32.3744L48.5754 33.8249L41.9749 40.3428ZM43.6851 46.3633C43.6851 46.8479 43.2908 47.2422 42.8062 47.2422H25.6382C25.1536 47.2422 24.7593 46.8479 24.7593 46.3633V21.6367C24.7593 21.1521 25.1536 20.7578 25.6382 20.7578H42.8062C43.2908 20.7578 43.6851 21.1521 43.6851 21.6367V33.328C38.8113 38.2018 39.1296 37.8517 39.0362 38.0516L36.716 43.0236C36.5598 43.3585 36.6297 43.7554 36.891 44.0167C37.1523 44.2781 37.5494 44.3479 37.8842 44.1917L42.8561 41.8714C43.0384 41.7863 43.0684 41.7335 43.6851 41.1245V46.3633ZM49.826 32.5898L48.3676 31.1314L49.7764 29.7227L51.2432 31.1904L49.826 32.5898Z" fill="#454545"/>
<path d="M27.688 26.4414H40.813C41.2984 26.4414 41.6919 26.0479 41.6919 25.5625C41.6919 25.0771 41.2984 24.6836 40.813 24.6836H27.688C27.2026 24.6836 26.8091 25.0771 26.8091 25.5625C26.8091 26.0479 27.2026 26.4414 27.688 26.4414Z" fill="#454545"/>
<path d="M27.688 31.1289H38.0005C38.4859 31.1289 38.8794 30.7354 38.8794 30.25C38.8794 29.7646 38.4859 29.3711 38.0005 29.3711H27.688C27.2026 29.3711 26.8091 29.7646 26.8091 30.25C26.8091 30.7354 27.2026 31.1289 27.688 31.1289Z" fill="#454545"/>
<path d="M35.188 34.0586H27.688C27.2026 34.0586 26.8091 34.4521 26.8091 34.9375C26.8091 35.4229 27.2026 35.8164 27.688 35.8164H35.188C35.6734 35.8164 36.0669 35.4229 36.0669 34.9375C36.0669 34.4521 35.6734 34.0586 35.188 34.0586Z" fill="#454545"/>
</g>
<defs>
<filter id="filter0_d" x="1" y="1" width="70" height="71" filterUnits="userSpaceOnUse" color-interpolation-filters="sRGB">
<feFlood flood-opacity="0" result="BackgroundImageFix"/>
<feColorMatrix in="SourceAlpha" type="matrix" values="0 0 0 0 0 0 0 0 0 0 0 0 0 0 0 0 0 0 127 0"/>
<feOffset dy="2"/>
<feGaussianBlur stdDeviation="2"/>
<feColorMatrix type="matrix" values="0 0 0 0 0 0 0 0 0 0 0 0 0 0 0 0 0 0 0.25 0"/>
<feBlend mode="normal" in2="BackgroundImageFix" result="effect1_dropShadow"/>
<feBlend mode="normal" in="SourceGraphic" in2="effect1_dropShadow" result="shape"/>
</filter>
<clipPath id="clip0">
<rect width="30" height="30" fill="white" transform="translate(23 19)"/>
</clipPath>
</defs>
</svg>
