<svg width="72" height="72" viewBox="0 0 72 72" fill="none" xmlns="http://www.w3.org/2000/svg">
<g filter="url(#filter0_d)">
<ellipse cx="36" cy="34.5" rx="31" ry="31.5" fill="white"/>
</g>
<circle cx="36" cy="34" r="24.5" stroke="#6AAE3B"/>
<g clip-path="url(#clip0)">
<path d="M46.5924 48.6129L45.3229 44.8038C44.8792 43.474 43.7474 42.4924 42.3676 42.2412L38.7028 41.5744V41.2903C39.3405 40.9201 39.8955 40.425 40.3375 39.8387H41.4447C42.3517 39.8387 43.0899 39.1006 43.0899 38.1936V31.6129C43.0899 27.6821 39.8917 24.4839 35.9608 24.4839C32.03 24.4839 28.8318 27.6821 28.8318 31.6129V35.4516C28.8318 36.5089 29.5836 37.3935 30.5806 37.5997C30.8882 39.1757 31.8731 40.5094 33.2189 41.2903V41.5744L29.5535 42.2412C28.1743 42.4924 27.0419 43.474 26.5988 44.8038L26.3794 45.4624L24.5116 43.5946C24.2977 43.3808 24.2977 43.0325 24.5116 42.8187L26.6777 40.6531L22.612 36.5873L20.164 39.0353C19.439 39.7603 19.0398 40.7244 19.0398 41.7499C19.0398 42.7753 19.439 43.7389 20.164 44.4638L27.5754 51.8753C28.3004 52.6002 29.2645 53 30.29 53C31.3154 53 32.279 52.6002 32.9869 51.8917L35.6581 49.4443L34.8251 48.6129H46.5924ZM41.9931 38.1936C41.9931 38.4963 41.7469 38.742 41.4447 38.742H40.9835C41.1425 38.3795 41.2632 37.9972 41.3411 37.5997C41.5758 37.5509 41.7918 37.4576 41.9931 37.3403V38.1936ZM41.4447 36.396V34.5073C41.771 34.6976 41.9931 35.0475 41.9931 35.4516C41.9931 35.8558 41.771 36.2057 41.4447 36.396ZM30.477 36.396C30.1507 36.2057 29.9286 35.8558 29.9286 35.4516C29.9286 35.0475 30.1507 34.6976 30.477 34.5073V36.396ZM30.477 32.7097V33.336C30.2817 33.387 30.0986 33.4637 29.9286 33.563V31.6129C29.9286 28.287 32.6349 25.5807 35.9608 25.5807C39.2868 25.5807 41.9931 28.287 41.9931 31.6129V33.563C41.8231 33.4637 41.6399 33.3864 41.4447 33.336V32.7097H40.8963C39.2747 32.7097 37.7502 32.078 36.603 30.9313L35.9608 30.2891L35.3187 30.9313C34.1714 32.078 32.6469 32.7097 31.0253 32.7097H30.477ZM31.5737 36.5484V33.7856C33.2205 33.6617 34.756 32.9822 35.9608 31.8367C37.1656 32.9822 38.7011 33.6622 40.3479 33.7856V36.5484C40.3479 37.348 40.1297 38.096 39.7546 38.742H35.9608V39.8387H38.853C38.0798 40.5193 37.0691 40.9355 35.9608 40.9355C33.5419 40.9355 31.5737 38.9673 31.5737 36.5484ZM37.606 41.7795V41.8052L35.9608 43.4504L34.3157 41.8052V41.7795C34.8355 41.9429 35.3878 42.0323 35.9608 42.0323C36.5339 42.0323 37.0861 41.9429 37.606 41.7795ZM27.6385 45.1504C27.9549 44.2006 28.7638 43.4992 29.7492 43.3193L33.5825 42.6229L35.9608 45.0012L38.3386 42.6234L42.1713 43.3199C43.1568 43.4998 43.9656 44.2006 44.2821 45.151L45.0712 47.5161H33.7283L31.5924 45.3802L29.219 47.5271C29.0122 47.735 28.6508 47.735 28.4435 47.5271L27.2459 46.3294L27.6385 45.1504ZM22.6114 38.1382L25.1263 40.6531L24.5308 41.2486L22.0159 38.7337L22.6114 38.1382ZM32.2274 51.101C31.7097 51.6175 31.021 51.9032 30.2889 51.9032C29.5568 51.9032 28.868 51.6175 28.3498 51.0999L20.9383 43.689C20.4206 43.1713 20.1355 42.4825 20.1355 41.7504C20.1355 41.0178 20.4206 40.329 20.9383 39.8113L21.2399 39.5097L23.7548 42.0246L23.7351 42.0443C23.094 42.686 23.094 43.7295 23.7351 44.3711L27.6676 48.3036C27.9785 48.614 28.3914 48.7857 28.8312 48.7857C29.2711 48.7857 29.684 48.6146 29.9746 48.3228L30.0158 48.2861L32.5422 50.8125L32.2274 51.101ZM33.3516 50.07L30.8307 47.5491L31.5551 46.8943L34.0716 49.4108L33.3516 50.07Z" fill="#454545"/>
<path d="M51.3156 19H43.6382C42.7312 19 41.993 19.7381 41.993 20.6452V25.0323C41.993 25.9393 42.7312 26.6774 43.6382 26.6774H45.1029L44.5359 29.9847L49.8279 26.6774H51.3156C52.2227 26.6774 52.9608 25.9393 52.9608 25.0323V20.6452C52.9608 19.7381 52.2227 19 51.3156 19ZM51.864 25.0323C51.864 25.3344 51.6178 25.5806 51.3156 25.5806H49.5131L46.0303 27.7572L46.4037 25.5806H43.6382C43.336 25.5806 43.0898 25.3344 43.0898 25.0323V20.6452C43.0898 20.343 43.336 20.0968 43.6382 20.0968H51.3156C51.6178 20.0968 51.864 20.343 51.864 20.6452V25.0323Z" fill="#454545"/>
<path d="M50.7673 21.1936H44.1866V22.2904H50.7673V21.1936Z" fill="#454545"/>
<path d="M48.5737 23.3871H44.1866V24.4839H48.5737V23.3871Z" fill="#454545"/>
<path d="M50.7672 23.3871H49.6705V24.4839H50.7672V23.3871Z" fill="#454545"/>
<path d="M34.9216 19C27.7564 19 21.5843 23.9563 19.9797 30.8698L18.9405 29.1375L18 29.7018L19.9276 32.9137L23.1395 30.9861L22.5752 30.0456L21.0891 30.9373C22.6432 24.6127 28.3305 20.0968 34.9216 20.0968C36.3622 20.0968 37.7836 20.3106 39.1464 20.7329L39.471 19.6855C38.003 19.2303 36.4724 19 34.9216 19Z" fill="#454545"/>
<path d="M52.6555 31.9276L49.4436 30L47.5166 33.2125L48.4571 33.7767L49.4167 32.1771C49.9218 33.655 50.1801 35.2009 50.1801 36.7852C50.1801 40.0465 49.0504 43.2348 47 45.7623L47.8516 46.4533C50.0605 43.7311 51.2769 40.2971 51.2769 36.7852C51.2769 35.1077 51.0065 33.4696 50.4795 31.9013L52.0912 32.8681L52.6555 31.9276Z" fill="#454545"/>
</g>
<defs>
<filter id="filter0_d" x="1" y="1" width="70" height="71" filterUnits="userSpaceOnUse" color-interpolation-filters="sRGB">
<feFlood flood-opacity="0" result="BackgroundImageFix"/>
<feColorMatrix in="SourceAlpha" type="matrix" values="0 0 0 0 0 0 0 0 0 0 0 0 0 0 0 0 0 0 127 0"/>
<feOffset dy="2"/>
<feGaussianBlur stdDeviation="2"/>
<feColorMatrix type="matrix" values="0 0 0 0 0 0 0 0 0 0 0 0 0 0 0 0 0 0 0.25 0"/>
<feBlend mode="normal" in2="BackgroundImageFix" result="effect1_dropShadow"/>
<feBlend mode="normal" in="SourceGraphic" in2="effect1_dropShadow" result="shape"/>
</filter>
<clipPath id="clip0">
<rect width="34" height="34" fill="white" transform="translate(19 19)"/>
</clipPath>
</defs>
</svg>
