<svg width="72" height="72" viewBox="0 0 72 72" fill="none" xmlns="http://www.w3.org/2000/svg">
<g filter="url(#filter0_d)">
<ellipse cx="36" cy="34.5" rx="31" ry="31.5" fill="white"/>
</g>
<circle cx="36" cy="34" r="24.5" stroke="#6AAE3B"/>
<path fill-rule="evenodd" clip-rule="evenodd" d="M35.7528 19.1191C35.37 19.2536 35.0942 19.4283 33.6387 20.4589C33.0462 20.8784 32.3051 21.3981 31.9916 21.6138L31.4218 22.0059L30.7278 21.9846C29.2904 21.9404 28.2278 22.2813 27.4725 23.0291C27.0077 23.4894 26.6063 24.3301 26.5425 24.9775L26.492 25.4888L24.7923 26.6868C23.8575 27.3458 22.9903 27.9798 22.8652 28.0958C22.7401 28.2117 22.4942 28.5925 22.3188 28.9419L22 29.5771V37.5343V45.4916L22.2685 46.0444C22.5568 46.6381 23.085 47.2117 23.6413 47.5355C24.4686 48.0171 24.0155 48.0008 36.5092 47.9997C48.794 47.9986 48.388 48.012 49.2449 47.5806C49.7819 47.3103 50.3884 46.6809 50.685 46.0858L50.939 45.5766L50.9822 41.1537C51.0059 38.7211 51.0059 35.1031 50.9822 33.1138L50.939 29.4968L50.6582 28.9356C50.3088 28.2371 50.0092 27.9646 48.1736 26.6754C47.3665 26.1085 46.6374 25.5938 46.5536 25.5314C46.4579 25.4605 46.3678 25.2148 46.3119 24.873C46.1938 24.1503 45.8514 23.4846 45.3406 22.9843C44.6008 22.2596 43.7172 21.9755 42.1997 21.9741L41.4942 21.9734L39.5649 20.6136C37.5789 19.2139 37.1492 18.9925 36.4322 19.0002C36.2389 19.0022 35.9331 19.0557 35.7528 19.1191ZM37.1749 21.2921C37.8867 21.769 38.1108 21.9344 38.1108 21.9828C38.1108 22.0011 37.3722 22.016 36.4695 22.016C35.5668 22.016 34.8287 21.9968 34.8293 21.9734C34.8298 21.95 34.9562 21.8476 35.11 21.7459C35.2638 21.6442 35.6184 21.405 35.8981 21.2143C36.1777 21.0237 36.4368 20.8677 36.4739 20.8677C36.511 20.8677 36.8265 21.0587 37.1749 21.2921ZM43.6097 24.0693C43.774 24.146 44.0131 24.3439 44.141 24.5091L44.3737 24.8094L44.3978 28.6501L44.4219 32.4908L43.7067 33.0456C43.3134 33.3508 41.5895 34.7094 39.8757 36.0649C38.162 37.4205 36.6891 38.5562 36.6025 38.5889C36.3955 38.6671 36.4954 38.7388 33.3596 36.2628C31.863 35.081 30.1436 33.7268 29.5387 33.2534L28.439 32.3928L28.4387 28.6929C28.4385 25.0106 28.4395 24.9913 28.6332 24.6544C28.7424 24.4646 28.979 24.2318 29.1717 24.1242L29.5155 23.9325L36.4133 23.9311C42.6305 23.9299 43.3405 23.9435 43.6097 24.0693ZM30.8817 25.245C30.1644 25.5522 30.1767 26.6581 30.9006 26.956C31.3319 27.1334 41.5156 27.1355 41.9464 26.9582C42.3179 26.8054 42.5168 26.5205 42.5152 26.1435C42.5134 25.7223 42.3476 25.4426 41.9969 25.2695C41.7199 25.1327 41.2746 25.121 36.4263 25.124C32.1315 25.1266 31.1059 25.149 30.8817 25.245ZM48.4166 29.2021C48.4547 29.2356 48.0174 29.6333 47.4448 30.0859L46.4038 30.9086V29.3352V27.7616L47.3756 28.4514C47.9102 28.8308 48.3786 29.1686 48.4166 29.2021ZM26.5352 29.3216C26.5352 30.083 26.5129 30.7279 26.4856 30.7547C26.4584 30.7815 25.9965 30.4543 25.4592 30.0275L24.4823 29.2515L25.1848 28.7494C25.5712 28.4732 26.0039 28.1603 26.1465 28.0539C26.289 27.9476 26.4348 27.878 26.4704 27.8991C26.506 27.9202 26.5352 28.5603 26.5352 29.3216ZM30.834 28.1445C30.2025 28.4847 30.1869 29.5031 30.8089 29.782C30.9769 29.8574 32.4453 29.8836 36.4952 29.8833L41.9549 29.8828L42.2036 29.6869C42.4027 29.53 42.4606 29.4055 42.4942 29.0616C42.5319 28.6746 42.5101 28.6036 42.2742 28.3436L42.0124 28.055L36.5414 28.0361C31.8205 28.0198 31.038 28.0346 30.834 28.1445ZM30.6615 31.1526C30.4118 31.3722 30.3793 31.4514 30.3793 31.84C30.3793 32.2286 30.4118 32.3078 30.6615 32.5274L30.9436 32.7756H36.4363H41.929L42.2227 32.4864C42.4508 32.2619 42.5164 32.127 42.5164 31.8828C42.5164 31.5044 42.3039 31.1227 42.023 30.9966C41.882 30.9334 40.1056 30.9044 36.3804 30.9044H30.9436L30.6615 31.1526ZM25.4178 32.444C26.1574 33.024 28.6541 34.9913 30.9659 36.8158C33.8424 39.0858 35.3132 40.1926 35.6251 40.3217C36.1618 40.5441 36.6207 40.5634 37.2177 40.3888C37.6715 40.2562 37.3555 40.4982 46.015 33.6503L49.0385 31.2594L49.0631 37.9927C49.0766 41.6961 49.0654 44.8493 49.0381 45C48.9778 45.3327 48.6384 45.7465 48.2724 45.9336C48.0278 46.0586 46.9393 46.0751 36.9014 46.1053C30.7962 46.1238 25.5776 46.1138 25.3045 46.0833C24.6819 46.0137 24.3029 45.771 24.0516 45.2815L23.8573 44.9026V38.0632C23.8573 32.6042 23.879 31.2405 23.9653 31.3066C24.0247 31.3521 24.6783 31.864 25.4178 32.444Z" fill="#44464B"/>
<defs>
<filter id="filter0_d" x="1" y="1" width="70" height="71" filterUnits="userSpaceOnUse" color-interpolation-filters="sRGB">
<feFlood flood-opacity="0" result="BackgroundImageFix"/>
<feColorMatrix in="SourceAlpha" type="matrix" values="0 0 0 0 0 0 0 0 0 0 0 0 0 0 0 0 0 0 127 0"/>
<feOffset dy="2"/>
<feGaussianBlur stdDeviation="2"/>
<feColorMatrix type="matrix" values="0 0 0 0 0 0 0 0 0 0 0 0 0 0 0 0 0 0 0.25 0"/>
<feBlend mode="normal" in2="BackgroundImageFix" result="effect1_dropShadow"/>
<feBlend mode="normal" in="SourceGraphic" in2="effect1_dropShadow" result="shape"/>
</filter>
</defs>
</svg>
