<svg width="72" height="72" viewBox="0 0 72 72" fill="none" xmlns="http://www.w3.org/2000/svg">
<g filter="url(#filter0_d)">
<ellipse cx="36" cy="34.5" rx="31" ry="31.5" fill="white"/>
</g>
<circle cx="36" cy="34" r="24.5" stroke="#6AAE3B"/>
<g clip-path="url(#clip0)">
<path d="M50.8286 36.2714V35.768H51.8352V36.7748H51.3319C51.0545 36.7748 50.8286 36.5489 50.8286 36.2714ZM50.7009 32.276L49.8595 28.9101C50.0943 28.8178 50.2607 28.5893 50.2607 28.3216V27.7537C50.2607 26.4656 49.2129 25.4178 47.9248 25.4178H44.0144V24.3466C44.0144 23.6846 43.4761 23.1463 42.8142 23.1463H22.3716C21.7097 23.1463 21.1714 23.6846 21.1714 24.3466V34C21.1714 34.3492 21.4545 34.6324 21.8037 34.6324C22.1529 34.6324 22.4361 34.3493 22.4361 34V24.4111H42.7496V34.0002C42.7496 34.3494 43.0327 34.6325 43.382 34.6325C43.7312 34.6325 44.0144 34.3495 44.0144 34.0002V33.4967H50.1905C50.1921 33.4967 50.1939 33.4968 50.1957 33.4968C50.197 33.4968 50.1983 33.4968 50.1994 33.4967C50.8774 33.4981 51.4602 33.9135 51.7079 34.5034H50.1961C49.8469 34.5034 49.5637 34.7865 49.5637 35.1358V36.2715C49.5637 37.2465 50.3568 38.0395 51.3318 38.0395H51.8352V40.1819H50.6136C50.124 38.8577 48.8497 37.9104 47.3569 37.9104C45.8641 37.9104 44.5896 38.8577 44.1001 40.1819H44.0142V36.2714C44.0142 35.9222 43.7311 35.639 43.3819 35.639C43.0326 35.639 42.7495 35.9221 42.7495 36.2714V40.1817H31.8747C31.3851 38.8576 30.1107 37.9103 28.6179 37.9103C27.1252 37.9103 25.8507 38.8576 25.3612 40.1817H22.4361V39.1751H24.643C24.9922 39.1751 25.2754 38.892 25.2754 38.5427C25.2754 38.1934 24.9923 37.9103 24.643 37.9103H19.5324C19.1832 37.9103 18.9 38.1934 18.9 38.5427C18.9 38.892 19.1831 39.1751 19.5324 39.1751H21.1714V40.2463C21.1714 40.9082 21.7097 41.4465 22.3716 41.4465H25.147C25.1815 43.3312 26.7252 44.8535 28.6179 44.8535C30.5107 44.8535 32.0544 43.3312 32.0889 41.4465H43.8859C43.9204 43.3312 45.4642 44.8535 47.3569 44.8535C49.2496 44.8535 50.7933 43.3312 50.8279 41.4465H52.4676C52.8168 41.4465 53.0999 41.1634 53.0999 40.8141V35.1356C53.1 33.7065 52.0624 32.5156 50.7009 32.276ZM44.0144 26.6825H47.9248C48.4937 26.6825 48.9606 27.1285 48.9941 27.6892H44.0144V26.6825ZM44.0144 32.232V28.9539H48.5668L49.3863 32.232H44.0144ZM28.6179 43.589C27.4012 43.589 26.4111 42.5989 26.4111 41.3821C26.4111 40.1652 27.4012 39.1752 28.6179 39.1752C29.8347 39.1752 30.8248 40.1652 30.8248 41.3821C30.8248 42.5989 29.8347 43.589 28.6179 43.589ZM47.357 43.589C46.1402 43.589 45.1501 42.5989 45.1501 41.3821C45.1501 40.1652 46.1402 39.1752 47.357 39.1752C48.5738 39.1752 49.5639 40.1652 49.5639 41.3821C49.5639 42.5989 48.5738 43.589 47.357 43.589Z" fill="#454545" stroke="#454545" stroke-width="0.2"/>
<path d="M28.6179 40.1819C27.956 40.1819 27.4177 40.7202 27.4177 41.3821C27.4177 42.044 27.956 42.5823 28.6179 42.5823C29.2798 42.5823 29.8181 42.044 29.8181 41.3821C29.8181 40.7202 29.2798 40.1819 28.6179 40.1819Z" fill="#454545" stroke="#454545" stroke-width="0.2"/>
<path d="M47.3569 40.1819C46.695 40.1819 46.1567 40.7202 46.1567 41.3821C46.1567 42.044 46.695 42.5823 47.3569 42.5823C48.0189 42.5823 48.5572 42.044 48.5572 41.3821C48.5572 40.7202 48.0189 40.1819 47.3569 40.1819Z" fill="#454545" stroke="#454545" stroke-width="0.2"/>
<path d="M41.1106 37.9105H33.1607C32.8115 37.9105 32.5283 38.1936 32.5283 38.5429C32.5283 38.8922 32.8114 39.1753 33.1607 39.1753H41.1106C41.4598 39.1753 41.7429 38.8922 41.7429 38.5429C41.7429 38.1936 41.4598 37.9105 41.1106 37.9105Z" fill="#454545" stroke="#454545" stroke-width="0.2"/>
<path d="M27.4823 35.639H20.6681C20.3189 35.639 20.0357 35.9221 20.0357 36.2714C20.0357 36.6207 20.3188 36.9038 20.6681 36.9038H27.4823C27.8315 36.9038 28.1147 36.6207 28.1147 36.2714C28.1147 35.9221 27.8315 35.639 27.4823 35.639Z" fill="#454545" stroke="#454545" stroke-width="0.2"/>
</g>
<defs>
<filter id="filter0_d" x="1" y="1" width="70" height="71" filterUnits="userSpaceOnUse" color-interpolation-filters="sRGB">
<feFlood flood-opacity="0" result="BackgroundImageFix"/>
<feColorMatrix in="SourceAlpha" type="matrix" values="0 0 0 0 0 0 0 0 0 0 0 0 0 0 0 0 0 0 127 0"/>
<feOffset dy="2"/>
<feGaussianBlur stdDeviation="2"/>
<feColorMatrix type="matrix" values="0 0 0 0 0 0 0 0 0 0 0 0 0 0 0 0 0 0 0.25 0"/>
<feBlend mode="normal" in2="BackgroundImageFix" result="effect1_dropShadow"/>
<feBlend mode="normal" in="SourceGraphic" in2="effect1_dropShadow" result="shape"/>
</filter>
<clipPath id="clip0">
<rect width="34" height="34" fill="white" transform="translate(19 17)"/>
</clipPath>
</defs>
</svg>
