<svg width="210" height="298" viewBox="0 0 210 298" fill="none" xmlns="http://www.w3.org/2000/svg">
<g filter="url(#filter0_d)">
<path d="M5 47.7593C5 46.6206 5.38864 45.5161 6.10163 44.6283L23.5219 22.9382C23.9151 22.4486 24.397 22.0375 24.9424 21.7263L47.9967 8.57242C48.6569 8.19577 49.3942 7.97457 50.1527 7.92563L63.3072 7.07696C64.0913 7.02637 64.8764 7.16131 65.5987 7.47086L77.6149 12.6207C78.1996 12.8713 78.7311 13.2311 79.1809 13.6809L94.2908 28.7908C95.0746 29.5746 95.5758 30.5968 95.7154 31.6965L99.2886 59.8356C99.4258 60.9156 99.2067 62.0109 98.6646 62.955L90.8001 76.6526C88.8863 79.9859 91.2926 84.1422 95.1363 84.1422H114.079H200C202.761 84.1422 205 86.3808 205 89.1422V286C205 288.761 202.761 291 200 291H10C7.23857 291 5 288.761 5 286V47.7593Z" fill="url(#paint0_linear)"/>
</g>
<g filter="url(#filter1_d)">
<path fill-rule="evenodd" clip-rule="evenodd" d="M88.9921 84.1833C89.7715 84.9666 91.0418 84.9719 91.7925 84.1611C99.1018 76.2665 103.661 66.1926 104.748 55.4555C105.902 44.0537 103.07 32.6093 96.7345 23.0725C90.3987 13.5356 80.9511 6.49624 70.0015 3.15386C59.052 -0.188519 47.2778 0.372861 36.6852 4.74235C26.0927 9.11183 17.3371 17.0191 11.9104 27.1168C6.48372 37.2145 4.72163 48.8778 6.92438 60.1196C9.12713 71.3614 15.1584 81.486 23.9906 88.7683C31.6483 95.0822 41.0007 98.9207 50.8166 99.841V109.95H45.6415C44.0484 109.95 43.0947 111.722 43.9721 113.051L53.8593 128.036C54.6498 129.234 56.4076 129.234 57.198 128.036L67.0852 113.051C67.9626 111.722 67.009 109.95 65.4159 109.95H60.241V93.1558C60.241 90.3944 58.0024 88.1558 55.241 88.1558H54.1624C45.8966 87.8728 37.9445 84.8708 31.5479 79.5967C24.8341 74.061 20.2493 66.3647 18.5749 57.8192C16.9005 49.2737 18.2399 40.4077 22.3651 32.7319C26.4902 25.0561 33.1458 19.0453 41.1978 15.7238C49.2498 12.4023 58.2 11.9756 66.5235 14.5163C74.8469 17.0571 82.0285 22.4081 86.8447 29.6576C91.6608 36.9071 93.8136 45.6066 92.9361 54.2738C92.1258 62.2767 88.7783 69.7949 83.4104 75.7419C82.6706 76.5615 82.6634 77.8239 83.4422 78.6065L88.9921 84.1833Z" fill="#449B35"/>
<path fill-rule="evenodd" clip-rule="evenodd" d="M88.9921 84.1833C89.7715 84.9666 91.0418 84.9719 91.7925 84.1611C99.1018 76.2665 103.661 66.1926 104.748 55.4555C105.902 44.0537 103.07 32.6093 96.7345 23.0725C90.3987 13.5356 80.9511 6.49624 70.0015 3.15386C59.052 -0.188519 47.2778 0.372861 36.6852 4.74235C26.0927 9.11183 17.3371 17.0191 11.9104 27.1168C6.48372 37.2145 4.72163 48.8778 6.92438 60.1196C9.12713 71.3614 15.1584 81.486 23.9906 88.7683C31.6483 95.0822 41.0007 98.9207 50.8166 99.841V109.95H45.6415C44.0484 109.95 43.0947 111.722 43.9721 113.051L53.8593 128.036C54.6498 129.234 56.4076 129.234 57.198 128.036L67.0852 113.051C67.9626 111.722 67.009 109.95 65.4159 109.95H60.241V93.1558C60.241 90.3944 58.0024 88.1558 55.241 88.1558H54.1624C45.8966 87.8728 37.9445 84.8708 31.5479 79.5967C24.8341 74.061 20.2493 66.3647 18.5749 57.8192C16.9005 49.2737 18.2399 40.4077 22.3651 32.7319C26.4902 25.0561 33.1458 19.0453 41.1978 15.7238C49.2498 12.4023 58.2 11.9756 66.5235 14.5163C74.8469 17.0571 82.0285 22.4081 86.8447 29.6576C91.6608 36.9071 93.8136 45.6066 92.9361 54.2738C92.1258 62.2767 88.7783 69.7949 83.4104 75.7419C82.6706 76.5615 82.6634 77.8239 83.4422 78.6065L88.9921 84.1833Z" fill="url(#paint1_linear)"/>
</g>
<defs>
<filter id="filter0_d" x="0" y="4.06653" width="210" height="293.933" filterUnits="userSpaceOnUse" color-interpolation-filters="sRGB">
<feFlood flood-opacity="0" result="BackgroundImageFix"/>
<feColorMatrix in="SourceAlpha" type="matrix" values="0 0 0 0 0 0 0 0 0 0 0 0 0 0 0 0 0 0 127 0"/>
<feOffset dy="2"/>
<feGaussianBlur stdDeviation="2.5"/>
<feColorMatrix type="matrix" values="0 0 0 0 0 0 0 0 0 0 0 0 0 0 0 0 0 0 0.25 0"/>
<feBlend mode="normal" in2="BackgroundImageFix" result="effect1_dropShadow"/>
<feBlend mode="normal" in="SourceGraphic" in2="effect1_dropShadow" result="shape"/>
</filter>
<filter id="filter1_d" x="1" y="0" width="109" height="137.934" filterUnits="userSpaceOnUse" color-interpolation-filters="sRGB">
<feFlood flood-opacity="0" result="BackgroundImageFix"/>
<feColorMatrix in="SourceAlpha" type="matrix" values="0 0 0 0 0 0 0 0 0 0 0 0 0 0 0 0 0 0 127 0"/>
<feOffset dy="4"/>
<feGaussianBlur stdDeviation="2.5"/>
<feColorMatrix type="matrix" values="0 0 0 0 0 0 0 0 0 0 0 0 0 0 0 0 0 0 0.3 0"/>
<feBlend mode="normal" in2="BackgroundImageFix" result="effect1_dropShadow"/>
<feBlend mode="normal" in="SourceGraphic" in2="effect1_dropShadow" result="shape"/>
</filter>
<linearGradient id="paint0_linear" x1="131.5" y1="56" x2="135.5" y2="256" gradientUnits="userSpaceOnUse">
<stop stop-color="white"/>
<stop offset="1" stop-color="#F1F1F1"/>
<stop offset="1" stop-color="#F1F1F1"/>
</linearGradient>
<linearGradient id="paint1_linear" x1="-1.43931" y1="77.4283" x2="109.593" y2="77.65" gradientUnits="userSpaceOnUse">
<stop offset="0.0162615" stop-color="#58A54B"/>
<stop offset="1" stop-color="#6EB039"/>
</linearGradient>
</defs>
</svg>
