<svg width="21" height="22" viewBox="0 0 21 22" fill="none" xmlns="http://www.w3.org/2000/svg">
<g clip-path="url(#clip0)">
<path d="M10.5 4.44293C6.48773 4.44293 2.84919 6.74261 0.164314 10.4779C-0.0547714 10.7839 -0.0547714 11.2115 0.164314 11.5175C2.84919 15.2573 6.48773 17.557 10.5 17.557C14.5123 17.557 18.1508 15.2573 20.8357 11.522C21.0548 11.216 21.0548 10.7884 20.8357 10.4824C18.1508 6.74262 14.5123 4.44293 10.5 4.44293ZM10.7878 15.6173C8.12442 15.7928 5.92498 13.4931 6.09251 10.6984C6.22998 8.39425 8.01273 6.5266 10.2122 6.38259C12.8756 6.20707 15.075 8.50675 14.9075 11.3015C14.7657 13.6012 12.983 15.4688 10.7878 15.6173ZM10.6546 13.4841C9.21985 13.5787 8.03421 12.3411 8.12872 10.8379C8.20175 9.59584 9.16401 8.59226 10.3496 8.51125C11.7844 8.41675 12.9701 9.65435 12.8756 11.1575C12.7983 12.4041 11.836 13.4076 10.6546 13.4841Z" fill="#FFC130"/>
</g>
<defs>
<clipPath id="clip0">
<rect width="21" height="22" fill="white"/>
</clipPath>
</defs>
</svg>
