<svg width="30" height="31" viewBox="0 0 30 31" fill="none" xmlns="http://www.w3.org/2000/svg">
<g clip-path="url(#clip0)">
<path d="M15 0.684814C9.18445 0.684814 4.45312 5.41614 4.45312 11.2317C4.45312 13.1966 4.9974 15.1141 6.02748 16.7777L14.3996 30.2693C14.56 30.5278 14.8426 30.6848 15.1464 30.6848C15.1488 30.6848 15.1511 30.6848 15.1534 30.6848C15.4599 30.6824 15.743 30.5205 15.9005 30.2575L24.0592 16.6352C25.0325 15.0068 25.5469 13.1383 25.5469 11.2317C25.5469 5.41614 20.8155 0.684814 15 0.684814ZM22.5507 15.7327L15.1331 28.1176L7.5215 15.8516C6.6641 14.4669 6.19922 12.8694 6.19922 11.2317C6.19922 6.3854 10.1537 2.43091 15 2.43091C19.8463 2.43091 23.7949 6.3854 23.7949 11.2317C23.7949 12.8208 23.3607 14.3775 22.5507 15.7327Z" fill="url(#paint0_linear)"/>
<path d="M15 5.95825C12.0922 5.95825 9.72656 8.32392 9.72656 11.2317C9.72656 14.1209 12.0537 16.5051 15 16.5051C17.9826 16.5051 20.2734 14.0891 20.2734 11.2317C20.2734 8.32392 17.9078 5.95825 15 5.95825ZM15 14.759C13.0513 14.759 11.4727 13.1751 11.4727 11.2317C11.4727 9.29317 13.0615 7.70435 15 7.70435C16.9385 7.70435 18.5215 9.29317 18.5215 11.2317C18.5215 13.1467 16.9795 14.759 15 14.759Z" fill="url(#paint1_linear)"/>
</g>
<defs>
<linearGradient id="paint0_linear" x1="4.45312" y1="0.759493" x2="22.1015" y2="-0.441648" gradientUnits="userSpaceOnUse">
<stop stop-color="#FFC738"/>
<stop offset="1" stop-color="#FF9B00"/>
</linearGradient>
<linearGradient id="paint1_linear" x1="9.72656" y1="5.98451" x2="18.5093" y2="5.13437" gradientUnits="userSpaceOnUse">
<stop stop-color="#FFC738"/>
<stop offset="1" stop-color="#FF9B00"/>
</linearGradient>
<clipPath id="clip0">
<rect width="30" height="30" fill="white" transform="translate(0 0.684814)"/>
</clipPath>
</defs>
</svg>
