<svg width="228" height="134" viewBox="0 0 228 134" fill="none" xmlns="http://www.w3.org/2000/svg">
<g filter="url(#filter0_i)">
<path d="M28.359 127.587C28.617 127.021 29.1954 125.825 29.4443 125.566C29.7554 125.244 28.3139 125.049 28.9361 124.403C29.5584 123.758 30.1807 123.112 30.0062 122.896C29.8317 122.679 29.5889 122.732 28.9136 123.134C28.2382 123.536 28.7013 122.161 29.7408 121.679C30.7804 121.198 30.7844 120.05 30.4885 119.86C30.1926 119.669 30.1813 119.035 30.5873 118.564C30.9933 118.093 28.0989 117.068 27.0746 117.037C26.0503 117.006 25.0791 117.217 24.6466 117.567C24.214 117.916 23.1937 116.737 23.1141 116.372C23.0345 116.007 22.0898 116.341 21.4715 115.838C20.8532 115.336 21.2897 113.839 20.2389 113.686C19.1881 113.533 19.1158 114.951 18.1598 114.65C17.395 114.409 16.8576 113.15 16.6844 112.551C17.1612 112.404 18.142 112.003 18.2514 111.572C18.388 111.032 17.0944 110.932 16.5975 110.404C16.1006 109.875 15.1864 109.182 14.8833 107.21C14.6407 105.632 13.2193 106.384 12.5388 106.957C12.2556 107.019 11.5547 106.993 11.0176 106.397C10.3463 105.651 9.27289 104.229 9.38302 103.568C9.49314 102.907 8.22607 102.928 8.84834 102.283C9.34615 101.767 8.55774 100.563 8.10131 100.025C8.32775 99.5085 8.81857 98.416 8.97037 98.1791C9.16011 97.8828 8.08274 97.6082 9.33856 96.952C10.3432 96.427 10.2985 96.1054 10.1506 96.0103C10.5325 96.0119 11.2614 95.9718 11.1218 95.7984C10.9473 95.5816 8.18558 95.1649 8.4171 94.4773C8.64862 93.7897 9.11167 92.4145 9.73394 91.769C10.3562 91.1236 12.5799 87.3256 11.4229 86.6861C10.266 86.0466 8.94582 85.825 8.81314 85.2168C8.68046 84.6087 9.37106 83.6935 9.04864 83.3816C8.72623 83.0697 8.25588 82.6626 8.1232 82.0545C7.99052 81.4464 7.07237 81.9015 7.34569 80.8226C7.61901 79.7436 6.69356 78.4165 7.32711 78.4057C7.96066 78.3949 5.22214 75.1698 5.06292 74.4401C4.9037 73.7103 5.56777 72.6735 5.38201 71.8221C5.19626 70.9707 3.61803 71.315 2.97718 69.5436C2.33633 67.7722 3.36461 66.6559 3.285 66.291C3.20539 65.9261 3.51653 65.6034 3.86946 64.8893C4.90901 64.4077 5.56909 64.5185 5.53128 63.7623C5.49346 63.006 5.68316 62.7098 6.22186 62.8471C6.76056 62.9844 7.53475 61.2865 7.92152 62.4763C8.30828 63.6661 8.19813 64.3271 8.71028 64.3428C9.22242 64.3584 9.31729 64.2103 9.6815 64.1309L9.6818 64.1308C10.0461 64.0513 10.7743 63.8924 11.3393 64.1514C11.9046 64.4104 12.9706 64.0502 15.1367 65.2342C17.3027 66.4181 17.5037 66.7564 18.581 67.031C19.4429 67.2507 20.7508 68.4264 21.297 68.9868C21.498 69.3253 21.8591 70.164 21.6951 70.8113C21.4901 71.6205 20.8638 73.4135 20.621 73.4665C20.3782 73.5195 19.2551 74.7838 18.595 74.673C17.9349 74.5622 15.5221 74.5789 15.1579 74.6584C14.7937 74.7379 13.3256 74.4211 13.0032 74.1092C12.6807 73.7973 12.1003 74.0513 11.4402 73.9405C10.7801 73.8297 10.0557 72.841 9.69145 72.9205C9.32724 72.9999 9.89246 73.2589 10.469 74.1524C11.0455 75.046 12.1606 76.0768 12.5248 75.9974C12.8891 75.9179 14.4786 76.2084 14.1257 76.9224C13.7727 77.6364 13.8788 78.1229 13.9319 78.3661C13.9744 78.5607 14.5387 79.5929 14.8156 80.0846C14.7649 80.4354 14.7904 81.1349 15.2972 81.1263C15.9308 81.1155 16.4316 80.4964 16.5643 81.1047C16.697 81.7129 16.7348 82.4691 17.3153 82.215C17.8957 81.9609 18.3926 82.4896 18.8252 82.1404C19.2577 81.7912 19.7434 81.6855 19.2465 81.1567C18.7495 80.6279 19.3566 80.4955 18.5067 80.6809C17.6569 80.8663 17.6988 80.4751 17.2284 80.068C16.758 79.6608 17.0426 79.2164 16.9895 78.9732C16.9365 78.7301 16.8456 77.7304 17.4108 77.9894C17.976 78.2483 18.6474 78.9938 18.8902 78.9408C19.133 78.8878 19.4972 78.8084 19.9145 78.9722C20.3318 79.1359 20.8174 79.0302 20.8705 79.2734C20.9235 79.5165 21.303 78.924 21.3713 78.6543C21.4396 78.3846 21.4702 77.3586 21.1743 77.1683C20.8784 76.978 20.4233 76.058 20.761 75.8569C21.0987 75.6558 21.5995 75.0368 21.5465 74.7936C21.4934 74.5503 22.0626 73.6616 22.3585 73.8519C22.6543 74.0422 22.8062 72.9897 22.9277 72.9632C23.0491 72.9367 22.8102 71.8421 23.3754 72.101C23.9407 72.36 23.9407 72.36 24.3049 72.2805C24.6691 72.201 24.8323 71.7832 25.3292 72.3119C25.8261 72.8405 26.1903 72.7611 26.1637 72.6395C26.1372 72.5178 26.3422 71.7086 26.4105 71.4389C26.4788 71.1691 26.2248 70.5875 25.9972 70.1274C25.7697 69.6674 25.7166 69.4242 25.3259 69.382C24.9351 69.3398 24.628 68.5149 24.7494 68.4884C24.8708 68.462 24.6585 67.4889 24.9013 67.436C25.1441 67.383 25.0532 66.3835 24.9736 66.0186C24.894 65.6537 24.6929 65.3152 24.5185 65.0986L24.518 65.098C24.3437 64.8815 24.1693 64.6649 23.8737 64.4747C23.5778 64.2845 23.0922 64.3904 23.2819 64.0942C23.4716 63.7979 23.4716 63.7979 23.8889 63.9617C24.3062 64.1255 24.5755 64.1942 24.6969 64.1677L25.1826 64.0618L25.911 63.9028C26.3966 63.7969 27.0832 64.0295 27.2577 64.2462C27.4322 64.4629 27.6332 64.8013 27.7811 64.8964C27.929 64.9915 28.1566 65.4516 28.3045 65.5467C28.4229 65.6228 28.46 66.0649 28.4637 66.2765C28.3019 66.3118 27.9106 66.4226 27.6405 66.5835C27.3028 66.7846 27.2232 66.4197 26.9386 66.8641C26.6122 67.6998 25.9786 67.7106 26.449 68.1176C26.9193 68.5247 27.2152 68.715 27.458 68.662C27.7008 68.609 27.4693 69.2968 27.8866 69.4605C28.1243 69.5785 28.6916 69.769 29.0588 69.5869C29.5179 69.3593 29.9086 69.4015 30.03 69.375C30.1514 69.3485 30.4892 69.1476 30.4361 68.9043C30.383 68.6609 30.034 68.2274 30.2238 67.9312C30.4135 67.6349 30.5767 67.2171 30.2808 67.0268C30.0441 66.8746 30.3365 66.505 30.5124 66.3393C30.7551 66.2863 31.3166 66.0618 31.6202 65.5878C31.9997 64.9953 32.7964 64.5667 33.081 64.1223C33.3656 63.678 33.4645 62.3823 34.098 62.3715C34.7316 62.3606 34.853 62.3342 35.3804 61.8368C35.9078 61.3395 35.6802 60.8795 36.3556 60.4773C37.0309 60.0751 36.9513 59.7103 37.2207 59.7789C37.49 59.8476 37.2054 60.2919 37.4064 60.6303C37.6074 60.9687 37.6452 61.7248 38.036 61.7671C38.4267 61.8094 38.7909 61.7298 38.844 61.9731C38.8971 62.2163 39.0032 62.7028 39.2195 62.5282C39.4357 62.3536 39.3031 61.7455 39.3714 61.4758C39.4397 61.206 39.6295 60.9098 39.9937 60.8303C40.3579 60.7509 40.1569 60.4125 40.5476 60.4546C40.9384 60.4968 40.9118 60.3752 41.3974 60.2692C41.6668 60.3379 42.2487 60.4403 42.4217 60.3006C42.638 60.126 42.7063 59.8562 42.6798 59.7346C42.6532 59.613 43.8447 58.0789 44.1406 58.2692C44.4365 58.4594 45.017 58.2054 45.0282 58.84C45.0395 59.4746 44.5121 59.9718 45.0508 60.1092C45.5895 60.2467 45.4946 60.3949 45.8323 60.1937C46.1699 59.9925 45.7832 58.8027 46.4167 58.7919C47.0503 58.7811 47.6726 58.1356 47.4715 57.7973C47.2705 57.4589 47.1757 57.607 46.6522 56.9567C46.1288 56.3064 46.087 56.6977 45.9543 56.0896C45.8217 55.4815 45.7686 55.2382 45.4727 55.0479C45.1768 54.8576 45.3095 55.4658 44.6912 54.9636C44.0729 54.4614 44.0995 54.583 43.7087 54.5409C43.318 54.4987 43.2496 54.7684 42.9956 54.1868C42.7415 53.6051 42.3507 53.563 42.6088 52.997C42.8669 52.431 42.2904 51.5375 43.1515 51.9867C44.0126 52.4359 44.388 52.991 44.8584 53.3981C45.3287 53.8051 45.8522 54.4554 46.095 54.4024C46.3378 54.3495 47.5253 53.963 48.0374 53.9786C48.5496 53.9943 50.9889 54.0992 51.7551 54.6965C52.5213 55.2939 52.7642 55.241 53.3294 55.4999C53.8946 55.7588 54.2853 55.801 54.9985 56.1551C55.7117 56.5091 55.7535 56.1178 56.1289 56.6729C56.5044 57.2281 56.2616 57.2811 57.0696 57.487C57.8777 57.6929 57.0544 58 57.6196 58.2589C58.1848 58.5178 58.4203 56.6827 58.3142 56.1962C58.208 55.7096 57.7908 55.5459 57.4949 55.3556C57.199 55.1652 56.5542 54.5414 56.5694 54.0284C56.5847 53.5154 56.2092 52.9603 55.8715 53.1613C55.5339 53.3624 55.439 53.5107 54.8207 53.0084C54.2024 52.5062 54.0432 51.7765 54.4074 51.697C54.7716 51.6175 54.9195 51.7126 54.692 51.2526C54.4644 50.7926 54.3471 49.6716 54.3205 49.5499C54.294 49.4282 54.6734 48.8357 54.351 48.5238C54.0286 48.2119 54.0551 48.3335 53.6644 48.2914C53.2736 48.2492 53.0461 47.7892 53.1828 47.2497C53.3194 46.7102 53.7672 45.848 54.01 45.795C54.2528 45.7421 54.822 44.8534 54.8638 44.462C54.8972 44.1489 54.9361 43.0447 54.9514 42.5317L54.8758 41.0192L54.8114 40.1413C54.8317 39.4573 54.9316 38.1273 55.1683 38.2796C55.4642 38.4698 55.1265 38.671 55.855 38.5121C56.5834 38.3532 56.921 38.1521 57.1904 38.2207C57.4597 38.2894 57.327 37.6812 57.8657 37.8186C58.4044 37.9559 58.4727 37.6861 58.7686 37.8764C59.0645 38.0667 59.4022 37.8656 59.7246 38.1775C60.047 38.4894 60.1684 38.463 60.2215 38.7062L60.4603 39.8007C60.6195 40.5306 60.4981 40.5571 60.4411 41.4614C60.384 42.3658 60.6686 41.9215 60.2739 43.0269C60.1525 43.0534 59.5302 43.6988 59.8526 44.0107C60.175 44.3227 60.0802 44.4708 60.4026 44.7827C60.725 45.0946 61.2106 44.9885 61.3167 45.4751C61.4229 45.9617 61.6922 46.0303 61.6504 46.4217C61.6086 46.813 61.3811 46.353 61.6617 47.0563C61.9423 47.7596 61.8627 47.3947 61.9689 47.8812C62.075 48.3677 62.0067 48.6375 61.9118 48.7856C61.8169 48.9337 61.9231 49.4203 62.071 49.5153C62.219 49.6104 62.1772 50.0018 62.2302 50.2451C62.2727 50.4397 62.4527 50.8761 62.5374 51.07C62.5235 51.2004 62.5062 51.5099 62.5487 51.7046L62.6813 52.3127C62.8065 52.4978 63.0379 52.8976 62.962 53.016C62.8671 53.1642 62.6243 53.2171 62.9998 53.7723C63.3002 54.2164 63.6712 54.5177 63.8191 54.6129L64.7333 55.3054C64.8407 55.4093 65.0124 55.6522 64.8394 55.7919C64.6231 55.9665 64.6079 56.4795 64.513 56.6276C64.4181 56.7756 64.107 57.0984 64.4294 57.4103C64.6874 57.6598 64.8049 57.9655 64.8314 58.0871C64.8301 58.4696 64.7357 59.2802 64.3684 59.4623C63.9093 59.6899 64.0573 59.785 63.8523 60.5942C63.6473 61.4035 63.6851 62.1597 63.3209 62.2392C62.9567 62.3186 63.2526 62.5089 62.5241 62.6678C61.7957 62.8268 61.1774 62.3246 61.1887 62.9592C61.2 63.5938 60.6613 63.4565 61.3745 63.8106C62.0876 64.1647 62.4518 64.0852 62.9374 63.9793C63.423 63.8733 63.6924 63.942 64.2045 63.9576C64.7167 63.9733 64.6901 63.8517 64.7585 63.582C64.8268 63.3122 64.6145 62.3392 65.1267 62.3549C65.6388 62.3706 65.8969 61.8046 66.0866 61.5084C66.2763 61.2121 66.3181 60.8208 66.2385 60.4559C66.1589 60.091 66.4057 58.8904 66.6485 58.8374C66.8913 58.7844 67.1912 57.8271 66.9902 57.4887C66.7892 57.1503 66.6299 56.4206 66.3075 56.1086C65.9851 55.7967 65.5565 54.9983 65.7728 54.8237C65.9891 54.6491 65.8299 53.9194 66.342 53.935C66.8542 53.9507 66.7215 53.3426 67.3285 53.2101C67.9355 53.0777 68.0038 52.808 68.2732 52.8766C68.5425 52.9453 68.9067 52.8658 69.1608 53.4475C69.4149 54.0291 69.7791 53.9497 69.8587 54.3145L70.0975 55.4092C70.2037 55.8957 69.7711 56.2449 70.067 56.4352C70.3629 56.6254 70.7118 57.059 70.7271 56.546C70.7424 56.033 70.5831 55.3032 70.826 55.2503C71.0688 55.1973 71.1106 54.8059 70.9361 54.5891C70.7616 54.3724 70.28 53.3307 70.132 53.2356L69.5403 52.855C69.3923 52.7598 69.0281 52.8393 68.5578 52.4323C68.0874 52.0252 67.9926 52.1733 67.7232 52.1047C67.4539 52.036 67.4273 51.9144 67.0897 52.1155C66.752 52.3166 66.6571 52.4647 66.3195 52.6658C65.9818 52.8669 66.0767 52.7188 65.7124 52.7982C65.3482 52.8777 65.4431 52.7296 65.1054 52.9306C64.7678 53.1317 64.8208 53.375 64.6198 53.0366C64.4188 52.6982 64.7187 51.7409 64.2749 51.4554C63.831 51.17 63.5239 50.3451 63.7667 50.2921C63.9609 50.2498 63.7517 49.446 63.6227 49.0494L64.2072 47.6477C63.9215 47.1154 63.2803 45.9642 63.0011 45.6173C62.6522 45.1837 62.6256 45.0622 62.2767 44.6286C61.9277 44.1951 61.5522 43.6399 61.7685 43.4653C61.9848 43.2907 61.6776 42.4658 62.1102 42.1166C62.5427 41.7674 62.5845 41.3759 63.0854 40.757C63.5862 40.1382 63.6015 39.6252 63.5219 39.2603C63.4582 38.9684 63.0858 38.0388 62.9076 37.6105C62.8545 37.3672 62.8424 36.9621 63.2187 37.2877C63.6891 37.6948 63.6625 37.573 63.7952 38.1812C63.9279 38.7894 64.3299 39.4662 64.1136 39.6408C63.8974 39.8154 64.4208 40.4657 64.1097 40.7885C63.7985 41.1112 64.1057 41.9361 64.2802 42.1528C64.4546 42.3695 64.4128 42.761 64.4394 42.8826C64.4659 43.0042 64.4772 43.6389 64.8945 43.8027C65.3118 43.9664 65.3914 44.3313 66.3626 44.1194C67.3338 43.9075 67.4552 43.8811 67.846 43.9232C68.2367 43.9653 68.0204 44.14 68.3163 44.3303C68.6122 44.5205 68.5704 44.9119 69.056 44.806C69.5416 44.7 69.6895 44.7952 69.8793 44.4989C70.069 44.2027 70.0159 43.9594 69.7731 44.0124C69.5303 44.0654 69.4773 43.8221 69.1814 43.6319C68.8855 43.4416 69.0487 43.0237 68.5365 43.008C68.0244 42.9924 67.9295 43.1405 67.3909 43.0032C66.8522 42.8659 66.488 42.9454 66.139 42.5118L66.1386 42.5113C65.7898 42.0778 65.4411 41.6446 65.3615 41.2798C65.2819 40.915 65.3237 40.5236 65.5665 40.4706C65.8093 40.4176 66.0256 40.243 66.2949 40.3117C66.5643 40.3803 66.7653 40.7187 67.0346 40.7874C67.3039 40.856 67.8426 40.9934 68.0058 40.5755C68.169 40.1576 68.2374 39.888 68.0894 39.7928C67.9415 39.6975 68.0098 39.4279 67.5507 39.6554C67.0916 39.8829 67.1182 40.0045 66.9702 39.9094C66.8223 39.8144 66.4999 39.5025 66.8376 39.3014C67.1077 39.1405 67.284 38.8217 67.3384 38.6824C67.3928 38.5431 67.5987 38.2433 67.9872 38.1585C68.4728 38.0526 68.5677 37.9046 69.3492 37.9889C70.1307 38.0732 70.4531 38.3852 71.0183 38.6441C71.5835 38.9029 71.758 39.1198 72.0804 39.4317C72.4029 39.7436 72.6569 40.3252 73.0212 40.2458C73.3854 40.1663 73.6016 39.9917 74.0607 39.7641C74.5198 39.5366 74.6677 39.6317 75.0319 39.5522C75.3961 39.4728 75.491 39.3247 75.4645 39.203C75.4379 39.0814 75.142 38.8911 74.8992 38.9441C74.6564 38.9971 74.1708 39.103 73.9963 38.8863C73.8219 38.6695 73.7953 38.5479 73.6209 38.3311C73.4464 38.1143 73.9207 37.3738 73.1658 37.4111C72.4108 37.4483 71.8303 37.7024 71.6559 37.4856L71.6557 37.4854C71.4813 37.2687 71.3069 37.0521 71.2538 36.8089L71.0415 35.8358C70.9619 35.4709 71.1669 34.6617 70.7497 34.4979C70.3324 34.3341 70.2262 33.8476 70.268 33.4563C70.3098 33.0649 69.8925 32.9011 69.9609 32.6313C70.0292 32.3616 69.9761 32.1184 70.1924 31.9438C70.4087 31.7691 71.7328 30.8432 72.1236 30.8853C72.5143 30.9275 73.2162 30.6469 73.8232 30.5145C74.4302 30.3821 74.8627 30.0328 74.9576 29.8847C75.0335 29.7662 75.5735 29.7928 75.834 29.8209C75.9237 29.8438 76.1465 29.8546 76.3196 29.715C76.5358 29.5404 76.6725 29.0009 76.7939 28.9744C76.9153 28.9479 77.4692 28.5722 77.5906 28.5457C77.6878 28.5246 78.099 28.3499 78.2925 28.2652L78.0537 27.1705C78.0993 26.9907 78.091 26.5253 77.6935 26.1024C77.1966 25.5737 78.2142 19.7453 79.4548 19.6021C80.6954 19.4589 85.9237 16.0248 85.9276 14.8771C85.9316 13.7295 87.829 10.7672 88.4851 12.0257C89.1412 13.2841 86.2918 14.7977 88.3557 14.3474L88.3559 14.3474C90.4197 13.8971 92.6048 13.4204 92.366 12.3257C92.1271 11.2311 91.1294 11.3213 91.5088 10.7289C91.8883 10.1364 92.8177 10.3159 93.8308 9.71263C94.8438 9.10937 93.5807 7.98336 93.907 7.14765C94.2334 6.31194 94.1273 5.82543 94.67 4.81511C95.1041 4.00686 96.3939 2.61268 96.9846 2.01661C97.6991 1.98815 99.1925 1.9936 99.4504 2.24313C99.7728 2.55503 100.85 2.82965 100.213 3.98808C99.5751 5.14651 100.706 5.66438 101.313 5.53194C101.92 5.3995 102.675 5.36221 102.538 5.90169C102.401 6.44118 101.938 7.81639 102.556 8.31856C103.175 8.82074 104.256 7.94774 104.393 7.40826C104.529 6.86877 109.12 4.59299 110.823 7.15205C112.526 9.71111 113.33 11.0645 113.083 12.2652C112.837 13.4659 112.912 14.9784 112.047 15.6768C111.182 16.3752 110.951 17.0628 110.207 17.7347C109.463 18.4066 109.285 19.3376 108.784 19.9564C108.283 20.5753 108.093 20.8717 107.862 21.5592C107.68 22.0993 106.402 24.4762 105.753 25.6585C105.84 25.6366 106.012 25.6123 106.325 25.5896C107.201 25.5259 108.958 24.2508 109.242 23.8064C109.527 23.3619 110.16 23.3509 110.529 22.124C110.823 21.1424 112.513 21.3089 113.321 21.5148C113.303 21.4336 113.448 21.283 114.171 21.3294C114.293 21.3372 114.387 21.3419 114.458 21.3442C114.441 21.3203 114.426 21.2975 114.413 21.2764C114.596 21.3071 114.806 21.3554 114.458 21.3442C114.621 21.5767 114.982 21.9169 115.423 21.8209C116.03 21.6885 117.19 21.1803 117.407 21.0057C117.623 20.8311 118.541 20.376 119.471 20.5554C120.214 20.699 121.128 20.576 121.493 20.4965C121.848 20.3765 122.55 20.2148 122.517 20.5279C122.475 20.9193 122.016 21.1469 122.122 21.6333C122.228 22.1198 123.655 22.828 124.019 22.7485C124.383 22.6691 126.917 22.6259 127.16 22.5729L128.86 22.2021C129.062 22.1579 129.435 21.9237 129.308 21.3399C129.148 20.61 127.646 18.3893 128.618 18.1774C129.589 17.9655 129.9 17.6429 130.518 18.1451C131.137 18.6473 131.095 19.0387 132.066 18.8268C133.037 18.6149 133.565 18.1176 134.373 18.3235C135.181 18.5295 135.962 18.6137 136.432 19.0208C136.903 19.4279 136.982 19.7928 137.115 20.4009C137.248 21.0091 136.477 25.6368 139.678 27.4866C142.24 28.9665 142.789 26.9778 142.744 25.7985C142.541 24.866 142.392 23.2506 143.423 24.2487C144.713 25.4963 144.937 27.1039 146.155 25.6914C147.373 24.2789 147.767 23.1735 150.112 23.4265C152.456 23.6795 153.291 24.0071 153.284 22.2248C153.276 20.4426 152.951 17.2009 154.324 17.6657C155.697 18.1305 157.048 17.3263 158.679 17.2252C159.984 17.1443 162.134 17.3208 163.045 17.4192L165.913 18.3225L168.034 21.0454C168.585 21.4348 169.979 22.15 171.144 21.8957L174.301 21.2071C175.515 20.9422 180.253 18.7616 181.365 20.9401C182.476 23.1185 179.558 24.9019 182.24 24.9538C184.386 24.9952 188.673 23.9325 190.549 23.3959L193.569 23.2467C194.512 23.2957 196.452 23.637 196.664 24.61C196.929 25.8263 196.528 21.072 197.89 20.9023C199.252 20.7326 200.174 19.1297 203.433 20.0752C206.691 21.0207 207.769 21.2954 208.562 22.0143C209.196 22.5895 210.373 24.2948 210.883 25.0755C212.196 28.5691 214.539 35.7709 213.404 36.6302C212.268 37.4895 210.584 37.5003 209.883 37.3984C210.672 37.9058 212.308 39.1882 212.542 40.2585C212.834 41.5964 215.121 42.7538 213.365 44.029C210.026 45.9806 206.009 49.3713 204.418 50.8227C203.938 51.7343 202.974 53.5331 202.953 53.4358C202.927 53.3142 201.421 52.2412 200.798 52.8866C200.301 53.4029 199.357 54.0506 198.947 54.3099L197.607 55.7489C198.108 55.1299 198.778 54.1175 197.448 55.0191C195.786 56.1462 195.195 55.7656 194.937 56.3316C194.679 56.8976 194.003 57.2997 194.014 57.9344C194.026 58.569 193.218 58.363 193.51 59.7009C193.743 60.7712 194.15 61.4724 194.325 61.6891C194.269 62.211 194.281 63.355 194.776 63.7568C195.394 64.259 195.971 65.1526 195.28 66.0677C194.59 66.9829 194.692 68.617 194.677 69.13C194.661 69.643 194.066 70.4101 193.633 70.7593C193.2 71.1085 193.238 71.8647 193.033 72.674C192.828 73.4832 191.884 73.8167 191.747 74.3562C191.61 74.8957 192.213 75.9109 191.496 76.7044C190.779 77.498 190.775 78.6456 190.263 78.6299C189.751 78.6142 189.064 78.3818 188.583 77.3401C188.101 76.2984 186.095 71.7669 186.178 70.9841C186.262 70.2014 185.591 65.3785 186.255 64.3417C186.919 63.3048 188.259 61.8659 188.57 61.5431C188.881 61.2204 190.331 59.1203 190.615 58.676C190.9 58.2317 192.482 56.7397 192.634 55.6872C192.786 54.6347 194.167 52.8044 194.008 52.0746C193.849 51.3449 194.259 49.7264 193.815 49.441C193.46 49.2127 192.45 50.3758 191.99 50.9859C191.721 51.8939 191.064 53.7363 190.578 53.8423C189.971 53.9747 190.289 55.4342 189.159 54.9164C188.029 54.3985 187.657 52.6957 187.699 52.3043C187.741 51.913 186.42 51.6913 185.867 52.067C185.313 52.4427 183.549 51.9356 183.734 52.787C183.92 53.6384 182.406 54.8606 182.36 56.3996C182.315 57.9386 181.905 59.5571 182.375 59.9641C182.845 60.3712 181.844 61.6091 180.846 61.6993C179.848 61.7896 180.281 61.4404 178.839 61.2452C177.398 61.0501 176.905 59.3738 175.512 60.5695C174.12 61.7652 173.027 62.0036 171.57 62.3215C170.113 62.6393 167.701 62.6561 167.078 63.3015C166.456 63.9469 166.122 63.0004 165.105 64.7513C164.088 66.5022 162.73 69.6018 161.755 70.9613C160.779 72.3208 159.542 75.3939 158.893 75.9177C158.244 76.4415 157.137 77.1929 158.267 77.7108C159.397 78.2286 161.362 79.0741 162.55 78.6876C163.737 78.3011 165.558 77.9038 166.689 78.4217C167.819 78.9395 168.013 77.4957 168.377 77.4162C168.669 77.3526 168.703 80.658 168.684 82.3186C168.265 82.5374 167.375 83.5471 167.162 85.8361C166.896 88.6973 166.072 93.0818 166 94.4992C165.927 95.9165 164.694 97.842 163.856 98.662C163.017 99.4821 164.344 101.486 161.916 102.016C159.488 102.545 158.111 103.228 157.645 101.674C157.178 100.119 158.101 98.5161 159.319 97.1036C160.537 95.6911 161.227 94.7759 160.803 92.8299C160.378 90.8838 161.148 94.411 157.525 93.545C153.902 92.679 153.883 94.3396 152.248 91.5108C150.613 88.682 151.194 88.428 147.924 86.8479C144.654 85.2678 143.721 82.1585 142.154 83.1374C140.587 84.1164 137.632 85.1434 137.844 86.1165C138.056 87.0895 139.771 90.2831 138.959 91.2248C138.147 92.1665 135.817 95.478 132.49 94.8022C129.163 94.1265 130.502 96.7651 126.981 97.5333C123.46 98.3014 124.405 97.9677 121.321 97.239C118.237 96.5103 119.075 95.6902 116.256 96.1779C113.438 96.6656 111.947 95.0797 110.702 96.3704C106.825 99.0001 105.816 98.4558 103.266 99.012C100.717 99.5682 103.748 100.054 99.2256 102.06C94.7032 104.066 94.9765 102.987 92.427 103.543C89.8776 104.099 93.7697 105.034 88.0074 103.106C82.2451 101.177 83.7776 102.372 81.183 100.39C78.5885 98.4076 82.2763 96.074 77.5416 97.107C72.8069 98.14 72.4805 98.9755 70.0073 96.9669C67.5342 94.9582 67.724 94.6621 65.5082 96.1647C63.2924 97.6674 64.4155 96.4029 61.3878 98.8474C57.343 103.043 58.6559 101.482 57.4757 103.651C56.2955 105.82 58.9664 105.237 58.3779 107.786C54.2744 109.497 51.6121 110.197 50.7939 110.333C50.5423 110.345 49.7401 110.283 48.5443 109.932C47.0496 109.493 40.7785 110.479 40.6226 112.679C40.4667 114.879 38.5966 113.886 40.2996 116.445C42.0025 119.004 43.4819 119.955 43.7473 121.172C44.0126 122.388 43.5343 124.276 42.8059 124.435C42.0775 124.594 42.8589 124.678 43.0407 126.677C43.2225 128.676 46.2841 128.136 44.4703 130.315C42.6566 132.495 42.2851 130.792 40.5855 131.163C38.8858 131.534 37.5842 133.729 34.6672 131.435C29.8158 127.269 28.3855 127.709 28.359 127.587Z" fill="#1D2946"/>
</g>
<path d="M28.359 127.587C28.617 127.021 29.1954 125.825 29.4443 125.566C29.7554 125.244 28.3139 125.049 28.9361 124.403C29.5584 123.758 30.1807 123.112 30.0062 122.896C29.8317 122.679 29.5889 122.732 28.9136 123.134C28.2382 123.536 28.7013 122.161 29.7408 121.679C30.7804 121.198 30.7844 120.05 30.4885 119.86C30.1926 119.669 30.1813 119.035 30.5873 118.564C30.9933 118.093 28.0989 117.068 27.0746 117.037C26.0503 117.006 25.0791 117.217 24.6466 117.567C24.214 117.916 23.1937 116.737 23.1141 116.372C23.0345 116.007 22.0898 116.341 21.4715 115.838C20.8532 115.336 21.2897 113.839 20.2389 113.686C19.1881 113.533 19.1158 114.951 18.1598 114.65C17.395 114.409 16.8576 113.15 16.6844 112.551C17.1612 112.404 18.142 112.003 18.2514 111.572C18.388 111.032 17.0944 110.932 16.5975 110.404C16.1006 109.875 15.1864 109.182 14.8833 107.21C14.6407 105.632 13.2193 106.384 12.5388 106.957C12.2556 107.019 11.5547 106.993 11.0176 106.397C10.3463 105.651 9.27289 104.229 9.38302 103.568C9.49314 102.907 8.22607 102.928 8.84834 102.283C9.34615 101.767 8.55774 100.563 8.10131 100.025C8.32775 99.5085 8.81857 98.416 8.97037 98.1791C9.16011 97.8828 8.08274 97.6082 9.33856 96.952C10.3432 96.427 10.2985 96.1054 10.1506 96.0103C10.5325 96.0119 11.2614 95.9718 11.1218 95.7984C10.9473 95.5816 8.18558 95.1649 8.4171 94.4773C8.64862 93.7897 9.11167 92.4145 9.73394 91.769C10.3562 91.1236 12.5799 87.3256 11.4229 86.6861C10.266 86.0466 8.94582 85.825 8.81314 85.2168C8.68046 84.6087 9.37106 83.6935 9.04864 83.3816C8.72623 83.0697 8.25588 82.6626 8.1232 82.0545C7.99052 81.4464 7.07237 81.9015 7.34569 80.8226C7.61901 79.7436 6.69356 78.4165 7.32711 78.4057C7.96066 78.3949 5.22214 75.1698 5.06292 74.4401C4.9037 73.7103 5.56777 72.6735 5.38201 71.8221C5.19626 70.9707 3.61803 71.315 2.97718 69.5436C2.33633 67.7722 3.36461 66.6559 3.285 66.291C3.20539 65.9261 3.51653 65.6034 3.86946 64.8893C4.90901 64.4077 5.56909 64.5185 5.53128 63.7623C5.49346 63.006 5.68316 62.7098 6.22186 62.8471C6.76056 62.9844 7.53475 61.2865 7.92152 62.4763C8.30828 63.6661 8.19813 64.3271 8.71028 64.3428C9.22242 64.3584 9.31729 64.2103 9.6815 64.1309L9.6818 64.1308C10.0461 64.0513 10.7743 63.8924 11.3393 64.1514C11.9046 64.4104 12.9706 64.0502 15.1367 65.2342C17.3027 66.4181 17.5037 66.7564 18.581 67.031C19.4429 67.2507 20.7508 68.4264 21.297 68.9868C21.498 69.3253 21.8591 70.164 21.6951 70.8113C21.4901 71.6205 20.8638 73.4135 20.621 73.4665C20.3782 73.5195 19.2551 74.7838 18.595 74.673C17.9349 74.5622 15.5221 74.5789 15.1579 74.6584C14.7937 74.7379 13.3256 74.4211 13.0032 74.1092C12.6807 73.7973 12.1003 74.0513 11.4402 73.9405C10.7801 73.8297 10.0557 72.841 9.69145 72.9205C9.32724 72.9999 9.89246 73.2589 10.469 74.1524C11.0455 75.046 12.1606 76.0768 12.5248 75.9974C12.8891 75.9179 14.4786 76.2084 14.1257 76.9224C13.7727 77.6364 13.8788 78.1229 13.9319 78.3661C13.9744 78.5607 14.5387 79.5929 14.8156 80.0846C14.7649 80.4354 14.7904 81.1349 15.2972 81.1263C15.9308 81.1155 16.4316 80.4964 16.5643 81.1047C16.697 81.7129 16.7348 82.4691 17.3153 82.215C17.8957 81.9609 18.3926 82.4896 18.8252 82.1404C19.2577 81.7912 19.7434 81.6855 19.2465 81.1567C18.7495 80.6279 19.3566 80.4955 18.5067 80.6809C17.6569 80.8663 17.6988 80.4751 17.2284 80.068C16.758 79.6608 17.0426 79.2164 16.9895 78.9732C16.9365 78.7301 16.8456 77.7304 17.4108 77.9894C17.976 78.2483 18.6474 78.9938 18.8902 78.9408C19.133 78.8878 19.4972 78.8084 19.9145 78.9722C20.3318 79.1359 20.8174 79.0302 20.8705 79.2734C20.9235 79.5165 21.303 78.924 21.3713 78.6543C21.4396 78.3846 21.4702 77.3586 21.1743 77.1683C20.8784 76.978 20.4233 76.058 20.761 75.8569C21.0987 75.6558 21.5995 75.0368 21.5465 74.7936C21.4934 74.5503 22.0626 73.6616 22.3585 73.8519C22.6543 74.0422 22.8062 72.9897 22.9277 72.9632C23.0491 72.9367 22.8102 71.8421 23.3754 72.101C23.9407 72.36 23.9407 72.36 24.3049 72.2805C24.6691 72.201 24.8323 71.7832 25.3292 72.3119C25.8261 72.8405 26.1903 72.7611 26.1637 72.6395C26.1372 72.5178 26.3422 71.7086 26.4105 71.4389C26.4788 71.1691 26.2248 70.5875 25.9972 70.1274C25.7697 69.6674 25.7166 69.4242 25.3259 69.382C24.9351 69.3398 24.628 68.5149 24.7494 68.4884C24.8708 68.462 24.6585 67.4889 24.9013 67.436C25.1441 67.383 25.0532 66.3835 24.9736 66.0186C24.894 65.6537 24.6929 65.3152 24.5185 65.0986L24.518 65.098C24.3437 64.8815 24.1693 64.6649 23.8737 64.4747C23.5778 64.2845 23.0922 64.3904 23.2819 64.0942C23.4716 63.7979 23.4716 63.7979 23.8889 63.9617C24.3062 64.1255 24.5755 64.1942 24.6969 64.1677L25.1826 64.0618L25.911 63.9028C26.3966 63.7969 27.0832 64.0295 27.2577 64.2462C27.4322 64.4629 27.6332 64.8013 27.7811 64.8964C27.929 64.9915 28.1566 65.4516 28.3045 65.5467C28.4229 65.6228 28.46 66.0649 28.4637 66.2765C28.3019 66.3118 27.9106 66.4226 27.6405 66.5835C27.3028 66.7846 27.2232 66.4197 26.9386 66.8641C26.6122 67.6998 25.9786 67.7106 26.449 68.1176C26.9193 68.5247 27.2152 68.715 27.458 68.662C27.7008 68.609 27.4693 69.2968 27.8866 69.4605C28.1243 69.5785 28.6916 69.769 29.0588 69.5869C29.5179 69.3593 29.9086 69.4015 30.03 69.375C30.1514 69.3485 30.4892 69.1476 30.4361 68.9043C30.383 68.6609 30.034 68.2274 30.2238 67.9312C30.4135 67.6349 30.5767 67.2171 30.2808 67.0268C30.0441 66.8746 30.3365 66.505 30.5124 66.3393C30.7551 66.2863 31.3166 66.0618 31.6202 65.5878C31.9997 64.9953 32.7964 64.5667 33.081 64.1223C33.3656 63.678 33.4645 62.3823 34.098 62.3715C34.7316 62.3606 34.853 62.3342 35.3804 61.8368C35.9078 61.3395 35.6802 60.8795 36.3556 60.4773C37.0309 60.0751 36.9513 59.7103 37.2207 59.7789C37.49 59.8476 37.2054 60.2919 37.4064 60.6303C37.6074 60.9687 37.6452 61.7248 38.036 61.7671C38.4267 61.8094 38.7909 61.7298 38.844 61.9731C38.8971 62.2163 39.0032 62.7028 39.2195 62.5282C39.4357 62.3536 39.3031 61.7455 39.3714 61.4758C39.4397 61.206 39.6295 60.9098 39.9937 60.8303C40.3579 60.7509 40.1569 60.4125 40.5476 60.4546C40.9384 60.4968 40.9118 60.3752 41.3974 60.2692C41.6668 60.3379 42.2487 60.4403 42.4217 60.3006C42.638 60.126 42.7063 59.8562 42.6798 59.7346C42.6532 59.613 43.8447 58.0789 44.1406 58.2692C44.4365 58.4594 45.017 58.2054 45.0282 58.84C45.0395 59.4746 44.5121 59.9718 45.0508 60.1092C45.5895 60.2467 45.4946 60.3949 45.8323 60.1937C46.1699 59.9925 45.7832 58.8027 46.4167 58.7919C47.0503 58.7811 47.6726 58.1356 47.4715 57.7973C47.2705 57.4589 47.1757 57.607 46.6522 56.9567C46.1288 56.3064 46.087 56.6977 45.9543 56.0896C45.8217 55.4815 45.7686 55.2382 45.4727 55.0479C45.1768 54.8576 45.3095 55.4658 44.6912 54.9636C44.0729 54.4614 44.0995 54.583 43.7087 54.5409C43.318 54.4987 43.2496 54.7684 42.9956 54.1868C42.7415 53.6051 42.3507 53.563 42.6088 52.997C42.8669 52.431 42.2904 51.5375 43.1515 51.9867C44.0126 52.4359 44.388 52.991 44.8584 53.3981C45.3287 53.8051 45.8522 54.4554 46.095 54.4024C46.3378 54.3495 47.5253 53.963 48.0374 53.9786C48.5496 53.9943 50.9889 54.0992 51.7551 54.6965C52.5213 55.2939 52.7642 55.241 53.3294 55.4999C53.8946 55.7588 54.2853 55.801 54.9985 56.1551C55.7117 56.5091 55.7535 56.1178 56.1289 56.6729C56.5044 57.2281 56.2616 57.2811 57.0696 57.487C57.8777 57.6929 57.0544 58 57.6196 58.2589C58.1848 58.5178 58.4203 56.6827 58.3142 56.1962C58.208 55.7096 57.7908 55.5459 57.4949 55.3556C57.199 55.1652 56.5542 54.5414 56.5694 54.0284C56.5847 53.5154 56.2092 52.9603 55.8715 53.1613C55.5339 53.3624 55.439 53.5107 54.8207 53.0084C54.2024 52.5062 54.0432 51.7765 54.4074 51.697C54.7716 51.6175 54.9195 51.7126 54.692 51.2526C54.4644 50.7926 54.3471 49.6716 54.3205 49.5499C54.294 49.4282 54.6734 48.8357 54.351 48.5238C54.0286 48.2119 54.0551 48.3335 53.6644 48.2914C53.2736 48.2492 53.0461 47.7892 53.1828 47.2497C53.3194 46.7102 53.7672 45.848 54.01 45.795C54.2528 45.7421 54.822 44.8534 54.8638 44.462C54.8972 44.1489 54.9361 43.0447 54.9514 42.5317L54.8758 41.0192L54.8114 40.1413C54.8317 39.4573 54.9316 38.1273 55.1683 38.2796C55.4642 38.4698 55.1265 38.671 55.855 38.5121C56.5834 38.3532 56.921 38.1521 57.1904 38.2207C57.4597 38.2894 57.327 37.6812 57.8657 37.8186C58.4044 37.9559 58.4727 37.6861 58.7686 37.8764C59.0645 38.0667 59.4022 37.8656 59.7246 38.1775C60.047 38.4894 60.1684 38.463 60.2215 38.7062L60.4603 39.8007C60.6195 40.5306 60.4981 40.5571 60.4411 41.4614C60.384 42.3658 60.6686 41.9215 60.2739 43.0269C60.1525 43.0534 59.5302 43.6988 59.8526 44.0107C60.175 44.3227 60.0802 44.4708 60.4026 44.7827C60.725 45.0946 61.2106 44.9885 61.3167 45.4751C61.4229 45.9617 61.6922 46.0303 61.6504 46.4217C61.6086 46.813 61.3811 46.353 61.6617 47.0563C61.9423 47.7596 61.8627 47.3947 61.9689 47.8812C62.075 48.3677 62.0067 48.6375 61.9118 48.7856C61.8169 48.9337 61.9231 49.4203 62.071 49.5153C62.219 49.6104 62.1772 50.0018 62.2302 50.2451C62.2727 50.4397 62.4527 50.8761 62.5374 51.07C62.5235 51.2004 62.5062 51.5099 62.5487 51.7046L62.6813 52.3127C62.8065 52.4978 63.0379 52.8976 62.962 53.016C62.8671 53.1642 62.6243 53.2171 62.9998 53.7723C63.3002 54.2164 63.6712 54.5177 63.8191 54.6129L64.7333 55.3054C64.8407 55.4093 65.0124 55.6522 64.8394 55.7919C64.6231 55.9665 64.6079 56.4795 64.513 56.6276C64.4181 56.7756 64.107 57.0984 64.4294 57.4103C64.6874 57.6598 64.8049 57.9655 64.8314 58.0871C64.8301 58.4696 64.7357 59.2802 64.3684 59.4623C63.9093 59.6899 64.0573 59.785 63.8523 60.5942C63.6473 61.4035 63.6851 62.1597 63.3209 62.2392C62.9567 62.3186 63.2526 62.5089 62.5241 62.6678C61.7957 62.8268 61.1774 62.3246 61.1887 62.9592C61.2 63.5938 60.6613 63.4565 61.3745 63.8106C62.0876 64.1647 62.4518 64.0852 62.9374 63.9793C63.423 63.8733 63.6924 63.942 64.2045 63.9576C64.7167 63.9733 64.6901 63.8517 64.7585 63.582C64.8268 63.3122 64.6145 62.3392 65.1267 62.3549C65.6388 62.3706 65.8969 61.8046 66.0866 61.5084C66.2763 61.2121 66.3181 60.8208 66.2385 60.4559C66.1589 60.091 66.4057 58.8904 66.6485 58.8374C66.8913 58.7844 67.1912 57.8271 66.9902 57.4887C66.7892 57.1503 66.6299 56.4206 66.3075 56.1086C65.9851 55.7967 65.5565 54.9983 65.7728 54.8237C65.9891 54.6491 65.8299 53.9194 66.342 53.935C66.8542 53.9507 66.7215 53.3426 67.3285 53.2101C67.9355 53.0777 68.0038 52.808 68.2732 52.8766C68.5425 52.9453 68.9067 52.8658 69.1608 53.4475C69.4149 54.0291 69.7791 53.9497 69.8587 54.3145L70.0975 55.4092C70.2037 55.8957 69.7711 56.2449 70.067 56.4352C70.3629 56.6254 70.7118 57.059 70.7271 56.546C70.7424 56.033 70.5831 55.3032 70.826 55.2503C71.0688 55.1973 71.1106 54.8059 70.9361 54.5891C70.7616 54.3724 70.28 53.3307 70.132 53.2356L69.5403 52.855C69.3923 52.7598 69.0281 52.8393 68.5578 52.4323C68.0874 52.0252 67.9926 52.1733 67.7232 52.1047C67.4539 52.036 67.4273 51.9144 67.0897 52.1155C66.752 52.3166 66.6571 52.4647 66.3195 52.6658C65.9818 52.8669 66.0767 52.7188 65.7124 52.7982C65.3482 52.8777 65.4431 52.7296 65.1054 52.9306C64.7678 53.1317 64.8208 53.375 64.6198 53.0366C64.4188 52.6982 64.7187 51.7409 64.2749 51.4554C63.831 51.17 63.5239 50.3451 63.7667 50.2921C63.9609 50.2498 63.7517 49.446 63.6227 49.0494L64.2072 47.6477C63.9215 47.1154 63.2803 45.9642 63.0011 45.6173C62.6522 45.1837 62.6256 45.0622 62.2767 44.6286C61.9277 44.1951 61.5522 43.6399 61.7685 43.4653C61.9848 43.2907 61.6776 42.4658 62.1102 42.1166C62.5427 41.7674 62.5845 41.3759 63.0854 40.757C63.5862 40.1382 63.6015 39.6252 63.5219 39.2603C63.4582 38.9684 63.0858 38.0388 62.9076 37.6105C62.8545 37.3672 62.8424 36.9621 63.2187 37.2877C63.6891 37.6948 63.6625 37.573 63.7952 38.1812C63.9279 38.7894 64.3299 39.4662 64.1136 39.6408C63.8974 39.8154 64.4208 40.4657 64.1097 40.7885C63.7985 41.1112 64.1057 41.9361 64.2802 42.1528C64.4546 42.3695 64.4128 42.761 64.4394 42.8826C64.4659 43.0042 64.4772 43.6389 64.8945 43.8027C65.3118 43.9664 65.3914 44.3313 66.3626 44.1194C67.3338 43.9075 67.4552 43.8811 67.846 43.9232C68.2367 43.9653 68.0204 44.14 68.3163 44.3303C68.6122 44.5205 68.5704 44.9119 69.056 44.806C69.5416 44.7 69.6895 44.7952 69.8793 44.4989C70.069 44.2027 70.0159 43.9594 69.7731 44.0124C69.5303 44.0654 69.4773 43.8221 69.1814 43.6319C68.8855 43.4416 69.0487 43.0237 68.5365 43.008C68.0244 42.9924 67.9295 43.1405 67.3909 43.0032C66.8522 42.8659 66.488 42.9454 66.139 42.5118L66.1386 42.5113C65.7898 42.0778 65.4411 41.6446 65.3615 41.2798C65.2819 40.915 65.3237 40.5236 65.5665 40.4706C65.8093 40.4176 66.0256 40.243 66.2949 40.3117C66.5643 40.3803 66.7653 40.7187 67.0346 40.7874C67.3039 40.856 67.8426 40.9934 68.0058 40.5755C68.169 40.1576 68.2374 39.888 68.0894 39.7928C67.9415 39.6975 68.0098 39.4279 67.5507 39.6554C67.0916 39.8829 67.1182 40.0045 66.9702 39.9094C66.8223 39.8144 66.4999 39.5025 66.8376 39.3014C67.1077 39.1405 67.284 38.8217 67.3384 38.6824C67.3928 38.5431 67.5987 38.2433 67.9872 38.1585C68.4728 38.0526 68.5677 37.9046 69.3492 37.9889C70.1307 38.0732 70.4531 38.3852 71.0183 38.6441C71.5835 38.9029 71.758 39.1198 72.0804 39.4317C72.4029 39.7436 72.6569 40.3252 73.0212 40.2458C73.3854 40.1663 73.6016 39.9917 74.0607 39.7641C74.5198 39.5366 74.6677 39.6317 75.0319 39.5522C75.3961 39.4728 75.491 39.3247 75.4645 39.203C75.4379 39.0814 75.142 38.8911 74.8992 38.9441C74.6564 38.9971 74.1708 39.103 73.9963 38.8863C73.8219 38.6695 73.7953 38.5479 73.6209 38.3311C73.4464 38.1143 73.9207 37.3738 73.1658 37.4111C72.4108 37.4483 71.8303 37.7024 71.6559 37.4856L71.6557 37.4854C71.4813 37.2687 71.3069 37.0521 71.2538 36.8089L71.0415 35.8358C70.9619 35.4709 71.1669 34.6617 70.7497 34.4979C70.3324 34.3341 70.2262 33.8476 70.268 33.4563C70.3098 33.0649 69.8925 32.9011 69.9609 32.6313C70.0292 32.3616 69.9761 32.1184 70.1924 31.9438C70.4087 31.7691 71.7328 30.8432 72.1236 30.8853C72.5143 30.9275 73.2162 30.6469 73.8232 30.5145C74.4302 30.3821 74.8627 30.0328 74.9576 29.8847C75.0335 29.7662 75.5735 29.7928 75.834 29.8209C75.9237 29.8438 76.1465 29.8546 76.3196 29.715C76.5358 29.5404 76.6725 29.0009 76.7939 28.9744C76.9153 28.9479 77.4692 28.5722 77.5906 28.5457C77.6878 28.5246 78.099 28.3499 78.2925 28.2652L78.0537 27.1705C78.0993 26.9907 78.091 26.5253 77.6935 26.1024C77.1966 25.5737 78.2142 19.7453 79.4548 19.6021C80.6954 19.4589 85.9237 16.0248 85.9276 14.8771C85.9316 13.7295 87.829 10.7672 88.4851 12.0257C89.1412 13.2841 86.2918 14.7977 88.3557 14.3474L88.3559 14.3474C90.4197 13.8971 92.6048 13.4204 92.366 12.3257C92.1271 11.2311 91.1294 11.3213 91.5088 10.7289C91.8883 10.1364 92.8177 10.3159 93.8308 9.71263C94.8438 9.10937 93.5807 7.98336 93.907 7.14765C94.2334 6.31194 94.1273 5.82543 94.67 4.81511C95.1041 4.00686 96.3939 2.61268 96.9846 2.01661C97.6991 1.98815 99.1925 1.9936 99.4504 2.24313C99.7728 2.55503 100.85 2.82965 100.213 3.98808C99.5751 5.14651 100.706 5.66438 101.313 5.53194C101.92 5.3995 102.675 5.36221 102.538 5.90169C102.401 6.44118 101.938 7.81639 102.556 8.31856C103.175 8.82074 104.256 7.94774 104.393 7.40826C104.529 6.86877 109.12 4.59299 110.823 7.15205C112.526 9.71111 113.33 11.0645 113.083 12.2652C112.837 13.4659 112.912 14.9784 112.047 15.6768C111.182 16.3752 110.951 17.0628 110.207 17.7347C109.463 18.4066 109.285 19.3376 108.784 19.9564C108.283 20.5753 108.093 20.8717 107.862 21.5592C107.68 22.0993 106.402 24.4762 105.753 25.6585C105.84 25.6366 106.012 25.6123 106.325 25.5896C107.201 25.5259 108.958 24.2508 109.242 23.8064C109.527 23.3619 110.16 23.3509 110.529 22.124C110.823 21.1424 112.513 21.3089 113.321 21.5148C113.303 21.4336 113.448 21.283 114.171 21.3294C114.293 21.3372 114.387 21.3419 114.458 21.3442C114.441 21.3203 114.426 21.2975 114.413 21.2764C114.596 21.3071 114.806 21.3554 114.458 21.3442C114.621 21.5767 114.982 21.9169 115.423 21.8209C116.03 21.6885 117.19 21.1803 117.407 21.0057C117.623 20.8311 118.541 20.376 119.471 20.5554C120.214 20.699 121.128 20.576 121.493 20.4965C121.848 20.3765 122.55 20.2148 122.517 20.5279C122.475 20.9193 122.016 21.1469 122.122 21.6333C122.228 22.1198 123.655 22.828 124.019 22.7485C124.383 22.6691 126.917 22.6259 127.16 22.5729L128.86 22.2021C129.062 22.1579 129.435 21.9237 129.308 21.3399C129.148 20.61 127.646 18.3893 128.618 18.1774C129.589 17.9655 129.9 17.6429 130.518 18.1451C131.137 18.6473 131.095 19.0387 132.066 18.8268C133.037 18.6149 133.565 18.1176 134.373 18.3235C135.181 18.5295 135.962 18.6137 136.432 19.0208C136.903 19.4279 136.982 19.7928 137.115 20.4009C137.248 21.0091 136.477 25.6368 139.678 27.4866C142.24 28.9665 142.789 26.9778 142.744 25.7985C142.541 24.866 142.392 23.2506 143.423 24.2487C144.713 25.4963 144.937 27.1039 146.155 25.6914C147.373 24.2789 147.767 23.1735 150.112 23.4265C152.456 23.6795 153.291 24.0071 153.284 22.2248C153.276 20.4426 152.951 17.2009 154.324 17.6657C155.697 18.1305 157.048 17.3263 158.679 17.2252C159.984 17.1443 162.134 17.3208 163.045 17.4192L165.913 18.3225L168.034 21.0454C168.585 21.4348 169.979 22.15 171.144 21.8957L174.301 21.2071C175.515 20.9422 180.253 18.7616 181.365 20.9401C182.476 23.1185 179.558 24.9019 182.24 24.9538C184.386 24.9952 188.673 23.9325 190.549 23.3959L193.569 23.2467C194.512 23.2957 196.452 23.637 196.664 24.61C196.929 25.8263 196.528 21.072 197.89 20.9023C199.252 20.7326 200.174 19.1297 203.433 20.0752C206.691 21.0207 207.769 21.2954 208.562 22.0143C209.196 22.5895 210.373 24.2948 210.883 25.0755C212.196 28.5691 214.539 35.7709 213.404 36.6302C212.268 37.4895 210.584 37.5003 209.883 37.3984C210.672 37.9058 212.308 39.1882 212.542 40.2585C212.834 41.5964 215.121 42.7538 213.365 44.029C210.026 45.9806 206.009 49.3713 204.418 50.8227C203.938 51.7343 202.974 53.5331 202.953 53.4358C202.927 53.3142 201.421 52.2412 200.798 52.8866C200.301 53.4029 199.357 54.0506 198.947 54.3099L197.607 55.7489C198.108 55.1299 198.778 54.1175 197.448 55.0191C195.786 56.1462 195.195 55.7656 194.937 56.3316C194.679 56.8976 194.003 57.2997 194.014 57.9344C194.026 58.569 193.218 58.363 193.51 59.7009C193.743 60.7712 194.15 61.4724 194.325 61.6891C194.269 62.211 194.281 63.355 194.776 63.7568C195.394 64.259 195.971 65.1526 195.28 66.0677C194.59 66.9829 194.692 68.617 194.677 69.13C194.661 69.643 194.066 70.4101 193.633 70.7593C193.2 71.1085 193.238 71.8647 193.033 72.674C192.828 73.4832 191.884 73.8167 191.747 74.3562C191.61 74.8957 192.213 75.9109 191.496 76.7044C190.779 77.498 190.775 78.6456 190.263 78.6299C189.751 78.6142 189.064 78.3818 188.583 77.3401C188.101 76.2984 186.095 71.7669 186.178 70.9841C186.262 70.2014 185.591 65.3785 186.255 64.3417C186.919 63.3048 188.259 61.8659 188.57 61.5431C188.881 61.2204 190.331 59.1203 190.615 58.676C190.9 58.2317 192.482 56.7397 192.634 55.6872C192.786 54.6347 194.167 52.8044 194.008 52.0746C193.849 51.3449 194.259 49.7264 193.815 49.441C193.46 49.2127 192.45 50.3758 191.99 50.9859C191.721 51.8939 191.064 53.7363 190.578 53.8423C189.971 53.9747 190.289 55.4342 189.159 54.9164C188.029 54.3985 187.657 52.6957 187.699 52.3043C187.741 51.913 186.42 51.6913 185.867 52.067C185.313 52.4427 183.549 51.9356 183.734 52.787C183.92 53.6384 182.406 54.8606 182.36 56.3996C182.315 57.9386 181.905 59.5571 182.375 59.9641C182.845 60.3712 181.844 61.6091 180.846 61.6993C179.848 61.7896 180.281 61.4404 178.839 61.2452C177.398 61.0501 176.905 59.3738 175.512 60.5695C174.12 61.7652 173.027 62.0036 171.57 62.3215C170.113 62.6393 167.701 62.6561 167.078 63.3015C166.456 63.9469 166.122 63.0004 165.105 64.7513C164.088 66.5022 162.73 69.6018 161.755 70.9613C160.779 72.3208 159.542 75.3939 158.893 75.9177C158.244 76.4415 157.137 77.1929 158.267 77.7108C159.397 78.2286 161.362 79.0741 162.55 78.6876C163.737 78.3011 165.558 77.9038 166.689 78.4217C167.819 78.9395 168.013 77.4957 168.377 77.4162C168.669 77.3526 168.703 80.658 168.684 82.3186C168.265 82.5374 167.375 83.5471 167.162 85.8361C166.896 88.6973 166.072 93.0818 166 94.4992C165.927 95.9165 164.694 97.842 163.856 98.662C163.017 99.4821 164.344 101.486 161.916 102.016C159.488 102.545 158.111 103.228 157.645 101.674C157.178 100.119 158.101 98.5161 159.319 97.1036C160.537 95.6911 161.227 94.7759 160.803 92.8299C160.378 90.8838 161.148 94.411 157.525 93.545C153.902 92.679 153.883 94.3396 152.248 91.5108C150.613 88.682 151.194 88.428 147.924 86.8479C144.654 85.2678 143.721 82.1585 142.154 83.1374C140.587 84.1164 137.632 85.1434 137.844 86.1165C138.056 87.0895 139.771 90.2831 138.959 91.2248C138.147 92.1665 135.817 95.478 132.49 94.8022C129.163 94.1265 130.502 96.7651 126.981 97.5333C123.46 98.3014 124.405 97.9677 121.321 97.239C118.237 96.5103 119.075 95.6902 116.256 96.1779C113.438 96.6656 111.947 95.0797 110.702 96.3704C106.825 99.0001 105.816 98.4558 103.266 99.012C100.717 99.5682 103.748 100.054 99.2256 102.06C94.7032 104.066 94.9765 102.987 92.427 103.543C89.8776 104.099 93.7697 105.034 88.0074 103.106C82.2451 101.177 83.7776 102.372 81.183 100.39C78.5885 98.4076 82.2763 96.074 77.5416 97.107C72.8069 98.14 72.4805 98.9755 70.0073 96.9669C67.5342 94.9582 67.724 94.6621 65.5082 96.1647C63.2924 97.6674 64.4155 96.4029 61.3878 98.8474C57.343 103.043 58.6559 101.482 57.4757 103.651C56.2955 105.82 58.9664 105.237 58.3779 107.786C54.2744 109.497 51.6121 110.197 50.7939 110.333C50.5423 110.345 49.7401 110.283 48.5443 109.932C47.0496 109.493 40.7785 110.479 40.6226 112.679C40.4667 114.879 38.5966 113.886 40.2996 116.445C42.0025 119.004 43.4819 119.955 43.7473 121.172C44.0126 122.388 43.5343 124.276 42.8059 124.435C42.0775 124.594 42.8589 124.678 43.0407 126.677C43.2225 128.676 46.2841 128.136 44.4703 130.315C42.6566 132.495 42.2851 130.792 40.5855 131.163C38.8858 131.534 37.5842 133.729 34.6672 131.435C29.8158 127.269 28.3855 127.709 28.359 127.587Z" stroke="#172340" stroke-width="3"/>
<defs>
<filter id="filter0_i" x="-10.4053" y="-22.6718" width="238.291" height="165.799" filterUnits="userSpaceOnUse" color-interpolation-filters="sRGB">
<feFlood flood-opacity="0" result="BackgroundImageFix"/>
<feBlend mode="normal" in="SourceGraphic" in2="BackgroundImageFix" result="shape"/>
<feColorMatrix in="SourceAlpha" type="matrix" values="0 0 0 0 0 0 0 0 0 0 0 0 0 0 0 0 0 0 127 0" result="hardAlpha"/>
<feOffset dy="4"/>
<feGaussianBlur stdDeviation="2"/>
<feComposite in2="hardAlpha" operator="arithmetic" k2="-1" k3="1"/>
<feColorMatrix type="matrix" values="0 0 0 0 0 0 0 0 0 0 0 0 0 0 0 0 0 0 0.55 0"/>
<feBlend mode="normal" in2="shape" result="effect1_innerShadow"/>
</filter>
</defs>
</svg>
