<svg width="230" height="200" viewBox="0 0 230 200" fill="none" xmlns="http://www.w3.org/2000/svg">
<g clip-path="url(#clip0)">
<mask id="mask0" mask-type="alpha" maskUnits="userSpaceOnUse" x="6" y="0" width="304" height="127">
<rect x="6" width="304" height="127" fill="url(#paint0_linear)"/>
<rect x="6" width="304" height="127" fill="url(#paint1_linear)"/>
</mask>
<g mask="url(#mask0)">
<g filter="url(#filter0_i)">
<path d="M82.9992 29C81.9992 29 43.9992 12 41.4992 12H34.999C33.999 12 33.499 16 31.9992 18C30.4994 20 40.499 24 41.4992 25.5C42.2994 26.7 55.4992 36 61.999 40.5L42.999 50.5C34.3324 48 16.799 43.2 15.999 44C14.999 45 12.9992 46.5 11.9992 47.5C10.9992 48.5 11.4992 54.5 11.9992 56C12.4992 57.5 25.4992 61.5 26.9992 62.5C28.4992 63.5 31.9992 65 31.9992 66.5C31.9992 67.7 26.9992 69.3333 24.4992 70C25.3326 71.8333 26.9992 75.7 26.9992 76.5C26.9992 77.5 30.4992 82.5 31.9992 83C33.1992 83.4 62.4992 67.8333 76.9992 60C76.4992 67 75.1992 82.1 73.9992 86.5C72.7992 90.9 72.4992 99.3333 72.4992 103L75.4992 107C77.1659 106.5 80.9992 105.5 82.9992 105.5C84.9992 105.5 83.8326 103.833 82.9992 103L105.999 48.5L114.999 44C117.999 42.5 137.499 34 138.999 33C140.499 32 145.999 22 147.499 19.5C148.699 17.5 146.999 14.3333 145.999 13L134.999 8.5C123.833 13.3333 101.199 23.2 99.9992 24C98.4992 25 83.9992 29 82.9992 29Z" fill="#1E2A48"/>
</g>
<path d="M23.3695 68.0936C22.1225 68.6782 21.5687 70.1577 22.12 71.4252L27.7723 83.737C28.05 84.3501 28.5584 84.8283 29.1848 85.0653C29.4592 85.1665 29.7504 85.2192 30.0433 85.22C30.4099 85.2243 30.7719 85.1464 31.1057 84.9952L74.1434 64.9088L70.1304 105.879C70.0528 106.686 70.3593 107.48 70.957 108.021C72.8367 109.596 75.1822 110.498 77.6252 110.585C78.2989 110.587 78.969 110.503 79.6226 110.338C83.1143 109.431 85.8288 106.309 87.6899 100.968L104.751 50.5917L138.294 34.9575C148.168 30.3542 153.276 20.9764 149.886 13.635C147.96 9.79749 144.259 7.17995 140.021 6.65655C135.312 5.92689 130.496 6.6589 126.211 8.7556L87.5018 26.8928L45.9885 10.4032C40.7604 8.40292 36.6149 8.44178 33.7015 10.5465C31.2564 12.5545 29.8596 15.5796 29.9097 18.7564C29.9327 19.5624 30.3335 20.3089 30.9908 20.7716L58.92 40.2242L42.8703 47.8139L16.0153 40.8613C14.9148 40.5854 13.7669 41.0819 13.2059 42.0751L6.47164 54.1967C6.1222 54.839 6.06533 55.6025 6.31587 56.2904C6.56482 56.9791 7.09683 57.5251 7.77614 57.7901L27.6482 66.122L23.3695 68.0936ZM35.0951 17.4993C35.2471 16.4236 35.7907 15.4455 36.6209 14.7544C38.0657 13.7144 40.6945 13.8752 44.2042 15.2087L81.1737 29.8524L64.2618 37.7448L35.0951 17.4993ZM12.2353 54.1889L16.6571 46.3364L42.5008 52.8771C43.0577 53.0206 43.6461 52.9689 44.1709 52.7305L128.347 13.4451C131.694 11.7953 135.459 11.2021 139.147 11.7454C141.733 11.9929 144.034 13.5031 145.304 15.7851C147.412 20.3741 143.222 27.0563 136.158 30.3445L106.994 44.0058L108.78 38.7403C109.231 37.3857 108.505 35.9184 107.159 35.4649C105.812 35.0113 104.356 35.7428 103.905 37.0974L82.9158 99.3747C81.6664 102.91 80.118 105.019 78.3979 105.471C77.3324 105.674 76.231 105.46 75.3151 104.877L80.5285 51.4358C80.6648 50.0308 79.6448 48.7803 78.2479 48.6431C76.8525 48.5042 75.6104 49.5329 75.4733 50.9379L74.6663 59.1063L31.2228 79.3429L27.6825 71.6958L34.8201 68.3576C35.7389 67.9529 36.3329 67.0411 36.3359 66.0327C36.3389 65.0235 35.7501 64.1083 34.8338 63.6991L12.2353 54.1889Z" fill="#1C2845"/>
</g>
</g>
<defs>
<filter id="filter0_i" x="11.4219" y="8.5" width="136.49" height="98.5" filterUnits="userSpaceOnUse" color-interpolation-filters="sRGB">
<feFlood flood-opacity="0" result="BackgroundImageFix"/>
<feBlend mode="normal" in="SourceGraphic" in2="BackgroundImageFix" result="shape"/>
<feColorMatrix in="SourceAlpha" type="matrix" values="0 0 0 0 0 0 0 0 0 0 0 0 0 0 0 0 0 0 127 0" result="hardAlpha"/>
<feOffset/>
<feGaussianBlur stdDeviation="5"/>
<feComposite in2="hardAlpha" operator="arithmetic" k2="-1" k3="1"/>
<feColorMatrix type="matrix" values="0 0 0 0 0 0 0 0 0 0 0 0 0 0 0 0 0 0 1 0"/>
<feBlend mode="normal" in2="shape" result="effect1_innerShadow"/>
</filter>
<linearGradient id="paint0_linear" x1="352.085" y1="106.754" x2="5.42158" y2="-15.3183" gradientUnits="userSpaceOnUse">
<stop stop-color="#60719D" stop-opacity="0.1"/>
<stop offset="0.546875" stop-color="#3B496E" stop-opacity="0.725913"/>
<stop offset="0.998777" stop-color="#2A375A"/>
</linearGradient>
<linearGradient id="paint1_linear" x1="460.515" y1="104.26" x2="5.99998" y2="103.277" gradientUnits="userSpaceOnUse">
<stop stop-color="#1A2643"/>
<stop offset="1" stop-color="#1A2643" stop-opacity="0"/>
</linearGradient>
<clipPath id="clip0">
<rect width="230" height="200" fill="white"/>
</clipPath>
</defs>
</svg>
