<svg width="30" height="56" viewBox="0 0 30 56" fill="none" xmlns="http://www.w3.org/2000/svg">
<path d="M14.0489 2.92705C14.3483 2.00574 15.6517 2.00574 15.9511 2.92705L18.1432 9.67376C18.2771 10.0858 18.661 10.3647 19.0943 10.3647H26.1882C27.1569 10.3647 27.5597 11.6044 26.776 12.1738L21.0369 16.3435C20.6864 16.5981 20.5397 17.0495 20.6736 17.4615L22.8657 24.2082C23.1651 25.1295 22.1106 25.8956 21.3269 25.3262L15.5878 21.1565C15.2373 20.9019 14.7627 20.9019 14.4122 21.1565L8.67312 25.3262C7.88941 25.8956 6.83493 25.1295 7.13428 24.2082L9.32642 17.4615C9.46029 17.0495 9.31363 16.5981 8.96315 16.3435L3.22405 12.1738C2.44034 11.6044 2.84311 10.3647 3.81184 10.3647H10.9057C11.339 10.3647 11.7229 10.0858 11.8568 9.67376L14.0489 2.92705Z" fill="url(#paint0_linear)"/>
<path d="M14.0489 28.9271C14.3483 28.0057 15.6517 28.0057 15.9511 28.9271L18.1432 35.6738C18.2771 36.0858 18.661 36.3647 19.0943 36.3647H26.1882C27.1569 36.3647 27.5597 37.6044 26.776 38.1738L21.0369 42.3435C20.6864 42.5981 20.5397 43.0495 20.6736 43.4615L22.8657 50.2082C23.1651 51.1295 22.1106 51.8956 21.3269 51.3262L15.5878 47.1565C15.2373 46.9019 14.7627 46.9019 14.4122 47.1565L8.67312 51.3262C7.88941 51.8956 6.83493 51.1295 7.13428 50.2082L9.32642 43.4615C9.46029 43.0495 9.31363 42.5981 8.96315 42.3435L3.22405 38.1738C2.44034 37.6044 2.84311 36.3647 3.81184 36.3647H10.9057C11.339 36.3647 11.7229 36.0858 11.8568 35.6738L14.0489 28.9271Z" fill="white" fill-opacity="0.5"/>
<defs>
<linearGradient id="paint0_linear" x1="-1.009e-06" y1="0.0746784" x2="24.9821" y2="-2.34349" gradientUnits="userSpaceOnUse">
<stop stop-color="#FFC738"/>
<stop offset="1" stop-color="#FF9B00"/>
</linearGradient>
</defs>
</svg>
