<svg width="72" height="67" viewBox="0 0 72 67" fill="none" xmlns="http://www.w3.org/2000/svg">
<path d="M40.7219 62.2186V50.9084C40.7219 49.3737 41.9698 48.1307 43.5083 48.1307C48.9983 48.1307 51.985 42.518 52.3995 31.4385H43.5083C41.97 31.4385 40.7219 30.1937 40.7219 28.6608V4.77869C40.7219 3.24463 41.9698 2.00166 43.5083 2.00166H67.2134C68.7515 2.00166 70 3.24599 70 4.77869V28.661C70 33.9718 69.4622 38.8452 68.4064 43.1493C67.3217 47.5616 65.6568 51.4191 63.4588 54.6157C61.1984 57.9007 58.3684 60.4785 55.0523 62.2738C51.7111 64.0805 47.8272 64.9974 43.5072 64.9974C41.97 64.9962 40.7219 63.7521 40.7219 62.2186ZM4.78582 48.1298C3.24749 48.1298 2 49.3737 2 50.9062V62.2188C2 63.7521 3.24749 64.9953 4.78582 64.9953C9.10373 64.9953 12.9896 64.0781 16.3286 62.2716C19.6464 60.4766 22.4761 57.9009 24.7363 54.6136C26.9356 51.4169 28.6004 47.5593 29.685 43.1449C30.7414 38.8408 31.2781 33.9671 31.2781 28.6587V4.77636C31.2781 3.2423 30.0294 1.99933 28.4917 1.99933H4.78582C3.24749 1.99933 2 3.24347 2 4.77636V28.6587C2 30.1926 3.24749 31.4363 4.78582 31.4363H13.5522C13.1427 42.5169 10.1991 48.1298 4.78582 48.1298Z" stroke="#42506E" stroke-width="2.5"/>
</svg>
