<svg width="25" height="47" viewBox="0 0 25 47" fill="none" xmlns="http://www.w3.org/2000/svg">
<path d="M11.5483 2.94995C11.8464 2.02599 13.1536 2.02599 13.4517 2.94995L15.0829 8.00601C15.2161 8.41905 15.6006 8.69898 16.0346 8.69898H21.3282C22.2952 8.69898 22.6991 9.93497 21.9187 10.506L17.6239 13.6487C17.2759 13.9033 17.1303 14.3523 17.2627 14.7627L18.9003 19.8387C19.1979 20.7613 18.1404 21.5252 17.358 20.9528L13.0905 17.8301C12.7389 17.5728 12.2611 17.5728 11.9095 17.8301L7.64195 20.9528C6.85964 21.5252 5.8021 20.7613 6.09973 19.8387L7.73732 14.7627C7.86971 14.3523 7.72414 13.9033 7.37614 13.6487L3.0813 10.506C2.30092 9.93497 2.70483 8.69898 3.67183 8.69898H8.96544C9.39943 8.69898 9.78389 8.41905 9.91714 8.00601L11.5483 2.94995Z" fill="url(#paint0_linear)"/>
<path d="M11.5483 24.7714C11.8464 23.8474 13.1536 23.8474 13.4517 24.7714L15.0829 29.8274C15.2161 30.2405 15.6006 30.5204 16.0346 30.5204H21.3282C22.2952 30.5204 22.6991 31.7564 21.9187 32.3274L17.6239 35.4701C17.2759 35.7247 17.1303 36.1738 17.2627 36.5841L18.9003 41.6601C19.1979 42.5827 18.1404 43.3466 17.358 42.7742L13.0905 39.6515C12.7389 39.3942 12.2611 39.3942 11.9095 39.6515L7.64195 42.7742C6.85964 43.3466 5.8021 42.5827 6.09973 41.6601L7.73732 36.5841C7.86971 36.1738 7.72414 35.7247 7.37614 35.4701L3.0813 32.3274C2.30092 31.7564 2.70483 30.5204 3.67183 30.5204H8.96544C9.39943 30.5204 9.78389 30.2405 9.91714 29.8274L11.5483 24.7714Z" fill="white" fill-opacity="0.5"/>
<defs>
<linearGradient id="paint0_linear" x1="-8.40831e-07" y1="0.0626765" x2="20.8211" y2="-1.93843" gradientUnits="userSpaceOnUse">
<stop stop-color="#FFC738"/>
<stop offset="1" stop-color="#FF9B00"/>
</linearGradient>
</defs>
</svg>
