<svg width="23" height="24" viewBox="0 0 23 24" fill="none" xmlns="http://www.w3.org/2000/svg">
<g clip-path="url(#clip0)">
<path fill-rule="evenodd" clip-rule="evenodd" d="M20.1346 7.86738C19.9041 7.39279 20.1035 6.82141 20.5798 6.59169C21.0546 6.3615 21.6296 6.55974 21.8596 7.0355C22.6163 8.59245 23 10.2709 23 12.0224C23 18.3427 17.8408 23.4854 11.5 23.4854C5.15923 23.4854 0 18.3427 0 12.0224C0 5.70197 5.15923 0.559326 11.5 0.559326C14.0898 0.559326 16.6262 1.43855 18.6419 3.03538C19.0565 3.36351 19.1255 3.96474 18.7958 4.37754C18.4662 4.79056 17.8623 4.85936 17.4493 4.53076C15.7468 3.18254 13.6897 2.46983 11.5 2.46983C6.21583 2.46983 1.91667 6.75517 1.91667 12.0224C1.91667 17.2895 6.21583 21.5749 11.5 21.5749C16.7842 21.5749 21.0833 17.2895 21.0833 12.0224C21.0833 10.5613 20.7642 9.16383 20.1346 7.86738ZM10.5415 5.33551C10.5415 4.80821 10.9708 4.38025 11.4998 4.38025C12.0288 4.38025 12.4582 4.80821 12.4582 5.33551V11.067H16.2915C16.8205 11.067 17.2498 11.495 17.2498 12.0223C17.2498 12.5496 16.8205 12.9775 16.2915 12.9775H11.4998C10.9708 12.9775 10.5415 12.5496 10.5415 12.0223V5.33551Z" fill="url(#paint0_linear)"/>
</g>
<defs>
<linearGradient id="paint0_linear" x1="-7.73565e-07" y1="0.616396" x2="19.1518" y2="-1.2434" gradientUnits="userSpaceOnUse">
<stop stop-color="#FFC738"/>
<stop offset="1" stop-color="#FF9B00"/>
</linearGradient>
<clipPath id="clip0">
<rect width="23" height="22.9261" fill="white" transform="translate(0 0.559326)"/>
</clipPath>
</defs>
</svg>
