<svg width="40" height="40" viewBox="0 0 40 40" fill="none" xmlns="http://www.w3.org/2000/svg">
<circle cx="20" cy="20" r="20" fill="url(#paint0_linear)"/>
<g clip-path="url(#clip0)">
<path d="M32.135 12.7272C31.616 12.2044 30.8992 11.8955 30.0837 11.8955H25.981V11.848C25.981 11.2539 25.7338 10.6835 25.3137 10.3033C24.8935 9.89929 24.3251 9.66165 23.7072 9.66165H16.2928C15.6502 9.66165 15.0817 9.89929 14.6616 10.3033C14.2414 10.7073 13.9943 11.2539 13.9943 11.848V11.8955H9.91635C9.10076 11.8955 8.38403 12.2044 7.86502 12.7272C7.34601 13.2263 7 13.9392 7 14.6997V26.5343C7 27.3185 7.32129 28.0077 7.86502 28.5067C8.38403 29.0058 9.12548 29.3385 9.91635 29.3385H30.0837C30.8992 29.3385 31.616 29.0295 32.135 28.5067C32.654 28.0077 33 27.2947 33 26.5343V14.6997C33 13.9155 32.6787 13.2263 32.135 12.7272ZM31.7148 26.5343H31.6901C31.6901 26.962 31.5171 27.3423 31.2205 27.6274C30.924 27.9126 30.5285 28.079 30.0837 28.079H9.91635C9.47148 28.079 9.07605 27.9126 8.77947 27.6274C8.48289 27.3423 8.30989 26.962 8.30989 26.5343V14.6997C8.30989 14.2719 8.48289 13.8917 8.77947 13.6065C9.07605 13.3213 9.47148 13.155 9.91635 13.155H14.6863C15.057 13.155 15.3536 12.8698 15.3536 12.5134V11.8242C15.3536 11.5628 15.4525 11.3251 15.6255 11.1588C15.7985 10.9925 16.0456 10.8974 16.3175 10.8974H23.7072C23.9791 10.8974 24.2262 10.9925 24.3992 11.1588C24.5722 11.3251 24.6711 11.5628 24.6711 11.8242V12.5134C24.6711 12.8698 24.9677 13.155 25.3384 13.155H30.1084C30.5532 13.155 30.9487 13.3213 31.2452 13.6065C31.5418 13.8917 31.7148 14.2719 31.7148 14.6997V26.5343Z" fill="#172340"/>
<path d="M19.9998 14.7709C18.3192 14.7709 16.7868 15.4363 15.6994 16.4819C14.5872 17.5513 13.9199 19.0009 13.9199 20.6169C13.9199 22.2329 14.6119 23.7062 15.6994 24.7519C16.8116 25.8213 18.3192 26.4629 19.9998 26.4629C21.6804 26.4629 23.2127 25.7975 24.3002 24.7519C25.4123 23.6825 26.0796 22.2329 26.0796 20.6169C26.0796 19.0009 25.3876 17.5275 24.3002 16.4819C23.2127 15.4363 21.6804 14.7709 19.9998 14.7709ZM23.361 23.8726C22.496 24.6806 21.3097 25.2034 19.9998 25.2034C18.6899 25.2034 17.5036 24.6806 16.6386 23.8726C15.7735 23.0408 15.2545 21.9002 15.2545 20.6406C15.2545 19.3811 15.7982 18.2405 16.6386 17.4087C17.5036 16.577 18.6899 16.0779 19.9998 16.0779C21.3097 16.0779 22.496 16.6007 23.361 17.4087C24.226 18.2405 24.745 19.3811 24.745 20.6406C24.7697 21.9002 24.226 23.0408 23.361 23.8726Z" fill="#172340"/>
<path d="M28.7984 17.076C29.4673 17.076 30.0095 16.5546 30.0095 15.9115C30.0095 15.2684 29.4673 14.7471 28.7984 14.7471C28.1296 14.7471 27.5874 15.2684 27.5874 15.9115C27.5874 16.5546 28.1296 17.076 28.7984 17.076Z" fill="#172340"/>
</g>
<defs>
<linearGradient id="paint0_linear" x1="-1.34533e-06" y1="0.0995712" x2="33.3094" y2="-3.12465" gradientUnits="userSpaceOnUse">
<stop stop-color="#FFC738"/>
<stop offset="1" stop-color="#FF9B00"/>
</linearGradient>
<clipPath id="clip0">
<rect width="26" height="25" fill="white" transform="translate(7 7)"/>
</clipPath>
</defs>
</svg>
