<svg width="1096" height="600" viewBox="0 0 1096 600" fill="none" xmlns="http://www.w3.org/2000/svg">
<g clip-path="url(#clip0)">
<path d="M353 -1H300L0 601.5H252.5L353 -1Z" fill="#FFC130"/>
<path d="M353 -1H300L0 601.5H252.5L353 -1Z" fill="url(#paint0_linear)"/>
<path d="M226 601H278L578.5 0H326L226 601Z" fill="#FFC130"/>
<path d="M263 601H315L615.5 0H363L263 601Z" fill="url(#paint1_linear)"/>
<path d="M655.5 0H598.5L298 601H550.5L655.5 0Z" fill="url(#paint2_linear)"/>
<path d="M958 0H1035.5V601H747L958 0Z" fill="#172340" fill-opacity="0.6"/>
<path d="M1019 0H1096.5V601H808L1019 0Z" fill="#172340"/>
<path d="M1096 0H1173.5V601H885L1096 0Z" fill="#20588F" fill-opacity="0.26"/>
<path d="M1255.5 0H1203.5L903 601H1155.5L1255.5 0Z" fill="url(#paint3_linear)"/>
</g>
<defs>
<linearGradient id="paint0_linear" x1="-1.18725e-05" y1="0.499791" x2="295.759" y2="-16.2733" gradientUnits="userSpaceOnUse">
<stop stop-color="#FFC738"/>
<stop offset="1" stop-color="#FF9B00"/>
</linearGradient>
<linearGradient id="paint1_linear" x1="615.5" y1="601" x2="319.741" y2="617.773" gradientUnits="userSpaceOnUse">
<stop stop-color="#FFC738" stop-opacity="0.5"/>
<stop offset="1" stop-color="#FF9B00"/>
</linearGradient>
<linearGradient id="paint2_linear" x1="598.5" y1="-56.5" x2="783.85" y2="21.4544" gradientUnits="userSpaceOnUse">
<stop stop-color="#FFC738"/>
<stop offset="1" stop-color="#FF9B00" stop-opacity="0.69"/>
</linearGradient>
<linearGradient id="paint3_linear" x1="1054.5" y1="610" x2="909.629" y2="528.012" gradientUnits="userSpaceOnUse">
<stop stop-color="#FFC738"/>
<stop offset="1" stop-color="#FF9B00"/>
</linearGradient>
<clipPath id="clip0">
<rect width="1096" height="600" fill="white"/>
</clipPath>
</defs>
</svg>
