<svg width="251" height="82" viewBox="0 0 251 82" fill="none" xmlns="http://www.w3.org/2000/svg">
<g opacity="0.2">
<path d="M1.78465 81.7241L1.7218 81.7245C1.56134 81.7174 1.40385 81.6788 1.25833 81.6108C1.11281 81.5428 0.982111 81.4469 0.873707 81.3284C0.765303 81.2099 0.68132 81.0712 0.62656 80.9203C0.571801 80.7694 0.547338 80.6091 0.554571 80.4488C0.66089 78.6062 0.969188 76.7808 1.47393 75.0056C1.51722 74.8511 1.59053 74.7066 1.68967 74.5805C1.78882 74.4543 1.91185 74.3489 2.05176 74.2703C2.19167 74.1917 2.34571 74.1414 2.50508 74.1223C2.66445 74.1032 2.82603 74.1157 2.98061 74.159C3.13518 74.2023 3.27971 74.2756 3.40595 74.3748C3.53219 74.4739 3.63767 74.5969 3.71636 74.7368C3.79504 74.8767 3.84541 75.0306 3.86457 75.19C3.88373 75.3492 3.87131 75.5108 3.82802 75.6652C3.37329 77.2605 3.0943 78.9006 2.99601 80.5565C2.9823 80.8692 2.84897 81.1648 2.62356 81.382C2.39814 81.5993 2.09784 81.7218 1.78465 81.7241ZM4.58193 71.6907C4.37109 71.6917 4.16357 71.6381 3.97953 71.5352C3.79549 71.4323 3.64119 71.2836 3.53164 71.1035C3.42209 70.9234 3.36101 70.718 3.35434 70.5074C3.34767 70.2968 3.39563 70.088 3.49357 69.9014C4.35135 68.2699 5.39651 66.7439 6.60787 65.3544C6.71275 65.2314 6.84101 65.1305 6.98522 65.0574C7.12942 64.9843 7.28671 64.9406 7.44797 64.9287C7.60923 64.9169 7.77125 64.9371 7.92464 64.9883C8.07803 65.0395 8.21975 65.1206 8.34158 65.2269C8.46341 65.3332 8.56293 65.4626 8.63437 65.6076C8.70582 65.7526 8.74776 65.9104 8.75779 66.0717C8.76781 66.233 8.7457 66.3947 8.69276 66.5474C8.63981 66.7001 8.55706 66.8407 8.44933 66.9612C7.36487 68.207 6.43001 69.5755 5.66382 71.0386C5.56044 71.2355 5.4052 71.4006 5.21485 71.5158C5.02449 71.631 4.80626 71.6921 4.58369 71.6924L4.58193 71.6907ZM11.4122 63.8915C11.1522 63.8928 10.8986 63.8112 10.6882 63.6585C10.4777 63.5059 10.3215 63.2902 10.242 63.0428C10.1626 62.7953 10.1642 62.529 10.2466 62.2826C10.3289 62.0361 10.4878 61.8224 10.7 61.6724C12.202 60.622 13.814 59.7382 15.5075 59.0368C15.6556 58.9749 15.8144 58.9429 15.9749 58.9424C16.1354 58.9419 16.2944 58.973 16.4429 59.034C16.5914 59.0949 16.7264 59.1845 16.8403 59.2976C16.9541 59.4107 17.0446 59.5451 17.1065 59.6931C17.1684 59.8411 17.2005 59.9998 17.2011 60.1603C17.2016 60.3207 17.1705 60.4796 17.1096 60.628C17.0487 60.7764 16.9591 60.9113 16.846 61.0251C16.7329 61.1389 16.5985 61.2293 16.4504 61.2911C14.9183 61.9236 13.4597 62.721 12.1004 63.6693C11.8997 63.8119 11.6603 63.8901 11.414 63.8932L11.4122 63.8915ZM20.9683 59.8212C20.6659 59.8238 20.3731 59.7141 20.1467 59.5135C19.9204 59.3128 19.7765 59.0354 19.7429 58.7349C19.7093 58.4344 19.7884 58.1322 19.9649 57.8866C20.1414 57.6411 20.4028 57.4698 20.6984 57.4058C22.4582 57.0245 24.2422 56.765 26.0378 56.629C26.3617 56.604 26.6824 56.7086 26.9293 56.9198C27.1762 57.1311 27.329 57.4317 27.3542 57.7556C27.3794 58.0794 27.2748 58.3999 27.0635 58.6466C26.8522 58.8933 26.5515 59.046 26.2276 59.0711C24.5457 59.1976 22.8747 59.4408 21.2266 59.7987C21.1425 59.8183 21.0565 59.8288 20.9701 59.8299L20.9683 59.8212ZM35.3605 59.1008C34.6011 59.1053 33.8171 59.0837 33.0329 59.036C32.4582 59.001 31.8837 58.9748 31.3231 58.9571C31.1626 58.9522 31.0046 58.9158 30.8582 58.8499C30.7117 58.7839 30.5797 58.6898 30.4696 58.5729C30.3595 58.456 30.2736 58.3186 30.2166 58.1685C30.1597 58.0184 30.1328 57.8585 30.1377 57.6981C30.1425 57.5376 30.1789 57.3797 30.2449 57.2333C30.3108 57.087 30.4049 56.955 30.5218 56.845C30.6387 56.7351 30.7762 56.6492 30.9264 56.5923C31.0765 56.5354 31.2364 56.5086 31.397 56.5135C31.9819 56.531 32.5827 56.5589 33.1818 56.5955C34.2991 56.6654 35.4192 56.6757 36.5376 56.6262C36.698 56.6187 36.8584 56.6429 37.0095 56.6974C37.1606 56.7518 37.2995 56.8355 37.4183 56.9436C37.5371 57.0517 37.6334 57.1822 37.7018 57.3275C37.7701 57.4728 37.8092 57.6301 37.8167 57.7905C37.8243 57.9509 37.8001 58.1111 37.7457 58.2622C37.6912 58.4132 37.6076 58.552 37.4994 58.6707C37.3913 58.7894 37.2609 58.8856 37.1155 58.9539C36.9702 59.0222 36.8128 59.0612 36.6523 59.0687C36.23 59.0956 35.7953 59.1069 35.3624 59.1095L35.3605 59.1008ZM41.7719 58.3264C41.473 58.3285 41.1836 58.2211 40.9585 58.0243C40.7334 57.8276 40.5882 57.5552 40.5505 57.2588C40.5127 56.9624 40.585 56.6624 40.7535 56.4157C40.9221 56.169 41.1754 55.9926 41.4654 55.92C43.0619 55.5229 44.6034 54.9306 46.0548 54.1564C46.1973 54.0803 46.3534 54.033 46.5142 54.0171C46.675 54.0013 46.8373 54.0173 46.992 54.0642C47.1466 54.1111 47.2905 54.1879 47.4154 54.2904C47.5403 54.3929 47.6439 54.5189 47.7201 54.6614C47.7963 54.8038 47.8437 54.9598 47.8595 55.1206C47.8754 55.2813 47.8595 55.4435 47.8126 55.5981C47.7657 55.7526 47.6889 55.8964 47.5864 56.0213C47.4839 56.1461 47.3579 56.2496 47.2154 56.3257C45.5867 57.1952 43.8569 57.8607 42.0651 58.3072C41.9695 58.3284 41.8716 58.3377 41.7737 58.3351L41.7719 58.3264ZM50.8652 53.3863C50.6204 53.3879 50.3808 53.316 50.1774 53.1799C49.9739 53.0438 49.816 52.8498 49.7241 52.623C49.6322 52.3962 49.6105 52.1471 49.6619 51.9079C49.7133 51.6687 49.8354 51.4505 50.0123 51.2815C51.1987 50.1443 52.2356 48.861 53.098 47.4624C53.1835 47.3258 53.295 47.2075 53.4262 47.1141C53.5575 47.0207 53.7059 46.954 53.8629 46.9179C54.0199 46.8818 54.1825 46.877 54.3415 46.9037C54.5004 46.9304 54.6525 46.9882 54.7891 47.0737C54.9257 47.1591 55.0441 47.2707 55.1376 47.4019C55.2311 47.5331 55.2979 47.6814 55.334 47.8384C55.3702 47.9954 55.375 48.1579 55.3484 48.3167C55.3217 48.4756 55.2639 48.6276 55.1785 48.7641C54.2073 50.338 53.0401 51.7822 51.7047 53.0619C51.479 53.2775 51.1793 53.3986 50.867 53.4002L50.8652 53.3863ZM56.3869 44.6088C56.191 44.61 55.9977 44.564 55.8232 44.4749C55.6487 44.3857 55.4983 44.2559 55.3845 44.0964C55.2707 43.937 55.1969 43.7525 55.1694 43.5586C55.1419 43.3647 55.1614 43.167 55.2263 42.9823C55.7764 41.4038 56.18 39.778 56.4321 38.1255C56.4537 37.9644 56.5071 37.8093 56.5894 37.6692C56.6717 37.5291 56.7811 37.4068 56.9113 37.3095C57.0414 37.2122 57.1897 37.1418 57.3474 37.1025C57.5051 37.0632 57.6691 37.0557 57.8298 37.0806C57.9904 37.1054 58.1445 37.162 58.283 37.2471C58.4215 37.3321 58.5417 37.444 58.6365 37.576C58.7312 37.7081 58.7987 37.8577 58.8349 38.0161C58.8711 38.1745 58.8753 38.3386 58.8473 38.4986C58.5729 40.2999 58.1327 42.072 57.5324 43.7923C57.4514 44.0322 57.2979 44.2409 57.093 44.3897C56.8881 44.5384 56.642 44.6199 56.3888 44.6228L56.3869 44.6088ZM218.935 41.6975C218.724 41.6988 218.516 41.6456 218.332 41.543C218.148 41.4405 217.993 41.292 217.884 41.1121C217.002 39.6671 216.043 38.2261 215.036 36.8325C214.846 36.5696 214.769 36.2422 214.82 35.9223C214.872 35.6024 215.049 35.3162 215.312 35.1268C215.575 34.9373 215.903 34.86 216.223 34.912C216.543 34.9639 216.829 35.1408 217.019 35.4037C218.061 36.8478 219.055 38.3409 219.971 39.8398C220.084 40.0245 220.145 40.2358 220.149 40.4521C220.154 40.6684 220.101 40.882 219.995 41.0709C219.89 41.2599 219.736 41.4175 219.55 41.5276C219.363 41.6376 219.151 41.6963 218.935 41.6975ZM48.9011 34.6048L48.8295 34.6052C47.0225 34.5202 45.2246 34.2975 43.4515 33.939C43.1341 33.8729 42.856 33.6834 42.6783 33.4123C42.5006 33.1412 42.4379 32.8108 42.504 32.4936C42.5701 32.1764 42.7596 31.8984 43.0307 31.7209C43.3019 31.5434 43.6325 31.4808 43.9499 31.547C45.5996 31.8826 47.2725 32.0921 48.954 32.1735C49.2782 32.1807 49.5863 32.3162 49.8106 32.5503C50.0348 32.7845 50.1569 33.0981 50.1499 33.4221C50.1429 33.7461 50.0074 34.054 49.7732 34.2781C49.539 34.5022 49.2253 34.6241 48.9011 34.617L48.9011 34.6048ZM54.1385 34.5581C53.8144 34.5693 53.4992 34.4513 53.262 34.2302C53.0249 34.009 52.8854 33.7028 52.8741 33.3789C52.8628 33.055 52.9807 32.7399 53.2019 32.503C53.4231 32.266 53.7294 32.1266 54.0534 32.1154C54.926 32.0597 55.8299 31.981 56.7528 31.8761C56.6896 30.6119 56.5495 29.3528 56.333 28.1057C56.2995 27.9452 56.2986 27.7797 56.3305 27.6189C56.3623 27.4581 56.4261 27.3054 56.5182 27.1699C56.6103 27.0343 56.7288 26.9186 56.8665 26.8298C57.0043 26.741 57.1585 26.6807 57.3201 26.6527C57.4816 26.6247 57.6472 26.6295 57.8068 26.6667C57.9665 26.704 58.1171 26.773 58.2496 26.8696C58.382 26.9662 58.4937 27.0885 58.5779 27.2292C58.6621 27.3698 58.7172 27.526 58.7398 27.6883C58.9631 28.9679 59.1111 30.2594 59.1829 31.5563C59.504 31.5118 59.8296 31.5967 60.0882 31.7922C60.3467 31.9876 60.5171 32.2778 60.5617 32.5987C60.6063 32.9197 60.5215 33.2451 60.326 33.5035C60.1305 33.7619 59.8403 33.9321 59.5192 33.9765C59.2576 34.0165 58.9959 34.0529 58.7378 34.0894C58.5321 34.2421 58.2831 34.3254 58.0269 34.3274C57.8686 34.3284 57.7115 34.2998 57.5637 34.2429C56.414 34.3806 55.2956 34.4849 54.21 34.5542L54.1385 34.5581ZM212.818 33.2053C212.639 33.2067 212.461 33.1685 212.298 33.0934C212.135 33.0184 211.99 32.9084 211.875 32.7712C210.782 31.4723 209.62 30.1878 208.422 28.9523C208.196 28.7197 208.072 28.407 208.077 28.083C208.082 27.7589 208.215 27.4502 208.448 27.2245C208.68 26.9989 208.993 26.8749 209.317 26.8799C209.642 26.8849 209.951 27.0183 210.176 27.2509C211.406 28.5281 212.616 29.8542 213.745 31.1982C213.894 31.3758 213.99 31.5921 214.021 31.8219C214.052 32.0517 214.016 32.2855 213.919 32.496C213.822 32.7065 213.667 32.885 213.472 33.0106C213.277 33.1362 213.05 33.2037 212.818 33.2053ZM64.4927 33.0362C64.1905 33.0379 63.8983 32.9276 63.6726 32.7267C63.4469 32.5258 63.3037 32.2484 63.2705 31.9481C63.2374 31.6479 63.3168 31.346 63.4933 31.1009C63.6698 30.8558 63.9309 30.6847 64.2262 30.6208C65.8337 30.2622 67.5247 29.8526 69.2502 29.3834C69.5629 29.2982 69.8967 29.3408 70.1781 29.5016C70.4596 29.6624 70.6656 29.9284 70.7509 30.241C70.8362 30.5536 70.7938 30.8872 70.6329 31.1685C70.4721 31.4497 70.2061 31.6556 69.8934 31.7407C68.1278 32.2206 66.3968 32.6479 64.7474 33.0067C64.6622 33.0269 64.575 33.0373 64.4874 33.0379L64.4927 33.0362ZM38.7209 32.3982C38.5527 32.3997 38.386 32.3663 38.2315 32.2998C36.8308 31.6998 35.4919 30.9648 34.2337 30.1055C33.9725 29.9325 33.7182 29.749 33.4709 29.5707C33.3351 29.4797 33.219 29.3623 33.1294 29.2256C33.0399 29.0889 32.9786 28.9356 32.9493 28.7749C32.9201 28.6141 32.9234 28.4491 32.959 28.2897C32.9947 28.1302 33.062 27.9796 33.1569 27.8466C33.2519 27.7136 33.3726 27.6011 33.5119 27.5156C33.6511 27.4301 33.8062 27.3734 33.9678 27.3488C34.1294 27.3243 34.2943 27.3324 34.4527 27.3727C34.6111 27.413 34.7599 27.4846 34.8901 27.5834C35.124 27.7519 35.366 27.9209 35.6161 28.0904C36.7424 28.86 37.9411 29.5181 39.1952 30.0552C39.4526 30.1662 39.6641 30.3624 39.794 30.6108C39.924 30.8591 39.9645 31.1446 39.9089 31.4192C39.8534 31.6939 39.705 31.9411 39.4887 32.1193C39.2724 32.2975 39.0013 32.396 38.7209 32.3982ZM74.6036 30.3028C74.311 30.3045 74.0274 30.2013 73.8045 30.0118C73.5816 29.8223 73.434 29.5591 73.3887 29.2702C73.3433 28.9812 73.4032 28.6856 73.5574 28.4371C73.7116 28.1886 73.95 28.0037 74.2291 27.916C75.813 27.4145 77.4716 26.8602 79.158 26.2656C79.3102 26.2085 79.4723 26.1823 79.6347 26.1886C79.7972 26.1949 79.9568 26.2336 80.1042 26.3023C80.2515 26.3711 80.3837 26.4685 80.4929 26.5889C80.6021 26.7093 80.6862 26.8503 80.7403 27.0036C80.7943 27.1569 80.8172 27.3194 80.8076 27.4817C80.7981 27.6439 80.7562 27.8026 80.6845 27.9484C80.6127 28.0943 80.5126 28.2243 80.39 28.331C80.2673 28.4376 80.1246 28.5187 79.9702 28.5696C78.2595 29.173 76.5747 29.7362 74.9664 30.2448C74.8474 30.283 74.7234 30.3032 74.5984 30.3046L74.6036 30.3028ZM84.49 26.8343C84.2032 26.8368 83.9246 26.7383 83.7031 26.5561C83.4816 26.374 83.3312 26.1198 83.2782 25.838C83.2253 25.5562 83.2731 25.2649 83.4135 25.0149C83.5538 24.7649 83.7776 24.5722 84.0458 24.4706C85.6029 23.8768 87.2348 23.2302 88.8962 22.5607C89.0455 22.4969 89.206 22.4635 89.3683 22.4624C89.5306 22.4614 89.6916 22.4926 89.8417 22.5544C89.9919 22.6162 90.1282 22.7073 90.2427 22.8223C90.3573 22.9373 90.4478 23.074 90.5089 23.2243C90.57 23.3747 90.6006 23.5357 90.5988 23.698C90.597 23.8602 90.5628 24.0205 90.4984 24.1694C90.4339 24.3183 90.3404 24.4529 90.2233 24.5652C90.1062 24.6776 89.9679 24.7655 89.8164 24.8239C88.1394 25.5039 86.4918 26.1541 84.919 26.7533C84.7806 26.8076 84.6334 26.8357 84.4848 26.8361L84.49 26.8343ZM205.531 25.6904C205.227 25.6923 204.933 25.5808 204.707 25.3777C203.443 24.2386 202.116 23.1244 200.763 22.0539C200.637 21.9545 200.532 21.8312 200.454 21.6912C200.375 21.5512 200.325 21.3971 200.306 21.2378C200.288 21.0784 200.3 20.9169 200.344 20.7625C200.388 20.6081 200.461 20.4638 200.561 20.3379C200.66 20.212 200.783 20.1068 200.923 20.0285C201.063 19.9502 201.218 19.9002 201.377 19.8814C201.699 19.8435 202.023 19.935 202.277 20.1358C203.681 21.2356 205.039 22.3881 206.342 23.5618C206.525 23.7268 206.654 23.9433 206.712 24.1828C206.77 24.4223 206.754 24.6736 206.666 24.9038C206.578 25.134 206.423 25.3323 206.221 25.4727C206.018 25.6131 205.778 25.689 205.531 25.6904ZM30.1379 26.4824C29.8181 26.4844 29.5102 26.3609 29.2803 26.1385C27.731 24.6346 26.5747 23.1407 25.8429 21.6983C25.7644 21.5547 25.7156 21.3969 25.6993 21.2341C25.683 21.0713 25.6996 20.9069 25.748 20.7507C25.7965 20.5944 25.8759 20.4495 25.9815 20.3246C26.0871 20.1996 26.2167 20.0971 26.3627 20.0232C26.5087 19.9492 26.668 19.9054 26.8313 19.8942C26.9946 19.883 27.1584 19.9047 27.3132 19.958C27.4679 20.0113 27.6104 20.0951 27.7322 20.2045C27.8539 20.3139 27.9524 20.4466 28.0219 20.5947C28.6317 21.7953 29.6278 23.072 30.9821 24.385C31.1567 24.554 31.2769 24.771 31.3276 25.0085C31.3782 25.2461 31.3568 25.4932 31.2662 25.7185C31.1756 25.9438 31.0199 26.137 30.8189 26.2733C30.618 26.4097 30.3809 26.4831 30.1379 26.4842L30.1379 26.4824ZM56.1996 24.0595C55.9477 24.061 55.7015 23.9847 55.4947 23.841C55.2878 23.6972 55.1304 23.4932 55.044 23.2566C54.4855 21.7001 53.7504 20.2125 52.8533 18.8231C52.7653 18.6888 52.7046 18.5386 52.6748 18.381C52.6449 18.2233 52.6464 18.0614 52.6791 17.9043C52.7118 17.7472 52.7752 17.5982 52.8656 17.4656C52.956 17.3331 53.0716 17.2196 53.2059 17.1317C53.3401 17.0438 53.4904 16.9833 53.6481 16.9534C53.8058 16.9236 53.9679 16.9251 54.125 16.9579C54.2822 16.9907 54.4313 17.0541 54.5639 17.1445C54.6966 17.2348 54.8101 17.3505 54.8981 17.4847C55.8982 19.0308 56.7175 20.6866 57.3399 22.4194C57.4071 22.6033 57.4291 22.8008 57.404 22.995C57.3789 23.1892 57.3074 23.3745 57.1956 23.5353C57.0838 23.6961 56.935 23.8277 56.7616 23.9189C56.5883 24.0101 56.3955 24.0584 56.1996 24.0595ZM94.1971 22.8993C93.9144 22.9015 93.6397 22.8057 93.4197 22.6283C93.1997 22.4508 93.048 22.2026 92.9905 21.9259C92.933 21.6493 92.9732 21.3613 93.1043 21.111C93.2353 20.8607 93.4492 20.6636 93.7094 20.5532C95.233 19.9038 96.8436 19.2049 98.5011 18.4761C98.7976 18.3452 99.134 18.3374 99.4362 18.4544C99.7385 18.5715 99.982 18.8037 100.113 19.1C100.244 19.3964 100.252 19.7326 100.135 20.0347C100.018 20.3368 99.7857 20.5801 99.4893 20.711C97.823 21.4451 96.202 22.1492 94.6679 22.8005C94.5194 22.8661 94.3594 22.9014 94.1971 22.9045L94.1971 22.8993ZM197.311 19.1984C197.061 19.1991 196.817 19.1232 196.612 18.9809C195.209 18.0084 193.75 17.0642 192.278 16.1742C192.141 16.091 192.021 15.9817 191.926 15.8523C191.831 15.723 191.763 15.5762 191.725 15.4204C191.647 15.1057 191.698 14.7732 191.866 14.4961C192.034 14.219 192.305 14.0201 192.62 13.9429C192.935 13.8658 193.268 13.9168 193.545 14.0848C195.057 15.0008 196.558 15.9726 198.003 16.9728C198.216 17.1205 198.377 17.3322 198.462 17.5773C198.547 17.8225 198.551 18.0882 198.475 18.3361C198.399 18.584 198.246 18.8012 198.038 18.9562C197.83 19.1112 197.578 19.196 197.318 19.1983L197.311 19.1984ZM103.786 18.6804C103.506 18.6818 103.234 18.5872 103.016 18.4124C102.797 18.2377 102.645 17.9934 102.586 17.7203C102.526 17.4472 102.561 17.1618 102.686 16.9118C102.812 16.6619 103.019 16.4624 103.273 16.3468C104.76 15.6731 106.317 14.9658 108.038 14.1703C108.333 14.0346 108.669 14.0213 108.973 14.1334C109.277 14.2455 109.525 14.4738 109.661 14.768C109.796 15.0623 109.81 15.3984 109.698 15.7024C109.586 16.0065 109.357 16.2535 109.063 16.3893C107.345 17.1813 105.783 17.8955 104.291 18.571C104.133 18.6436 103.96 18.681 103.786 18.6804ZM26.4861 17.3265C26.2839 17.3278 26.0846 17.2789 25.906 17.1843C25.7273 17.0896 25.5749 16.9522 25.4625 16.7843C25.35 16.6163 25.281 16.4231 25.2615 16.222C25.2421 16.0208 25.2729 15.818 25.3512 15.6317C26.0617 13.9365 27.5665 12.5123 29.7025 11.512C29.8483 11.4393 30.0073 11.3965 30.17 11.3862C30.3326 11.3759 30.4957 11.3982 30.6496 11.4518C30.8036 11.5054 30.9452 11.5892 31.0663 11.6984C31.1873 11.8075 31.2853 11.9397 31.3545 12.0873C31.4237 12.2348 31.4626 12.3947 31.469 12.5575C31.4755 12.7203 31.4492 12.8827 31.3919 13.0352C31.3346 13.1877 31.2473 13.3272 31.1353 13.4455C31.0232 13.5637 30.8886 13.6584 30.7394 13.7239C29.1622 14.4627 28.0789 15.4498 27.6058 16.5765C27.5133 16.7975 27.3579 16.9864 27.1588 17.1198C26.9597 17.2532 26.7258 17.325 26.4861 17.3265ZM50.371 15.5308C50.1028 15.5323 49.8415 15.4455 49.6275 15.2839C48.8143 14.6613 47.9072 14.1718 46.9402 13.8339C46.4049 13.6521 45.8574 13.4913 45.3099 13.3322C45.1517 13.2928 45.003 13.2221 44.8726 13.1244C44.7421 13.0267 44.6325 12.9038 44.5502 12.7631C44.4679 12.6224 44.4147 12.4667 44.3935 12.3051C44.3724 12.1435 44.3838 11.9794 44.427 11.8223C44.4703 11.6652 44.5446 11.5184 44.6456 11.3904C44.7465 11.2625 44.872 11.156 45.0147 11.0773C45.1575 10.9986 45.3145 10.9493 45.4766 10.9322C45.6387 10.9151 45.8027 10.9306 45.9587 10.9777C46.5534 11.1487 47.1481 11.3197 47.729 11.5222C48.9421 11.9435 50.0804 12.5553 51.1011 13.3346C51.3051 13.4886 51.4557 13.7027 51.5316 13.9467C51.6076 14.1907 51.6051 14.4523 51.5245 14.6948C51.4439 14.9372 51.2892 15.1483 51.0823 15.2982C50.8754 15.4482 50.6266 15.5295 50.371 15.5308ZM113.303 14.298C113.024 14.2999 112.753 14.2064 112.535 14.0331C112.316 13.8598 112.164 13.6171 112.102 13.3452C112.041 13.0733 112.074 12.7887 112.197 12.5385C112.32 12.2882 112.524 12.0875 112.777 11.9696L116.036 10.4495L117.524 9.75315C117.818 9.61604 118.154 9.60124 118.459 9.71201C118.764 9.82279 119.013 10.0501 119.15 10.3439C119.287 10.6376 119.302 10.9738 119.191 11.2785C119.081 11.5832 118.853 11.8314 118.559 11.9686L117.071 12.6614L113.81 14.1833C113.651 14.2575 113.478 14.2966 113.303 14.298ZM188.356 13.7787C188.156 13.78 187.958 13.732 187.781 13.639C186.266 12.84 184.703 12.0762 183.142 11.3682C182.99 11.3057 182.852 11.2133 182.737 11.0966C182.622 10.9799 182.531 10.8412 182.471 10.6887C182.411 10.5363 182.381 10.3732 182.385 10.2093C182.389 10.0454 182.426 9.88396 182.494 9.73462C182.561 9.58527 182.658 9.45107 182.779 9.34002C182.9 9.22898 183.042 9.14335 183.196 9.08826C183.351 9.03316 183.515 9.00971 183.678 9.01932C183.842 9.02893 184.002 9.07139 184.149 9.14417C185.756 9.8711 187.361 10.6556 188.92 11.4771C189.162 11.6033 189.356 11.8073 189.469 12.0564C189.582 12.3055 189.608 12.5853 189.543 12.851C189.478 13.1166 189.326 13.3528 189.111 13.5216C188.895 13.6904 188.63 13.7822 188.356 13.7822L188.356 13.7787ZM35.2658 12.4929C34.9418 12.5127 34.6232 12.403 34.38 12.1879C34.1369 11.9729 33.9891 11.6701 33.9693 11.3462C33.9495 11.0224 34.0591 10.7039 34.2742 10.461C34.4893 10.218 34.7921 10.0704 35.1161 10.0507C36.9361 9.84526 38.7724 9.82679 40.5962 9.99556C40.7561 10.0099 40.9116 10.0555 41.0539 10.1299C41.1961 10.2042 41.3224 10.3059 41.4253 10.429C41.5283 10.5521 41.6061 10.6943 41.6541 10.8474C41.7021 11.0005 41.7195 11.1616 41.7052 11.3214C41.691 11.4812 41.6454 11.6366 41.571 11.7788C41.4967 11.921 41.395 12.0471 41.2719 12.15C41.1487 12.2529 41.0065 12.3306 40.8533 12.3785C40.7002 12.4265 40.539 12.4438 40.3791 12.4295C38.7233 12.2755 37.0561 12.2912 35.4036 12.4764C35.358 12.4845 35.312 12.4901 35.2658 12.4929ZM122.801 9.88073C122.518 9.88735 122.242 9.79575 122.019 9.62156C121.797 9.44736 121.641 9.20134 121.579 8.92544C121.518 8.64954 121.554 8.36083 121.681 8.10854C121.809 7.85625 122.02 7.65598 122.279 7.54188L123.917 6.78528C124.961 6.30094 126.06 5.84071 127.154 5.42064C127.456 5.30453 127.793 5.31333 128.089 5.44511C128.385 5.57688 128.617 5.82083 128.733 6.1233C128.849 6.42577 128.841 6.76197 128.709 7.05795C128.577 7.35393 128.333 7.58544 128.031 7.70155C126.985 8.10213 125.941 8.5411 124.941 9.00423L123.305 9.75908C123.147 9.83313 122.975 9.87224 122.801 9.87375L122.801 9.88073ZM178.819 9.46541C178.668 9.46574 178.517 9.43824 178.375 9.38427C176.77 8.76902 175.131 8.19586 173.499 7.67849C173.345 7.63035 173.203 7.55243 173.08 7.44919C172.957 7.34596 172.855 7.21943 172.781 7.07688C172.706 6.93432 172.661 6.77852 172.647 6.61842C172.633 6.45832 172.651 6.29706 172.7 6.14387C172.748 5.99068 172.826 5.84859 172.93 5.72572C173.034 5.60285 173.16 5.50163 173.303 5.42785C173.446 5.35407 173.602 5.30918 173.762 5.29576C173.922 5.28234 174.084 5.30065 174.237 5.34964C175.914 5.8807 177.601 6.47103 179.25 7.10347C179.516 7.20554 179.738 7.39727 179.877 7.64555C180.017 7.89382 180.065 8.18302 180.014 8.46317C179.963 8.74331 179.816 8.99679 179.598 9.1798C179.379 9.3628 179.104 9.46383 178.819 9.46541ZM168.837 6.30127C168.734 6.30201 168.632 6.28972 168.532 6.26469C166.86 5.84703 165.162 5.47664 163.488 5.1672C163.33 5.138 163.179 5.07793 163.044 4.99042C162.909 4.90291 162.792 4.78967 162.701 4.65717C162.609 4.52467 162.545 4.3755 162.512 4.21818C162.478 4.06086 162.476 3.89847 162.505 3.74028C162.534 3.5821 162.594 3.43121 162.682 3.29624C162.769 3.16127 162.882 3.04486 163.015 2.95365C163.147 2.86244 163.297 2.79823 163.454 2.76467C163.611 2.73111 163.774 2.72887 163.932 2.75807C165.656 3.07595 167.404 3.4565 169.124 3.88783C169.413 3.96007 169.665 4.13499 169.834 4.37982C170.003 4.62465 170.077 4.92257 170.041 5.21776C170.006 5.51295 169.864 5.78513 169.643 5.98331C169.421 6.18149 169.135 6.29206 168.837 6.29429L168.837 6.30127ZM132.571 6.14247C132.274 6.1435 131.988 6.037 131.764 5.84278C131.541 5.64855 131.395 5.37982 131.355 5.08654C131.315 4.79326 131.383 4.49538 131.546 4.24828C131.709 4.00118 131.956 3.82168 132.241 3.74315C133.932 3.27243 135.684 2.86767 137.449 2.53961C137.766 2.48319 138.094 2.55456 138.359 2.73815C138.624 2.92174 138.806 3.20267 138.865 3.51968C138.924 3.83669 138.855 4.16408 138.673 4.43046C138.491 4.69685 138.212 4.88063 137.895 4.94173C136.202 5.2554 134.521 5.64578 132.9 6.09689C132.793 6.12704 132.682 6.14238 132.571 6.14247ZM158.541 4.4042C158.49 4.40449 158.439 4.40129 158.389 4.39463C156.675 4.19362 154.947 4.04853 153.253 3.96606C153.092 3.95819 152.935 3.91879 152.79 3.85011C152.644 3.78143 152.514 3.68481 152.406 3.56578C152.298 3.44674 152.215 3.30762 152.16 3.15636C152.106 3.00509 152.082 2.84465 152.09 2.68418C152.098 2.52372 152.137 2.36637 152.206 2.22113C152.275 2.0759 152.371 1.94561 152.49 1.83771C152.609 1.72981 152.748 1.64641 152.9 1.59228C153.051 1.53814 153.212 1.51433 153.372 1.52221C155.119 1.60785 156.906 1.75608 158.675 1.96549C159 1.98347 159.304 2.12946 159.52 2.37134C159.737 2.61322 159.848 2.93118 159.831 3.25527C159.813 3.57935 159.667 3.88302 159.425 4.09947C159.183 4.31592 158.865 4.42742 158.541 4.40944L158.541 4.4042ZM142.854 4.22306C142.694 4.23146 142.533 4.20819 142.382 4.15458C142.23 4.10096 142.091 4.01806 141.971 3.9106C141.852 3.80314 141.755 3.67323 141.686 3.52828C141.617 3.38333 141.577 3.22618 141.568 3.06581C141.56 2.90544 141.583 2.74499 141.637 2.59362C141.69 2.44224 141.773 2.30291 141.88 2.18357C141.988 2.06423 142.118 1.96723 142.263 1.8981C142.408 1.82897 142.565 1.78907 142.726 1.78067C144.467 1.60981 146.257 1.498 148.047 1.456C148.371 1.44853 148.685 1.57004 148.919 1.79382C149.154 2.01759 149.29 2.32529 149.297 2.64923C149.305 2.97317 149.183 3.28681 148.96 3.52115C148.736 3.75549 148.428 3.89134 148.104 3.89881C146.379 3.93869 144.651 4.04664 142.973 4.21712C142.933 4.22085 142.894 4.22282 142.854 4.22306Z" fill="white"/>
<path d="M219.93 33.2631L216.013 39.7632L250.224 62.7919L219.93 33.2631Z" fill="#BDCDFF"/>
<path d="M212.547 47.5576L214.657 54.9756L248.702 61.73L212.547 47.5576Z" fill="#BDCDFF"/>
<path d="M250.226 62.794L192.653 43.5607L212.48 36.4581L250.226 62.794Z" fill="white"/>
<path d="M219.933 33.264L250.226 62.7919L232.387 27.921L219.933 33.264Z" fill="white"/>
</g>
</svg>
