<svg width="553" height="195" viewBox="0 0 553 195" fill="none" xmlns="http://www.w3.org/2000/svg">
<g clip-path="url(#clip0)" filter="url(#filter0_d)">
<path d="M63.1992 124.009L158.661 93.6335V21.5915L63.1992 42.1732V124.009Z" fill="#253354"/>
<path d="M5.60433 90.8493L63.2002 124.009V42.1727L5.60433 14.1021V90.8493Z" fill="#1E2A47"/>
<path d="M158.661 21.5914L100.396 1L5.60338 14.1025L63.1992 42.1731L158.661 21.5914Z" fill="#3C465E"/>
<path opacity="0.6" d="M130.952 11.7996L40.9857 31.7522L39.1365 64.3749L35.968 69.0558L34.3994 63.0389L32.2719 64.9117L30.1588 60.6317L28.5757 63.0389L30.6145 26.2916L123.02 8.99646L130.952 11.7996Z" fill="#1E2947"/>
<path opacity="0.6" d="M119.442 30.0474L63.1988 6.14273L53.6287 7.46416L107.591 32.6028L119.442 30.0474Z" fill="#1E2947"/>
<path d="M119.442 30.0469V106.114L107.591 109.884V32.6023L119.442 30.0469Z" fill="#1E2947"/>
<path d="M42.0414 103.284C42.0414 104.171 42.6938 104.475 43.6268 104.888L53.396 109.884C54.7152 110.55 54.979 109.155 54.979 108.279V93.036C54.979 92.1518 54.4082 91.9405 53.396 91.4328L43.6268 86.4362C41.5569 85.3674 42.1877 87.5414 42.0414 91.6514V103.284Z" fill="white"/>
<path d="M53.9805 94.537L44.2832 89.7662V90.3152L53.9805 95.2511V94.537Z" fill="#25304C"/>
<path d="M53.9805 96.4174L44.2832 91.6443V92.1932L53.9805 97.1316V96.4174Z" fill="#25304C"/>
<path d="M53.9805 98.526L44.2832 93.7553V94.3018L53.9805 99.2402V98.526Z" fill="#25304C"/>
<path d="M53.7505 104.312L47.6223 101.295L47.5455 101.866L53.7505 105.023V104.312Z" fill="#25304C"/>
<path d="M53.7505 105.738L47.6223 102.721L47.5455 103.292L53.7505 106.449V105.738Z" fill="#25304C"/>
<path d="M53.7505 107.192L47.6223 104.175L47.5455 104.746L53.7505 107.904V107.192Z" fill="#25304C"/>
</g>
<g opacity="0.8">
<g filter="url(#filter1_d)">
<path d="M478.948 46.5893L519.718 14.3474L519.298 83.8246L478.948 130.65V46.5893Z" fill="#202C49"/>
<path d="M478.948 130.648L352.096 120.241V42.0295L478.948 46.5879V130.648Z" fill="#293759"/>
<path d="M352.096 42.0305L406.74 12.0167L519.719 14.347L478.948 46.5889L352.096 42.0305Z" fill="#1E2A47"/>
<path d="M399.898 79.3425V72.8358H391.379V79.3425C391.379 80.3641 391.746 81.3518 392.414 82.1254C393.081 82.899 394.005 83.407 395.016 83.5567V89.4127C393.921 89.5574 392.911 90.0807 392.162 90.8918H399.114C398.366 90.0802 397.356 89.5567 396.261 89.4127V83.5567C397.272 83.407 398.195 82.899 398.863 82.1254C399.531 81.3518 399.898 80.3641 399.898 79.3425V79.3425Z" fill="#1B2745"/>
<path d="M411.963 74.0861V72.4973H411.547V74.0861C407.929 74.1769 404.867 76.704 403.717 80.2032C403.827 79.9726 404 79.7779 404.217 79.6416C404.433 79.5053 404.684 79.433 404.939 79.433C405.195 79.433 405.445 79.5053 405.662 79.6416C405.878 79.7779 406.051 79.9726 406.162 80.2032H406.427C406.537 79.9726 406.71 79.7779 406.926 79.6416C407.143 79.5053 407.393 79.433 407.649 79.433C407.905 79.433 408.155 79.5053 408.371 79.6416C408.588 79.7779 408.761 79.9726 408.871 80.2032H409.132C409.238 79.9804 409.403 79.7908 409.609 79.6548C409.815 79.5187 410.054 79.4415 410.301 79.4314C410.547 79.4212 410.792 79.4786 411.008 79.5973C411.224 79.716 411.404 79.8915 411.528 80.1049V87.459H411.331C411.331 87.459 411.1 90.0087 412.012 90.6518C412.622 91.0755 413.734 90.9091 414.109 90.2735C414.522 89.5699 414.537 88.9003 414.177 88.9835C413.818 89.0668 414.011 89.9331 413.485 90.1714C412.841 90.4589 412.285 90.2395 412.202 89.464C412.153 88.7892 412.146 88.112 412.179 87.4363H411.944V80.0254C412.078 79.8285 412.262 79.6704 412.477 79.567C412.691 79.4637 412.929 79.4188 413.167 79.4368C413.405 79.4548 413.633 79.5352 413.83 79.6698C414.027 79.8043 414.184 79.9883 414.287 80.2032H414.495C414.605 79.9726 414.779 79.7779 414.995 79.6416C415.211 79.5053 415.462 79.433 415.717 79.433C415.973 79.433 416.224 79.5053 416.44 79.6416C416.656 79.7779 416.83 79.9726 416.94 80.2032H417.205C417.315 79.9726 417.488 79.7779 417.705 79.6416C417.921 79.5053 418.171 79.433 418.427 79.433C418.683 79.433 418.933 79.5053 419.15 79.6416C419.366 79.7779 419.539 79.9726 419.65 80.2032H419.774C418.643 76.704 415.585 74.1656 411.963 74.0861Z" fill="#1B2745"/>
<path d="M429.162 76.6517L425.745 72.5547L422.331 76.6517H424.484V88.6399H427.009V76.6517H429.162Z" fill="#1B2745"/>
<path d="M436.679 76.6517L433.261 72.5547L429.844 76.6517H431.997V88.6399H434.525V76.6517H436.679Z" fill="#1B2745"/>
<path d="M436.29 89.8377H422.722V90.8338H436.29V89.8377Z" fill="#1B2745"/>
<path d="M478.948 46.5892L512.845 81.8649L547.583 46.5892L519.718 14.3474L478.948 46.5892Z" fill="#454F66"/>
<path d="M352.095 42.0305L417.836 32.9515C417.836 32.9515 465.346 4.85196 463.901 5.71446C462.455 6.57697 406.755 12.0168 406.755 12.0168L352.095 42.0305Z" fill="#454F66"/>
</g>
</g>
<g clip-path="url(#clip1)" filter="url(#filter2_d)">
<path d="M175.229 177.798L100.651 144.096V64.1573L175.229 86.9969V177.798Z" fill="#253354"/>
<path d="M231.503 138.153L175.229 177.797V86.9966L231.503 52.9959V138.153Z" fill="#1E2A47"/>
<path d="M100.651 64.1571L175.229 86.9967L231.502 52.996L157.596 37.4605L100.651 64.1571Z" fill="#3C465E"/>
<path d="M135.771 74.9109L186.382 43.5111L188.108 43.875L137.94 75.5766L135.771 74.9109Z" fill="#1B2848"/>
<path d="M100.652 64.1573L78.7676 91.905L154.063 120.979L175.23 86.9969L100.652 64.1573Z" fill="#3C465E"/>
<path d="M157.596 37.4605L177.711 11.047L257.084 20.2108L231.503 52.996L157.596 37.4605Z" fill="#1B2848"/>
<path d="M176.605 86.1639L101.918 63.5641L100.651 64.1571L175.229 86.9967L176.605 86.1639Z" fill="#1B2848"/>
<path d="M157.596 37.4605L231.502 52.996L230.347 53.6941L156.936 37.7705L157.596 37.4605Z" fill="#1B2848"/>
<path d="M147.179 138.352V155.782L161.314 161.892V141.767L147.179 138.352Z" fill="white"/>
<path d="M147.903 139.377L160.091 142.463V143.104L147.903 139.975V139.377Z" fill="#4C402C"/>
<path d="M147.903 140.791L160.091 143.875V144.519L147.903 141.39V140.791Z" fill="#4C402C"/>
<path d="M147.903 142.433L160.091 145.519V146.163L147.903 143.034V142.433Z" fill="#4C402C"/>
<path d="M147.903 144.02L160.091 147.103V147.748L147.903 144.618V144.02Z" fill="#4C402C"/>
<path d="M147.903 151.408L153.799 153.22L153.78 153.947L147.903 152.009V151.408Z" fill="#4C402C"/>
<path d="M147.903 152.459L153.799 154.268L153.78 154.995L147.903 153.058V152.459Z" fill="#4C402C"/>
<path d="M147.903 153.726L153.799 155.537L153.78 156.265L147.903 154.327V153.726Z" fill="#4C402C"/>
</g>
<g filter="url(#filter3_d)">
<path d="M213.124 175.387L427.001 185.727V156.353L213.124 147.235V175.387Z" fill="#293759"/>
<path d="M427.002 156.353L468.908 120.301V145.65L427.002 185.726V156.353Z" fill="#1B2745"/>
<path d="M427 156.354L468.906 120.302L280.469 114.619L213.123 147.235L427 156.354Z" fill="#3C465E"/>
<path d="M388.411 170.477V165.569H381.984V170.477C381.984 171.247 382.261 171.991 382.763 172.574C383.266 173.157 383.961 173.54 384.722 173.654V178.066C383.897 178.175 383.135 178.569 382.569 179.179H387.814C387.248 178.569 386.487 178.175 385.661 178.066V173.654C386.425 173.542 387.122 173.16 387.627 172.577C388.132 171.994 388.41 171.249 388.411 170.477V170.477Z" fill="#1B2745"/>
<path d="M397.513 166.51V165.312H397.199V166.51C394.469 166.582 392.159 168.485 391.292 171.128H391.306C391.388 170.953 391.519 170.806 391.682 170.702C391.845 170.598 392.035 170.543 392.228 170.543C392.421 170.543 392.611 170.598 392.774 170.702C392.937 170.806 393.068 170.953 393.15 171.128H393.35C393.432 170.953 393.563 170.806 393.726 170.702C393.89 170.598 394.079 170.543 394.272 170.543C394.466 170.543 394.655 170.598 394.818 170.702C394.982 170.806 395.112 170.953 395.195 171.128H395.392C395.471 170.959 395.595 170.815 395.75 170.712C395.906 170.609 396.086 170.55 396.273 170.543C396.459 170.535 396.644 170.579 396.807 170.669C396.971 170.759 397.106 170.892 397.199 171.054V176.599H397.05C397.05 176.599 396.876 178.523 397.564 179.008C398.024 179.331 398.863 179.202 399.143 178.723C399.457 178.192 399.469 177.687 399.198 177.75C398.926 177.812 399.072 178.466 398.675 178.646C398.19 178.866 397.77 178.697 397.707 178.115C397.671 177.605 397.665 177.093 397.69 176.582H397.513V170.991C397.614 170.842 397.752 170.722 397.915 170.644C398.077 170.566 398.257 170.532 398.437 170.546C398.616 170.56 398.789 170.621 398.937 170.723C399.085 170.826 399.204 170.965 399.28 171.128H399.437C399.52 170.953 399.65 170.806 399.813 170.702C399.977 170.598 400.166 170.543 400.36 170.543C400.553 170.543 400.742 170.598 400.906 170.702C401.069 170.806 401.199 170.953 401.282 171.128H401.482C401.564 170.953 401.695 170.806 401.858 170.702C402.021 170.598 402.211 170.543 402.404 170.543C402.597 170.543 402.787 170.598 402.95 170.702C403.113 170.806 403.244 170.953 403.326 171.128H403.42C402.552 168.485 400.243 166.582 397.513 166.51Z" fill="#1B2745"/>
<path d="M410.487 168.447L407.909 165.353L405.333 168.447H406.955V177.491H408.863V168.447H410.487Z" fill="#1B2745"/>
<path d="M416.159 168.447L413.581 165.353L411.002 168.447H412.627V177.491H414.534V168.447H416.159Z" fill="#1B2745"/>
<path d="M415.865 178.394H405.629V179.148H415.865V178.394Z" fill="#1B2745"/>
<path opacity="0.6" d="M293.531 179.272V150.661L343.323 116.444L352.251 116.781L306.916 152.039L306.588 179.903L293.531 179.272Z" fill="#1A2644"/>
<path opacity="0.6" d="M245.361 131.624L444.705 141.122V168.797L452.905 160.954V134.07L253.878 127.5L245.361 131.624Z" fill="#1A2644"/>
</g>
<defs>
<filter id="filter0_d" x="0.603516" y="0" width="163.057" height="133.009" filterUnits="userSpaceOnUse" color-interpolation-filters="sRGB">
<feFlood flood-opacity="0" result="BackgroundImageFix"/>
<feColorMatrix in="SourceAlpha" type="matrix" values="0 0 0 0 0 0 0 0 0 0 0 0 0 0 0 0 0 0 127 0"/>
<feOffset dy="4"/>
<feGaussianBlur stdDeviation="2.5"/>
<feColorMatrix type="matrix" values="0 0 0 0 0 0 0 0 0 0 0 0 0 0 0 0 0 0 0.17 0"/>
<feBlend mode="normal" in2="BackgroundImageFix" result="effect1_dropShadow"/>
<feBlend mode="normal" in="SourceGraphic" in2="effect1_dropShadow" result="shape"/>
</filter>
<filter id="filter1_d" x="347.095" y="4.69501" width="205.488" height="134.955" filterUnits="userSpaceOnUse" color-interpolation-filters="sRGB">
<feFlood flood-opacity="0" result="BackgroundImageFix"/>
<feColorMatrix in="SourceAlpha" type="matrix" values="0 0 0 0 0 0 0 0 0 0 0 0 0 0 0 0 0 0 127 0"/>
<feOffset dy="4"/>
<feGaussianBlur stdDeviation="2.5"/>
<feColorMatrix type="matrix" values="0 0 0 0 0 0 0 0 0 0 0 0 0 0 0 0 0 0 0.17 0"/>
<feBlend mode="normal" in2="BackgroundImageFix" result="effect1_dropShadow"/>
<feBlend mode="normal" in="SourceGraphic" in2="effect1_dropShadow" result="shape"/>
</filter>
<filter id="filter2_d" x="75" y="9" width="183" height="189" filterUnits="userSpaceOnUse" color-interpolation-filters="sRGB">
<feFlood flood-opacity="0" result="BackgroundImageFix"/>
<feColorMatrix in="SourceAlpha" type="matrix" values="0 0 0 0 0 0 0 0 0 0 0 0 0 0 0 0 0 0 127 0"/>
<feOffset dy="4"/>
<feGaussianBlur stdDeviation="2.5"/>
<feColorMatrix type="matrix" values="0 0 0 0 0 0 0 0 0 0 0 0 0 0 0 0 0 0 0.17 0"/>
<feBlend mode="normal" in2="BackgroundImageFix" result="effect1_dropShadow"/>
<feBlend mode="normal" in="SourceGraphic" in2="effect1_dropShadow" result="shape"/>
</filter>
<filter id="filter3_d" x="208.123" y="113.619" width="265.785" height="81.1075" filterUnits="userSpaceOnUse" color-interpolation-filters="sRGB">
<feFlood flood-opacity="0" result="BackgroundImageFix"/>
<feColorMatrix in="SourceAlpha" type="matrix" values="0 0 0 0 0 0 0 0 0 0 0 0 0 0 0 0 0 0 127 0"/>
<feOffset dy="4"/>
<feGaussianBlur stdDeviation="2.5"/>
<feColorMatrix type="matrix" values="0 0 0 0 0 0 0 0 0 0 0 0 0 0 0 0 0 0 0.17 0"/>
<feBlend mode="normal" in2="BackgroundImageFix" result="effect1_dropShadow"/>
<feBlend mode="normal" in="SourceGraphic" in2="effect1_dropShadow" result="shape"/>
</filter>
<clipPath id="clip0">
<rect width="153.057" height="123.009" fill="white" transform="matrix(-1 0 0 1 158.661 1)"/>
</clipPath>
<clipPath id="clip1">
<rect width="173" height="179" fill="white" transform="translate(80 10)"/>
</clipPath>
</defs>
</svg>
