<svg width="768" height="598" viewBox="0 0 768 598" fill="none" xmlns="http://www.w3.org/2000/svg">
<path d="M61 32H504.087L552 122H63.4949L62.2475 120.333L61 115.468V32Z" fill="url(#paint0_linear)" fill-opacity="0.19"/>
<path d="M-223 43H-162L119 597.5H-133.5L-223 43Z" fill="#FFC130"/>
<path d="M-223 43H-162L119 597.5H-133.5L-223 43Z" fill="url(#paint1_linear)"/>
<path d="M788 597.5H175.5L-38 165H559.5L788 597.5Z" fill="#1B2440" fill-opacity="0.75"/>
<path d="M788 597.5H175.5L-38 165H559.5L788 597.5Z" fill="url(#paint2_linear)" fill-opacity="0.2"/>
<path d="M296.858 93.3529H278.215C278.215 96.098 278.363 98.0392 278.658 99.1765C278.997 100.314 279.737 101.098 280.878 101.529C282.062 101.961 284.028 102.176 286.775 102.176C289.058 102.176 292.06 101.98 295.78 101.588V106.059C294.597 106.333 293.032 106.549 291.088 106.706C289.143 106.863 287.262 106.941 285.444 106.941C281.428 106.941 278.468 106.471 276.566 105.529C274.706 104.549 273.48 103.02 272.888 100.941C272.296 98.8627 272 95.7255 272 91.5294C272 87.4118 272.275 84.3137 272.824 82.2353C273.374 80.1176 274.558 78.549 276.376 77.5294C278.193 76.5098 281.047 76 284.936 76C288.699 76 291.405 76.5098 293.053 77.5294C294.745 78.5098 295.801 80.0196 296.224 82.0588C296.647 84.0588 296.858 87.1961 296.858 91.4706V93.3529ZM284.81 80.7647C282.78 80.7647 281.322 80.9804 280.434 81.4118C279.589 81.8431 279.018 82.6275 278.722 83.7647C278.426 84.902 278.257 86.7647 278.215 89.3529H290.897V89.0588C290.897 86.549 290.728 84.7255 290.39 83.5882C290.052 82.451 289.46 81.7059 288.615 81.3529C287.811 80.9608 286.543 80.7647 284.81 80.7647Z" fill="url(#paint3_linear)"/>
<path d="M322.183 106.471L314.954 95.5882H314.573L307.407 106.471H300.812L311.085 91.2353L301.193 76.4706H308.042L314.89 86.8824H315.207L322.056 76.4706H328.588L318.695 91.1765L329.032 106.471H322.183Z" fill="url(#paint4_linear)"/>
<path d="M334.698 76.4706H340.278L340.532 80.4706H340.976C341.694 78.7451 342.815 77.5686 344.337 76.9412C345.859 76.3137 347.655 76 349.727 76C352.39 76 354.441 76.451 355.878 77.3529C357.358 78.2549 358.415 79.8039 359.049 82C359.683 84.1961 360 87.3333 360 91.4118C360 95.4902 359.683 98.6471 359.049 100.882C358.457 103.078 357.442 104.647 356.005 105.588C354.568 106.49 352.538 106.941 349.917 106.941C347.719 106.941 345.901 106.647 344.464 106.059C343.068 105.431 341.99 104.392 341.229 102.941H340.849V118H334.698V76.4706ZM347.317 101.824C349.346 101.824 350.784 101.608 351.629 101.176C352.517 100.745 353.109 99.8431 353.405 98.4706C353.701 97.0588 353.849 94.7255 353.849 91.4706C353.849 88.2157 353.701 85.902 353.405 84.5294C353.109 83.1176 352.517 82.1961 351.629 81.7647C350.784 81.3333 349.346 81.1176 347.317 81.1176C345.711 81.1176 344.442 81.3529 343.512 81.8235C342.625 82.2941 341.99 83.0784 341.61 84.1765C341.272 85 341.06 85.9608 340.976 87.0588C340.891 88.1569 340.849 89.6275 340.849 91.4706C340.849 94.7647 341.06 97.0784 341.483 98.4118C341.906 99.6275 342.561 100.51 343.449 101.059C344.379 101.569 345.668 101.824 347.317 101.824Z" fill="url(#paint5_linear)"/>
<g clip-path="url(#clip0)">
<path d="M110.966 109.533C85.4854 115.636 72.826 121.348 72.9876 126.668C73.2172 134.336 100.202 141.192 153.941 147.235C136.44 149.181 118.79 149.37 101.251 147.802C65.7101 144.588 22.1295 140.684 12.2288 116.606C3.30698 94.8326 23.0629 59.2245 60.5125 32.6671L110.966 109.533Z" fill="url(#paint6_linear)" fill-opacity="0.39"/>
<path d="M41.3478 114.746C33.044 100.115 47.8619 72.8296 68.7721 45.2346L110.95 109.503C85.4702 115.607 72.8108 121.319 72.9724 126.639C73.202 134.307 100.186 141.163 153.926 147.206C153.926 147.206 62.317 151.621 41.3478 114.746Z" fill="url(#paint7_linear)"/>
<path d="M12.2346 116.606C3.31285 94.8327 23.0688 59.2245 60.5184 32.6671L64.5509 38.8156C49.3777 47.6082 15.9724 70.1453 11.7984 99.8689C10.2243 111.104 13.802 119.983 19.6524 126.982C16.4352 124.134 13.899 120.586 12.2346 116.606Z" fill="url(#paint8_linear)"/>
<path d="M109.117 140.921C30.7666 131.307 92.283 102.527 92.283 102.527L106.694 102.998L110.973 109.525C85.4926 115.629 76.7361 120.871 76.8977 126.191C77.0477 131.315 85.1855 136.537 109.117 140.921Z" fill="url(#paint9_linear)"/>
<path d="M60.7253 51.8288C60.7253 51.8288 22.937 76.6855 17.9521 106.504C12.9673 136.323 77.9657 143.297 77.9657 143.297C76.4898 143.119 22.5624 135.263 24.5675 110.46C26.5726 85.6572 82.9836 68.331 82.9836 68.331L60.7253 51.8288Z" fill="url(#paint10_linear)"/>
<path d="M60.7253 51.8288C60.7253 51.8288 22.937 76.6855 17.9521 106.504C12.9673 136.323 77.9657 143.297 77.9657 143.297C76.4898 143.119 22.5624 135.263 24.5675 110.46C26.5726 85.6572 82.9836 68.331 82.9836 68.331L60.7253 51.8288Z" fill="url(#paint11_linear)"/>
<path d="M73.0587 79.6638C72.2396 80.3126 48.5498 83.1705 39.1948 102.587C29.8397 122.003 49.3823 128.834 49.3823 128.834C48.0088 128.252 39.3207 120.269 41.7395 110.103C44.1582 99.9376 74.4896 90.2197 74.4896 90.2197L73.0587 79.6638Z" fill="url(#paint12_linear)"/>
<path d="M99.3408 88.0043C98.435 88.5318 74.5793 87.8821 62.5012 105.717C50.4231 123.552 68.8066 133.185 68.8066 133.185C67.5307 132.408 60.0615 123.211 63.9453 113.533C67.8292 103.855 99.2559 98.6556 99.2559 98.6556L99.3408 88.0043Z" fill="url(#paint13_linear)"/>
<path d="M114.183 0.752327L114.873 64.8986L168.845 89.5741L168.221 31.5314L114.183 0.752327Z" fill="#FFB520" stroke="black" stroke-width="0.2"/>
<path d="M114.773 64.9633L61.1445 90.8891L60.5185 32.6315L114.081 0.57935L114.773 64.9633Z" fill="#FFB520"/>
<path d="M61.1446 90.8878L110.965 109.532L168.946 89.7293L114.773 64.9619L61.1446 90.8878Z" fill="#FFB520"/>
<path d="M150.319 81.2148L138.131 75.643L137.468 13.898L149.67 20.8503L150.319 81.2148Z" fill="#EFDAC1"/>
<path d="M138.132 75.6423L81.0505 98.3331L94.521 103.381L150.319 81.2141L138.132 75.6423Z" fill="#EFDAC1"/>
<path d="M165.981 33.8137L153.535 27.3099L153.584 31.9046L166.031 38.4085L165.981 33.8137Z" fill="#FFEAE7"/>
<path d="M166.042 39.4219L156.279 34.7733L156.328 39.368L166.092 44.0166L166.042 39.4219Z" fill="#FFEAE7"/>
<path d="M126.855 60.7692L126.925 67.2407L118.297 63.5364L118.219 56.2668L126.855 60.7692Z" fill="#FFEAE7"/>
<path d="M81.5823 98.1262L85.4834 99.9971L81.0505 98.3332L81.5823 98.1262Z" fill="#C49D72"/>
<path d="M114.082 0.578213L132.589 11.116C132.589 11.116 117.659 4.08511 116.147 5.22321C114.502 6.50657 114.25 13.5568 114.241 17.4115L114.082 0.578213Z" fill="#FF9B00" fill-opacity="0.4"/>
<path d="M164.579 33.1155L166.011 33.8192L166.039 36.4509C165.623 35.3088 165.136 34.1947 164.579 33.1155Z" fill="white" fill-opacity="0.38"/>
<path d="M153.246 82.5485C153.246 82.5485 164.922 86.9896 166.54 85.8288C168.159 84.668 168.805 76.5276 168.805 76.5276L168.947 89.7294L153.246 82.5485Z" fill="#F99837" fill-opacity="0.67"/>
<path d="M121.052 64.723L118.297 63.5373L118.263 60.3016C119.059 61.8571 119.992 63.3369 121.052 64.723Z" fill="#FFEAE7" fill-opacity="0.35"/>
<path d="M150.055 54.7463C150.055 54.7463 148.858 24.1384 148.839 22.3983C148.82 20.6582 144.575 17.9279 144.575 17.9279L149.691 20.8502L150.055 54.7463Z" fill="#FFE9CF"/>
<path d="M114.591 1.44475L115.27 64.6404L168.438 88.9483L167.824 31.7653L114.591 1.44475Z" stroke="#6F4300"/>
<path d="M115.366 65.2855L62.4165 90.8304L110.974 109.002L169.715 88.9548L115.366 65.2855Z" stroke="#6F4300"/>
</g>
<path d="M228.474 70.1067L197.674 43.8696V105.47H207.553L208.134 66.6845L228.474 82.6549L259.274 58.1289V43.8696L228.474 70.1067Z" fill="url(#paint14_linear)"/>
<path d="M228.642 89.7867L212.459 75.4415V88.6391L228.642 102.984L249.449 85.7701V105.853H259.275V63.9653L228.642 89.7867Z" fill="url(#paint15_linear)"/>
<defs>
<linearGradient id="paint0_linear" x1="101.643" y1="82.6261" x2="549.938" y2="89.9144" gradientUnits="userSpaceOnUse">
<stop stop-color="white"/>
<stop offset="1" stop-color="white" stop-opacity="0"/>
</linearGradient>
<linearGradient id="paint1_linear" x1="119" y1="-3.4961" x2="-176.759" y2="-20.2692" gradientUnits="userSpaceOnUse">
<stop stop-color="#FFC738"/>
<stop offset="1" stop-color="#FF9B00"/>
</linearGradient>
<linearGradient id="paint2_linear" x1="-69" y1="375" x2="560" y2="165" gradientUnits="userSpaceOnUse">
<stop stop-color="white"/>
<stop offset="1" stop-color="white" stop-opacity="0.1"/>
</linearGradient>
<linearGradient id="paint3_linear" x1="301.333" y1="71.6666" x2="338.369" y2="107.63" gradientUnits="userSpaceOnUse">
<stop stop-color="#FF9B00"/>
<stop offset="1" stop-color="#FFC738"/>
</linearGradient>
<linearGradient id="paint4_linear" x1="301.333" y1="71.6666" x2="338.369" y2="107.63" gradientUnits="userSpaceOnUse">
<stop stop-color="#FF9B00"/>
<stop offset="1" stop-color="#FFC738"/>
</linearGradient>
<linearGradient id="paint5_linear" x1="301.333" y1="71.6666" x2="338.369" y2="107.63" gradientUnits="userSpaceOnUse">
<stop stop-color="#FF9B00"/>
<stop offset="1" stop-color="#FFC738"/>
</linearGradient>
<linearGradient id="paint6_linear" x1="81.0139" y1="32.4468" x2="160.31" y2="153.747" gradientUnits="userSpaceOnUse">
<stop stop-color="#A7C1FF"/>
<stop offset="0.0001" stop-color="#A7C1FF"/>
<stop offset="0.078125" stop-color="#6075A9" stop-opacity="0.921967"/>
<stop offset="1" stop-color="white" stop-opacity="0.2"/>
</linearGradient>
<linearGradient id="paint7_linear" x1="109.283" y1="98.7704" x2="81.2996" y2="151.938" gradientUnits="userSpaceOnUse">
<stop stop-color="#4E5F89"/>
<stop offset="1" stop-color="white" stop-opacity="0"/>
</linearGradient>
<linearGradient id="paint8_linear" x1="69.8188" y1="39.3127" x2="18.8509" y2="99.8324" gradientUnits="userSpaceOnUse">
<stop stop-color="white"/>
<stop offset="1" stop-color="white" stop-opacity="0"/>
</linearGradient>
<linearGradient id="paint9_linear" x1="-3519.68" y1="6341.41" x2="-4860.78" y2="7459.58" gradientUnits="userSpaceOnUse">
<stop stop-color="#3E4C6B"/>
<stop offset="1" stop-color="white" stop-opacity="0"/>
</linearGradient>
<linearGradient id="paint10_linear" x1="57.8113" y1="61.1382" x2="51.9527" y2="143.577" gradientUnits="userSpaceOnUse">
<stop stop-color="#91A8DA"/>
<stop offset="0.932292" stop-color="#738BC0" stop-opacity="0"/>
</linearGradient>
<linearGradient id="paint11_linear" x1="84.9818" y1="61.7519" x2="3.27928" y2="118.145" gradientUnits="userSpaceOnUse">
<stop stop-color="#989898"/>
<stop offset="1" stop-color="white" stop-opacity="0"/>
</linearGradient>
<linearGradient id="paint12_linear" x1="74.4344" y1="85.0841" x2="30.0623" y2="117.286" gradientUnits="userSpaceOnUse">
<stop stop-color="#989898"/>
<stop offset="0.994792" stop-color="white" stop-opacity="0.08"/>
</linearGradient>
<linearGradient id="paint13_linear" x1="99.3944" y1="92.9874" x2="55.5199" y2="127.177" gradientUnits="userSpaceOnUse">
<stop stop-color="#989898"/>
<stop offset="1" stop-color="white" stop-opacity="0.11"/>
</linearGradient>
<linearGradient id="paint14_linear" x1="218.207" y1="37.514" x2="259.671" y2="56.7306" gradientUnits="userSpaceOnUse">
<stop stop-color="#FF9B00"/>
<stop offset="1" stop-color="#FFC738"/>
</linearGradient>
<linearGradient id="paint15_linear" x1="212.459" y1="68.6196" x2="253.024" y2="109.947" gradientUnits="userSpaceOnUse">
<stop stop-color="#989898"/>
<stop offset="1" stop-color="white"/>
</linearGradient>
<clipPath id="clip0">
<rect width="158.992" height="148.392" fill="white" transform="matrix(-0.999942 0.0107455 0.0107455 0.999942 167.982 0)"/>
</clipPath>
</defs>
</svg>
