<svg width="960" height="600" viewBox="0 0 960 600" fill="none" xmlns="http://www.w3.org/2000/svg">
<g clip-path="url(#clip0)">
<path d="M-151 664H833.244L1195 -63.0001H216.201L-151 664Z" fill="#172340"/>
<path d="M-34 601H779.5L1078.5 0H269.5L-34 601Z" fill="#232E4A"/>
<path d="M1177 -1H1124L824 601.5H1076.5L1177 -1Z" fill="#FFC130"/>
<path d="M1177 -1H1124L824 601.5H1076.5L1177 -1Z" fill="url(#paint0_linear)"/>
<path d="M-137 601H-80L220.5 0H-32L-137 601Z" fill="url(#paint1_linear)"/>
<path d="M-201 601H-144L156.5 0H-96L-201 601Z" fill="url(#paint2_linear)"/>
</g>
<defs>
<linearGradient id="paint0_linear" x1="824" y1="0.499791" x2="1119.76" y2="-16.2733" gradientUnits="userSpaceOnUse">
<stop stop-color="#FFC738"/>
<stop offset="1" stop-color="#FF9B00"/>
</linearGradient>
<linearGradient id="paint1_linear" x1="-80" y1="657.5" x2="-265.35" y2="579.546" gradientUnits="userSpaceOnUse">
<stop stop-color="#FFC738"/>
<stop offset="1" stop-color="#FF9B00" stop-opacity="0.69"/>
</linearGradient>
<linearGradient id="paint2_linear" x1="55.5001" y1="324.5" x2="-72.9968" y2="287.391" gradientUnits="userSpaceOnUse">
<stop stop-color="#FF9B00" stop-opacity="0.69"/>
<stop offset="1" stop-color="#FFC738"/>
</linearGradient>
<clipPath id="clip0">
<rect width="960" height="600" fill="white"/>
</clipPath>
</defs>
</svg>
