<svg width="269" height="88" viewBox="0 0 269 88" fill="none" xmlns="http://www.w3.org/2000/svg">
<g clip-path="url(#clip0)" filter="url(#filter0_d)">
<path d="M37.362 73.9999L91 56.9611V16.5503L37.362 28.0953V73.9999Z" fill="#253354"/>
<path d="M5.00124 55.3994L37.3633 73.9997V28.0951L5.00124 12.3494V55.3994Z" fill="#1E2A47"/>
<path d="M91 16.5504L58.262 5L5.00001 12.3496L37.362 28.0954L91 16.5504Z" fill="#3C465E"/>
<path opacity="0.6" d="M75.4316 11.058L24.8812 22.25L23.8421 40.5492L22.0618 43.1749L21.1805 39.7998L19.9851 40.8503L18.7977 38.4495L17.9083 39.7998L19.0538 19.187L70.9748 9.4856L75.4316 11.058Z" fill="#1E2947"/>
<path opacity="0.6" d="M68.9629 21.2937L37.361 7.88477L31.9837 8.626L62.304 22.7271L68.9629 21.2937Z" fill="#1E2947"/>
<path d="M68.9629 21.2935V63.962L62.304 66.0767V22.7269L68.9629 21.2935Z" fill="#1E2947"/>
<path d="M25.4728 62.3748C25.4728 62.8722 25.8393 63.0425 26.3636 63.2741L31.8527 66.0769C32.5939 66.4502 32.7422 65.6681 32.7422 65.1762V56.6262C32.7422 56.1302 32.4214 56.0117 31.8527 55.7269L26.3636 52.9241C25.2005 52.3246 25.555 53.5441 25.4728 55.8495V62.3748Z" fill="white"/>
<path d="M32.1816 57.4681L26.7329 54.792V55.0999L32.1816 57.8687V57.4681Z" fill="#25304C"/>
<path d="M32.1816 58.5229L26.7329 55.8455V56.1534L32.1816 58.9235V58.5229Z" fill="#25304C"/>
<path d="M32.1816 59.7056L26.7329 57.0295V57.3361L32.1816 60.1062V59.7056Z" fill="#25304C"/>
<path d="M32.0527 62.9508L28.6094 61.2585L28.5663 61.5787L32.0527 63.3501V62.9508Z" fill="#25304C"/>
<path d="M32.0527 63.7509L28.6094 62.0586L28.5663 62.3788L32.0527 64.1501V63.7509Z" fill="#25304C"/>
<path d="M32.0527 64.5668L28.6094 62.8745L28.5663 63.1947L32.0527 64.966V64.5668Z" fill="#25304C"/>
</g>
<g opacity="0.8">
<g filter="url(#filter1_d)">
<path d="M230.406 20.7959L250.142 5.18848L249.939 38.8205L230.406 61.4872V20.7959Z" fill="#202C49"/>
<path d="M230.406 61.4865L169 56.4489V18.5886L230.406 20.7952V61.4865Z" fill="#293759"/>
<path d="M169 18.5889L195.452 4.06006L250.142 5.18809L230.406 20.7955L169 18.5889Z" fill="#1E2A47"/>
<path d="M192.141 36.6509V33.5012H188.018V36.6509C188.018 37.1455 188.195 37.6236 188.518 37.9981C188.842 38.3725 189.289 38.6184 189.778 38.6909V41.5256C189.248 41.5957 188.759 41.849 188.397 42.2416H191.762C191.4 41.8487 190.911 41.5954 190.381 41.5256V38.6909C190.87 38.6184 191.317 38.3725 191.64 37.9981C191.964 37.6236 192.141 37.1455 192.141 36.6509Z" fill="#1B2745"/>
<path d="M197.982 34.1065V33.3374H197.781V34.1065C196.029 34.1505 194.547 35.3737 193.99 37.0676C194.044 36.956 194.128 36.8618 194.232 36.7958C194.337 36.7298 194.458 36.6948 194.582 36.6948C194.706 36.6948 194.827 36.7298 194.932 36.7958C195.036 36.8618 195.12 36.956 195.174 37.0676H195.302C195.355 36.956 195.439 36.8618 195.544 36.7958C195.649 36.7298 195.77 36.6948 195.894 36.6948C196.017 36.6948 196.139 36.7298 196.243 36.7958C196.348 36.8618 196.432 36.956 196.485 37.0676H196.612C196.663 36.9598 196.743 36.868 196.842 36.8021C196.942 36.7363 197.058 36.6989 197.177 36.694C197.297 36.6891 197.415 36.7169 197.52 36.7743C197.624 36.8318 197.711 36.9167 197.771 37.02V40.58H197.676C197.676 40.58 197.564 41.8142 198.006 42.1255C198.301 42.3306 198.839 42.2501 199.021 41.9424C199.221 41.6018 199.228 41.2777 199.054 41.318C198.88 41.3582 198.973 41.7776 198.719 41.893C198.407 42.0321 198.138 41.9259 198.098 41.5505C198.074 41.2239 198.071 40.8961 198.087 40.569H197.973V36.9816C198.038 36.8862 198.127 36.8097 198.231 36.7597C198.335 36.7097 198.45 36.6879 198.565 36.6966C198.68 36.7054 198.791 36.7443 198.886 36.8094C198.981 36.8745 199.057 36.9636 199.107 37.0676H199.208C199.261 36.956 199.345 36.8618 199.45 36.7958C199.554 36.7298 199.676 36.6948 199.799 36.6948C199.923 36.6948 200.044 36.7298 200.149 36.7958C200.254 36.8618 200.338 36.956 200.391 37.0676H200.519C200.573 36.956 200.657 36.8618 200.761 36.7958C200.866 36.7298 200.987 36.6948 201.111 36.6948C201.235 36.6948 201.356 36.7298 201.461 36.7958C201.566 36.8618 201.649 36.956 201.703 37.0676H201.763C201.216 35.3737 199.735 34.145 197.982 34.1065Z" fill="#1B2745"/>
<path d="M206.307 35.3482L204.652 33.365L203 35.3482H204.042V41.1514H205.264V35.3482H206.307Z" fill="#1B2745"/>
<path d="M209.945 35.3482L208.291 33.365L206.637 35.3482H207.679V41.1514H208.903V35.3482H209.945Z" fill="#1B2745"/>
<path d="M209.757 41.7312H203.189V42.2134H209.757V41.7312Z" fill="#1B2745"/>
<path d="M230.406 20.7959L246.815 37.8719L263.631 20.7959L250.142 5.18848L230.406 20.7959Z" fill="#454F66"/>
<path d="M169 18.589L200.823 14.1941C200.823 14.1941 223.822 0.591903 223.122 1.00942C222.422 1.42693 195.459 4.06022 195.459 4.06022L169 18.589Z" fill="#454F66"/>
</g>
</g>
<g filter="url(#filter2_d)">
<path d="M77 73.4159L180.532 78.4212V64.2024L77 59.7883V73.4159Z" fill="#293759"/>
<path d="M180.535 64.2022L200.821 46.7505V59.0214L180.535 78.4211V64.2022Z" fill="#1B2745"/>
<path d="M180.532 64.2025L200.818 46.7507L109.6 44L77 59.7884L180.532 64.2025Z" fill="#3C465E"/>
<path d="M161.851 71.0394V68.6631H158.74V71.0394C158.74 71.4119 158.874 71.7719 159.118 72.0541C159.361 72.3363 159.697 72.5218 160.066 72.5771V74.713C159.666 74.7657 159.298 74.9563 159.024 75.2518H161.563C161.289 74.9563 160.92 74.7657 160.52 74.713V72.5771C160.89 72.523 161.228 72.338 161.472 72.0557C161.716 71.7734 161.851 71.4127 161.851 71.0394Z" fill="#1B2745"/>
<path d="M166.258 69.1193V68.5391H166.106V69.1193C164.784 69.1539 163.666 70.0754 163.246 71.3547H163.253C163.293 71.27 163.356 71.1984 163.435 71.1483C163.514 71.0982 163.606 71.0715 163.699 71.0715C163.793 71.0715 163.885 71.0982 163.964 71.1483C164.043 71.1984 164.106 71.27 164.146 71.3547H164.243C164.282 71.27 164.346 71.1984 164.425 71.1483C164.504 71.0982 164.595 71.0715 164.689 71.0715C164.783 71.0715 164.874 71.0982 164.953 71.1483C165.032 71.1984 165.096 71.27 165.135 71.3547H165.231C165.269 71.2729 165.329 71.2033 165.404 71.1533C165.48 71.1033 165.567 71.0749 165.657 71.0712C165.748 71.0675 165.837 71.0886 165.916 71.1323C165.995 71.1759 166.061 71.2404 166.106 71.3188V74.0032H166.034C166.034 74.0032 165.95 74.9343 166.283 75.1692C166.505 75.3253 166.911 75.2631 167.047 75.031C167.199 74.7741 167.204 74.5295 167.073 74.5599C166.942 74.5903 167.012 74.9067 166.82 74.9937C166.585 75.1001 166.382 75.0186 166.352 74.7368C166.334 74.4899 166.331 74.2421 166.343 73.9949H166.258V71.2884C166.307 71.2161 166.374 71.1581 166.452 71.1202C166.531 71.0823 166.618 71.0659 166.705 71.0726C166.792 71.0794 166.875 71.109 166.947 71.1586C167.019 71.2081 167.076 71.2758 167.113 71.3547H167.189C167.229 71.27 167.292 71.1984 167.371 71.1483C167.45 71.0982 167.542 71.0715 167.636 71.0715C167.729 71.0715 167.821 71.0982 167.9 71.1483C167.979 71.1984 168.042 71.27 168.082 71.3547H168.179C168.219 71.27 168.282 71.1984 168.361 71.1483C168.44 71.0982 168.532 71.0715 168.625 71.0715C168.719 71.0715 168.811 71.0982 168.89 71.1483C168.969 71.1984 169.032 71.27 169.072 71.3547H169.117C168.697 70.0754 167.579 69.1539 166.258 69.1193Z" fill="#1B2745"/>
<path d="M172.54 70.0567L171.292 68.5591L170.045 70.0567H170.83V74.4347H171.753V70.0567H172.54Z" fill="#1B2745"/>
<path d="M175.285 70.0567L174.037 68.5591L172.789 70.0567H173.575V74.4347H174.499V70.0567H175.285Z" fill="#1B2745"/>
<path d="M175.142 74.8716H170.188V75.2368H175.142V74.8716Z" fill="#1B2745"/>
<path opacity="0.6" d="M115.924 75.2969V61.4469L140.027 44.8835L144.349 45.0466L122.403 62.1142L122.244 75.6023L115.924 75.2969Z" fill="#1A2644"/>
<path opacity="0.6" d="M92.6055 52.2314L189.103 56.8292V70.2261L193.072 66.4296V53.4154L96.7283 50.2351L92.6055 52.2314Z" fill="#1A2644"/>
</g>
<defs>
<filter id="filter0_d" x="0" y="4" width="96" height="79" filterUnits="userSpaceOnUse" color-interpolation-filters="sRGB">
<feFlood flood-opacity="0" result="BackgroundImageFix"/>
<feColorMatrix in="SourceAlpha" type="matrix" values="0 0 0 0 0 0 0 0 0 0 0 0 0 0 0 0 0 0 127 0"/>
<feOffset dy="4"/>
<feGaussianBlur stdDeviation="2.5"/>
<feColorMatrix type="matrix" values="0 0 0 0 0 0 0 0 0 0 0 0 0 0 0 0 0 0 0.17 0"/>
<feBlend mode="normal" in2="BackgroundImageFix" result="effect1_dropShadow"/>
<feBlend mode="normal" in="SourceGraphic" in2="effect1_dropShadow" result="shape"/>
</filter>
<filter id="filter1_d" x="164" y="0" width="104.631" height="70.4872" filterUnits="userSpaceOnUse" color-interpolation-filters="sRGB">
<feFlood flood-opacity="0" result="BackgroundImageFix"/>
<feColorMatrix in="SourceAlpha" type="matrix" values="0 0 0 0 0 0 0 0 0 0 0 0 0 0 0 0 0 0 127 0"/>
<feOffset dy="4"/>
<feGaussianBlur stdDeviation="2.5"/>
<feColorMatrix type="matrix" values="0 0 0 0 0 0 0 0 0 0 0 0 0 0 0 0 0 0 0.17 0"/>
<feBlend mode="normal" in2="BackgroundImageFix" result="effect1_dropShadow"/>
<feBlend mode="normal" in="SourceGraphic" in2="effect1_dropShadow" result="shape"/>
</filter>
<filter id="filter2_d" x="72" y="43" width="133.821" height="44.4212" filterUnits="userSpaceOnUse" color-interpolation-filters="sRGB">
<feFlood flood-opacity="0" result="BackgroundImageFix"/>
<feColorMatrix in="SourceAlpha" type="matrix" values="0 0 0 0 0 0 0 0 0 0 0 0 0 0 0 0 0 0 127 0"/>
<feOffset dy="4"/>
<feGaussianBlur stdDeviation="2.5"/>
<feColorMatrix type="matrix" values="0 0 0 0 0 0 0 0 0 0 0 0 0 0 0 0 0 0 0.17 0"/>
<feBlend mode="normal" in2="BackgroundImageFix" result="effect1_dropShadow"/>
<feBlend mode="normal" in="SourceGraphic" in2="effect1_dropShadow" result="shape"/>
</filter>
<clipPath id="clip0">
<rect width="86" height="69" fill="white" transform="matrix(-1 0 0 1 91 5)"/>
</clipPath>
</defs>
</svg>
