<svg width="1920" height="600" viewBox="0 0 1920 600" fill="none" xmlns="http://www.w3.org/2000/svg">
<g clip-path="url(#clip0)">
<path d="M-35 599H778.5L1077.5 -2H268.5L-35 599Z" fill="white" fill-opacity="0.05"/>
<rect y="-41" width="1077" height="709" fill="#172340"/>
<path d="M-138 599H-81L219.5 -2H-33L-138 599Z" fill="url(#paint0_linear)"/>
<path d="M-202 599H-145L155.5 -2H-97L-202 599Z" fill="url(#paint1_linear)"/>
<path d="M1722 -2H1922V600H1570L1722 -2Z" fill="#172340" fill-opacity="0.6"/>
<path d="M2078 -2H2026.07L1726 600H1978.14L2078 -2Z" fill="url(#paint2_linear)"/>
<path d="M1186 -2H1300L1154.5 600H929L1186 -2Z" fill="url(#paint3_linear)"/>
<path d="M1078.5 -3.5L1134 -2L1010.46 599H779L1078.5 -3.5Z" fill="#172340"/>
<path d="M1176 -2H1122.5L823 600H1075.5L1176 -2Z" fill="url(#paint4_linear)"/>
<path d="M976.174 600H1076L1254 -2H1136.5L976.174 600Z" fill="url(#paint5_linear)"/>
<path d="M1623 600H1674.93L1975 -2H1722.86L1623 600Z" fill="#FFC130"/>
<path d="M1660 600H1711.93L2012 -2H1759.86L1660 600Z" fill="url(#paint6_linear)"/>
<path d="M-35 599H778.5L1077.5 -2H268.5L-35 599Z" fill="white" fill-opacity="0.05"/>
</g>
<defs>
<linearGradient id="paint0_linear" x1="-81" y1="655.5" x2="-266.35" y2="577.546" gradientUnits="userSpaceOnUse">
<stop stop-color="#FFC738"/>
<stop offset="1" stop-color="#FF9B00" stop-opacity="0.69"/>
</linearGradient>
<linearGradient id="paint1_linear" x1="54.5001" y1="322.5" x2="-73.9968" y2="285.391" gradientUnits="userSpaceOnUse">
<stop stop-color="#FF9B00" stop-opacity="0.69"/>
<stop offset="1" stop-color="#FFC738"/>
</linearGradient>
<linearGradient id="paint2_linear" x1="1877.29" y1="609.015" x2="1732.4" y2="527.273" gradientUnits="userSpaceOnUse">
<stop stop-color="#FFC738"/>
<stop offset="1" stop-color="#FF9B00"/>
</linearGradient>
<linearGradient id="paint3_linear" x1="1355" y1="52" x2="1091.5" y2="600" gradientUnits="userSpaceOnUse">
<stop stop-color="#172340" stop-opacity="0.49"/>
<stop offset="0.638583" stop-color="#232E4A"/>
</linearGradient>
<linearGradient id="paint4_linear" x1="1027.5" y1="9.00913" x2="1294.56" y2="32.7104" gradientUnits="userSpaceOnUse">
<stop stop-color="#FFC738"/>
<stop offset="1" stop-color="#FF9B00" stop-opacity="0.46"/>
</linearGradient>
<linearGradient id="paint5_linear" x1="1337.5" y1="598.998" x2="1041.74" y2="615.771" gradientUnits="userSpaceOnUse">
<stop stop-color="#FFC738" stop-opacity="0.5"/>
<stop offset="1" stop-color="#FF9B00"/>
</linearGradient>
<linearGradient id="paint6_linear" x1="2012" y1="600" x2="1716.65" y2="616.698" gradientUnits="userSpaceOnUse">
<stop stop-color="#FFC738" stop-opacity="0.5"/>
<stop offset="1" stop-color="#FF9B00"/>
</linearGradient>
<clipPath id="clip0">
<rect width="1920" height="600" fill="white"/>
</clipPath>
</defs>
</svg>
