<svg width="270" height="276" viewBox="0 0 270 276" fill="none" xmlns="http://www.w3.org/2000/svg">
<g filter="url(#filter0_d)">
<path d="M47.9996 205.339C42.4994 2.95577 193.999 -10.0684 215 135.206L218 153.742L220 171.275" stroke="#FFC738" stroke-width="2"/>
</g>
<g clip-path="url(#clip0)">
<path d="M225.214 172.27C225.197 172.694 225.006 173.111 224.666 173.429L220.329 177.484C219.826 177.954 219.171 178.22 218.486 178.231C217.801 178.242 217.167 177.998 216.702 177.543L212.696 173.624C212.225 173.164 212.109 172.468 212.4 171.852C212.692 171.237 213.327 170.832 214.02 170.821L219.5 170.5C219.5 164.899 220.5 166.102 219.5 162.102L220 161.602C219.5 162.602 219.481 162.051 219.5 161.602C220.5 163.102 219.529 164.109 220 164.102L219.5 159.102C219.5 159.602 219 160.602 219 160.102C220.5 164.5 220.64 167.637 221.14 171.645C221.103 172.543 218.817 172.369 217.875 172.385L213.953 172.449L213.95 172.453L213.952 172.455L217.958 176.373C218.113 176.525 218.325 176.607 218.553 176.603C218.782 176.599 219 176.511 219.168 176.354L223.505 172.299L223.507 172.298L223.506 172.293L222.57 172.308C222.098 172.316 221.731 171.958 221.75 171.508C221.769 171.059 222.166 170.688 222.637 170.681L223.573 170.665C224.266 170.654 224.869 171.039 225.109 171.645C225.189 171.847 225.223 172.059 225.214 172.27Z" fill="#FFC738"/>
</g>
<path d="M42.2 206.626C42.2362 207.049 42.445 207.459 42.7991 207.762L47.3106 211.629C47.8341 212.078 48.4997 212.314 49.1848 212.295C49.8699 212.276 50.4921 212.003 50.9365 211.528L54.766 207.428C55.2162 206.947 55.3014 206.245 54.9831 205.642C54.6652 205.039 54.0121 204.662 53.3195 204.681L47.697 204.895C48.4616 197.869 46.907 200.471 48.6523 196.533L48.4201 195.917C48.5 195.756 48.4586 194.663 48.4201 194.214C48.3817 193.764 48.8914 191.955 48.4201 191.968L48.5 192.249C47.9907 195.949 48.2591 194.071 48.6523 196.257C47.3038 202.086 47.9967 201.909 47 205.34C47.0768 206.237 48.5959 206.443 49.5369 206.417L53.4587 206.307L53.4614 206.312L53.4598 206.313L49.63 210.413C49.4818 210.571 49.2742 210.662 49.0456 210.669C48.8169 210.675 48.5948 210.596 48.4201 210.446L43.9086 206.58L43.9067 206.578L43.908 206.574L44.8439 206.548C45.3152 206.535 45.666 206.16 45.6275 205.711C45.5891 205.262 45.1759 204.908 44.7046 204.921L43.7694 204.947C43.0768 204.967 42.4912 205.378 42.2778 205.996C42.2067 206.202 42.182 206.416 42.2 206.626Z" fill="#FFC738"/>
<g filter="url(#filter1_d)">
<ellipse cx="223.5" cy="195.321" rx="11.5" ry="11.5218" fill="url(#paint0_linear)" fill-opacity="0.5"/>
</g>
<g filter="url(#filter2_d)">
<ellipse cx="223.5" cy="195.321" rx="4.92857" ry="4.93792" fill="url(#paint1_linear)"/>
</g>
<g filter="url(#filter3_d)">
<ellipse cx="47" cy="229.385" rx="11.5" ry="11.5218" fill="url(#paint2_linear)" fill-opacity="0.5"/>
</g>
<g filter="url(#filter4_d)">
<ellipse cx="47.0001" cy="229.385" rx="5.30769" ry="5.31776" fill="url(#paint3_linear)"/>
</g>
<path d="M31.488 258.907V251.291H31.376L29.376 258.907H27.424L25.44 251.291H25.328V258.907H22.992V247.899H26.56L28.4 254.955H28.512L30.352 247.899H33.888V258.907H31.488ZM37.323 249.019V247.019H39.691V249.019H37.323ZM37.339 258.907V250.747H39.675V258.907H37.339ZM47.3531 254.539C47.3531 253.888 47.3318 253.44 47.2891 253.195C47.2571 252.939 47.1771 252.779 47.0491 252.715C46.9318 252.64 46.7131 252.603 46.3931 252.603C46.0625 252.603 45.8225 252.662 45.6731 252.779C45.5345 252.886 45.4438 253.078 45.4011 253.355C45.3585 253.622 45.3371 254.064 45.3371 254.683V258.907H43.0171V250.747H45.2251L45.2891 251.723H45.4171C45.7585 250.987 46.4518 250.619 47.4971 250.619C48.1158 250.619 48.5798 250.731 48.8891 250.955C49.1985 251.168 49.4065 251.488 49.5131 251.915C49.6198 252.342 49.6731 252.928 49.6731 253.675V258.907H47.3531V254.539ZM55.7437 259.035C55.2851 259.035 54.7891 259.014 54.2557 258.971C53.7224 258.928 53.2637 258.87 52.8797 258.795V257.099C53.5837 257.184 54.3197 257.227 55.0877 257.227C55.5037 257.227 55.8024 257.211 55.9837 257.179C56.1757 257.136 56.2984 257.067 56.3517 256.971C56.4157 256.875 56.4477 256.72 56.4477 256.507C56.4477 256.294 56.4317 256.144 56.3997 256.059C56.3677 255.974 56.3037 255.915 56.2077 255.883C56.1117 255.84 55.9411 255.803 55.6957 255.771L54.0637 255.547C53.5197 255.472 53.1464 255.248 52.9437 254.875C52.7517 254.502 52.6557 253.91 52.6557 253.099C52.6557 252.438 52.7784 251.926 53.0237 251.563C53.2797 251.2 53.6264 250.955 54.0637 250.827C54.5011 250.688 55.0504 250.619 55.7117 250.619C56.1384 250.619 56.5917 250.646 57.0717 250.699C57.5517 250.742 57.9357 250.8 58.2237 250.875V252.555C57.3277 252.47 56.6451 252.427 56.1757 252.427C55.8024 252.427 55.5251 252.443 55.3437 252.475C55.1731 252.507 55.0504 252.571 54.9757 252.667C54.9117 252.752 54.8797 252.896 54.8797 253.099C54.8797 253.302 54.8904 253.446 54.9117 253.531C54.9437 253.606 54.9971 253.664 55.0717 253.707C55.1571 253.739 55.3064 253.771 55.5197 253.803L57.0717 254.011C57.4237 254.064 57.7064 254.155 57.9197 254.283C58.1437 254.411 58.3197 254.64 58.4477 254.971C58.5757 255.302 58.6397 255.782 58.6397 256.411C58.6397 257.136 58.5224 257.691 58.2877 258.075C58.0637 258.448 57.7437 258.704 57.3277 258.843C56.9224 258.971 56.3944 259.035 55.7437 259.035ZM66.1194 258.907L64.4234 255.755H63.9434V258.907H61.6234V247.019H63.9434V253.931H64.4234L66.1834 250.747H68.6154L66.3274 254.651L68.6474 258.907H66.1194Z" fill="white"/>
<path d="M201.488 224.843V217.227H201.376L199.376 224.843H197.424L195.44 217.227H195.328V224.843H192.992V213.835H196.56L198.4 220.891H198.512L200.352 213.835H203.888V224.843H201.488ZM210.539 224.971C209.462 224.971 208.683 224.853 208.203 224.619C207.734 224.384 207.435 223.995 207.307 223.451C207.179 222.896 207.115 222 207.115 220.763C207.115 219.525 207.179 218.635 207.307 218.091C207.435 217.536 207.734 217.141 208.203 216.907C208.683 216.672 209.462 216.555 210.539 216.555C211.616 216.555 212.39 216.672 212.859 216.907C213.328 217.141 213.627 217.536 213.755 218.091C213.894 218.635 213.963 219.525 213.963 220.763C213.963 221.989 213.894 222.88 213.755 223.435C213.627 223.979 213.328 224.373 212.859 224.619C212.39 224.853 211.616 224.971 210.539 224.971ZM210.539 223.131C210.923 223.131 211.184 223.083 211.323 222.987C211.462 222.891 211.547 222.699 211.579 222.411C211.622 222.123 211.643 221.573 211.643 220.763C211.643 219.952 211.622 219.403 211.579 219.115C211.547 218.816 211.462 218.624 211.323 218.539C211.184 218.443 210.923 218.395 210.539 218.395C210.155 218.395 209.888 218.443 209.739 218.539C209.6 218.624 209.515 218.811 209.483 219.099C209.451 219.387 209.435 219.941 209.435 220.763C209.435 221.584 209.451 222.139 209.483 222.427C209.515 222.704 209.6 222.891 209.739 222.987C209.888 223.083 210.155 223.131 210.539 223.131ZM219.784 224.971C219.326 224.971 218.83 224.949 218.296 224.907C217.763 224.864 217.304 224.805 216.92 224.731V223.035C217.624 223.12 218.36 223.163 219.128 223.163C219.544 223.163 219.843 223.147 220.024 223.115C220.216 223.072 220.339 223.003 220.392 222.907C220.456 222.811 220.488 222.656 220.488 222.443C220.488 222.229 220.472 222.08 220.44 221.995C220.408 221.909 220.344 221.851 220.248 221.819C220.152 221.776 219.982 221.739 219.736 221.707L218.104 221.483C217.56 221.408 217.187 221.184 216.984 220.811C216.792 220.437 216.696 219.845 216.696 219.035C216.696 218.373 216.819 217.861 217.064 217.499C217.32 217.136 217.667 216.891 218.104 216.763C218.542 216.624 219.091 216.555 219.752 216.555C220.179 216.555 220.632 216.581 221.112 216.635C221.592 216.677 221.976 216.736 222.264 216.811V218.491C221.368 218.405 220.686 218.363 220.216 218.363C219.843 218.363 219.566 218.379 219.384 218.411C219.214 218.443 219.091 218.507 219.016 218.603C218.952 218.688 218.92 218.832 218.92 219.035C218.92 219.237 218.931 219.381 218.952 219.467C218.984 219.541 219.038 219.6 219.112 219.643C219.198 219.675 219.347 219.707 219.56 219.739L221.112 219.947C221.464 220 221.747 220.091 221.96 220.219C222.184 220.347 222.36 220.576 222.488 220.907C222.616 221.237 222.68 221.717 222.68 222.347C222.68 223.072 222.563 223.627 222.328 224.011C222.104 224.384 221.784 224.64 221.368 224.779C220.963 224.907 220.435 224.971 219.784 224.971ZM230.736 224.715C230.075 224.885 229.355 224.971 228.576 224.971C227.637 224.971 226.944 224.821 226.496 224.523C226.048 224.213 225.76 223.776 225.632 223.211C225.504 222.635 225.44 221.819 225.44 220.763C225.44 219.717 225.509 218.907 225.648 218.331C225.787 217.755 226.075 217.317 226.512 217.019C226.96 216.709 227.643 216.555 228.56 216.555C229.36 216.555 230.069 216.635 230.688 216.795V218.507C230.208 218.432 229.717 218.395 229.216 218.395C228.768 218.395 228.448 218.453 228.256 218.571C228.064 218.677 227.936 218.885 227.872 219.195C227.808 219.504 227.776 220.027 227.776 220.763C227.776 221.509 227.808 222.037 227.872 222.347C227.936 222.656 228.059 222.864 228.24 222.971C228.432 223.077 228.757 223.131 229.216 223.131C229.771 223.131 230.277 223.093 230.736 223.019V224.715ZM236.948 224.971C235.871 224.971 235.092 224.853 234.612 224.619C234.143 224.384 233.844 223.995 233.716 223.451C233.588 222.896 233.524 222 233.524 220.763C233.524 219.525 233.588 218.635 233.716 218.091C233.844 217.536 234.143 217.141 234.612 216.907C235.092 216.672 235.871 216.555 236.948 216.555C238.026 216.555 238.799 216.672 239.268 216.907C239.738 217.141 240.036 217.536 240.164 218.091C240.303 218.635 240.372 219.525 240.372 220.763C240.372 221.989 240.303 222.88 240.164 223.435C240.036 223.979 239.738 224.373 239.268 224.619C238.799 224.853 238.026 224.971 236.948 224.971ZM236.948 223.131C237.332 223.131 237.594 223.083 237.732 222.987C237.871 222.891 237.956 222.699 237.988 222.411C238.031 222.123 238.052 221.573 238.052 220.763C238.052 219.952 238.031 219.403 237.988 219.115C237.956 218.816 237.871 218.624 237.732 218.539C237.594 218.443 237.332 218.395 236.948 218.395C236.564 218.395 236.298 218.443 236.148 218.539C236.01 218.624 235.924 218.811 235.892 219.099C235.86 219.387 235.844 219.941 235.844 220.763C235.844 221.584 235.86 222.139 235.892 222.427C235.924 222.704 236.01 222.891 236.148 222.987C236.298 223.083 236.564 223.131 236.948 223.131ZM249.494 224.843L248.486 220.459H248.342L247.366 224.843H244.486L242.694 216.683H244.998L245.974 222.315H246.118L247.35 216.683H249.542L250.806 222.315H250.934L251.91 216.683H254.134L252.342 224.843H249.494Z" fill="white"/>
<path d="M118.336 18.4517V9.33166L116.448 10.2117V8.73966L118.816 7.44366H119.984V18.4517H118.336ZM123.808 17.0277H128.896V18.4517H122.208V17.1077C122.208 16.1903 122.234 15.5183 122.288 15.0917C122.352 14.6543 122.496 14.297 122.72 14.0197C122.944 13.7317 123.312 13.465 123.824 13.2197L126.192 12.0837C126.64 11.8703 126.928 11.6517 127.056 11.4277C127.194 11.2037 127.264 10.841 127.264 10.3397C127.264 9.87033 127.2 9.52366 127.072 9.29966C126.954 9.07566 126.746 8.92633 126.448 8.85166C126.16 8.77699 125.717 8.73966 125.12 8.73966C124.362 8.73966 123.456 8.80366 122.4 8.93166V7.60366C122.816 7.51833 123.328 7.44899 123.936 7.39566C124.544 7.34233 125.104 7.31566 125.616 7.31566C126.33 7.31566 126.917 7.37966 127.376 7.50766C127.834 7.63566 128.202 7.91299 128.48 8.33966C128.757 8.75566 128.896 9.37433 128.896 10.1957C128.896 10.825 128.837 11.3317 128.72 11.7157C128.613 12.0997 128.437 12.409 128.192 12.6437C127.957 12.8677 127.632 13.081 127.216 13.2837L124.592 14.5317C124.293 14.6703 124.09 14.8303 123.984 15.0117C123.92 15.1397 123.872 15.305 123.84 15.5077C123.818 15.7103 123.808 16.0037 123.808 16.3877V17.0277ZM135.873 12.9957C135.873 13.977 136.423 14.4677 137.521 14.4677C138.055 14.4677 138.54 14.3877 138.977 14.2277C139.415 14.057 139.863 13.833 140.321 13.5557V9.87566H141.729V18.4517H140.321V14.6277C139.841 14.937 139.367 15.1823 138.897 15.3637C138.439 15.5343 137.884 15.6197 137.233 15.6197C136.359 15.6197 135.676 15.3903 135.185 14.9317C134.705 14.473 134.465 13.8597 134.465 13.0917V9.87566H135.873V12.9957ZM147.702 9.73166C148.747 9.73166 149.52 9.96099 150.022 10.4197C150.523 10.8783 150.774 11.609 150.774 12.6117V18.4517H149.75L149.478 17.2357H149.414C149.04 17.705 148.646 18.0517 148.23 18.2757C147.824 18.4997 147.259 18.6117 146.534 18.6117C145.755 18.6117 145.11 18.409 144.598 18.0037C144.086 17.5877 143.83 16.9423 143.83 16.0677C143.83 15.2143 144.166 14.5583 144.838 14.0997C145.51 13.6303 146.544 13.3743 147.942 13.3317L149.398 13.2837V12.7717C149.398 12.057 149.243 11.561 148.934 11.2837C148.624 11.0063 148.187 10.8677 147.622 10.8677C147.174 10.8677 146.747 10.937 146.342 11.0757C145.936 11.2037 145.558 11.353 145.206 11.5237L144.774 10.4677C145.147 10.265 145.59 10.0943 146.102 9.95566C146.614 9.80633 147.147 9.73166 147.702 9.73166ZM148.118 14.3077C147.051 14.3503 146.31 14.521 145.894 14.8197C145.488 15.1183 145.286 15.5397 145.286 16.0837C145.286 16.5637 145.43 16.9157 145.718 17.1397C146.016 17.3637 146.395 17.4757 146.854 17.4757C147.579 17.4757 148.182 17.2783 148.662 16.8837C149.142 16.4783 149.382 15.8597 149.382 15.0277V14.2597L148.118 14.3077ZM156.863 18.6117C156.105 18.6117 155.428 18.457 154.831 18.1477C154.244 17.8383 153.78 17.3583 153.439 16.7077C153.108 16.057 152.943 15.225 152.943 14.2117C152.943 13.1557 153.119 12.297 153.471 11.6357C153.823 10.9743 154.297 10.489 154.895 10.1797C155.503 9.87033 156.191 9.71566 156.959 9.71566C157.396 9.71566 157.817 9.76366 158.223 9.85966C158.628 9.94499 158.959 10.0517 159.215 10.1797L158.783 11.3477C158.527 11.2517 158.228 11.161 157.887 11.0757C157.545 10.9903 157.225 10.9477 156.927 10.9477C155.241 10.9477 154.399 12.0303 154.399 14.1957C154.399 15.2303 154.601 16.025 155.007 16.5797C155.423 17.1237 156.036 17.3957 156.847 17.3957C157.316 17.3957 157.727 17.3477 158.079 17.2517C158.441 17.1557 158.772 17.0383 159.071 16.8997V18.1477C158.783 18.297 158.463 18.409 158.111 18.4837C157.769 18.569 157.353 18.6117 156.863 18.6117ZM168.566 14.1477C168.566 15.5663 168.203 16.665 167.478 17.4437C166.763 18.2223 165.793 18.6117 164.566 18.6117C163.809 18.6117 163.131 18.441 162.534 18.0997C161.947 17.7477 161.483 17.241 161.142 16.5797C160.801 15.9077 160.63 15.097 160.63 14.1477C160.63 12.729 160.987 11.6357 161.702 10.8677C162.417 10.0997 163.387 9.71566 164.614 9.71566C165.393 9.71566 166.075 9.89166 166.662 10.2437C167.259 10.585 167.723 11.0863 168.054 11.7477C168.395 12.3983 168.566 13.1983 168.566 14.1477ZM162.086 14.1477C162.086 15.161 162.283 15.9663 162.678 16.5637C163.083 17.1503 163.723 17.4437 164.598 17.4437C165.462 17.4437 166.097 17.1503 166.502 16.5637C166.907 15.9663 167.11 15.161 167.11 14.1477C167.11 13.1343 166.907 12.3397 166.502 11.7637C166.097 11.1877 165.457 10.8997 164.582 10.8997C163.707 10.8997 163.073 11.1877 162.678 11.7637C162.283 12.3397 162.086 13.1343 162.086 14.1477ZM177.694 12.0357C177.694 12.569 177.534 12.985 177.214 13.2837C176.894 13.5823 176.483 13.785 175.982 13.8917V13.9557C176.515 14.0303 176.979 14.2223 177.374 14.5317C177.768 14.8303 177.966 15.2997 177.966 15.9397C177.966 16.665 177.694 17.2677 177.15 17.7477C176.616 18.217 175.731 18.4517 174.494 18.4517H170.798V9.87566H174.478C175.086 9.87566 175.63 9.94499 176.11 10.0837C176.6 10.2117 176.984 10.4357 177.262 10.7557C177.55 11.065 177.694 11.4917 177.694 12.0357ZM176.27 12.2117C176.27 11.8063 176.12 11.513 175.822 11.3317C175.534 11.1397 175.059 11.0437 174.398 11.0437H172.206V13.3957H174.141C175.56 13.3957 176.27 13.001 176.27 12.2117ZM176.51 15.9397C176.51 15.449 176.323 15.097 175.95 14.8837C175.576 14.6703 175.027 14.5637 174.302 14.5637H172.206V17.3157H174.334C175.038 17.3157 175.576 17.2143 175.95 17.0117C176.323 16.7983 176.51 16.441 176.51 15.9397Z" fill="white"/>
<g clip-path="url(#clip1)">
<path d="M105.001 7.99933C104.607 8.18971 104.443 8.66324 104.633 9.05656C105.153 10.131 105.417 11.2891 105.417 12.5C105.417 16.8652 101.865 20.4167 97.5 20.4167C93.1348 20.4167 89.5833 16.8652 89.5833 12.5C89.5833 8.13482 93.1348 4.58333 97.5 4.58333C99.3089 4.58333 101.008 5.17399 102.415 6.29133C102.756 6.56366 103.255 6.50664 103.527 6.16435C103.799 5.82225 103.742 5.32397 103.4 5.05203C101.735 3.72866 99.6394 3 97.5 3C92.262 3 88 7.26197 88 12.5C88 17.738 92.262 22 97.5 22C102.738 22 107 17.738 107 12.5C107 11.0485 106.683 9.65746 106.058 8.36714C105.868 7.97285 105.393 7.80856 105.001 7.99933Z" fill="#FFC738"/>
<path d="M97.4997 6.16675C97.0627 6.16675 96.708 6.52141 96.708 6.95841V12.5001C96.708 12.9371 97.0627 13.2917 97.4997 13.2917H101.458C101.895 13.2917 102.25 12.9371 102.25 12.5001C102.25 12.0631 101.895 11.7084 101.458 11.7084H98.2913V6.95841C98.2913 6.52141 97.9367 6.16675 97.4997 6.16675Z" fill="#FFC738"/>
</g>
<defs>
<filter id="filter0_d" x="36.8535" y="29.0291" width="194.139" height="188.337" filterUnits="userSpaceOnUse" color-interpolation-filters="sRGB">
<feFlood flood-opacity="0" result="BackgroundImageFix"/>
<feColorMatrix in="SourceAlpha" type="matrix" values="0 0 0 0 0 0 0 0 0 0 0 0 0 0 0 0 0 0 127 0"/>
<feOffset dy="2"/>
<feGaussianBlur stdDeviation="5"/>
<feColorMatrix type="matrix" values="0 0 0 0 1 0 0 0 0 0.780392 0 0 0 0 0.219608 0 0 0 1 0"/>
<feBlend mode="normal" in2="BackgroundImageFix" result="effect1_dropShadow"/>
<feBlend mode="normal" in="SourceGraphic" in2="effect1_dropShadow" result="shape"/>
</filter>
<filter id="filter1_d" x="177" y="148.799" width="93" height="93.0436" filterUnits="userSpaceOnUse" color-interpolation-filters="sRGB">
<feFlood flood-opacity="0" result="BackgroundImageFix"/>
<feColorMatrix in="SourceAlpha" type="matrix" values="0 0 0 0 0 0 0 0 0 0 0 0 0 0 0 0 0 0 127 0"/>
<feOffset/>
<feGaussianBlur stdDeviation="17.5"/>
<feColorMatrix type="matrix" values="0 0 0 0 1 0 0 0 0 1 0 0 0 0 1 0 0 0 0.74 0"/>
<feBlend mode="normal" in2="BackgroundImageFix" result="effect1_dropShadow"/>
<feBlend mode="normal" in="SourceGraphic" in2="effect1_dropShadow" result="shape"/>
</filter>
<filter id="filter2_d" x="216.571" y="188.383" width="13.8571" height="13.8758" filterUnits="userSpaceOnUse" color-interpolation-filters="sRGB">
<feFlood flood-opacity="0" result="BackgroundImageFix"/>
<feColorMatrix in="SourceAlpha" type="matrix" values="0 0 0 0 0 0 0 0 0 0 0 0 0 0 0 0 0 0 127 0"/>
<feOffset/>
<feGaussianBlur stdDeviation="1"/>
<feColorMatrix type="matrix" values="0 0 0 0 1 0 0 0 0 1 0 0 0 0 1 0 0 0 0.94 0"/>
<feBlend mode="normal" in2="BackgroundImageFix" result="effect1_dropShadow"/>
<feBlend mode="normal" in="SourceGraphic" in2="effect1_dropShadow" result="shape"/>
</filter>
<filter id="filter3_d" x="0.5" y="182.863" width="93" height="93.0436" filterUnits="userSpaceOnUse" color-interpolation-filters="sRGB">
<feFlood flood-opacity="0" result="BackgroundImageFix"/>
<feColorMatrix in="SourceAlpha" type="matrix" values="0 0 0 0 0 0 0 0 0 0 0 0 0 0 0 0 0 0 127 0"/>
<feOffset/>
<feGaussianBlur stdDeviation="17.5"/>
<feColorMatrix type="matrix" values="0 0 0 0 1 0 0 0 0 1 0 0 0 0 1 0 0 0 0.74 0"/>
<feBlend mode="normal" in2="BackgroundImageFix" result="effect1_dropShadow"/>
<feBlend mode="normal" in="SourceGraphic" in2="effect1_dropShadow" result="shape"/>
</filter>
<filter id="filter4_d" x="39.6924" y="222.068" width="14.6154" height="14.6355" filterUnits="userSpaceOnUse" color-interpolation-filters="sRGB">
<feFlood flood-opacity="0" result="BackgroundImageFix"/>
<feColorMatrix in="SourceAlpha" type="matrix" values="0 0 0 0 0 0 0 0 0 0 0 0 0 0 0 0 0 0 127 0"/>
<feOffset/>
<feGaussianBlur stdDeviation="1"/>
<feColorMatrix type="matrix" values="0 0 0 0 1 0 0 0 0 1 0 0 0 0 1 0 0 0 0.94 0"/>
<feBlend mode="normal" in2="BackgroundImageFix" result="effect1_dropShadow"/>
<feBlend mode="normal" in="SourceGraphic" in2="effect1_dropShadow" result="shape"/>
</filter>
<linearGradient id="paint0_linear" x1="221.703" y1="190.64" x2="240.413" y2="200.318" gradientUnits="userSpaceOnUse">
<stop stop-color="white"/>
<stop offset="1" stop-color="white"/>
</linearGradient>
<linearGradient id="paint1_linear" x1="218.677" y1="190.385" x2="228.391" y2="200.074" gradientUnits="userSpaceOnUse">
<stop stop-color="white"/>
<stop offset="1" stop-color="white"/>
</linearGradient>
<linearGradient id="paint2_linear" x1="45.2031" y1="224.704" x2="63.9129" y2="234.383" gradientUnits="userSpaceOnUse">
<stop stop-color="white"/>
<stop offset="1" stop-color="white"/>
</linearGradient>
<linearGradient id="paint3_linear" x1="41.8065" y1="224.07" x2="52.2677" y2="234.504" gradientUnits="userSpaceOnUse">
<stop stop-color="white"/>
<stop offset="1" stop-color="white"/>
</linearGradient>
<clipPath id="clip0">
<rect width="21.081" height="21.8556" fill="white" transform="matrix(-0.23209 -0.972694 0.957411 -0.288729 206.893 183.563)"/>
</clipPath>
<clipPath id="clip1">
<rect width="19" height="19.0361" fill="white" transform="translate(88 3.45728)"/>
</clipPath>
</defs>
</svg>
