<svg width="195" height="80" viewBox="0 0 195 80" fill="none" xmlns="http://www.w3.org/2000/svg">
<path d="M117.553 43.9654L100.001 29.0137V64.1177H105.631L105.962 42.0152L117.553 51.1162L135.105 37.1396V29.0137L117.553 43.9654Z" fill="url(#paint0_linear)"/>
<path d="M117.649 55.1811L108.427 47.0062V54.5271L117.649 62.7021L129.506 52.8922V64.337H135.106V40.4663L117.649 55.1811Z" fill="url(#paint1_linear)"/>
<path d="M139 64.0137V45.0137H153.363V48.0515H143.538V52.8843H152.005V55.9497H143.538V60.9759H153.363V64.0137H139Z" fill="url(#paint2_linear)"/>
<path d="M170.317 64.0137L165.565 57.1648H165.315L160.563 64.0137H155.561L162.6 54.4584L155.704 45.0137H160.813L165.458 51.6416H165.744L170.389 45.0137H175.391L168.495 54.3756L175.498 64.0137H170.317Z" fill="url(#paint3_linear)"/>
<path d="M178.636 45.0137H188.212C190.069 45.0137 191.487 45.2622 192.463 45.7593C193.464 46.238 194.131 46.9284 194.464 47.8305C194.821 48.7143 195 49.8741 195 51.3102C195 52.691 194.833 53.8325 194.5 54.7346C194.166 55.6183 193.499 56.3271 192.499 56.8611C191.499 57.3766 190.046 57.6343 188.14 57.6343H183.174V64.0137H178.636V45.0137ZM186.64 54.5965C187.83 54.5965 188.676 54.5137 189.176 54.348C189.7 54.1639 190.034 53.8601 190.177 53.4366C190.343 52.9948 190.427 52.286 190.427 51.3102C190.427 50.3344 190.343 49.6348 190.177 49.2113C190.034 48.7695 189.712 48.4657 189.212 48.3C188.712 48.1343 187.878 48.0515 186.711 48.0515H183.174V54.5965H186.64Z" fill="url(#paint4_linear)"/>
<g clip-path="url(#clip0)">
<path d="M54.1045 58.1336C40.5842 61.3723 33.867 64.403 33.9527 67.2258C34.0745 71.2947 48.3929 74.9326 76.9079 78.1393C67.6214 79.1714 58.2562 79.2721 48.9496 78.4397C30.0911 76.7344 6.96654 74.6629 1.71303 61.8866C-3.02102 50.3335 7.46182 31.4392 27.3332 17.3474L54.1045 58.1336Z" fill="url(#paint5_linear)" fill-opacity="0.39"/>
<path d="M17.1643 60.8998C12.7581 53.1361 20.6207 38.6582 31.7161 24.0159L54.0966 58.1181C40.5763 61.3567 33.8591 64.3875 33.9448 67.2103C34.0667 71.2792 48.3851 74.917 76.9001 78.1237C76.9001 78.1237 28.2909 80.4663 17.1643 60.8998Z" fill="url(#paint6_linear)"/>
<path d="M1.7158 61.886C-3.01825 50.3329 7.4646 31.4386 27.336 17.3468L29.4757 20.6093C21.4245 25.2748 3.69915 37.2334 1.48433 53.0052C0.649089 58.9669 2.54745 63.6782 5.65181 67.392C3.94469 65.8806 2.59896 63.9981 1.7158 61.886Z" fill="url(#paint7_linear)"/>
<path d="M53.1236 74.7884C11.5496 69.687 44.1913 54.4162 44.1913 54.4162L51.8381 54.666L54.1084 58.1293C40.5881 61.368 35.9418 64.1499 36.0276 66.9727C36.1072 69.6913 40.4252 72.4624 53.1236 74.7884Z" fill="url(#paint8_linear)"/>
<path d="M27.4459 27.5155C27.4459 27.5155 7.39482 40.7049 4.74979 56.5272C2.10476 72.3494 36.594 76.0503 36.594 76.0503C35.8108 75.9557 7.19605 71.7872 8.26 58.6263C9.32394 45.4655 39.2566 36.2719 39.2566 36.2719L27.4459 27.5155Z" fill="url(#paint9_linear)"/>
<path d="M27.4459 27.5155C27.4459 27.5155 7.39482 40.7049 4.74979 56.5272C2.10476 72.3494 36.594 76.0503 36.594 76.0503C35.8108 75.9557 7.19605 71.7872 8.26 58.6263C9.32394 45.4655 39.2566 36.2719 39.2566 36.2719L27.4459 27.5155Z" fill="url(#paint10_linear)"/>
<path d="M33.9905 42.2844C33.5559 42.6286 20.9856 44.1451 16.0217 54.4478C11.0577 64.7505 21.4274 68.3748 21.4274 68.3748C20.6986 68.0659 16.0885 63.8303 17.3719 58.4361C18.6554 53.042 34.7497 47.8855 34.7497 47.8855L33.9905 42.2844Z" fill="url(#paint11_linear)"/>
<path d="M47.9365 46.7104C47.4559 46.9904 34.7976 46.6456 28.3888 56.1091C21.98 65.5726 31.7346 70.684 31.7346 70.684C31.0575 70.2715 27.0942 65.3917 29.1551 60.2563C31.2159 55.1209 47.8915 52.3622 47.8915 52.3622L47.9365 46.7104Z" fill="url(#paint12_linear)"/>
<path d="M56.1423 0.99117L56.1441 34.1909L84.5302 47.4015L84.2463 17.1002L56.1423 0.99117Z" fill="url(#paint13_linear)" stroke="#885300" stroke-width="0.5"/>
<path d="M55.889 34.6647L27.5067 48.6883L27.3419 17.5101L55.7607 1.01636L55.889 34.6647Z" fill="url(#paint14_linear)" stroke="#885300" stroke-width="0.5"/>
<path d="M28.4155 49.4053L27.891 49.2128L28.3841 48.95L55.8822 34.2931L55.9927 34.2342L56.1061 34.2875L70.1072 40.8679L70.1072 40.8679L70.1104 40.8694L83.6115 47.4498L84.1443 47.7095L83.5865 47.9098L53.7308 58.6346L53.6454 58.6653L53.5602 58.634L28.4155 49.4053Z" fill="url(#paint15_linear)" stroke="#885300" stroke-width="0.5"/>
<path d="M74.9861 43.1074L68.5194 40.1509L68.1674 7.38799L74.6419 11.077L74.9861 43.1074Z" fill="#EFDAC1"/>
<path d="M68.5189 40.1507L38.2306 52.1908L45.3782 54.8691L74.9856 43.1072L68.5189 40.1507Z" fill="#EFDAC1"/>
<path d="M83.2966 17.9555L76.6923 14.5044L76.7185 16.9424L83.3228 20.3935L83.2966 17.9555Z" fill="#FFEAE7"/>
<path d="M83.3289 20.9314L78.1483 18.4648L78.1745 20.9028L83.3551 23.3695L83.3289 20.9314Z" fill="#FFEAE7"/>
<path d="M62.536 32.2591L62.5729 35.693L57.9948 33.7274L57.9533 29.87L62.536 32.2591Z" fill="#FFEAE7"/>
<path d="M38.5132 52.081L40.5832 53.0737L38.231 52.1908L38.5132 52.081Z" fill="#C49D72"/>
<path d="M82.552 17.5858L83.3117 17.9592L83.3267 19.3556C83.1062 18.7496 82.8474 18.1584 82.552 17.5858Z" fill="white" fill-opacity="0.38"/>
<path d="M59.456 34.3564L57.9945 33.7272L57.9761 32.0103C58.3985 32.8357 58.8938 33.6209 59.456 34.3564Z" fill="#FFEAE7" fill-opacity="0.35"/>
<path d="M74.846 29.0628C74.846 29.0628 74.2105 12.8217 74.2006 11.8983C74.1906 10.975 71.9381 9.5263 71.9381 9.5263L74.6527 11.0769L74.846 29.0628Z" fill="#FFE9CF"/>
</g>
<defs>
<linearGradient id="paint0_linear" x1="111.702" y1="25.3918" x2="135.332" y2="36.3427" gradientUnits="userSpaceOnUse">
<stop stop-color="#FF9B00"/>
<stop offset="1" stop-color="#FFC738"/>
</linearGradient>
<linearGradient id="paint1_linear" x1="108.427" y1="43.1186" x2="131.543" y2="66.6698" gradientUnits="userSpaceOnUse">
<stop stop-color="#989898"/>
<stop offset="1" stop-color="white"/>
</linearGradient>
<linearGradient id="paint2_linear" x1="139" y1="45.061" x2="182.527" y2="32.6429" gradientUnits="userSpaceOnUse">
<stop stop-color="#FFC738"/>
<stop offset="1" stop-color="#FF9B00"/>
</linearGradient>
<linearGradient id="paint3_linear" x1="139" y1="45.061" x2="182.527" y2="32.6429" gradientUnits="userSpaceOnUse">
<stop stop-color="#FFC738"/>
<stop offset="1" stop-color="#FF9B00"/>
</linearGradient>
<linearGradient id="paint4_linear" x1="139" y1="45.061" x2="182.527" y2="32.6429" gradientUnits="userSpaceOnUse">
<stop stop-color="#FFC738"/>
<stop offset="1" stop-color="#FF9B00"/>
</linearGradient>
<linearGradient id="paint5_linear" x1="38.2116" y1="17.2305" x2="80.2874" y2="81.5947" gradientUnits="userSpaceOnUse">
<stop stop-color="#A7C1FF"/>
<stop offset="0.0001" stop-color="#A7C1FF"/>
<stop offset="0.078125" stop-color="#6075A9" stop-opacity="0.921967"/>
<stop offset="1" stop-color="white" stop-opacity="0.2"/>
</linearGradient>
<linearGradient id="paint6_linear" x1="53.2117" y1="52.4229" x2="38.3634" y2="80.6348" gradientUnits="userSpaceOnUse">
<stop stop-color="#4E5F89"/>
<stop offset="1" stop-color="white" stop-opacity="0"/>
</linearGradient>
<linearGradient id="paint7_linear" x1="32.271" y1="20.8731" x2="5.22656" y2="52.9859" gradientUnits="userSpaceOnUse">
<stop stop-color="white"/>
<stop offset="1" stop-color="white" stop-opacity="0"/>
</linearGradient>
<linearGradient id="paint8_linear" x1="-1872.38" y1="3364.87" x2="-2583.99" y2="3958.19" gradientUnits="userSpaceOnUse">
<stop stop-color="#3E4C6B"/>
<stop offset="1" stop-color="white" stop-opacity="0"/>
</linearGradient>
<linearGradient id="paint9_linear" x1="25.8997" y1="32.4552" x2="22.7911" y2="76.1986" gradientUnits="userSpaceOnUse">
<stop stop-color="#91A8DA"/>
<stop offset="0.932292" stop-color="#738BC0" stop-opacity="0"/>
</linearGradient>
<linearGradient id="paint10_linear" x1="40.3169" y1="32.7809" x2="-3.03588" y2="62.7042" gradientUnits="userSpaceOnUse">
<stop stop-color="#989898"/>
<stop offset="1" stop-color="white" stop-opacity="0"/>
</linearGradient>
<linearGradient id="paint11_linear" x1="34.7204" y1="45.1605" x2="11.1759" y2="62.2475" gradientUnits="userSpaceOnUse">
<stop stop-color="#989898"/>
<stop offset="0.994792" stop-color="white" stop-opacity="0.08"/>
</linearGradient>
<linearGradient id="paint12_linear" x1="47.9649" y1="49.3545" x2="24.6844" y2="67.4964" gradientUnits="userSpaceOnUse">
<stop stop-color="#989898"/>
<stop offset="1" stop-color="white" stop-opacity="0.11"/>
</linearGradient>
<linearGradient id="paint13_linear" x1="74.7059" y1="-4.51802" x2="52.9618" y2="1.8038" gradientUnits="userSpaceOnUse">
<stop stop-color="#FF9B00"/>
<stop offset="1" stop-color="#FFC738"/>
</linearGradient>
<linearGradient id="paint14_linear" x1="57.2488" y1="9.51458" x2="37.5006" y2="2.01149" gradientUnits="userSpaceOnUse">
<stop stop-color="#FF9B00"/>
<stop offset="1" stop-color="#FFC738"/>
</linearGradient>
<linearGradient id="paint15_linear" x1="64.9943" y1="31.9553" x2="44.2349" y2="54.6223" gradientUnits="userSpaceOnUse">
<stop stop-color="#FF9B00"/>
<stop offset="1" stop-color="#FFC738"/>
</linearGradient>
<clipPath id="clip0">
<rect width="85.601" height="78.7394" fill="white" transform="matrix(-0.999942 0.0107455 0.0107455 0.999942 85.5957 0)"/>
</clipPath>
</defs>
</svg>
